<svg width="193" height="58" viewBox="0 0 193 58" fill="none" xmlns="http://www.w3.org/2000/svg">
<rect width="193" height="58" rx="10" fill="#003366"/>
<g clip-path="url(#clip0_1174_12744)">
<path fill-rule="evenodd" clip-rule="evenodd" d="M49.8882 14.0469H53.7003V19.3669C53.7003 20.7887 52.578 21.9523 51.2068 21.9523H49.8882C47.7841 21.9523 46.0762 20.1814 46.0762 17.9996C46.0762 15.8178 47.7841 14.0469 49.8882 14.0469Z" fill="#5799F1"/>
<path fill-rule="evenodd" clip-rule="evenodd" d="M60.5074 14.0471C61.0931 13.4398 61.3246 12.6325 61.3246 11.7561V10.0943C61.3246 7.91251 59.6167 6.1416 57.5125 6.1416C55.4084 6.1416 53.7005 7.91251 53.7005 10.0943V19.3671C53.7005 20.7889 52.5782 21.9525 51.207 21.9525H51.4911C52.4204 21.9525 53.2235 21.6071 53.8828 20.9234L60.5039 14.0471H60.5074Z" fill="white"/>
<path fill-rule="evenodd" clip-rule="evenodd" d="M65.1363 21.9523H61.3242V16.4032C61.3242 15.1087 62.3482 14.0469 63.5967 14.0469H65.1363C67.2404 14.0469 68.9483 15.8178 68.9483 17.9996C68.9483 20.1814 67.2404 21.9523 65.1363 21.9523Z" fill="white"/>
<path fill-rule="evenodd" clip-rule="evenodd" d="M54.5202 21.9523C53.9346 22.5596 53.7031 23.3632 53.7031 24.2396V25.9051C53.7031 28.0869 55.411 29.8578 57.5152 29.8578C59.6193 29.8578 61.3272 28.0869 61.3272 25.9051V16.6323C61.3272 15.2105 62.4494 14.0469 63.8207 14.0469H63.5366C62.6037 14.0469 61.8007 14.3923 61.1414 15.076L54.5202 21.9523Z" fill="#5799F1"/>
<path d="M57.5023 27.7343C58.2015 27.7343 58.7683 27.1466 58.7683 26.4216C58.7683 25.6966 58.2015 25.1089 57.5023 25.1089C56.8031 25.1089 56.2363 25.6966 56.2363 26.4216C56.2363 27.1466 56.8031 27.7343 57.5023 27.7343Z" fill="#003870"/>
<path d="M65.6351 19.3125C66.3343 19.3125 66.9012 18.7247 66.9012 17.9997C66.9012 17.2747 66.3343 16.687 65.6351 16.687C64.936 16.687 64.3691 17.2747 64.3691 17.9997C64.3691 18.7247 64.936 19.3125 65.6351 19.3125Z" fill="#003870"/>
<path d="M86.3496 12.6941C86.6126 12.6941 86.8265 12.6178 86.9878 12.4614C87.1492 12.305 87.2298 12.105 87.2298 11.8541C87.2298 11.6032 87.1492 11.3814 86.9878 11.2178C86.8265 11.0578 86.6126 10.9741 86.3496 10.9741H78.5501C78.2976 10.9741 78.0837 11.0614 77.9119 11.2323C77.74 11.4068 77.6523 11.6287 77.6523 11.9014V24.0141C77.6523 24.2759 77.74 24.4978 77.9119 24.6759C78.0837 24.8541 78.2976 24.945 78.5501 24.945H86.3496C86.6126 24.945 86.8265 24.865 86.9878 24.705C87.1492 24.545 87.2298 24.3305 87.2298 24.0687C87.2298 23.8069 87.1492 23.6141 86.9878 23.4614C86.8265 23.305 86.6126 23.2287 86.3496 23.2287H79.4479V18.7559H84.3997C84.6627 18.7559 84.8767 18.6759 85.038 18.5123C85.1993 18.3523 85.2799 18.145 85.2799 17.8941C85.2799 17.6432 85.1993 17.4396 85.038 17.2759C84.8767 17.1159 84.6627 17.0323 84.3997 17.0323H79.4479V12.6832H86.3496V12.6941Z" fill="white"/>
<path d="M92.9218 23.163H92.4905C92.238 23.163 92.0311 23.0212 91.8697 22.7339C91.7084 22.4466 91.6278 22.083 91.6278 21.643V11.8721C91.6278 11.6103 91.5471 11.3957 91.3858 11.2284C91.2245 11.0612 91.0175 10.9775 90.765 10.9775C90.5125 10.9775 90.3056 11.0612 90.1443 11.2284C89.983 11.3957 89.9023 11.6103 89.9023 11.8721V21.643C89.9023 22.2866 90.0111 22.8575 90.2285 23.3521C90.4459 23.8466 90.751 24.2394 91.1438 24.523C91.5331 24.8103 91.982 24.9521 92.4905 24.9521H92.5255C92.8727 24.9521 93.1533 24.8684 93.3707 24.7012C93.5881 24.5339 93.6969 24.3194 93.6969 24.0575C93.6969 23.7957 93.6232 23.5812 93.4794 23.4139C93.3356 23.2466 93.1498 23.163 92.9183 23.163H92.9218Z" fill="white"/>
<path d="M97.1691 11.2104C96.8569 11.2104 96.5904 11.3268 96.366 11.5595C96.1415 11.7923 96.0293 12.0686 96.0293 12.3923C96.0293 12.7159 96.1415 12.9923 96.366 13.225C96.5904 13.4577 96.8569 13.5741 97.1691 13.5741C97.4812 13.5741 97.7477 13.4577 97.9721 13.225C98.1966 12.9923 98.3088 12.7159 98.3088 12.3923C98.3088 12.0686 98.1966 11.7923 97.9721 11.5595C97.7477 11.3268 97.4812 11.2104 97.1691 11.2104Z" fill="white"/>
<path d="M97.1693 15.1631C96.9168 15.1631 96.7064 15.2467 96.5381 15.414C96.3697 15.5813 96.2891 15.8031 96.2891 16.0758V24.0395C96.2891 24.3013 96.3732 24.5195 96.5381 24.694C96.7064 24.8685 96.9133 24.9522 97.1693 24.9522C97.4253 24.9522 97.6462 24.8649 97.8076 24.694C97.9689 24.5195 98.0495 24.3049 98.0495 24.0395V16.0758C98.0495 15.8031 97.9689 15.5813 97.8076 15.414C97.6462 15.2467 97.4323 15.1631 97.1693 15.1631Z" fill="white"/>
<path d="M106.038 23.163H105.452C105.084 23.163 104.772 23.003 104.519 22.6794C104.267 22.3557 104.141 21.9594 104.141 21.4794V17.0612H105.606C105.848 17.0612 106.045 16.9885 106.192 16.8467C106.343 16.7048 106.417 16.523 106.417 16.3085C106.417 16.0685 106.343 15.8794 106.192 15.7376C106.041 15.5957 105.845 15.523 105.606 15.523H104.141V12.9448C104.141 12.683 104.06 12.4685 103.899 12.3012C103.737 12.1339 103.53 12.0503 103.278 12.0503C103.025 12.0503 102.818 12.1339 102.657 12.3012C102.496 12.4685 102.415 12.683 102.415 12.9448V15.523H101.623C101.381 15.523 101.184 15.5957 101.037 15.7376C100.886 15.8794 100.812 16.0721 100.812 16.3085C100.812 16.523 100.886 16.7012 101.037 16.8467C101.188 16.9885 101.381 17.0612 101.623 17.0612H102.415V21.4794C102.415 22.1339 102.548 22.7267 102.811 23.2503C103.074 23.7739 103.439 24.1885 103.899 24.4939C104.358 24.7994 104.877 24.9485 105.452 24.9485H105.764C106.062 24.9485 106.308 24.8648 106.497 24.6976C106.687 24.5303 106.781 24.3157 106.781 24.0539C106.781 23.7921 106.711 23.5776 106.567 23.4103C106.424 23.243 106.248 23.1594 106.041 23.1594L106.038 23.163Z" fill="white"/>
<path d="M116.45 15.603C115.822 15.2503 115.113 15.0757 114.317 15.0757C113.521 15.0757 112.872 15.2503 112.266 15.5957C111.933 15.7848 111.641 16.0139 111.385 16.2757V11.8903C111.385 11.6175 111.305 11.3957 111.144 11.2284C110.982 11.0612 110.768 10.9775 110.505 10.9775C110.242 10.9775 110.042 11.0612 109.874 11.2284C109.706 11.3957 109.625 11.6175 109.625 11.8903V24.0575C109.625 24.3194 109.709 24.5375 109.874 24.7121C110.042 24.8866 110.249 24.9703 110.505 24.9703C110.761 24.9703 110.982 24.883 111.144 24.7121C111.305 24.5375 111.385 24.323 111.385 24.0575V19.0103C111.385 18.5703 111.501 18.1775 111.729 17.8394C111.961 17.5012 112.269 17.2284 112.662 17.0248C113.055 16.8212 113.49 16.7194 113.974 16.7194C114.503 16.7194 114.973 16.8248 115.38 17.0321C115.787 17.2394 116.113 17.5594 116.355 17.9884C116.597 18.4175 116.716 18.9739 116.716 19.6539V24.0539C116.716 24.3157 116.8 24.5339 116.965 24.7084C117.133 24.883 117.34 24.9666 117.596 24.9666C117.852 24.9666 118.059 24.8794 118.228 24.7084C118.396 24.5339 118.477 24.3194 118.477 24.0539V19.6539C118.477 18.6648 118.294 17.8285 117.933 17.1485C117.572 16.4685 117.074 15.9521 116.45 15.5994V15.603Z" fill="white"/>
<path d="M128.798 15.7449C128.086 15.3085 127.279 15.0903 126.382 15.0903C125.484 15.0903 124.677 15.3085 123.958 15.7449C123.239 16.1812 122.671 16.774 122.25 17.5267C121.83 18.2794 121.619 19.1267 121.619 20.0685C121.619 21.0103 121.812 21.854 122.198 22.5994C122.584 23.3449 123.11 23.934 123.776 24.3703C124.442 24.8067 125.196 25.0249 126.038 25.0249C126.88 25.0249 127.63 24.8067 128.3 24.3703C128.714 24.1012 129.064 23.7667 129.369 23.3776V24.0576C129.369 24.3194 129.454 24.5376 129.618 24.7121C129.787 24.8867 129.994 24.9703 130.25 24.9703C130.506 24.9703 130.713 24.8831 130.881 24.7121C131.049 24.5412 131.13 24.3231 131.13 24.0576V20.0685C131.13 19.1267 130.92 18.2794 130.499 17.5267C130.078 16.774 129.513 16.1812 128.798 15.7449ZM129.04 21.774C128.773 22.2794 128.412 22.6794 127.953 22.974C127.493 23.2649 126.971 23.414 126.382 23.414C125.792 23.414 125.287 23.2685 124.821 22.974C124.355 22.6831 123.986 22.2831 123.716 21.774C123.446 21.2685 123.309 20.6976 123.309 20.0649C123.309 19.4321 123.446 18.8467 123.716 18.3376C123.986 17.8322 124.355 17.4321 124.821 17.1376C125.287 16.8467 125.806 16.6976 126.382 16.6976C126.957 16.6976 127.49 16.8431 127.953 17.1376C128.412 17.4285 128.773 17.8285 129.04 18.3376C129.303 18.8431 129.436 19.4212 129.436 20.0649C129.436 20.7085 129.303 21.2649 129.04 21.774Z" fill="white"/>
<path d="M135.493 11.2104C135.181 11.2104 134.915 11.3268 134.69 11.5595C134.466 11.7923 134.354 12.0686 134.354 12.3923C134.354 12.7159 134.466 12.9923 134.69 13.225C134.915 13.4577 135.181 13.5741 135.493 13.5741C135.805 13.5741 136.072 13.4577 136.296 13.225C136.521 12.9923 136.633 12.7159 136.633 12.3923C136.633 12.0686 136.521 11.7923 136.296 11.5595C136.072 11.3268 135.805 11.2104 135.493 11.2104Z" fill="white"/>
<path d="M135.492 15.1631C135.239 15.1631 135.029 15.2467 134.86 15.414C134.692 15.5813 134.611 15.8031 134.611 16.0758V24.0395C134.611 24.3013 134.696 24.5195 134.86 24.694C135.029 24.8685 135.236 24.9522 135.492 24.9522C135.748 24.9522 135.969 24.8649 136.13 24.694C136.291 24.5195 136.372 24.3049 136.372 24.0395V16.0758C136.372 15.8031 136.291 15.5813 136.13 15.414C135.969 15.2467 135.755 15.1631 135.492 15.1631Z" fill="white"/>
<path d="M146.507 15.4067C146.167 15.174 145.651 15.0576 144.964 15.0576C144.277 15.0576 143.642 15.2249 143.067 15.5594C142.677 15.7849 142.348 16.0685 142.067 16.3994V16.0576C142.067 15.7594 141.994 15.5376 141.85 15.3885C141.706 15.2394 141.489 15.1631 141.205 15.1631C140.92 15.1631 140.717 15.2394 140.566 15.3958C140.415 15.5522 140.342 15.7703 140.342 16.0576V24.054C140.342 24.3522 140.415 24.5776 140.566 24.7267C140.717 24.8758 140.927 24.9485 141.205 24.9485C141.482 24.9485 141.706 24.8722 141.85 24.7158C141.994 24.5594 142.067 24.3413 142.067 24.054V18.8285C142.067 18.2794 142.236 17.8249 142.576 17.4685C142.916 17.1085 143.379 16.8649 143.964 16.734C144.55 16.6031 145.213 16.614 145.949 16.7703C146.1 16.8067 146.237 16.814 146.363 16.7885C146.489 16.7667 146.602 16.7085 146.7 16.6176C146.798 16.5267 146.865 16.3994 146.9 16.2322C146.98 15.9085 146.851 15.6322 146.511 15.3994L146.507 15.4067Z" fill="white"/>
</g>
<path d="M36.116 38.354L37.292 48H35.584L34.814 41.518L32.21 46.908H30.824L28.206 41.532L27.422 48H25.714L26.89 38.354H28.374L31.51 44.99L34.632 38.354H36.116ZM42.5683 38.172H44.3043L42.5403 40.44H41.2383L42.5683 38.172ZM45.2423 44.668C45.2423 44.85 45.2283 45.06 45.2143 45.298H40.1463C40.3283 46.208 41.0283 46.698 42.0083 46.698C42.7083 46.698 43.3943 46.39 43.7723 45.858L44.8643 46.684C44.2623 47.636 43.1003 48.168 41.9103 48.168C39.9642 48.168 38.4803 46.768 38.4803 44.724C38.4803 42.638 40.0343 41.294 41.9103 41.294C43.7723 41.294 45.2423 42.624 45.2423 44.668ZM40.1463 44.164H43.6323C43.5343 43.268 42.8343 42.736 41.9243 42.736C41.0563 42.736 40.3423 43.17 40.1463 44.164ZM48.8499 41.462H50.2359V42.75H48.8499V48H47.2259V42.75H46.0499V41.462H47.2259V39.054H48.8499V41.462ZM55.1317 41.294C56.8117 41.294 57.7497 42.428 57.7497 44.332V48H56.1257V44.444C56.1257 43.394 55.4957 42.834 54.7677 42.834C54.0257 42.834 53.1017 43.268 53.1017 44.542V48H51.4777V37.906H53.1017V42.456C53.4237 41.658 54.4737 41.294 55.1317 41.294ZM62.6648 48.168C60.8028 48.168 59.1928 46.796 59.1928 44.724C59.1928 42.652 60.8028 41.294 62.6648 41.294C64.5268 41.294 66.1508 42.652 66.1508 44.724C66.1508 46.796 64.5268 48.168 62.6648 48.168ZM62.6648 46.656C63.6728 46.656 64.5128 45.872 64.5128 44.724C64.5128 43.604 63.6728 42.806 62.6648 42.806C61.6568 42.806 60.8308 43.604 60.8308 44.724C60.8308 45.872 61.6568 46.656 62.6648 46.656ZM72.6769 42.316V37.906H74.3009V48H72.6769V47.132C72.2289 47.818 71.3049 48.168 70.5069 48.168C68.7849 48.168 67.2869 46.81 67.2869 44.724C67.2869 42.624 68.7709 41.294 70.4929 41.294C71.3189 41.294 72.2289 41.63 72.6769 42.316ZM70.7589 46.656C71.7529 46.656 72.6489 45.858 72.6489 44.71C72.6489 43.562 71.6969 42.806 70.7589 42.806C69.7509 42.806 68.9249 43.618 68.9249 44.71C68.9249 45.802 69.7509 46.656 70.7589 46.656ZM82.6075 44.668C82.6075 44.85 82.5935 45.06 82.5795 45.298H77.5115C77.6935 46.208 78.3935 46.698 79.3735 46.698C80.0735 46.698 80.7595 46.39 81.1375 45.858L82.2295 46.684C81.6275 47.636 80.4655 48.168 79.2755 48.168C77.3295 48.168 75.8455 46.768 75.8455 44.724C75.8455 42.638 77.3995 41.294 79.2755 41.294C81.1375 41.294 82.6075 42.624 82.6075 44.668ZM77.5115 44.164H80.9975C80.8995 43.268 80.1995 42.736 79.2895 42.736C78.4215 42.736 77.7075 43.17 77.5115 44.164ZM90.6668 48.168C88.6088 48.168 87.2228 46.852 87.2228 45.214H88.9168C88.9308 45.97 89.6448 46.656 90.7088 46.656C91.6888 46.656 92.3188 46.054 92.3188 45.298C92.3188 44.626 91.7448 44.234 90.9328 44.01L89.7288 43.674C87.6568 43.142 87.2928 41.896 87.2928 41.056C87.2928 39.348 88.7908 38.186 90.5688 38.186C92.3328 38.186 93.7188 39.278 93.7188 41.084H92.0248C92.0248 40.286 91.4228 39.712 90.5268 39.712C89.7008 39.712 89.0148 40.272 89.0148 41.028C89.0148 41.294 89.0988 41.854 90.2048 42.148L91.3528 42.484C92.8648 42.904 94.0268 43.688 94.0268 45.228C94.0268 46.992 92.5568 48.168 90.6668 48.168ZM97.5845 38.354V46.474H101.337V48H95.8765V38.354H97.5845ZM104.557 44.038V46.474H108.925V48H102.863V38.354H108.785V39.88H104.557V42.484H108.253V44.038H104.557ZM112.555 44.038V46.474H116.923V48H110.861V38.354H116.783V39.88H112.555V42.484H116.251V44.038H112.555ZM118.859 38.354H122.765C124.893 38.354 125.803 39.908 125.803 41.448C125.803 43.016 124.893 44.542 122.765 44.542H120.567V48H118.859V38.354ZM120.567 43.002H122.681C123.689 43.002 124.095 42.232 124.095 41.448C124.095 40.692 123.703 39.88 122.723 39.88H120.567V43.002ZM131.612 45.424H126.698V43.94H131.612V45.424ZM133.72 38.354H137.5C140.258 38.354 141.868 40.454 141.868 43.198C141.868 45.928 140.258 48 137.5 48H133.72V38.354ZM135.428 46.474H137.5C139.25 46.474 140.146 44.99 140.146 43.198C140.146 41.392 139.25 39.88 137.5 39.88H135.428V46.474ZM145.463 44.038V46.474H149.831V48H143.769V38.354H149.691V39.88H145.463V42.484H149.159V44.038H145.463ZM153.461 44.038V46.474H157.829V48H151.767V38.354H157.689V39.88H153.461V42.484H157.157V44.038H153.461ZM159.765 38.354H163.671C165.799 38.354 166.709 39.908 166.709 41.448C166.709 43.016 165.799 44.542 163.671 44.542H161.473V48H159.765V38.354ZM161.473 43.002H163.587C164.595 43.002 165.001 42.232 165.001 41.448C165.001 40.692 164.609 39.88 163.629 39.88H161.473V43.002Z" fill="white"/>
<defs>
<clipPath id="clip0_1174_12744">
<rect width="101" height="24" fill="white" transform="translate(46 6)"/>
</clipPath>
</defs>
</svg>
