<svg width="100" height="100" viewBox="0 0 100 100" fill="none" xmlns="http://www.w3.org/2000/svg">
<g clip-path="url(#clip0_3190_28401)">
<path opacity="0.17" d="M49.9974 94.4299C62.4976 94.4299 73.7764 89.0739 81.7047 80.5352V79.5081C81.7047 76.8928 80.1214 74.6536 77.8739 73.6982C71.2561 81.819 61.2168 87.0078 49.9974 87.0078C38.7779 87.0078 28.7386 81.819 22.1208 73.6982C19.8674 74.6536 18.29 76.8928 18.29 79.5081V80.5352C26.2183 89.0798 37.4971 94.4299 49.9974 94.4299Z" fill="#F98755"/>
<path d="M81.7047 94.4297H78.3546V79.0156C78.3546 77.338 77.0501 75.9761 75.4433 75.9761H24.5515C22.9446 75.9761 21.6401 77.338 21.6401 79.0156V94.4297H18.29V79.0156C18.29 75.4128 21.1006 72.4785 24.5515 72.4785H75.4433C78.8941 72.4785 81.7047 75.4128 81.7047 79.0156V94.4297Z" fill="#0059B2"/>
<path d="M75.6072 74.9179H72.8319V62.7278C72.8319 61.5071 71.7943 60.5104 70.5233 60.5104H29.4716C28.2006 60.5104 27.163 61.5071 27.163 62.7278V74.9179H24.3877V62.7278C24.3877 60.0327 26.6718 57.8447 29.4716 57.8447H70.5172C73.3231 57.8447 75.6072 60.0386 75.6072 62.7278V74.9179Z" fill="#0059B2"/>
<path d="M80.4854 89.5518H19.5098V91.9908H80.4854V89.5518Z" fill="#0059B2"/>
<path d="M48.3936 71.3907C48.4596 70.1414 48.4596 68.7412 48.3936 67.4919C48.3217 66.1279 48.4776 64.7639 48.7414 63.4241C48.7893 63.1767 48.7834 62.9534 48.6634 62.8327C48.5315 62.6999 48.2917 62.6999 48.0219 62.7663C46.7269 63.068 45.3959 63.1646 44.0709 63.062C41.1152 62.8266 36.9243 62.8266 33.9686 63.062C32.6436 63.1706 31.3126 63.062 30.0176 62.7663C29.7478 62.7059 29.502 62.7059 29.3761 62.8327C29.2562 62.9534 29.2442 63.1706 29.2921 63.4181C29.5559 64.7639 29.7118 66.1219 29.6399 67.4919C29.5739 68.7412 29.5739 70.1414 29.6399 71.3907C29.7118 72.7607 29.5559 74.1186 29.2921 75.4645C29.2442 75.7119 29.2562 75.9292 29.3761 76.0499C29.526 76.2008 29.8437 76.1404 30.1975 75.9895C31.9241 75.2593 33.8127 74.9877 35.6893 74.9877H42.3502C44.2268 74.9877 46.1154 75.2593 47.8421 75.9895C48.1958 76.1404 48.5195 76.2008 48.6694 76.0499C48.7893 75.9292 48.8013 75.7119 48.7474 75.4584C48.4836 74.1186 48.3337 72.7546 48.3996 71.3907H48.3936Z" fill="#0059B2"/>
<path d="M70.3448 71.3907C70.4108 70.1414 70.4108 68.7412 70.3448 67.4919C70.2729 66.1279 70.4287 64.7639 70.6925 63.4241C70.7405 63.1767 70.7345 62.9534 70.6146 62.8327C70.4827 62.6999 70.2429 62.6999 69.9731 62.7663C68.6781 63.068 67.3471 63.1646 66.0221 63.062C63.0663 62.8266 58.8755 62.8266 55.9198 63.062C54.5948 63.1706 53.2638 63.062 51.9688 62.7663C51.699 62.7059 51.4532 62.7059 51.3272 62.8327C51.2073 62.9534 51.1953 63.1706 51.2433 63.4181C51.5071 64.7639 51.663 66.1219 51.5911 67.4919C51.5251 68.7412 51.5251 70.1414 51.5911 71.3907C51.663 72.7607 51.5071 74.1186 51.2433 75.4645C51.1953 75.7119 51.2073 75.9292 51.3272 76.0499C51.4771 76.2008 51.7949 76.1404 52.1486 75.9895C53.8753 75.2593 55.7639 74.9877 57.6405 74.9877H64.3014C66.178 74.9877 68.0665 75.2593 69.7932 75.9895C70.147 76.1404 70.4707 76.2008 70.6206 76.0499C70.7405 75.9292 70.7525 75.7119 70.6986 75.4584C70.4348 74.1186 70.2849 72.7546 70.3508 71.3907H70.3448Z" fill="#0059B2"/>
<path d="M42.0735 34.6738L44.0901 39.172L48.7779 39.7988L45.3351 43.2032L46.2177 48.0885L42.0735 45.6919L37.9293 48.0885L38.8119 43.2032L35.3633 39.7988L40.0569 39.172L42.0735 34.6738Z" fill="#0059B2"/>
<path d="M25.6039 34.6738L27.8038 39.172L32.9242 39.7988L29.162 43.2032L30.1313 48.0885L25.6039 45.6919L21.083 48.0885L22.0522 43.2032L18.29 39.7988L23.4104 39.172L25.6039 34.6738Z" fill="#0059B2"/>
<path d="M58.5309 34.6738L60.7308 39.172L65.8512 39.7988L62.089 43.2032L63.0519 48.0885L58.5309 45.6919L54.01 48.0885L54.9792 43.2032L51.217 39.7988L56.3374 39.172L58.5309 34.6738Z" fill="#0059B2"/>
<path d="M75.0005 34.6738L77.0113 39.172L81.7049 39.7988L78.2621 43.2032L79.1447 48.0885L75.0005 45.6919L70.8563 48.0885L71.7389 43.2032L68.2903 39.7988L72.9839 39.172L75.0005 34.6738Z" fill="#0059B2"/>
<path d="M17.9364 78.7682C17.9364 76.1669 19.5372 73.9397 21.8096 72.9894C16.6474 66.7592 13.5417 58.7888 13.5417 50.1176C13.5417 30.2095 29.8916 14.0074 49.9947 14.0074C70.0977 14.0074 86.4476 30.2036 86.4476 50.1176C86.4476 58.7888 83.3419 66.7533 78.1798 72.9894C80.4581 73.9397 82.0529 76.1669 82.0529 78.7682V79.7898C89.3914 72.0154 93.9001 61.5803 93.9001 50.1176C93.9001 26.1352 74.2047 6.625 49.9947 6.625C25.7846 6.625 6.09521 26.1412 6.09521 50.1236C6.09521 61.5862 10.5979 72.0154 17.9424 79.7957V78.7742L17.9364 78.7682Z" fill="#F98755"/>
</g>
<defs>
<clipPath id="clip0_3190_28401">
<rect width="100" height="100" fill="white"/>
</clipPath>
</defs>
</svg>
