<svg width="164" height="100" viewBox="0 0 164 100" fill="none" xmlns="http://www.w3.org/2000/svg">
<g clip-path="url(#clip0_3190_28296)">
<path d="M123.615 64.0259L129.772 59.1934L130.204 23.2997C130.649 22.9504 142.945 11.6895 142.945 11.6895C143.701 11.0044 144.419 10.2726 145.048 9.4691C147.251 6.62418 148.954 3.02205 147.727 1.45891C146.5 -0.104237 142.602 0.689424 139.309 2.15712C138.381 2.56696 137.499 3.09106 136.653 3.67126C136.653 3.67126 122.792 12.9379 122.347 13.2873L87.3793 5.17402L81.2216 10.0065C81.2216 10.0065 111.146 22.1028 110.852 22.3835L95.8969 36.8136L80.8675 35.5679L77.4389 38.2587L89.8793 42.8285L88.0315 44.522C85.9533 46.5221 85.0979 48.771 85.9904 49.9083C86.883 51.0456 89.2707 50.7493 91.7075 49.2062L93.7918 47.8139L95.2732 60.984L98.7019 58.2933L101.065 43.3986L118.636 32.3024C118.947 32.109 123.615 64.0259 123.615 64.0259Z" fill="#BEDEFF"/>
<path d="M24.3583 74.3244C24.3583 75.6329 23.9749 76.9165 23.2583 78.0126V81.4465C23.2583 82.3175 23.4708 83.1802 23.9333 83.9178C24.7291 85.1889 26.0582 85.9516 27.479 86.0432L31.7122 86.3141C32.208 86.3475 53.2532 86.3766 53.6407 86.3766H105.285C105.697 86.3766 126.868 85.6932 127.268 85.639C128.509 85.464 129.743 85.2598 130.976 85.0222L131.655 84.8889C134.163 84.4013 135.988 82.2134 135.988 79.6545C135.988 75.6704 135.822 71.6947 135.497 67.7314L26.2665 68.9358L24.3541 72.3823V74.316L24.3583 74.3244Z" fill="#003366" stroke="#003366" stroke-width="3" stroke-miterlimit="10"/>
<path d="M53.6407 87.0057C53.2615 87.0057 52.9116 86.8306 52.6824 86.5264C52.4532 86.218 52.3824 85.8305 52.4949 85.4596C52.7699 84.5302 52.9116 83.5634 52.9116 82.584C52.9116 77.0121 48.3825 72.4821 42.8119 72.4821C42.5869 72.4821 42.3577 72.4904 42.1285 72.5029C37.212 72.828 33.183 76.7704 32.7538 81.6797C32.6497 82.8841 32.7538 84.0843 33.0705 85.2345C33.183 85.6429 33.0997 86.068 32.8413 86.4056C32.583 86.7431 32.1913 86.939 31.7622 86.939C31.733 86.939 31.7039 86.939 31.6747 86.939L27.4415 86.6681C25.7915 86.5639 24.2833 85.6596 23.4041 84.251C22.9 83.4467 22.6333 82.4757 22.6333 81.4505V77.8289L22.7333 77.6747C23.3833 76.6787 23.7291 75.5202 23.7291 74.3283V72.232L25.7165 68.6439C26.4665 67.2894 27.6623 66.2017 29.0789 65.5808L40.9536 60.3631C41.5661 60.0922 42.1535 59.763 42.6994 59.3796L55.3448 50.4738C59.028 47.8816 63.3529 46.448 67.8569 46.3355L68.1236 46.3271C75.7525 46.1313 83.494 46.0312 91.1229 46.0312C100.502 46.0312 110.01 46.1813 119.38 46.4813L130.434 46.8314C131.888 46.8772 133.117 47.9066 133.422 49.3319C135.538 59.2838 136.609 69.4899 136.609 79.6668C136.609 82.5132 134.572 84.972 131.768 85.5137L131.088 85.6471C129.888 85.8805 128.634 86.0888 127.351 86.268C127.293 86.2764 127.238 86.2805 127.184 86.2805C126.822 86.2805 126.484 86.118 126.259 85.8346C126.03 85.5471 125.943 85.172 126.022 84.8094C126.184 84.0843 126.268 83.3383 126.268 82.5923C126.268 77.0205 121.739 72.4904 116.168 72.4904C115.939 72.4904 115.71 72.4988 115.48 72.5113C110.568 72.8363 106.539 76.7787 106.11 81.688C105.997 82.9549 106.122 84.2093 106.472 85.4179C106.585 85.8013 106.51 86.2014 106.272 86.5223C106.039 86.8348 105.677 87.014 105.285 87.014H53.6407V87.0057Z" fill="white"/>
<path d="M91.1271 46.6526C100.543 46.6526 109.96 46.8026 119.368 47.0985L130.422 47.4486C131.584 47.4861 132.572 48.3154 132.817 49.4531C134.93 59.3842 135.992 69.5069 135.988 79.6588C135.988 82.2135 134.163 84.4056 131.655 84.8932L130.976 85.0265C129.747 85.2641 128.509 85.4683 127.268 85.6433C127.239 85.6433 127.214 85.6475 127.188 85.6475C126.826 85.6475 126.555 85.3057 126.634 84.939C126.805 84.1805 126.893 83.3929 126.893 82.5844C126.893 76.6583 122.093 71.8574 116.168 71.8574C115.926 71.8574 115.685 71.8657 115.439 71.8824C110.21 72.2283 105.943 76.404 105.485 81.6259C105.364 83.0095 105.51 84.3431 105.868 85.585C105.985 85.9809 105.693 86.3809 105.281 86.3809H53.6365C53.2491 86.3809 52.9824 86.0059 53.0907 85.6391C53.3782 84.6723 53.5324 83.6471 53.5324 82.5886C53.5324 76.6624 48.7325 71.8615 42.8077 71.8615C42.566 71.8615 42.3244 71.8699 42.0827 71.8865C36.8496 72.2324 32.583 76.4082 32.1289 81.6342C32.0122 82.9511 32.1414 84.2222 32.4622 85.4099C32.5872 85.8767 32.233 86.3268 31.758 86.3268C31.7414 86.3268 31.7247 86.3268 31.708 86.3268L27.4748 86.0559C26.054 85.9642 24.7208 85.2015 23.9291 83.9305C23.4666 83.1928 23.2541 82.3302 23.2541 81.4592V78.0252C23.9708 76.9291 24.3541 75.6456 24.3541 74.337V72.4033L26.2665 68.9568C26.954 67.7149 28.0332 66.7314 29.3331 66.1604L41.2078 60.9428C41.8577 60.6552 42.4785 60.3052 43.0619 59.8968L55.7073 50.9909C59.278 48.4779 63.5112 47.0777 67.8778 46.9651C67.9653 46.9651 68.0569 46.961 68.1444 46.9568C75.8025 46.7609 83.4648 46.6609 91.1271 46.6609M91.1271 45.4023C83.4898 45.4023 75.7442 45.5024 68.1111 45.6982L67.8445 45.7066C63.2154 45.8233 58.7697 47.2944 54.9865 49.9615L42.3411 58.8674C41.8286 59.23 41.2786 59.5384 40.7036 59.7926L28.829 65.0102C27.2873 65.6853 25.9874 66.8731 25.1707 68.3442L23.2583 71.7907L23.1 72.0741V74.3328C23.1 75.4039 22.7916 76.4416 22.2042 77.3376L22 77.6501V81.4592C22 82.6052 22.3 83.6888 22.8666 84.5931C23.8541 86.1726 25.5457 87.1853 27.3957 87.3061L31.6289 87.577C31.6705 87.577 31.7164 87.5812 31.758 87.5812C32.3789 87.5812 32.9538 87.2978 33.333 86.8018C33.708 86.3101 33.833 85.685 33.6705 85.0849C33.3747 84.0013 33.2747 82.8803 33.3747 81.7467C33.7746 77.1417 37.5579 73.441 42.1661 73.1409C42.3786 73.1284 42.5952 73.1201 42.8119 73.1201C48.0367 73.1201 52.2866 77.3709 52.2866 82.5969C52.2866 83.5137 52.1533 84.4222 51.8949 85.2932C51.7324 85.8475 51.8366 86.4518 52.1824 86.9102C52.5282 87.3728 53.0616 87.6395 53.6407 87.6395H105.285C105.877 87.6395 106.418 87.3686 106.772 86.8977C107.122 86.4268 107.235 85.81 107.072 85.2432C106.743 84.1138 106.627 82.9345 106.731 81.7426C107.135 77.1417 110.914 73.441 115.522 73.1368C115.739 73.1243 115.955 73.1159 116.168 73.1159C121.393 73.1159 125.643 77.3667 125.643 82.5927C125.643 83.2929 125.564 83.993 125.414 84.6723C125.293 85.2182 125.422 85.785 125.772 86.2226C126.118 86.656 126.634 86.906 127.188 86.906C127.272 86.906 127.359 86.9019 127.443 86.8894C128.734 86.706 130.005 86.4976 131.213 86.2642L131.893 86.1309C134.992 85.5308 137.238 82.8136 137.238 79.6713C137.238 69.4527 136.163 59.2008 134.038 49.2072C133.676 47.4986 132.205 46.2692 130.459 46.2108L119.405 45.8608C110.022 45.5649 100.51 45.4107 91.1229 45.4107L91.1271 45.4023Z" fill="#003366"/>
<path d="M24.3583 74.3236C24.3583 75.6322 23.9749 76.9158 23.2583 78.0118V81.4458C23.2583 82.3168 23.4708 83.1795 23.9333 83.9171C24.7291 85.1882 26.0582 85.9508 27.479 86.0425L31.7122 86.3134C32.208 86.3468 32.5955 85.88 32.4664 85.4007C32.1414 84.213 32.0164 82.9419 32.133 81.625C32.5872 76.399 36.8579 72.2232 42.0869 71.8773C48.3367 71.4648 53.5366 76.4157 53.5366 82.5794C53.5366 83.6421 53.3824 84.6631 53.0949 85.6299C52.9866 86.0009 53.2532 86.3718 53.6407 86.3718H105.285C105.697 86.3718 105.989 85.9717 105.872 85.5758C105.51 84.3339 105.368 83.0003 105.489 81.6167C105.947 76.3949 110.214 72.2191 115.443 71.8732C121.697 71.4606 126.897 76.4115 126.897 82.5752C126.897 83.3837 126.805 84.1713 126.639 84.9298C126.551 85.3216 126.872 85.6883 127.272 85.6341C128.513 85.4591 129.747 85.2549 130.98 85.0173L131.659 84.884C134.167 84.3964 135.992 82.2085 135.992 79.6497C135.992 75.6656 135.826 71.6898 135.501 67.7266L26.2707 68.931L24.3583 72.3774V74.3111V74.3236Z" fill="#F8F8F8"/>
<path d="M42.8118 91.8484C37.7036 91.8484 33.5454 87.6892 33.5454 82.5799C33.5454 77.4706 37.7036 73.3115 42.8118 73.3115C47.92 73.3115 52.0782 77.4706 52.0782 82.5799C52.0782 87.6892 47.92 91.8484 42.8118 91.8484Z" fill="#003366"/>
<path d="M42.8118 73.9407C47.5825 73.9407 51.4532 77.8122 51.4532 82.584C51.4532 87.3557 47.5825 91.2273 42.8118 91.2273C38.0411 91.2273 34.1704 87.3557 34.1704 82.584C34.1704 77.8122 38.0411 73.9407 42.8118 73.9407ZM42.8118 72.6904C37.3578 72.6904 32.9204 77.1288 32.9204 82.584C32.9204 88.0392 37.3578 92.4775 42.8118 92.4775C48.2658 92.4775 52.7031 88.0392 52.7031 82.584C52.7031 77.1288 48.2658 72.6904 42.8118 72.6904Z" fill="#003366"/>
<path d="M42.8121 90.8652C47.3844 90.8652 51.091 87.1578 51.091 82.5844C51.091 78.0111 47.3844 74.3037 42.8121 74.3037C38.2398 74.3037 34.5332 78.0111 34.5332 82.5844C34.5332 87.1578 38.2398 90.8652 42.8121 90.8652Z" fill="#F8F8F8"/>
<path d="M42.812 88.4391C46.0451 88.4391 48.666 85.8176 48.666 82.5838C48.666 79.35 46.0451 76.7285 42.812 76.7285C39.5789 76.7285 36.958 79.35 36.958 82.5838C36.958 85.8176 39.5789 88.4391 42.812 88.4391Z" fill="#75A8E9"/>
<path d="M42.812 87.6105C45.5871 87.6105 47.8368 85.3603 47.8368 82.5845C47.8368 79.8088 45.5871 77.5586 42.812 77.5586C40.0368 77.5586 37.7871 79.8088 37.7871 82.5845C37.7871 85.3603 40.0368 87.6105 42.812 87.6105Z" fill="#003366"/>
<path d="M116.168 91.8484C111.06 91.8484 106.901 87.6892 106.901 82.5799C106.901 77.4706 111.06 73.3115 116.168 73.3115C121.276 73.3115 125.434 77.4706 125.434 82.5799C125.434 87.6892 121.276 91.8484 116.168 91.8484Z" fill="#003366"/>
<path d="M116.168 73.9407C120.938 73.9407 124.809 77.8122 124.809 82.584C124.809 87.3557 120.938 91.2273 116.168 91.2273C111.397 91.2273 107.526 87.3557 107.526 82.584C107.526 77.8122 111.397 73.9407 116.168 73.9407ZM116.168 72.6904C110.714 72.6904 106.276 77.1288 106.276 82.584C106.276 88.0392 110.714 92.4775 116.168 92.4775C121.622 92.4775 126.059 88.0392 126.059 82.584C126.059 77.1288 121.622 72.6904 116.168 72.6904Z" fill="#003366"/>
<path d="M116.168 90.8652C120.74 90.8652 124.447 87.1578 124.447 82.5844C124.447 78.0111 120.74 74.3037 116.168 74.3037C111.596 74.3037 107.889 78.0111 107.889 82.5844C107.889 87.1578 111.596 90.8652 116.168 90.8652Z" fill="#F8F8F8"/>
<path d="M43.8076 61.0054L58.4239 50.3159L58.0489 49.5449C57.2447 49.9742 56.4614 50.4493 55.7073 50.9785C55.7073 50.9785 41.8619 60.6429 41.2077 60.9304L41.0327 61.0054H43.8035H43.8076Z" fill="#00336A"/>
<path d="M103.364 83.1058C103.356 82.9308 103.352 82.7599 103.352 82.5807C103.352 82.1681 103.372 81.7597 103.41 81.3555L55.5947 81.693C55.6156 81.9889 55.6281 82.2848 55.6281 82.5807C55.6281 82.8766 55.6156 83.1558 55.5947 83.4392L103.36 83.1016L103.364 83.1058Z" fill="#75A8E9"/>
<path d="M134.909 82.86C135.305 82.339 135.605 81.7473 135.788 81.1055L128.909 81.1555C128.959 81.6264 128.988 82.1015 128.988 82.5849C128.988 82.6933 128.984 82.7975 128.98 82.9058L134.909 82.8641V82.86Z" fill="#75A8E9"/>
<path d="M116.168 88.4391C119.401 88.4391 122.022 85.8176 122.022 82.5838C122.022 79.35 119.401 76.7285 116.168 76.7285C112.935 76.7285 110.314 79.35 110.314 82.5838C110.314 85.8176 112.935 88.4391 116.168 88.4391Z" fill="#75A8E9"/>
<path d="M116.168 87.6105C118.943 87.6105 121.193 85.3603 121.193 82.5845C121.193 79.8088 118.943 77.5586 116.168 77.5586C113.393 77.5586 111.143 79.8088 111.143 82.5845C111.143 85.3603 113.393 87.6105 116.168 87.6105Z" fill="#003366"/>
<path d="M135.496 67.7354L133.209 67.7604C133.338 69.2065 133.446 70.6526 133.534 72.1028C133.576 72.7821 134.134 73.3156 134.817 73.3156H135.846C135.763 71.4527 135.651 69.594 135.496 67.7354Z" fill="#C24958"/>
<path d="M128.246 62.622C129.971 62.6012 131.296 61.0717 131.046 59.3631C130.638 56.5792 130.146 53.812 129.567 51.0573C129.342 49.9946 128.43 49.2236 127.355 49.1861L117.13 48.8569C101.343 48.3526 85.5394 48.3026 69.7482 48.7152C69.6607 48.7152 69.5774 48.7194 69.494 48.7235C65.4608 48.8277 61.5484 50.1363 58.2444 52.4826L45.1614 62.1761C44.5739 62.6095 44.8864 63.543 45.6197 63.5347L128.246 62.622Z" fill="white"/>
<path d="M126.313 62.3008C127.98 62.2842 129.259 60.8047 129.017 59.1544C128.626 56.4706 128.147 53.795 127.588 51.1362C127.372 50.111 126.488 49.365 125.451 49.3317L115.58 49.015C100.339 48.5274 85.0895 48.4815 69.8483 48.8774C69.765 48.8774 69.6816 48.8816 69.6025 48.8858C65.7068 48.9858 61.9319 50.2485 58.7445 52.5115L46.1157 61.8674C45.549 62.2883 45.8532 63.1843 46.5573 63.1802L126.313 62.3008Z" fill="#00336A"/>
<path d="M26.2664 68.94L24.354 72.3865H27.6664C28.8289 72.3865 29.933 71.8864 30.6996 71.0112L32.5746 68.8691L26.2664 68.94Z" fill="#003366"/>
<path fill-rule="evenodd" clip-rule="evenodd" d="M80.0775 53.8711H81.8192V56.2174C81.8192 56.8425 81.3067 57.3551 80.6817 57.3551H80.0775C79.1151 57.3551 78.3359 56.5758 78.3359 55.6131C78.3359 54.6504 79.1151 53.8711 80.0775 53.8711Z" fill="#5795ED"/>
<path fill-rule="evenodd" clip-rule="evenodd" d="M84.9317 53.8707C85.1984 53.604 85.3067 53.2456 85.3067 52.8622V52.1287C85.3067 51.166 84.5276 50.3867 83.5651 50.3867C82.6026 50.3867 81.8235 51.166 81.8235 52.1287V56.217C81.8235 56.8421 81.311 57.3547 80.686 57.3547H80.8152C81.2402 57.3547 81.6068 57.2005 81.9068 56.9005L84.9317 53.8707Z" fill="white"/>
<path fill-rule="evenodd" clip-rule="evenodd" d="M87.0483 57.3551H85.3066V54.9088C85.3066 54.3378 85.7733 53.8711 86.3441 53.8711H87.0483C88.0107 53.8711 88.7899 54.6504 88.7899 55.6131C88.7899 56.5758 88.0107 57.3551 87.0483 57.3551Z" fill="white"/>
<path fill-rule="evenodd" clip-rule="evenodd" d="M82.1943 57.3551C81.9277 57.6218 81.8193 57.976 81.8193 58.3636V59.0971C81.8193 60.0598 82.5985 60.8391 83.5609 60.8391C84.5234 60.8391 85.3026 60.0598 85.3026 59.0971V55.0088C85.3026 54.3837 85.815 53.8711 86.44 53.8711H86.3109C85.8859 53.8711 85.5192 54.0253 85.2151 54.3253L82.1902 57.3551H82.1943Z" fill="#5795ED"/>
<path d="M83.5567 59.9056C83.8765 59.9056 84.1358 59.6463 84.1358 59.3263C84.1358 59.0064 83.8765 58.7471 83.5567 58.7471C83.2368 58.7471 82.9775 59.0064 82.9775 59.3263C82.9775 59.6463 83.2368 59.9056 83.5567 59.9056Z" fill="#003870"/>
<path d="M87.273 56.1918C87.5929 56.1918 87.8521 55.9324 87.8521 55.6125C87.8521 55.2926 87.5929 55.0332 87.273 55.0332C86.9531 55.0332 86.6938 55.2926 86.6938 55.6125C86.6938 55.9324 86.9531 56.1918 87.273 56.1918Z" fill="#003870"/>
<path d="M96.7398 53.2741C96.8606 53.2741 96.9564 53.2408 97.0314 53.1699C97.1064 53.0991 97.1439 53.0116 97.1439 52.9032C97.1439 52.7948 97.1064 52.6948 97.0314 52.624C96.9564 52.5531 96.8606 52.5156 96.7398 52.5156H93.1774C93.0607 52.5156 92.9649 52.5531 92.8857 52.6281C92.8065 52.7032 92.769 52.8032 92.769 52.924V58.2625C92.769 58.3792 92.8107 58.4751 92.8857 58.5543C92.9607 58.6334 93.0607 58.671 93.1774 58.671H96.7398C96.8606 58.671 96.9564 58.6376 97.0314 58.5668C97.1064 58.4959 97.1439 58.4001 97.1439 58.2876C97.1439 58.1709 97.1064 58.0875 97.0314 58.0208C96.9564 57.95 96.8606 57.9166 96.7398 57.9166H93.5857V55.9454H95.8481C95.9689 55.9454 96.0648 55.9121 96.1398 55.8371C96.2148 55.7662 96.2523 55.6746 96.2523 55.5662C96.2523 55.4578 96.2148 55.3662 96.1398 55.2953C96.0648 55.2245 95.9689 55.187 95.8481 55.187H93.5857V53.2699H96.7398V53.2741Z" fill="white"/>
<path d="M99.7436 57.8882H99.5478C99.4311 57.8882 99.3395 57.8257 99.2645 57.7007C99.1895 57.5756 99.152 57.4131 99.152 57.2214V52.9164C99.152 52.7997 99.1145 52.708 99.0395 52.633C98.9645 52.558 98.8728 52.5205 98.7562 52.5205C98.6395 52.5205 98.5478 52.558 98.4728 52.633C98.3978 52.708 98.3604 52.7997 98.3604 52.9164V57.2214C98.3604 57.5048 98.4104 57.7548 98.5103 57.9757C98.6103 58.1966 98.7478 58.3674 98.927 58.4925C99.1062 58.6175 99.3103 58.68 99.5436 58.68H99.5603C99.7186 58.68 99.8478 58.6425 99.9478 58.5675C100.048 58.4925 100.098 58.4008 100.098 58.2841C100.098 58.1674 100.064 58.0757 99.9978 58.0007C99.9311 57.9257 99.8478 57.8882 99.7395 57.8882H99.7436Z" fill="white"/>
<path d="M101.685 52.6201C101.544 52.6201 101.423 52.6701 101.319 52.7743C101.215 52.8785 101.165 52.9994 101.165 53.141C101.165 53.2827 101.215 53.4036 101.319 53.5078C101.423 53.612 101.544 53.662 101.685 53.662C101.827 53.662 101.948 53.612 102.052 53.5078C102.156 53.4036 102.206 53.2827 102.206 53.141C102.206 52.9994 102.156 52.8785 102.052 52.7743C101.948 52.6701 101.827 52.6201 101.685 52.6201Z" fill="white"/>
<path d="M101.686 54.3623C101.569 54.3623 101.473 54.3998 101.398 54.4748C101.323 54.5498 101.286 54.6457 101.286 54.7665V58.2755C101.286 58.3922 101.323 58.4881 101.398 58.5631C101.473 58.6381 101.569 58.6756 101.686 58.6756C101.802 58.6756 101.902 58.6381 101.977 58.5631C102.052 58.4881 102.09 58.3922 102.09 58.2755V54.7665C102.09 54.6457 102.052 54.5498 101.977 54.4748C101.902 54.3998 101.806 54.3623 101.686 54.3623Z" fill="white"/>
<path d="M105.735 57.8873H105.469C105.302 57.8873 105.156 57.8164 105.044 57.6747C104.927 57.533 104.869 57.358 104.869 57.1455V55.1992H105.54C105.652 55.1992 105.74 55.1659 105.806 55.1034C105.877 55.0409 105.91 54.9617 105.91 54.8659C105.91 54.7617 105.877 54.6783 105.806 54.6158C105.735 54.5533 105.648 54.52 105.54 54.52H104.869V53.3822C104.869 53.2655 104.831 53.1739 104.756 53.0989C104.681 53.0238 104.59 52.9863 104.473 52.9863C104.356 52.9863 104.265 53.0238 104.19 53.0989C104.115 53.1739 104.077 53.2655 104.077 53.3822V54.52H103.715C103.602 54.52 103.515 54.5533 103.448 54.6158C103.377 54.6783 103.344 54.7617 103.344 54.8659C103.344 54.9617 103.377 55.0409 103.448 55.1034C103.519 55.1659 103.606 55.1992 103.715 55.1992H104.077V57.1455C104.077 57.433 104.14 57.6956 104.256 57.9248C104.373 58.154 104.544 58.3373 104.752 58.4749C104.96 58.6082 105.198 58.6749 105.46 58.6749H105.602C105.74 58.6749 105.852 58.6374 105.935 58.5624C106.019 58.4874 106.065 58.3957 106.065 58.279C106.065 58.1623 106.031 58.0706 105.969 57.9956C105.906 57.9206 105.823 57.8831 105.727 57.8831L105.735 57.8873Z" fill="white"/>
<path d="M110.493 54.5538C110.206 54.3996 109.881 54.3204 109.518 54.3204C109.156 54.3204 108.86 54.3954 108.581 54.5496C108.427 54.633 108.298 54.733 108.177 54.8497V52.916C108.177 52.7951 108.139 52.6993 108.064 52.6242C107.989 52.5492 107.893 52.5117 107.773 52.5117C107.652 52.5117 107.56 52.5492 107.485 52.6242C107.41 52.6993 107.373 52.7951 107.373 52.916V58.2795C107.373 58.3962 107.41 58.492 107.485 58.567C107.56 58.642 107.656 58.6796 107.773 58.6796C107.889 58.6796 107.989 58.642 108.064 58.567C108.139 58.492 108.177 58.3962 108.177 58.2795V56.0541C108.177 55.8582 108.231 55.6873 108.335 55.5373C108.439 55.3873 108.581 55.2664 108.76 55.1789C108.939 55.0872 109.139 55.0455 109.36 55.0455C109.602 55.0455 109.818 55.0914 110.002 55.1831C110.189 55.2747 110.335 55.4164 110.447 55.604C110.56 55.7915 110.614 56.0374 110.614 56.3374V58.2753C110.614 58.392 110.652 58.4879 110.727 58.5629C110.802 58.6379 110.897 58.6754 111.014 58.6754C111.131 58.6754 111.227 58.6379 111.302 58.5629C111.377 58.4879 111.414 58.392 111.414 58.2753V56.3374C111.414 55.8999 111.331 55.5331 111.164 55.2331C110.997 54.933 110.772 54.7038 110.485 54.5496L110.493 54.5538Z" fill="white"/>
<path d="M116.135 54.6167C115.81 54.425 115.439 54.3291 115.031 54.3291C114.623 54.3291 114.252 54.425 113.923 54.6167C113.593 54.8084 113.335 55.0709 113.143 55.4001C112.952 55.7335 112.856 56.1044 112.856 56.5212C112.856 56.9379 112.943 57.3088 113.118 57.6381C113.293 57.9673 113.535 58.2257 113.839 58.4174C114.143 58.6091 114.489 58.7049 114.873 58.7049C115.256 58.7049 115.602 58.6091 115.906 58.4174C116.093 58.3007 116.256 58.1507 116.393 57.9798V58.2799C116.393 58.3965 116.431 58.4924 116.506 58.5674C116.581 58.6424 116.677 58.6799 116.793 58.6799C116.91 58.6799 117.006 58.6424 117.081 58.5674C117.156 58.4924 117.193 58.3965 117.193 58.2799V56.5212C117.193 56.1044 117.097 55.7335 116.906 55.4001C116.714 55.0667 116.456 54.8084 116.127 54.6167H116.135ZM116.248 57.2755C116.127 57.4964 115.96 57.6756 115.752 57.8048C115.543 57.934 115.302 58.0006 115.035 58.0006C114.764 58.0006 114.535 57.9381 114.323 57.8048C114.11 57.6756 113.939 57.5005 113.818 57.2755C113.693 57.0546 113.631 56.8004 113.631 56.5212C113.631 56.242 113.693 55.9836 113.818 55.7585C113.943 55.5377 114.11 55.3585 114.323 55.2293C114.535 55.1001 114.773 55.0334 115.035 55.0334C115.298 55.0334 115.543 55.0959 115.752 55.2293C115.96 55.3585 116.127 55.5335 116.248 55.7585C116.368 55.9794 116.427 56.2378 116.427 56.5212C116.427 56.8046 116.364 57.0505 116.248 57.2755Z" fill="white"/>
<path d="M119.198 52.6201C119.056 52.6201 118.935 52.6701 118.831 52.7743C118.727 52.8785 118.677 52.9994 118.677 53.141C118.677 53.2827 118.727 53.4036 118.831 53.5078C118.935 53.612 119.056 53.662 119.198 53.662C119.339 53.662 119.46 53.612 119.564 53.5078C119.668 53.4036 119.718 53.2827 119.718 53.141C119.718 52.9994 119.668 52.8785 119.564 52.7743C119.46 52.6701 119.339 52.6201 119.198 52.6201Z" fill="white"/>
<path d="M119.197 54.3623C119.081 54.3623 118.985 54.3998 118.91 54.4748C118.835 54.5498 118.797 54.6457 118.797 54.7665V58.2755C118.797 58.3922 118.835 58.4881 118.91 58.5631C118.985 58.6381 119.081 58.6756 119.197 58.6756C119.314 58.6756 119.414 58.6381 119.489 58.5631C119.564 58.4881 119.602 58.3922 119.602 58.2755V54.7665C119.602 54.6457 119.564 54.5498 119.489 54.4748C119.414 54.3998 119.318 54.3623 119.197 54.3623Z" fill="white"/>
<path d="M124.23 54.4706C124.076 54.3664 123.839 54.3164 123.526 54.3164C123.214 54.3164 122.922 54.3914 122.66 54.5373C122.48 54.6373 122.33 54.7623 122.201 54.9082V54.7582C122.201 54.6248 122.168 54.5289 122.101 54.4623C122.035 54.3956 121.935 54.3622 121.805 54.3622C121.676 54.3622 121.585 54.3956 121.514 54.4664C121.443 54.5373 121.41 54.6331 121.41 54.7582V58.2838C121.41 58.4172 121.443 58.513 121.514 58.5797C121.585 58.6464 121.68 58.6756 121.805 58.6756C121.93 58.6756 122.035 58.6422 122.101 58.5714C122.168 58.5005 122.201 58.4047 122.201 58.2797V55.9751C122.201 55.7333 122.276 55.5333 122.435 55.3749C122.589 55.2166 122.801 55.1082 123.068 55.0499C123.335 54.9915 123.639 54.9957 123.976 55.0665C124.047 55.0832 124.11 55.0874 124.164 55.0749C124.222 55.0665 124.272 55.0415 124.318 54.9999C124.364 54.9582 124.393 54.904 124.41 54.829C124.447 54.6873 124.389 54.5665 124.23 54.4623V54.4706Z" fill="white"/>
<path d="M37.2658 44.8641L30.9743 36.0582L26.7036 24.7394L24.6245 23.8018L26.2536 36.9251L31.8576 46.0518L37.2658 44.8641Z" fill="#EBB187"/>
<path d="M25.7662 27.4817C24.6579 26.6232 24.0996 25.2146 24.3454 23.9102C25.0704 24.1894 25.8078 24.7687 26.0537 25.4479C26.2995 26.1272 26.1703 26.8649 25.7662 27.4817Z" fill="#EBB187"/>
<path d="M48.1905 96.2245C48.4614 96.1704 48.7155 96.0537 48.9322 95.8828C48.9613 96.1745 49.0363 96.4663 49.1822 96.6871C49.2655 96.8122 49.3488 96.9288 49.4238 97.033C49.2197 97.0122 49.0072 97.0497 48.8238 97.1372C48.5572 97.2664 48.3447 97.504 48.2489 97.7832C47.7864 97.7415 47.3781 97.4539 47.1572 97.0539C47.2239 96.7997 47.2781 96.6038 47.2781 96.6038L47.2531 96.1495C47.553 96.2579 47.878 96.2829 48.1905 96.2245Z" fill="#00336A"/>
<path d="M47.1572 97.0542C47.378 97.4584 47.7863 97.746 48.2488 97.7835C48.3447 97.5042 48.5571 97.2667 48.8238 97.1375C49.0113 97.0458 49.2196 97.0125 49.4238 97.0333C49.4696 97.0958 49.5113 97.1584 49.5529 97.2125C49.7863 97.5251 50.0196 97.8668 50.4404 98.0669C50.8696 98.2711 51.3654 98.6628 51.5529 98.917C51.8362 99.2921 51.7404 99.6713 51.5946 99.813C51.2362 100.159 50.1946 100.009 49.3196 99.538C48.5863 99.1421 47.803 98.8045 47.5238 98.7086C47.2947 98.6295 47.0989 98.4586 47.0155 98.2294C47.0072 98.2086 46.9989 98.1877 46.9947 98.1627C46.9447 97.9752 47.0572 97.4417 47.1572 97.05V97.0542Z" fill="#00336A"/>
<path d="M45.0491 67.4524H44.8491V63.9434H50.9781L50.1698 96.9704H46.8782C46.8782 96.9704 45.6116 83.022 45.8158 79.2213L45.0533 67.4565L45.0491 67.4524Z" fill="#00336A"/>
<path d="M41.5033 96.2245C41.2325 96.1704 40.9783 96.0537 40.7617 95.8828C40.7325 96.1745 40.6575 96.4663 40.5117 96.6871C40.4283 96.8122 40.345 96.9288 40.27 97.033C40.4742 97.0122 40.6867 97.0497 40.87 97.1372C41.1367 97.2664 41.3492 97.504 41.445 97.7832C41.9075 97.7415 42.3158 97.4539 42.5366 97.0539C42.47 96.7997 42.4158 96.6038 42.4158 96.6038L42.4408 96.1495C42.1408 96.2579 41.8158 96.2829 41.5033 96.2245Z" fill="#00336A"/>
<path d="M42.5366 97.0542C42.3158 97.4584 41.9074 97.746 41.445 97.7835C41.3491 97.5042 41.1366 97.2667 40.87 97.1375C40.6825 97.0458 40.4742 97.0125 40.27 97.0333C40.2242 97.0958 40.1825 97.1584 40.1408 97.2125C39.9075 97.5251 39.6742 97.8668 39.2534 98.0669C38.8242 98.2711 38.3284 98.6628 38.1409 98.917C37.8576 99.2921 37.9534 99.6713 38.0992 99.813C38.4575 100.159 39.4992 100.009 40.3742 99.538C41.1075 99.1421 41.8908 98.8045 42.1699 98.7086C42.3991 98.6295 42.5949 98.4586 42.6783 98.2294C42.6866 98.2086 42.6949 98.1877 42.6991 98.1627C42.7491 97.9752 42.6366 97.4417 42.5366 97.05V97.0542Z" fill="#00336A"/>
<path d="M44.6448 67.4524H44.8448V63.9434H38.7158L39.5241 96.9704H42.8157C42.8157 96.9704 44.0823 83.022 43.8782 79.2213L44.6406 67.4565L44.6448 67.4524Z" fill="#00336A"/>
<path d="M52.4404 44.8641L58.7361 36.0582L63.0068 24.7394L65.0817 23.8018L63.4568 36.9251L56.3361 49.5775L52.4404 44.8641Z" fill="#EBB187"/>
<path d="M34.1037 49.7159C34.1037 49.7159 34.0912 49.6825 34.0787 49.67C32.4204 48.0906 28.9663 42.8062 28.9663 42.8062L34.8245 41.2393L37.4994 43.9064L41.4868 44.5315L38.4119 53.0207C36.5244 51.2745 34.462 50.3618 34.1037 49.7159Z" fill="#F6F6F6"/>
<path d="M44.5071 42.4685C45.6696 42.6686 46.8362 42.1143 47.4571 41.11C47.9445 40.3223 48.3237 39.4721 48.5779 38.5803C48.7278 38.0635 48.832 37.5093 48.682 36.9883C48.4529 36.1965 47.6987 35.6964 46.9987 35.2672C46.3821 34.8879 45.7404 34.4962 45.0238 34.3878C44.3071 34.2795 43.0114 34.6504 42.6489 35.2797C42.0447 35.163 41.6489 35.5964 41.3989 36.0215C41.1489 36.4466 41.0447 37.2301 41.0656 37.7218C41.0906 38.2886 41.3406 38.6803 41.6989 39.4555C41.9864 40.0764 41.9781 40.8224 42.3989 41.36C42.8447 41.9268 43.5322 42.2602 44.2405 42.4102C44.328 42.4269 44.4155 42.4477 44.503 42.4602L44.5071 42.4685Z" fill="#424855"/>
<path d="M55.9069 50.1944C55.9069 50.1944 55.9194 50.161 55.9319 50.1485C57.5902 48.5691 60.7818 42.7721 60.7818 42.7721L55.3653 40.4092L53.1112 43.1847L49.1821 44.5266L51.0112 53.8117C52.9362 52.7115 55.5528 50.8362 55.9111 50.1902L55.9069 50.1944Z" fill="#F6F6F6"/>
<path d="M52.603 45.6818L52.178 45.5276L47.2406 43.9814L44.8574 45.1275L42.4741 43.9814L38.4867 45.24C37.7951 45.4567 37.1493 45.8026 36.591 46.2485L36.5576 51.4787L38.4742 62.535C37.6617 63.6435 38.5951 64.3395 38.5951 64.3395H51.1113C51.1113 64.3395 52.0447 63.6435 51.2322 62.535L53.4821 50.0993L52.5988 45.6818H52.603Z" fill="#F6F6F6"/>
<path d="M63.94 27.4817C65.0483 26.6232 65.6066 25.2146 65.3608 23.9102C64.6358 24.1894 63.8983 24.7687 63.6525 25.4479C63.4066 26.1272 63.5358 26.8649 63.94 27.4817Z" fill="#EBB187"/>
<path d="M45.8403 43.4358V41.9355L44.8529 42.6315L43.8654 41.9355V43.4358L42.5029 43.9818C42.6904 44.3652 42.9821 44.6486 43.2987 44.8569C44.2362 45.4737 45.4695 45.4737 46.407 44.8569C46.7236 44.6486 47.0153 44.3652 47.2028 43.9818L45.8403 43.4358Z" fill="#EBB187"/>
<path d="M45.8407 42.7063V41.9395L44.8532 42.0228L43.8657 41.9395V43.1772C44.6532 43.3314 45.2948 43.1647 45.8365 42.7063H45.8407Z" fill="#D7956F"/>
<path d="M42.524 39.9598C42.5323 39.6764 42.2282 39.443 41.949 39.4805C41.6657 39.518 41.4449 39.7764 41.4074 40.0598C41.3657 40.339 41.4824 40.6308 41.6699 40.8433C41.8532 41.0517 42.1448 41.2059 42.4032 41.11C42.6198 41.0308 42.7532 40.7933 42.7657 40.5641C42.774 40.3307 42.6782 40.1098 42.5532 39.9139L42.5282 39.9598H42.524Z" fill="#D7956F"/>
<path d="M48.3073 40.0598C48.2656 39.7806 48.0448 39.518 47.7656 39.4805C47.4823 39.443 47.1823 39.6764 47.1906 39.9598L47.1656 39.9139C47.0406 40.1098 46.9448 40.3307 46.9531 40.5641C46.9615 40.7974 47.0948 41.0308 47.3156 41.11C47.5781 41.2059 47.8698 41.0517 48.0489 40.8433C48.2364 40.6308 48.3531 40.3432 48.3114 40.0598H48.3073Z" fill="#D7956F"/>
<path d="M44.8574 36.1758C43.4783 36.1758 42.3491 37.3052 42.3491 38.6846V40.1265C42.3491 41.506 43.4783 42.6353 44.8574 42.6353C46.2365 42.6353 47.3656 41.506 47.3656 40.1265V38.6846C47.3656 37.3052 46.2365 36.1758 44.8574 36.1758Z" fill="#EBB187"/>
<path d="M64.3817 12H25.0454V32.7289H64.3817V12Z" fill="#00336A"/>
<path d="M63.0653 21.2061C62.9236 21.2603 62.757 21.1603 62.7111 21.0186C62.6611 20.8769 62.7111 20.7144 62.807 20.5977C62.8986 20.481 63.032 20.4018 63.1611 20.3268C63.4278 20.1809 63.7069 20.0601 63.9903 19.9642C64.1653 19.9059 64.3486 19.8559 64.5361 19.8642C64.7236 19.8767 64.9111 19.9559 65.0111 20.1142C65.1736 20.3685 65.0569 20.6977 64.9361 20.9727C65.1777 21.0352 65.4111 21.3645 65.4694 21.6062C65.5277 21.8479 65.4402 22.123 65.2527 22.2855C65.4819 22.3397 65.6486 22.6147 65.7027 22.8481C65.7527 23.0815 65.6611 23.3357 65.4777 23.4815C65.6486 23.5607 65.6319 23.9525 65.5569 24.1275C65.4861 24.3025 65.3069 24.4192 65.1236 24.4651C64.9402 24.5109 64.7486 24.5026 64.5569 24.4901C64.0153 24.4526 63.4695 24.4026 62.957 24.2192C62.8195 24.1692 62.6861 24.1108 62.5778 24.0108C62.4695 23.9108 62.4028 23.7649 62.4278 23.6232C62.4528 23.4815 62.5903 23.3565 62.732 23.3774C62.582 23.319 62.4695 23.1648 62.3612 23.0481C62.2528 22.9314 62.1862 22.7606 62.2278 22.6064C62.2695 22.4522 62.4445 22.3313 62.5986 22.3813C62.4653 22.323 62.4653 22.2021 62.357 22.1021C62.2487 22.0021 62.1612 21.8646 62.1695 21.7145C62.182 21.5187 62.3487 21.3603 62.5361 21.302C62.7236 21.2436 62.8653 21.1853 63.0611 21.2019L63.0653 21.2061Z" fill="#EBB187"/>
<path d="M26.6412 21.2061C26.7828 21.2603 26.9495 21.1603 26.9953 21.0186C27.0412 20.8769 26.9953 20.7144 26.8995 20.5977C26.8078 20.481 26.6745 20.4018 26.5453 20.3268C26.2787 20.1809 26.0037 20.0601 25.7162 19.9642C25.5412 19.9059 25.3579 19.8559 25.1704 19.8642C24.9829 19.8767 24.7954 19.9559 24.6954 20.1142C24.5329 20.3685 24.6496 20.6977 24.7704 20.9727C24.5287 21.0352 24.2954 21.3645 24.2371 21.6062C24.1788 21.8479 24.2662 22.123 24.4537 22.2855C24.2246 22.3397 24.0579 22.6147 24.0038 22.8481C23.9538 23.0815 24.0454 23.3357 24.2288 23.4815C24.0579 23.5607 24.0746 23.9525 24.1496 24.1275C24.2204 24.3025 24.3996 24.4192 24.5829 24.4651C24.7662 24.5109 24.9579 24.5026 25.1496 24.4901C25.6912 24.4526 26.237 24.4026 26.7495 24.2192C26.887 24.1692 27.0203 24.1108 27.1287 24.0108C27.237 23.9108 27.3037 23.7649 27.2787 23.6232C27.2537 23.4815 27.1162 23.3565 26.9745 23.3774C27.1245 23.319 27.237 23.1648 27.3453 23.0481C27.4537 22.9314 27.5203 22.7606 27.4787 22.6064C27.437 22.4522 27.262 22.3313 27.1078 22.3813C27.2412 22.323 27.2412 22.2021 27.3495 22.1021C27.462 22.0063 27.5453 21.8646 27.537 21.7145C27.5245 21.5187 27.3578 21.3603 27.1703 21.302C26.9828 21.2436 26.8412 21.1853 26.6453 21.2019L26.6412 21.2061Z" fill="#EBB187"/>
<path d="M42.9284 37.6548C43.3075 38.1632 43.9325 38.4466 44.5617 38.5299C45.1158 38.605 45.5366 38.6633 46.0575 38.6008C46.1366 38.5925 46.1741 38.4966 46.12 38.4341C45.9741 38.2632 45.8908 38.0423 45.695 37.9132C46.445 38.2215 46.8449 39.055 47.4658 39.5801C47.6199 38.98 47.5366 38.3632 47.3158 37.7881C47.0991 37.2089 46.6991 36.7004 46.1908 36.3504C45.4741 35.8628 44.5325 35.7044 43.7117 35.9753C42.8909 36.2462 42.2159 36.9588 42.0326 37.8048C41.9618 38.1382 41.9618 38.4841 42.0034 38.8258C42.0284 39.0342 42.0409 39.6593 42.3284 39.3509C42.5284 39.1384 42.6617 38.8133 42.7576 38.5383C42.8117 38.3882 43.0284 37.7923 42.9201 37.6548H42.9284Z" fill="#424855"/>
<path fill-rule="evenodd" clip-rule="evenodd" d="M31.3871 20.8606H32.5038V22.3609C32.5038 22.761 32.1746 23.0902 31.7746 23.0902H31.3871C30.7705 23.0902 30.2705 22.5901 30.2705 21.9733C30.2705 21.3565 30.7705 20.8564 31.3871 20.8564V20.8606Z" fill="#5795ED"/>
<path fill-rule="evenodd" clip-rule="evenodd" d="M34.4954 20.8607C34.6663 20.6898 34.7329 20.4606 34.7329 20.2148V19.7438C34.7329 19.127 34.2329 18.627 33.6163 18.627C32.9996 18.627 32.4997 19.127 32.4997 19.7438V22.361C32.4997 22.7611 32.1705 23.0903 31.7705 23.0903H31.8538C32.1247 23.0903 32.3622 22.9944 32.5538 22.7986L34.4913 20.8565L34.4954 20.8607Z" fill="white"/>
<path fill-rule="evenodd" clip-rule="evenodd" d="M35.8495 23.0941H34.7329V21.5271C34.7329 21.1604 35.0329 20.8604 35.3996 20.8604H35.8495C36.4662 20.8604 36.9662 21.3604 36.9662 21.9772C36.9662 22.594 36.4662 23.0941 35.8495 23.0941Z" fill="white"/>
<path fill-rule="evenodd" clip-rule="evenodd" d="M32.7453 23.0948C32.5745 23.2657 32.5078 23.4949 32.5078 23.7408V24.2117C32.5078 24.8285 33.0078 25.3286 33.6244 25.3286C34.2411 25.3286 34.7411 24.8285 34.7411 24.2117V21.5945C34.7411 21.1945 35.0702 20.8652 35.4702 20.8652H35.3869C35.1161 20.8652 34.8786 20.9611 34.6869 21.157L32.7495 23.099L32.7453 23.0948Z" fill="#5795ED"/>
<path d="M33.6164 24.7242C33.8212 24.7242 33.9873 24.5582 33.9873 24.3533C33.9873 24.1485 33.8212 23.9824 33.6164 23.9824C33.4116 23.9824 33.2456 24.1485 33.2456 24.3533C33.2456 24.5582 33.4116 24.7242 33.6164 24.7242Z" fill="#003870"/>
<path d="M35.9953 22.3483C36.2001 22.3483 36.3662 22.1822 36.3662 21.9773C36.3662 21.7725 36.2001 21.6064 35.9953 21.6064C35.7905 21.6064 35.6245 21.7725 35.6245 21.9773C35.6245 22.1822 35.7905 22.3483 35.9953 22.3483Z" fill="#003870"/>
<path d="M42.0533 20.4815C42.1283 20.4815 42.1908 20.4606 42.2408 20.4148C42.2908 20.369 42.3116 20.3148 42.3116 20.2439C42.3116 20.1731 42.2866 20.1106 42.2408 20.0647C42.195 20.0189 42.1325 19.998 42.0533 19.998H39.7742C39.6992 19.998 39.6367 20.0231 39.5867 20.0689C39.5367 20.1189 39.5117 20.1814 39.5117 20.2564V23.6737C39.5117 23.7488 39.5367 23.8113 39.5867 23.8613C39.6367 23.9113 39.6992 23.9363 39.7742 23.9363H42.0533C42.1283 23.9363 42.1908 23.9155 42.2408 23.8696C42.2908 23.8238 42.3116 23.7654 42.3116 23.6904C42.3116 23.6154 42.2866 23.5612 42.2408 23.5195C42.195 23.4737 42.1325 23.4529 42.0533 23.4529H40.0367V22.1901H41.4867C41.5617 22.1901 41.6242 22.1693 41.6742 22.1234C41.72 22.0776 41.745 22.0193 41.745 21.9484C41.745 21.8776 41.72 21.8192 41.6742 21.7734C41.6283 21.7275 41.5658 21.7067 41.4867 21.7067H40.0367V20.4815H42.0533Z" fill="white"/>
<path d="M43.9739 23.4362H43.8489C43.7739 23.4362 43.7156 23.3945 43.6656 23.3153C43.6156 23.2362 43.5947 23.132 43.5947 23.0069V20.2523C43.5947 20.1772 43.5697 20.1189 43.5239 20.0689C43.4781 20.0189 43.4156 19.998 43.3406 19.998C43.2656 19.998 43.2073 20.0231 43.1573 20.0689C43.1073 20.1147 43.0864 20.1772 43.0864 20.2523V23.0069C43.0864 23.1903 43.1198 23.3487 43.1823 23.4904C43.2448 23.6321 43.3364 23.7404 43.4489 23.8196C43.5614 23.8988 43.6947 23.9405 43.8447 23.9405H43.8531C43.9531 23.9405 44.0364 23.9155 44.0989 23.8696C44.1614 23.8238 44.1947 23.7613 44.1947 23.6862C44.1947 23.6112 44.1739 23.5529 44.1322 23.5029C44.0906 23.457 44.0364 23.432 43.9697 23.432L43.9739 23.4362Z" fill="white"/>
<path d="M45.2156 20.0605C45.124 20.0605 45.0448 20.0939 44.9823 20.1606C44.9198 20.2272 44.8823 20.3023 44.8823 20.3939C44.8823 20.4856 44.9157 20.5648 44.9823 20.6273C45.049 20.6898 45.124 20.7273 45.2156 20.7273C45.3073 20.7273 45.3865 20.694 45.449 20.6273C45.5115 20.5606 45.549 20.4856 45.549 20.3939C45.549 20.3023 45.5156 20.2231 45.449 20.1606C45.3823 20.0981 45.3073 20.0605 45.2156 20.0605Z" fill="white"/>
<path d="M45.2156 21.1777C45.1406 21.1777 45.0823 21.2027 45.0323 21.2486C44.9823 21.2944 44.9614 21.3569 44.9614 21.4361V23.6824C44.9614 23.7574 44.9864 23.8157 45.0323 23.8657C45.0823 23.9158 45.1406 23.9366 45.2156 23.9366C45.2906 23.9366 45.3531 23.9116 45.4031 23.8657C45.4489 23.8157 45.4739 23.7574 45.4739 23.6824V21.4361C45.4739 21.3611 45.4489 21.2986 45.4031 21.2486C45.3572 21.1986 45.2947 21.1777 45.2156 21.1777Z" fill="white"/>
<path d="M47.8116 23.4362H47.6408C47.5324 23.4362 47.4408 23.3904 47.37 23.2987C47.2991 23.207 47.2575 23.0945 47.2575 22.9611V21.715H47.6866C47.7574 21.715 47.8158 21.6942 47.8574 21.6525C47.9033 21.6109 47.9241 21.5609 47.9241 21.5025C47.9241 21.4358 47.9033 21.3817 47.8574 21.34C47.8116 21.2983 47.7574 21.2775 47.6866 21.2775H47.2575V20.5482C47.2575 20.4731 47.2325 20.4148 47.1866 20.3648C47.1408 20.3148 47.0783 20.2939 47.0033 20.2939C46.9283 20.2939 46.87 20.319 46.82 20.3648C46.77 20.4106 46.7491 20.4731 46.7491 20.5482V21.2775H46.5158C46.445 21.2775 46.3866 21.2983 46.345 21.34C46.2992 21.3817 46.2783 21.4358 46.2783 21.5025C46.2783 21.565 46.2992 21.615 46.345 21.6525C46.3908 21.6942 46.445 21.715 46.5158 21.715H46.7491V22.9611C46.7491 23.1445 46.7866 23.3112 46.8658 23.4612C46.945 23.6112 47.0491 23.7279 47.1825 23.8113C47.3158 23.8988 47.4699 23.9405 47.6366 23.9405H47.7283C47.8158 23.9405 47.8866 23.9155 47.9408 23.8696C47.9949 23.8238 48.0241 23.7613 48.0241 23.6863C48.0241 23.6112 48.0033 23.5529 47.9616 23.5029C47.9199 23.4529 47.8699 23.432 47.8074 23.432L47.8116 23.4362Z" fill="white"/>
<path d="M50.8571 21.3027C50.6738 21.2027 50.4654 21.1527 50.2321 21.1527C49.9988 21.1527 49.8113 21.2027 49.6321 21.2986C49.5363 21.3527 49.4488 21.4152 49.3738 21.4903V20.2525C49.3738 20.1775 49.3488 20.115 49.303 20.065C49.2571 20.015 49.1947 19.9941 49.1155 19.9941C49.0363 19.9941 48.9822 20.0191 48.9322 20.065C48.8822 20.1108 48.8613 20.1733 48.8613 20.2525V23.6865C48.8613 23.7615 48.8863 23.8199 48.9322 23.8699C48.9822 23.9199 49.0405 23.9407 49.1155 23.9407C49.1905 23.9407 49.253 23.9157 49.303 23.8699C49.3488 23.8199 49.3738 23.7615 49.3738 23.6865V22.2612C49.3738 22.1362 49.4071 22.0279 49.4738 21.932C49.5405 21.8362 49.6321 21.7611 49.7446 21.7028C49.8613 21.6445 49.9863 21.6153 50.128 21.6153C50.2821 21.6153 50.4196 21.6445 50.5404 21.7028C50.6613 21.7611 50.7529 21.8528 50.8238 21.9737C50.8946 22.0945 50.9279 22.2529 50.9279 22.4446V23.6865C50.9279 23.7615 50.9529 23.8199 50.9988 23.8699C51.0488 23.9199 51.1071 23.9407 51.1821 23.9407C51.2571 23.9407 51.3154 23.9157 51.3654 23.8699C51.4154 23.8199 51.4363 23.7615 51.4363 23.6865V22.4446C51.4363 22.1654 51.3821 21.9278 51.2779 21.7361C51.1738 21.5444 51.0279 21.3986 50.8446 21.2986L50.8571 21.3027Z" fill="white"/>
<path d="M54.4696 21.3406C54.2612 21.2156 54.0237 21.1572 53.7613 21.1572C53.4988 21.1572 53.2613 21.2197 53.0529 21.3406C52.8446 21.4656 52.678 21.6323 52.553 21.8449C52.428 22.0574 52.3696 22.2949 52.3696 22.5617C52.3696 22.8284 52.428 23.0659 52.5405 23.2743C52.653 23.4827 52.8071 23.6494 53.0029 23.7744C53.1988 23.8994 53.4196 23.9578 53.6654 23.9578C53.9112 23.9578 54.1321 23.8952 54.3279 23.7744C54.4487 23.6994 54.5529 23.6035 54.6404 23.4952V23.6869C54.6404 23.7619 54.6654 23.8202 54.7112 23.8702C54.7612 23.9202 54.8196 23.9411 54.8946 23.9411C54.9695 23.9411 55.0279 23.9161 55.0779 23.8702C55.1279 23.8244 55.1487 23.7619 55.1487 23.6869V22.5617C55.1487 22.2949 55.0862 22.0574 54.9654 21.8449C54.8404 21.6323 54.6779 21.4656 54.4696 21.3406ZM54.5404 23.0451C54.4612 23.1868 54.3571 23.2993 54.2237 23.3826C54.0904 23.466 53.9362 23.5077 53.7654 23.5077C53.5946 23.5077 53.4446 23.466 53.3071 23.3826C53.1696 23.2993 53.0613 23.1868 52.9821 23.0451C52.9029 22.9034 52.8613 22.7409 52.8613 22.5617C52.8613 22.3825 52.9029 22.2199 52.9821 22.0741C53.0613 21.9324 53.1696 21.8199 53.3071 21.7365C53.4446 21.6532 53.5946 21.6115 53.7654 21.6115C53.9321 21.6115 54.0904 21.6532 54.2237 21.7365C54.3571 21.8199 54.4654 21.9324 54.5404 22.0741C54.6154 22.2158 54.6571 22.3783 54.6571 22.5617C54.6571 22.745 54.6196 22.8992 54.5404 23.0451Z" fill="white"/>
<path d="M56.428 20.0605C56.3364 20.0605 56.2572 20.0939 56.1947 20.1606C56.1322 20.2272 56.0947 20.3023 56.0947 20.3939C56.0947 20.4856 56.1281 20.5648 56.1947 20.6273C56.2614 20.694 56.3364 20.7273 56.428 20.7273C56.5197 20.7273 56.5989 20.694 56.6614 20.6273C56.7239 20.5606 56.7614 20.4856 56.7614 20.3939C56.7614 20.3023 56.728 20.2231 56.6614 20.1606C56.5947 20.0981 56.5197 20.0605 56.428 20.0605Z" fill="white"/>
<path d="M56.428 21.1777C56.353 21.1777 56.2947 21.2027 56.2447 21.2486C56.1947 21.2944 56.1738 21.3569 56.1738 21.4361V23.6824C56.1738 23.7574 56.1988 23.8157 56.2447 23.8657C56.2947 23.9158 56.353 23.9366 56.428 23.9366C56.503 23.9366 56.5655 23.9116 56.6155 23.8657C56.6613 23.8157 56.6863 23.7574 56.6863 23.6824V21.4361C56.6863 21.3611 56.6613 21.2986 56.6155 21.2486C56.5696 21.1986 56.5071 21.1777 56.428 21.1777Z" fill="white"/>
<path d="M59.6486 21.2485C59.5486 21.1818 59.3986 21.1484 59.1986 21.1484C58.9986 21.1484 58.8111 21.1943 58.6444 21.2901C58.5319 21.3526 58.4361 21.4318 58.3528 21.5277V21.4318C58.3528 21.3485 58.332 21.286 58.2903 21.2443C58.2486 21.2026 58.1861 21.1818 58.1028 21.1818C58.0195 21.1818 57.9611 21.2026 57.9153 21.2485C57.8695 21.2943 57.8486 21.3526 57.8486 21.436V23.6906C57.8486 23.7739 57.8695 23.8364 57.9153 23.8823C57.9611 23.924 58.0195 23.9448 58.1028 23.9448C58.1861 23.9448 58.2486 23.924 58.2903 23.8781C58.332 23.8323 58.3528 23.7739 58.3528 23.6906V22.2153C58.3528 22.0611 58.4028 21.9319 58.5028 21.8319C58.6028 21.7319 58.7361 21.661 58.9069 21.6235C59.0778 21.586 59.2736 21.5902 59.4861 21.6319C59.5319 21.6402 59.5694 21.6444 59.6069 21.636C59.6444 21.6319 59.6777 21.6152 59.7069 21.586C59.7361 21.5568 59.7569 21.5235 59.7652 21.4777C59.7902 21.386 59.7527 21.3068 59.6527 21.2443L59.6486 21.2485Z" fill="white"/>
</g>
<defs>
<clipPath id="clip0_3190_28296">
<rect width="164" height="100" fill="white"/>
</clipPath>
</defs>
</svg>
