<svg width="121" height="121" viewBox="0 0 121 121" fill="none" xmlns="http://www.w3.org/2000/svg">
<g clip-path="url(#clip0_1174_12370)">
<path d="M69.5755 70.6709C68.2211 71.8123 66.8878 72.9642 65.5684 74.1265C74.7135 78.7898 84.3368 82.7725 94.4139 86.0605C99.8102 87.8197 105.297 89.366 110.861 90.6959C111.73 89.2508 112.54 87.7674 113.287 86.2455C107.409 84.8772 101.615 83.2681 95.9288 81.4147C86.7522 78.4198 77.9596 74.8316 69.5755 70.6709Z" fill="#BEDEFF"/>
<path d="M24.6599 45.8392C27.7001 48.6211 30.8311 51.2949 34.0493 53.8604C35.9377 53.288 37.8226 52.6911 39.7005 52.0733C35.648 48.9632 31.7316 45.6821 27.9584 42.2335C22.4399 37.1863 17.2321 31.776 12.3663 26.0376C11.382 27.4129 10.4535 28.837 9.58789 30.296C14.3175 35.7796 19.3438 40.9735 24.6599 45.8357V45.8392Z" fill="#BEDEFF"/>
<g opacity="0.2">
<path d="M53.375 85.6271C59.1378 98.5454 65.8989 109.443 72.1399 118.085C75.5292 117.398 78.8138 116.417 81.9622 115.174C74.9847 105.495 67.3719 93.0095 61.2426 78.0317C58.5479 80.5205 55.93 83.0546 53.375 85.6271Z" fill="#BEDEFF"/>
<path d="M42.3202 51.1967C45.6013 50.0798 48.8649 48.8895 52.1006 47.626C50.7253 40.5961 49.7759 33.2137 49.3885 25.4962C48.9731 17.2586 49.2349 9.49221 49.9365 2.27734C46.5123 2.88818 43.1928 3.79222 39.999 4.96503C39.2904 12.1939 39.0252 19.9812 39.444 28.2432C39.8489 36.2644 40.8542 43.9225 42.3202 51.2002V51.1967Z" fill="#BEDEFF"/>
</g>
<path d="M31.9795 112.288L29.5117 110.344C45.9241 89.4985 63.0799 72.6917 81.9635 58.9566C93.1715 50.8063 103.926 44.0487 114.841 38.2998L116.303 41.0782C105.521 46.7573 94.8923 53.4346 83.81 61.4977C65.1637 75.0583 48.2103 91.6696 31.9795 112.285V112.288Z" fill="#003366"/>
<path d="M18.3149 101.342L15.8472 99.3973C24.1755 88.8141 32.4131 79.2362 40.3295 70.9253C40.7484 70.4855 40.546 70.0387 40.4412 69.8642C40.333 69.6896 40.0189 69.3022 39.429 69.4837C27.1634 73.236 15.3026 76.3565 4.17491 78.758L3.51172 75.6863C14.5522 73.3023 26.3256 70.2028 38.511 66.4784C40.2877 65.9374 42.1376 66.632 43.1115 68.2132C44.0853 69.7909 43.8794 71.749 42.6019 73.0894C34.7517 81.327 26.5805 90.8316 18.3149 101.335V101.342Z" fill="#003366"/>
<path d="M1.68726 63.2777L1.11133 60.1886C24.8188 55.7626 45.2487 49.5041 63.5634 41.0501C78.3003 34.2506 91.8958 27.2382 103.98 20.2153L105.558 22.9309C93.3897 30.0027 79.7035 37.0605 64.8793 43.9019C46.3238 52.4641 25.6531 58.8028 1.68726 63.2777Z" fill="#003366"/>
<path d="M72.8152 54.7047C71.3387 54.7047 69.7889 54.4325 68.295 53.9019C66.5602 53.2876 64.9825 52.3591 63.7364 51.2142C62.7276 50.2893 62.382 48.9175 62.8393 47.633C63.2931 46.3485 64.424 45.4968 65.7923 45.413C67.4817 45.3083 69.2932 45.5806 71.028 46.1949C72.7872 46.8197 74.3824 47.7621 75.6355 48.928C76.6163 49.839 76.9479 51.1968 76.4976 52.4708C76.0474 53.7449 74.9374 54.5896 73.6005 54.6803C73.3422 54.6978 73.0804 54.7047 72.8187 54.7047H72.8152ZM66.5078 46.4392C66.2879 46.4392 66.0715 46.4462 65.8551 46.4602C64.7312 46.53 64.0715 47.2909 63.8271 47.982C63.5828 48.6732 63.6177 49.6819 64.4449 50.4428C65.5898 51.4935 67.0419 52.3487 68.6475 52.9141C70.2741 53.49 71.96 53.7379 73.5272 53.6332C74.6197 53.5599 75.2655 52.8024 75.5098 52.1183C75.7542 51.4341 75.7262 50.4394 74.9234 49.6924C73.7716 48.6243 72.3055 47.7551 70.679 47.1792C69.2967 46.6905 67.8691 46.4357 66.5113 46.4357L66.5078 46.4392Z" fill="#003366"/>
<path d="M73.035 50.5061C71.9494 50.5061 70.8115 50.3036 69.7155 49.9162C68.4415 49.4659 67.2826 48.7818 66.3646 47.9406C66.1517 47.7451 66.1378 47.4135 66.3332 47.2006C66.5287 46.9877 66.8603 46.9737 67.0732 47.1692C67.8865 47.9161 68.9232 48.5235 70.0646 48.9284C71.2234 49.3403 72.4276 49.5148 73.5411 49.4415C73.8273 49.4136 74.0786 49.6404 74.0996 49.9267C74.1205 50.2164 73.9006 50.4642 73.6109 50.4851C73.4189 50.4991 73.227 50.5061 73.035 50.5061Z" fill="#003366"/>
<path d="M26.9585 66.2971C26.1801 66.2971 25.482 65.8887 25.098 65.1976C24.6757 64.4367 24.7455 63.5326 25.283 62.838C25.9462 61.9864 26.8363 61.2359 27.8625 60.6669C28.9027 60.0875 30.0231 59.728 31.1087 59.6198C31.9638 59.5325 32.7527 59.9514 33.175 60.7053C33.5939 61.4628 33.5311 62.3529 33.0075 63.0335C32.3443 63.8992 31.4437 64.6601 30.4036 65.2395C29.3774 65.8085 28.2709 66.1715 27.1993 66.2832C27.119 66.2901 27.0387 66.2971 26.9619 66.2971H26.9585ZM31.332 60.3039C31.2832 60.3039 31.2308 60.3039 31.1785 60.3109C30.1872 60.4087 29.1575 60.7437 28.2011 61.2743C27.2586 61.7979 26.4384 62.4855 25.8345 63.2639C25.4017 63.8224 25.4855 64.4507 25.7088 64.8555C25.9322 65.2604 26.4244 65.6619 27.126 65.5886C28.1068 65.4838 29.1226 65.1522 30.065 64.6287C31.0214 64.0981 31.8486 63.3965 32.456 62.6077C32.8749 62.0632 32.7876 61.4418 32.5677 61.0439C32.3617 60.6739 31.9359 60.3039 31.332 60.3039Z" fill="#003366"/>
<path d="M26.707 63.6543C26.5325 63.6543 26.3789 63.5217 26.3615 63.3437C26.3405 63.1517 26.4801 62.9807 26.6721 62.9597C27.3667 62.8864 28.0927 62.6491 28.7629 62.2756C29.4436 61.8951 30.0335 61.3995 30.4628 60.8375C30.5815 60.6839 30.7979 60.656 30.9515 60.7747C31.105 60.8934 31.133 61.1098 31.0143 61.2633C30.5256 61.8986 29.8624 62.4606 29.098 62.8864C28.3441 63.3053 27.5308 63.5706 26.7419 63.6543C26.728 63.6543 26.7175 63.6543 26.7035 63.6543H26.707Z" fill="#003366"/>
<path d="M12.4261 69.0578C11.9374 69.0578 11.4418 69.0054 10.9496 68.8972C9.8571 68.6599 8.84835 68.1677 8.03855 67.4731C7.41375 66.939 7.15196 66.0245 7.35441 65.0821C7.55686 64.1397 8.17817 63.4171 8.97052 63.1937C9.99672 62.9005 11.1172 62.8726 12.2097 63.11C13.2883 63.3438 14.2831 63.829 15.0894 64.5062C15.7316 65.0472 16.0039 65.9722 15.7979 66.9216C15.592 67.871 14.9602 68.597 14.1504 68.8239C13.5954 68.9775 13.016 69.0543 12.4261 69.0543V69.0578ZM10.7367 63.6545C10.1992 63.6545 9.66512 63.7278 9.16249 63.8709C8.61797 64.0245 8.18864 64.5481 8.03855 65.2357C7.88846 65.9233 8.06298 66.5795 8.49232 66.946C9.21834 67.5638 10.1189 68.0036 11.0997 68.2166C12.0666 68.4295 13.0579 68.4051 13.9654 68.1537C14.5239 68.0002 14.9672 67.4696 15.1173 66.775C15.2674 66.0804 15.0859 65.4172 14.6426 65.0437C13.9235 64.4398 13.03 64.007 12.0631 63.7941C11.6233 63.6964 11.1765 63.651 10.7367 63.651V63.6545Z" fill="#003366"/>
<path d="M13.4497 67.7873C13.3694 67.7873 13.2891 67.7594 13.2263 67.707C12.7167 67.2777 12.0849 66.974 11.4008 66.8239C10.7062 66.6738 9.99759 66.6913 9.34836 66.8728C9.16336 66.9252 8.97139 66.817 8.91554 66.632C8.86318 66.447 8.97139 66.255 9.15638 66.1991C9.91382 65.9827 10.7411 65.9618 11.5474 66.1398C12.3432 66.3143 13.0797 66.6703 13.6731 67.1695C13.8197 67.2951 13.8406 67.5151 13.715 67.6617C13.6452 67.7454 13.5474 67.7873 13.4462 67.7873H13.4497Z" fill="#003366"/>
<path d="M83.4548 52.6174C82.7148 52.6174 81.9818 52.3801 81.3465 51.9088C80.1842 51.0467 79.6746 49.633 80.0131 48.2159C80.439 46.4532 81.2837 44.6835 82.46 43.0988C83.6537 41.4932 85.1232 40.1598 86.7114 39.2383C87.9436 38.5263 89.4235 38.6135 90.5789 39.4687C91.7307 40.3239 92.2439 41.7166 91.9192 43.1023C91.5004 44.8894 90.6487 46.6801 89.4549 48.2857C88.2786 49.8704 86.8301 51.1933 85.2663 52.1078C84.6939 52.4429 84.0726 52.6104 83.4548 52.6104V52.6174ZM83.3047 43.7271C82.2122 45.2001 81.4268 46.8371 81.0324 48.4637C80.7915 49.462 81.151 50.4603 81.9713 51.0676C82.7916 51.675 83.8492 51.7308 84.7358 51.2107C86.1808 50.366 87.5212 49.1374 88.6137 47.6644C89.7202 46.1739 90.5126 44.5125 90.9 42.865C91.1723 41.7026 90.5928 40.7846 89.9541 40.3099C89.3188 39.8387 88.2717 39.5455 87.235 40.1459C85.769 40.994 84.4112 42.2297 83.3012 43.7236L83.3047 43.7271Z" fill="#003366"/>
<path d="M82.4712 48.457C82.2897 48.457 82.1152 48.3663 82.0175 48.1987C81.8708 47.9509 81.9546 47.6298 82.2059 47.4832C83.2356 46.8793 84.192 46.0067 84.9704 44.9561C85.7593 43.8915 86.3247 42.7082 86.6005 41.5354C86.6668 41.2526 86.9495 41.0781 87.2288 41.1444C87.5115 41.2108 87.686 41.4935 87.6197 41.7727C87.3125 43.0852 86.6877 44.4011 85.8116 45.5809C84.9495 46.7432 83.8849 47.7136 82.7365 48.3872C82.6527 48.4361 82.562 48.4605 82.4712 48.4605V48.457Z" fill="#003366"/>
<path d="M106.336 39.3013C105.54 39.3013 104.765 39.1791 104.067 38.9453C103.348 38.7044 102.863 38.0831 102.8 37.3222C102.737 36.5613 103.11 35.8667 103.777 35.5106C104.608 35.0673 105.589 34.7846 106.615 34.7008C107.624 34.6171 108.625 34.7253 109.512 35.0185C110.245 35.2593 110.741 35.8876 110.807 36.652C110.87 37.4199 110.486 38.118 109.802 38.481C108.978 38.9174 108.008 39.1896 106.999 39.2734C106.775 39.2908 106.556 39.3013 106.336 39.3013ZM107.278 35.371C107.079 35.371 106.877 35.378 106.674 35.3954C105.746 35.4722 104.856 35.727 104.109 36.125C103.61 36.3937 103.463 36.8894 103.498 37.2629C103.529 37.6363 103.753 38.1006 104.29 38.2821C105.093 38.5509 106.011 38.6521 106.943 38.5753C107.861 38.4985 108.737 38.2507 109.481 37.8597C109.997 37.5875 110.147 37.0848 110.116 36.7079C110.084 36.3309 109.854 35.8597 109.299 35.6782C108.678 35.4722 107.99 35.3675 107.285 35.3675L107.278 35.371Z" fill="#003366"/>
<path d="M104.876 38.2577C104.75 38.2577 104.632 38.1914 104.569 38.0727C104.478 37.9017 104.541 37.6923 104.712 37.6015C105.326 37.2734 106.049 37.0675 106.803 37.0046C107.546 36.9418 108.283 37.0221 108.939 37.2385C109.12 37.2979 109.222 37.4968 109.162 37.6783C109.103 37.8598 108.904 37.961 108.723 37.9017C108.157 37.7167 107.515 37.6469 106.866 37.6993C106.206 37.7551 105.578 37.9331 105.047 38.2159C104.995 38.2438 104.939 38.2577 104.883 38.2577H104.876Z" fill="#003366"/>
<path d="M55.9782 74.2341C55.2382 74.2341 54.5052 73.9968 53.8699 73.5255C52.7076 72.6634 52.198 71.2497 52.5366 69.8326C52.9624 68.0699 53.8071 66.3002 54.9834 64.7155C56.1772 63.1099 57.6467 61.7765 59.2348 60.855C60.467 60.143 61.9505 60.2302 63.1023 61.0854C64.2542 61.9406 64.7673 63.3333 64.4427 64.719C64.0238 66.5061 63.1721 68.2968 61.9784 69.9059C60.8021 71.4906 59.3535 72.8135 57.7898 73.728C57.2173 74.0631 56.596 74.2306 55.9782 74.2306V74.2341ZM60.9801 61.431C60.5892 61.431 60.1738 61.5287 59.7584 61.766C58.2924 62.6142 56.9346 63.8499 55.8246 65.3438C54.7321 66.8168 53.9467 68.4538 53.5523 70.0804C53.3115 71.0787 53.671 72.077 54.4913 72.6843C55.3115 73.2917 56.3691 73.3475 57.2557 72.8274C58.7008 71.9827 60.0412 70.7541 61.1337 69.2811C62.2402 67.7872 63.0325 66.1292 63.42 64.4817C63.6922 63.3193 63.1128 62.4013 62.474 61.9266C62.0936 61.6439 61.563 61.424 60.9766 61.424L60.9801 61.431Z" fill="#003366"/>
<path d="M54.9927 70.0703C54.8112 70.0703 54.6367 69.9796 54.5389 69.812C54.3923 69.5642 54.4761 69.2431 54.7274 69.0965C55.7571 68.4926 56.7135 67.62 57.4919 66.5693C58.2808 65.5047 58.8462 64.3215 59.122 63.1487C59.1883 62.8659 59.471 62.6914 59.7503 62.7577C60.033 62.824 60.2075 63.1068 60.1412 63.386C59.834 64.6984 59.2057 66.0144 58.3331 67.1941C57.471 68.3565 56.4064 69.3268 55.258 70.0005C55.1742 70.0494 55.0835 70.0738 54.9927 70.0738V70.0703Z" fill="#003366"/>
<path d="M98.684 38.7814C98.5897 38.7814 98.499 38.7744 98.4047 38.7639C97.3262 38.6173 96.2546 38.1915 95.3017 37.5422C94.3627 36.9 93.5843 36.0658 93.0573 35.1303C92.6349 34.3799 92.7047 33.4304 93.2388 32.6451C93.7728 31.8632 94.6385 31.4548 95.4867 31.5735C96.5478 31.7271 97.6054 32.1459 98.5478 32.7917C99.5008 33.4444 100.283 34.2891 100.813 35.2385C101.222 35.975 101.148 36.914 100.618 37.6888C100.146 38.38 99.424 38.7779 98.684 38.7779V38.7814ZM95.1865 32.2472C94.5791 32.2472 94.0905 32.6381 93.8182 33.036C93.518 33.4758 93.3191 34.1669 93.6681 34.7813C94.1428 35.6225 94.8444 36.3764 95.6996 36.9593C96.5652 37.5492 97.5321 37.9332 98.5025 38.0658C99.1866 38.1566 99.7451 37.7272 100.045 37.2909C100.342 36.8546 100.541 36.174 100.209 35.5736C99.7346 34.7184 99.026 33.954 98.1604 33.3606C97.3087 32.7777 96.3488 32.3972 95.3924 32.2576C95.3226 32.2472 95.2563 32.2437 95.1865 32.2437V32.2472Z" fill="#003366"/>
<path d="M99.3372 35.9678C99.3372 35.9678 99.3057 35.9678 99.2883 35.9678C98.496 35.8596 97.7036 35.5454 97.002 35.0672C96.3074 34.5925 95.735 33.9782 95.3475 33.2871C95.2533 33.1195 95.3126 32.9066 95.4802 32.8124C95.6477 32.7181 95.8606 32.7775 95.9549 32.945C96.29 33.5419 96.7891 34.0759 97.3964 34.4913C98.0108 34.9102 98.6984 35.1824 99.386 35.2767C99.578 35.3046 99.7106 35.4791 99.6827 35.6711C99.6583 35.8456 99.5082 35.9713 99.3372 35.9713V35.9678Z" fill="#003366"/>
<path d="M46.308 63.4732C44.7582 63.4732 43.2399 63.0543 41.9135 62.2585C40.5033 61.4138 39.6621 59.9303 39.6621 58.2898C39.6621 56.6492 40.5033 55.1693 41.9135 54.3211C43.2364 53.5287 44.7548 53.1099 46.308 53.1099C47.8613 53.1099 49.4565 53.5497 50.8073 54.3874C52.1616 55.2286 52.9714 56.6876 52.9714 58.2898C52.9714 59.8919 52.1616 61.3544 50.8073 62.1922C49.46 63.0264 47.9032 63.4697 46.308 63.4697V63.4732ZM46.308 54.1605C44.9467 54.1605 43.6134 54.527 42.4545 55.2251C41.362 55.8813 40.7093 57.0262 40.7093 58.2933C40.7093 59.5603 41.362 60.7087 42.4545 61.3614C43.6134 62.056 44.9467 62.426 46.308 62.426C47.6693 62.426 49.0725 62.0386 50.2558 61.3056C51.2994 60.6598 51.9242 59.5324 51.9242 58.2933C51.9242 57.0541 51.2994 55.9267 50.2558 55.281C49.0725 54.548 47.7077 54.1605 46.308 54.1605Z" fill="#003366"/>
<path d="M46.3234 59.0295C45.1925 59.0295 43.6113 58.5792 42.8783 57.3087C42.7352 57.0574 42.8189 56.7397 43.0703 56.5931C43.3216 56.4465 43.6427 56.5338 43.7858 56.7851C44.264 57.6124 45.4054 57.9824 46.3234 57.9824C47.3357 57.9824 48.6481 57.4727 48.8959 56.7921C48.9936 56.5198 49.2938 56.3802 49.5661 56.4779C49.8383 56.5757 49.978 56.8759 49.8802 57.1481C49.4125 58.4466 47.5206 59.033 46.3234 59.033V59.0295Z" fill="#003366"/>
<path d="M35.618 95.2191C34.5953 95.2191 33.6284 94.7688 32.9687 93.9695C32.2078 93.0445 31.7191 91.9241 31.5585 90.7268C31.4014 89.5645 31.562 88.3847 32.0228 87.3131C32.5114 86.1787 33.5307 85.4038 34.7488 85.2398C35.9705 85.0757 37.1573 85.5539 37.9287 86.5173C38.6582 87.4283 39.1259 88.5243 39.2795 89.6867C39.4401 90.8804 39.2656 92.0916 38.7769 93.1876C38.2882 94.2802 37.2829 95.0306 36.0892 95.1912C35.9321 95.2121 35.7716 95.2226 35.618 95.2226V95.2191ZM35.2201 85.903C35.0944 85.903 34.9687 85.9099 34.8431 85.9274C33.8692 86.06 33.0525 86.6779 32.665 87.5854C32.2531 88.5418 32.11 89.5924 32.2496 90.6291C32.3928 91.6937 32.8291 92.6955 33.5062 93.5192C34.1136 94.2557 35.042 94.6187 35.9984 94.4896C36.9513 94.3605 37.7542 93.7636 38.1416 92.8944C38.5779 91.9171 38.7315 90.8385 38.5884 89.7739C38.4488 88.7373 38.0334 87.7599 37.3842 86.9466C36.8466 86.2765 36.0578 85.8995 35.2201 85.8995V85.903Z" fill="#003366"/>
<path d="M36.7315 92.7443C36.7071 92.7443 36.6827 92.7443 36.6582 92.7373C35.653 92.5209 35.0316 91.1736 34.913 90.287C34.8013 89.4458 34.9758 88.2276 35.8449 87.5574C35.9985 87.4387 36.2149 87.4666 36.3336 87.6202C36.4523 87.7738 36.4244 87.9902 36.2708 88.1089C35.6774 88.5662 35.5098 89.4876 35.6041 90.1927C35.7088 90.9711 36.2463 91.9345 36.8048 92.0566C36.9933 92.0985 37.112 92.2835 37.0736 92.472C37.0387 92.6361 36.8921 92.7478 36.7315 92.7478V92.7443Z" fill="#003366"/>
<path d="M60.3338 120.316C27.2473 120.316 0.332031 93.4006 0.332031 60.3177C0.332031 27.2347 27.2473 0.315918 60.3338 0.315918C93.4202 0.315918 120.336 27.2312 120.336 60.3177C120.336 93.4041 93.4202 120.319 60.3338 120.319V120.316ZM60.3338 2.41022C28.4027 2.41022 2.42633 28.3865 2.42633 60.3177C2.42633 92.2488 28.4027 118.225 60.3338 118.225C92.2649 118.225 118.241 92.2488 118.241 60.3177C118.241 28.3865 92.2614 2.41022 60.3338 2.41022Z" fill="#DCEDFF"/>
</g>
<defs>
<clipPath id="clip0_1174_12370">
<rect width="120" height="120" fill="white" transform="translate(0.332031 0.315918)"/>
</clipPath>
</defs>
</svg>
