<svg width="121" height="121" viewBox="0 0 121 121" fill="none" xmlns="http://www.w3.org/2000/svg">
<g clip-path="url(#clip0_1174_12219)">
<path d="M60.6678 120.316C27.5813 120.316 0.666016 93.4006 0.666016 60.3177C0.666016 27.2347 27.5813 0.315918 60.6678 0.315918C93.7542 0.315918 120.67 27.2312 120.67 60.3177C120.67 93.4041 93.7542 120.319 60.6678 120.319V120.316ZM60.6678 2.41022C28.7366 2.41022 2.76032 28.3865 2.76032 60.3177C2.76032 92.2488 28.7366 118.225 60.6678 118.225C92.5989 118.225 118.575 92.2488 118.575 60.3177C118.575 28.3865 92.5954 2.41022 60.6678 2.41022Z" fill="#DCEDFF"/>
<path d="M21.9748 50.3244C20.5018 28.6414 45.3577 19.5172 58.475 34.2262C61.7944 38.1042 60.7752 35.8109 65.6863 31.905C87.3449 14.6794 111.15 45.0188 92.9681 66.1154C82.7933 77.2432 72.7965 88.2697 62.325 99.2368C61.9166 99.6487 61.1836 100.919 60.6426 100.769C54.1747 93.8161 44.6875 83.2573 38.258 76.7964C31.2874 68.9009 23.6397 62.1537 21.9748 50.3244Z" fill="#BEDEFF"/>
<path d="M77.4428 77.6583C76.839 77.6583 76.7936 76.9951 76.7203 75.9863C76.6679 75.2638 76.6225 74.2166 76.5841 72.7925C76.5108 70.1397 76.4655 66.5724 76.4166 62.7957C76.3503 57.4936 76.2665 50.8233 76.0676 46.9453C75.907 49.4969 75.7988 53.2108 75.6976 56.6489C75.3136 69.679 74.9995 74.4261 73.9977 75.1032C73.1565 75.6722 72.1303 75.5395 70.94 75.3825C70.2594 75.2952 69.4914 75.194 68.6153 75.194C66.9818 75.194 66.3256 74.2376 65.8474 73.543C65.4704 72.9915 65.2959 72.7855 64.9538 72.7855C64.5035 72.7855 63.8682 73.3126 63.2574 73.8222C62.4476 74.4959 61.6064 75.194 60.6674 75.194H55.0408C53.4037 75.194 51.9098 75.4976 50.4647 75.7908C47.9376 76.304 45.5501 76.7891 42.7542 75.6408C40.1468 74.5727 39.1834 70.946 38.4085 68.035C38.1118 66.9145 37.5568 64.8342 37.1799 64.8342C36.8971 64.8342 36.5167 65.616 36.1502 66.37C35.3683 67.9756 34.1885 70.405 31.2914 72.1921C27.553 74.4994 25.2319 74.8065 23.696 75.009C22.8409 75.1207 22.2789 75.1975 21.8391 75.557C21.0118 76.2376 20.9176 76.6844 20.8618 76.9497C20.8199 77.1417 20.7117 77.6583 20.1113 77.6583C19.5109 77.6583 19.4621 76.9951 19.3888 75.9863C19.3364 75.2638 19.291 74.2166 19.2526 72.7925C19.1793 70.1397 19.134 66.5724 19.0851 62.7992C19.0188 57.4971 18.935 50.8268 18.736 46.9488C18.5755 49.5004 18.4673 53.2143 18.366 56.6524C17.9821 69.6825 17.6679 74.4296 16.6662 75.1067C15.825 75.6757 14.7953 75.543 13.6085 75.386C12.9278 75.2987 12.1599 75.1975 11.2838 75.1975C9.65026 75.1975 8.99404 74.2411 8.51584 73.5465C8.13887 72.995 7.96434 72.789 7.62228 72.789C7.172 72.789 6.53673 73.3161 5.92589 73.8257C5.11609 74.4994 4.27488 75.1975 3.33594 75.1975V74.1503C3.89791 74.1503 4.58554 73.5744 5.25571 73.0194C6.00966 72.3911 6.79154 71.7419 7.62228 71.7419C8.54726 71.7419 8.99055 72.3876 9.378 72.9531C9.8178 73.5953 10.1983 74.1503 11.2803 74.1503C12.2228 74.1503 13.0291 74.255 13.7411 74.3493C14.7848 74.4854 15.5422 74.5831 16.0553 74.255C16.8302 73.2602 17.1234 63.253 17.3189 56.621C17.6924 43.8981 17.8669 42.9731 18.7814 42.9731C19.4027 42.9731 19.5284 43.6468 19.661 45.1791C19.7518 46.2158 19.8286 47.6958 19.8914 49.6959C20.0101 53.3818 20.0694 58.1603 20.1287 62.7852C20.1916 67.651 20.2579 73.0229 20.401 75.5186C20.586 75.2847 20.8338 75.0264 21.1724 74.7507C21.8391 74.2027 22.5965 74.1014 23.5564 73.9758C25.0922 73.7733 27.1935 73.4941 30.7399 71.3056C33.3787 69.679 34.4328 67.5044 35.2042 65.9162C35.7802 64.7294 36.2374 63.7905 37.1764 63.7905C38.3562 63.7905 38.8029 65.459 39.4173 67.7697C40.1328 70.4574 41.0229 73.8048 43.1486 74.6774C45.6513 75.7036 47.784 75.2708 50.2553 74.7681C51.7492 74.4645 53.2955 74.1503 55.0373 74.1503H60.664C61.2259 74.1503 61.9136 73.5744 62.5837 73.0194C63.3377 72.3911 64.1196 71.7419 64.9503 71.7419C65.8753 71.7419 66.3186 72.3876 66.706 72.9531C67.1458 73.5953 67.5263 74.1503 68.6083 74.1503C69.5508 74.1503 70.3571 74.255 71.0691 74.3493C72.1128 74.4854 72.8702 74.5831 73.3834 74.255C74.1582 73.2602 74.4514 63.253 74.6469 56.621C75.0204 43.8981 75.1949 42.9731 76.1129 42.9731C76.7342 42.9731 76.8599 43.6468 76.9925 45.1791C77.0833 46.2158 77.1601 47.6958 77.2229 49.6959C77.3416 53.3818 77.4009 58.1603 77.4603 62.7852C77.5231 67.651 77.5894 73.0229 77.7325 75.5221C77.9175 75.2882 78.1653 75.0299 78.5039 74.7542C79.1706 74.2062 79.928 74.1049 80.8879 73.9793C82.4238 73.7768 84.525 73.4976 88.0714 71.309C90.7102 69.6825 91.7643 67.5079 92.5357 65.9197C93.1117 64.7329 93.5689 63.794 94.5079 63.794C95.6877 63.794 96.1344 65.4625 96.7488 67.7732C97.4643 70.4608 98.3544 73.8082 100.48 74.6809C102.983 75.7071 105.116 75.2743 107.587 74.7716C109.081 74.4679 110.627 74.1538 112.369 74.1538H117.995V75.201H112.369C110.732 75.201 109.238 75.5046 107.793 75.7978C105.266 76.3109 102.878 76.7961 100.082 75.6477C97.4748 74.5796 96.5114 70.953 95.7365 68.0419C95.4398 66.925 94.8848 64.8411 94.5079 64.8411C94.2251 64.8411 93.8447 65.623 93.4782 66.377C92.6963 67.9826 91.5165 70.412 88.6194 72.1991C84.8811 74.5063 82.5599 74.8135 81.0241 75.016C80.1689 75.1277 79.6069 75.2044 79.1671 75.564C78.3399 76.2446 78.2456 76.6914 78.1898 76.9567C78.1479 77.1487 78.0397 77.6653 77.4393 77.6653L77.4428 77.6583Z" fill="#003366"/>
</g>
<defs>
<clipPath id="clip0_1174_12219">
<rect width="120" height="120" fill="white" transform="translate(0.666016 0.315918)"/>
</clipPath>
</defs>
</svg>
