<svg width="121" height="121" viewBox="0 0 121 121" fill="none" xmlns="http://www.w3.org/2000/svg">
<g clip-path="url(#clip0_1174_12294)">
<path d="M111.71 83.4318C111.71 77.0582 107.647 71.3931 101.609 69.3477L79.6219 61.8989C78.8819 66.4121 77.7579 70.3634 74.969 73.6026C71.2586 77.9168 67.4365 83.6692 60.9302 83.6692C54.4239 83.6692 50.6018 77.9134 46.8914 73.6026C44.1025 70.3634 42.9786 66.4121 42.2386 61.9024L20.2519 69.3477C14.2133 71.3931 10.1504 77.0582 10.1504 83.4318V90.7235C20.4683 107.827 39.2298 119.269 60.6649 119.269C82.1001 119.269 101.511 107.429 111.71 89.8264V83.4318Z" fill="#003366"/>
<path d="M60.6678 120.316C27.5813 120.316 0.666016 93.4006 0.666016 60.3177C0.666016 27.2347 27.5813 0.315918 60.6678 0.315918C93.7542 0.315918 120.67 27.2312 120.67 60.3177C120.67 93.4041 93.7542 120.319 60.6678 120.319V120.316ZM60.6678 2.41022C28.7366 2.41022 2.76032 28.3865 2.76032 60.3177C2.76032 92.2488 28.7366 118.225 60.6678 118.225C92.5989 118.225 118.575 92.2488 118.575 60.3177C118.575 28.3865 92.5954 2.41022 60.6678 2.41022Z" fill="#DCEDFF"/>
<path d="M60.9296 84.0215L60.5806 84.0145C54.9364 83.84 51.2784 79.428 48.0462 75.5256C47.568 74.9462 47.0968 74.3772 46.6255 73.8327C43.1071 69.7419 42.2031 64.6771 41.3898 58.478C41.3165 57.9195 41.2432 57.375 41.1699 56.8305C40.4683 51.5877 39.8086 46.6347 39.8086 37.0847C39.8086 31.8036 41.9238 26.8261 45.7669 23.0669C49.7146 19.2029 55.1005 17.0771 60.9296 17.0771H61.2787C66.9717 17.1644 72.2214 19.2831 76.0924 23.0703C79.9354 26.8296 82.0507 31.8071 82.0507 37.0882C82.0507 46.6347 81.3875 51.5877 80.6894 56.834C80.6161 57.3785 80.5428 57.9265 80.4695 58.4815C79.6562 64.6806 78.7556 69.7453 75.2337 73.8362C74.7625 74.3807 74.2913 74.9532 73.8131 75.5291C70.5145 79.5118 66.7727 84.025 60.9296 84.025V84.0215ZM60.6818 17.7752C49.3481 17.8974 40.5102 26.334 40.5102 37.0847C40.5102 46.5859 41.1699 51.5144 41.868 56.7362C41.9413 57.2808 42.0146 57.8288 42.0879 58.3872C42.8837 64.4677 43.7633 69.4347 47.1596 73.379C47.6308 73.927 48.1055 74.4994 48.5872 75.0823C51.788 78.9463 55.4181 83.3234 60.9331 83.3234H61.1007C66.5214 83.2361 70.1096 78.9079 73.279 75.0823C73.7607 74.4994 74.2354 73.927 74.7066 73.379C78.0994 69.4347 78.979 64.4712 79.7783 58.3872C79.8516 57.8288 79.9249 57.2808 79.9982 56.7362C80.6963 51.5144 81.356 46.5859 81.356 37.0847C81.356 26.2572 72.3855 17.7752 60.9366 17.7752H60.6853H60.6818Z" fill="#003366"/>
<path d="M43.5504 58.9248C46.1089 60.6945 48.8245 62.2757 51.781 63.2216C57.6695 65.0925 64.1897 65.089 70.0782 63.2146C73.0346 62.2687 75.7537 60.698 78.3123 58.9248C75.8305 60.8167 73.1289 62.4572 70.162 63.4694C64.2421 65.459 57.6136 65.4625 51.6937 63.4764C48.7268 62.4677 46.0286 60.8167 43.5469 58.9248H43.5504Z" fill="#003366"/>
<path opacity="0.3" d="M60.9339 63.2462H60.4766C60.0368 63.2462 59.6319 63.487 59.419 63.8745L56.7139 70.6844C56.0507 71.9096 56.2008 72.7683 57.2898 73.6339L59.1537 75.3826C59.6773 75.8015 60.2986 76.0319 60.9304 76.0807V63.2427L60.9339 63.2462Z" fill="#003366"/>
<path d="M80.7305 52.349L80.7828 51.8953C81.2261 47.9545 81.4495 44.1778 81.5088 39.6436V39.5633L81.5717 39.511C82.741 38.5232 83.7288 38.1741 84.4269 38.4952C84.8423 38.6872 85.3414 39.2178 85.3414 40.6419C85.3414 44.8514 83.0063 50.3211 81.076 52.0384L80.7374 52.3421L80.7305 52.349ZM81.8579 39.7309C81.7986 44.0521 81.5891 47.6892 81.1842 51.445C82.9853 49.4764 84.9889 44.5233 84.9889 40.6489C84.9889 39.668 84.7445 39.0363 84.2768 38.8199C83.7323 38.565 82.8736 38.8897 81.8544 39.7344L81.8579 39.7309Z" fill="#003366"/>
<path d="M41.1313 52.349L40.7927 52.0453C38.859 50.3245 36.5273 44.8583 36.5273 40.6453C36.5273 39.2212 37.023 38.6906 37.4419 38.4986C38.1365 38.174 39.1243 38.5266 40.2971 39.5144L40.3564 39.5667V39.647C40.4193 44.1777 40.6426 47.9579 41.0859 51.8987L41.1383 52.3524L41.1313 52.349ZM37.9899 38.7325C37.8398 38.7325 37.7036 38.7604 37.5815 38.8163C37.1172 39.0327 36.8694 39.6645 36.8694 40.6453C36.8694 44.5198 38.873 49.4728 40.6776 51.4414C40.2727 47.6891 40.0632 44.0485 40.0039 39.7273C39.2115 39.0711 38.5169 38.729 37.9899 38.729V38.7325Z" fill="#003366"/>
<path opacity="0.6" d="M41.3764 55.7031C41.5754 55.7031 40.9471 45.3224 44.7343 43.4514C51.0032 40.3554 52.0364 49.3644 60.2845 49.5633C69.8834 49.7972 67.3283 41.4374 77.2344 42.5998C80.7284 43.0082 80.9552 51.9159 80.4317 56.101C83.4265 43.7202 84.355 32.212 80.9552 25.1577C78.4316 19.922 74.6269 16.3547 69.6914 15.6287C59.1745 14.0824 58.0401 15.1644 51.1289 18.5362C48.5599 19.7893 46.7099 17.88 42.4655 22.1245C34.9155 29.6744 40.9401 55.6926 41.3764 55.6996V55.7031Z" fill="#003366"/>
<path d="M41.3895 56.1116C41.3197 56.1116 41.0649 56.0872 41.03 55.7346C41.023 55.6788 41.03 55.6264 41.0509 55.5776C41.0509 55.5461 41.0509 55.5112 41.0544 55.4728L41.0684 55.1098C41.0788 54.9178 41.2394 54.7643 41.4349 54.7782C41.6268 54.7887 41.7769 54.9493 41.7665 55.1447L41.7525 55.5043C41.7385 55.8114 41.7281 56.1046 41.3965 56.1116C41.3965 56.1116 41.393 56.1116 41.3895 56.1116Z" fill="#003366"/>
<path d="M60.2877 55.9512C60.0538 55.9512 59.8269 55.9442 59.6 55.9302C59.4081 55.9198 59.2615 55.7522 59.2719 55.5603C59.2824 55.3683 59.45 55.2287 59.6419 55.2321C60.0887 55.2601 60.5599 55.2531 60.9962 55.2391C61.1882 55.2287 61.3488 55.3822 61.3558 55.5777C61.3627 55.7732 61.2127 55.9302 61.0172 55.9372C60.7798 55.9442 60.5355 55.9512 60.2842 55.9512H60.2877ZM63.0801 55.7592C62.909 55.7592 62.7624 55.6336 62.7345 55.4625C62.7066 55.2705 62.8357 55.096 63.0277 55.0646C63.485 54.9948 63.9318 54.9075 64.3506 54.7993C64.5391 54.7539 64.7276 54.8656 64.7765 55.0506C64.8253 55.2391 64.7101 55.4276 64.5251 55.4765C64.0818 55.5882 63.6141 55.6824 63.1324 55.7557C63.115 55.7557 63.0975 55.7592 63.0801 55.7592ZM57.5686 55.6091C57.5406 55.6091 57.5092 55.6091 57.4813 55.5986C57.0275 55.4835 56.5703 55.3334 56.12 55.1588C55.942 55.089 55.8512 54.8866 55.9211 54.7051C55.9909 54.5236 56.1933 54.4363 56.3748 54.5061C56.7972 54.6737 57.23 54.8133 57.6523 54.9215C57.8408 54.9704 57.9525 55.1588 57.9037 55.3473C57.8618 55.5044 57.7221 55.6091 57.5651 55.6091H57.5686ZM66.396 54.7888C66.2634 54.7888 66.1412 54.7156 66.0784 54.5899C65.9946 54.4154 66.0714 54.2059 66.246 54.1257C66.6509 53.9337 67.0418 53.7138 67.4083 53.4729C67.5689 53.3647 67.7853 53.4101 67.8935 53.5707C68.0017 53.7312 67.9563 53.9476 67.7957 54.0558C67.3978 54.3176 66.979 54.555 66.5461 54.7574C66.4973 54.7819 66.4484 54.7923 66.396 54.7923V54.7888ZM54.3782 54.2653C54.3189 54.2653 54.2561 54.2513 54.2002 54.2164C53.8093 53.986 53.4079 53.7277 53.01 53.445C52.8529 53.3333 52.8145 53.1169 52.9262 52.9598C53.0379 52.8028 53.2543 52.7644 53.4114 52.8761C53.7953 53.1448 54.1793 53.3961 54.5528 53.616C54.7203 53.7138 54.7762 53.9267 54.6784 54.0942C54.6121 54.2059 54.4969 54.2653 54.3782 54.2653ZM80.5082 53.5986C80.3197 53.5986 80.1661 53.4485 80.1591 53.26C80.1451 52.7923 80.1172 52.3315 80.0753 51.8952C80.0579 51.7032 80.1975 51.5322 80.3895 51.5148C80.5815 51.4938 80.7525 51.6369 80.7699 51.8289C80.8118 52.2827 80.8398 52.7574 80.8572 53.2391C80.8642 53.431 80.7106 53.5916 80.5186 53.5986H80.5082ZM41.596 53.3996C41.596 53.3996 41.5681 53.3996 41.5506 53.3996C41.3587 53.3752 41.2225 53.2007 41.247 53.0087C41.3098 52.5165 41.3866 52.0488 41.4739 51.6125C41.5123 51.424 41.6973 51.3018 41.8857 51.3402C42.0742 51.3786 42.1964 51.5636 42.158 51.7521C42.0707 52.171 41.9974 52.6247 41.9381 53.0994C41.9172 53.2775 41.7671 53.4031 41.5925 53.4031L41.596 53.3996ZM69.2059 52.7888C69.1152 52.7888 69.0279 52.7539 68.9581 52.6876C68.8219 52.5514 68.8219 52.3315 68.9581 52.1954C69.2513 51.9022 69.5515 51.5706 69.8691 51.1901C69.9913 51.0435 70.2112 51.0226 70.3613 51.1448C70.5079 51.2669 70.5288 51.4868 70.4066 51.6369C70.075 52.0348 69.7644 52.3804 69.4537 52.6911C69.3839 52.7609 69.2967 52.7923 69.2059 52.7923V52.7888ZM51.5684 52.2303C51.4881 52.2303 51.4078 52.2024 51.345 52.1465C50.982 51.8394 50.6294 51.5287 50.2909 51.225C50.1478 51.0959 50.1338 50.876 50.2629 50.7329C50.3921 50.5898 50.612 50.5758 50.7551 50.705C51.0902 51.0051 51.4358 51.3123 51.7953 51.6125C51.9419 51.7382 51.9628 51.958 51.8372 52.1047C51.7674 52.1849 51.6696 52.2303 51.5719 52.2303H51.5684ZM80.1033 50.15C79.9427 50.15 79.7996 50.0418 79.7647 49.8777C79.6565 49.3995 79.5273 48.9702 79.3807 48.5967C79.3109 48.4187 79.3982 48.2162 79.5762 48.1429C79.7542 48.0731 79.9566 48.1604 80.03 48.3384C80.1905 48.7433 80.3301 49.2075 80.4453 49.7206C80.4872 49.9091 80.372 50.0976 80.1835 50.1395C80.1591 50.1465 80.1312 50.15 80.1067 50.15H80.1033ZM71.4259 50.122C71.3491 50.122 71.2758 50.0976 71.2095 50.0487C71.0594 49.9301 71.0314 49.7102 71.1501 49.5601C71.391 49.2529 71.7156 48.848 72.0576 48.4745C72.1868 48.3314 72.4102 48.3209 72.5498 48.4536C72.6929 48.5827 72.7034 48.8026 72.5707 48.9457C72.2426 49.3053 71.932 49.6927 71.6981 49.9929C71.6283 50.0802 71.5271 50.1255 71.4224 50.1255L71.4259 50.122ZM42.4023 50.0278C42.357 50.0278 42.3151 50.0208 42.2697 49.9999C42.0917 49.9266 42.0044 49.7241 42.0777 49.5461C42.2837 49.04 42.5245 48.6072 42.7898 48.2546C42.905 48.101 43.1249 48.0696 43.2784 48.1848C43.432 48.3 43.4634 48.5199 43.3483 48.6735C43.1179 48.9806 42.9085 49.3611 42.7235 49.8114C42.6676 49.9475 42.5385 50.0278 42.3988 50.0278H42.4023ZM48.9715 49.9161C48.8877 49.9161 48.8074 49.8882 48.7411 49.8288C48.3292 49.4623 47.9976 49.1796 47.6939 48.9423C47.5438 48.8236 47.5159 48.6037 47.6346 48.4536C47.7533 48.3035 47.9732 48.2756 48.1233 48.3942C48.4339 48.6421 48.776 48.9283 49.2018 49.3053C49.3449 49.4344 49.3589 49.6543 49.2298 49.7974C49.1599 49.8742 49.0657 49.9161 48.968 49.9161H48.9715ZM46.1407 47.93C46.0988 47.93 46.0569 47.923 46.015 47.9056C45.5927 47.7415 45.2157 47.6822 44.8282 47.7345C44.6363 47.759 44.4617 47.6263 44.4373 47.4344C44.4129 47.2424 44.5455 47.0679 44.7375 47.0434C45.2366 46.9771 45.7323 47.0504 46.2663 47.2563C46.4478 47.3262 46.5351 47.5286 46.4653 47.7066C46.4129 47.8462 46.2803 47.93 46.1407 47.93ZM73.8936 47.7136C73.775 47.7136 73.6598 47.6543 73.597 47.5461C73.4957 47.382 73.5481 47.1656 73.7121 47.0644C74.1345 46.8061 74.5708 46.6071 75.049 46.4605C75.234 46.4047 75.4295 46.5059 75.4853 46.6909C75.5412 46.8759 75.4399 47.0713 75.2549 47.1272C74.8361 47.2563 74.4486 47.4344 74.0752 47.6612C74.0193 47.6961 73.9565 47.7136 73.8936 47.7136ZM78.5255 47.1412C78.4592 47.1412 78.3929 47.1237 78.3301 47.0818C78.1206 46.9422 77.8973 46.8654 77.6564 46.8549C77.5168 46.848 77.3807 46.8445 77.2515 46.8445H77.1957C77.0037 46.8445 76.8466 46.6874 76.8466 46.4954C76.8466 46.3034 77.0037 46.1464 77.1957 46.1464H77.2445C77.4016 46.1394 77.5377 46.1464 77.6878 46.1568C78.0578 46.1743 78.4034 46.2895 78.721 46.4989C78.8816 46.6071 78.9235 46.8235 78.8153 46.9841C78.7489 47.0853 78.6372 47.1377 78.5255 47.1377V47.1412Z" fill="#003366"/>
<path d="M80.4349 56.4503C80.4349 56.4503 80.4139 56.4503 80.407 56.4503C80.215 56.4328 80.0719 56.2653 80.0893 56.0733C80.1068 55.8464 80.1242 55.6195 80.1382 55.3892C80.1487 55.1972 80.3162 55.0366 80.5047 55.0611C80.6967 55.0715 80.8433 55.2356 80.8328 55.4276C80.8188 55.6649 80.8049 55.8988 80.7839 56.1326C80.77 56.3142 80.6164 56.4538 80.4349 56.4538V56.4503Z" fill="#003366"/>
<path d="M80.4348 56.2757C80.4348 56.2757 80.4243 56.2757 80.4208 56.2757C80.3231 56.2687 80.2533 56.1849 80.2602 56.0872C80.2707 55.972 80.2777 55.8568 80.2882 55.7416C80.2952 55.6439 80.3789 55.5706 80.4767 55.5811C80.5744 55.5881 80.6442 55.6718 80.6372 55.7696C80.6302 55.8847 80.6198 56.0034 80.6093 56.1186C80.6023 56.2094 80.5255 56.2792 80.4348 56.2792V56.2757Z" fill="#003366"/>
<path d="M80.519 54.8935H80.512C80.4143 54.89 80.341 54.8062 80.3445 54.712C80.3549 54.4816 80.3619 54.2513 80.3654 54.0244C80.3654 53.9266 80.4457 53.8464 80.5434 53.8533C80.6411 53.8533 80.7179 53.9336 80.7144 54.0314C80.711 54.2617 80.704 54.4956 80.6935 54.726C80.69 54.8202 80.6132 54.8935 80.519 54.8935ZM41.2822 54.4432C41.188 54.4432 41.1112 54.3699 41.1077 54.2757C41.1007 54.0418 41.0938 53.8115 41.0938 53.5776C41.0938 53.4799 41.1705 53.4031 41.2683 53.4031C41.3625 53.4031 41.4428 53.4799 41.4428 53.5776C41.4428 53.808 41.4498 54.0348 41.4568 54.2652C41.4568 54.363 41.3835 54.4432 41.2892 54.4467H41.2822V54.4432ZM80.5469 53.1622C80.4527 53.1622 80.3724 53.0854 80.3724 52.9912C80.3724 52.7608 80.3654 52.5304 80.3549 52.3036C80.3549 52.2058 80.4282 52.1255 80.5225 52.1221C80.6237 52.1151 80.7005 52.1954 80.704 52.2896C80.711 52.52 80.7179 52.7538 80.7214 52.9842C80.7214 53.0819 80.6446 53.1587 80.5504 53.1622H80.5469ZM41.2857 52.7119H41.2787C41.181 52.7085 41.1077 52.6282 41.1112 52.5304C41.1182 52.2966 41.1321 52.0662 41.1461 51.8358C41.1531 51.7381 41.2334 51.6718 41.3311 51.6718C41.4288 51.6788 41.4986 51.7625 41.4952 51.8568C41.4812 52.0872 41.4672 52.314 41.4603 52.5444C41.4568 52.6387 41.38 52.7119 41.2857 52.7119ZM80.4771 51.4309C80.3863 51.4309 80.3095 51.3611 80.3026 51.2669C80.2886 51.0365 80.2677 50.8096 80.2467 50.5793C80.2397 50.4815 80.3096 50.3977 80.4038 50.3908C80.5015 50.3838 80.5853 50.4536 80.5923 50.5478C80.6132 50.7782 80.6307 51.0086 80.6481 51.2424C80.6551 51.3402 80.5818 51.4205 80.4841 51.4274C80.4806 51.4274 80.4771 51.4274 80.4736 51.4274L80.4771 51.4309ZM41.4114 50.9876C41.4114 50.9876 41.3974 50.9876 41.3939 50.9876C41.2997 50.9772 41.2299 50.8899 41.2404 50.7957C41.2648 50.5653 41.2927 50.3349 41.3241 50.1045C41.3381 50.0103 41.4253 49.9405 41.5196 49.9545C41.6138 49.9684 41.6836 50.0557 41.6697 50.1499C41.6383 50.3768 41.6103 50.6037 41.5859 50.8306C41.5754 50.9213 41.5021 50.9876 41.4114 50.9876ZM80.313 49.7101C80.2258 49.7101 80.1525 49.6473 80.1385 49.5565C80.1106 49.3297 80.0792 49.0993 80.0443 48.8724C80.0303 48.7782 80.0966 48.6874 80.1909 48.6734C80.2851 48.6595 80.3759 48.7258 80.3898 48.82C80.4247 49.0504 80.4562 49.2808 80.4841 49.5112C80.4945 49.6054 80.4282 49.6927 80.334 49.7066C80.327 49.7066 80.32 49.7066 80.313 49.7066V49.7101ZM41.6557 49.2773C41.6557 49.2773 41.6348 49.2773 41.6243 49.2773C41.5301 49.2598 41.4672 49.1691 41.4812 49.0748C41.5231 48.8445 41.565 48.6176 41.6103 48.3907C41.6278 48.2965 41.722 48.2336 41.8163 48.2546C41.9105 48.2755 41.9699 48.3663 41.9524 48.4605C41.907 48.6839 41.8652 48.9108 41.8233 49.1342C41.8093 49.218 41.736 49.2773 41.6522 49.2773H41.6557ZM80.0478 47.9998C79.964 47.9998 79.8907 47.9404 79.8767 47.8567C79.8348 47.6298 79.7895 47.4064 79.7441 47.183C79.7231 47.0888 79.786 46.9945 79.8802 46.9771C79.9745 46.9596 80.0687 47.0189 80.0862 47.1132C80.135 47.3401 80.1804 47.5669 80.2223 47.7973C80.2397 47.8916 80.1769 47.9823 80.0827 47.9998C80.0722 47.9998 80.0617 47.9998 80.0513 47.9998H80.0478ZM42.0152 47.5844C42.0152 47.5844 41.9873 47.5844 41.9734 47.5809C41.8791 47.5565 41.8233 47.4622 41.8442 47.368C41.9001 47.1411 41.9594 46.9177 42.0187 46.6943C42.0432 46.6001 42.1409 46.5477 42.2317 46.5722C42.3259 46.5966 42.3783 46.6943 42.3538 46.7886C42.2945 47.0085 42.2351 47.2319 42.1793 47.4518C42.1584 47.532 42.0885 47.5844 42.0118 47.5844H42.0152ZM79.6778 46.3069C79.601 46.3069 79.5277 46.2545 79.5102 46.1742C79.4544 45.9508 79.395 45.7275 79.3357 45.5076C79.3113 45.4133 79.3636 45.3191 79.4579 45.2946C79.5521 45.2702 79.6464 45.3226 79.6743 45.4168C79.7371 45.6402 79.7964 45.8636 79.8523 46.0905C79.8767 46.1847 79.8174 46.279 79.7266 46.3034C79.7127 46.3034 79.6987 46.3069 79.6847 46.3069H79.6778ZM42.483 45.9194C42.4655 45.9194 42.4481 45.9194 42.4306 45.9125C42.3399 45.8845 42.2875 45.7868 42.3154 45.6925C42.3852 45.4726 42.4585 45.2527 42.5353 45.0328C42.5667 44.9421 42.6645 44.8932 42.7587 44.9246C42.8495 44.9561 42.8983 45.0573 42.8669 45.148C42.7936 45.3644 42.7203 45.5809 42.6505 45.8008C42.6261 45.8741 42.5598 45.9229 42.483 45.9229V45.9194ZM79.2065 44.6419C79.1332 44.6419 79.0634 44.593 79.039 44.5197C78.9692 44.2998 78.8959 44.0834 78.8226 43.867C78.7912 43.7763 78.84 43.675 78.9308 43.6436C79.0216 43.6087 79.1228 43.6611 79.1542 43.7518C79.231 43.9717 79.3043 44.1916 79.3741 44.4115C79.402 44.5023 79.3531 44.6 79.2624 44.6314C79.2449 44.6384 79.2275 44.6384 79.21 44.6384L79.2065 44.6419ZM43.0589 44.2929C43.038 44.2929 43.017 44.2894 42.9961 44.2824C42.9053 44.2475 42.8634 44.1463 42.8983 44.0555C42.9821 43.8391 43.0694 43.6227 43.1601 43.4098C43.1985 43.3225 43.2997 43.2806 43.387 43.3155C43.4743 43.3539 43.5162 43.4551 43.4813 43.5459C43.394 43.7553 43.3067 43.9682 43.223 44.1812C43.195 44.251 43.1287 44.2929 43.0589 44.2929ZM78.6271 43.0118C78.5573 43.0118 78.491 42.97 78.4631 42.9001C78.3793 42.6872 78.292 42.4743 78.2013 42.2649C78.1629 42.1776 78.2013 42.0729 78.292 42.0345C78.3793 41.9961 78.484 42.0345 78.5224 42.1253C78.6132 42.3382 78.7004 42.5546 78.7877 42.771C78.8226 42.8617 78.7807 42.963 78.69 42.9979C78.669 43.0049 78.6481 43.0118 78.6271 43.0118ZM43.7396 42.7047C43.7151 42.7047 43.6907 42.7012 43.6663 42.6872C43.579 42.6453 43.5406 42.5406 43.5825 42.4534C43.6802 42.2439 43.7814 42.0345 43.8862 41.8286C43.928 41.7413 44.0328 41.7064 44.12 41.7518C44.2073 41.7937 44.2422 41.8984 44.1968 41.9856C44.0956 42.1881 43.9944 42.394 43.8966 42.6035C43.8687 42.6663 43.8024 42.7047 43.7396 42.7047ZM77.9325 41.4272C77.8662 41.4272 77.8069 41.3922 77.7754 41.3294C77.6777 41.1235 77.573 40.9175 77.4683 40.7151C77.4229 40.6278 77.4578 40.5231 77.5416 40.4812C77.6288 40.4359 77.7336 40.4708 77.7754 40.5545C77.8802 40.7605 77.9849 40.9699 78.0861 41.1793C78.128 41.2666 78.0896 41.3713 78.0058 41.4132C77.9814 41.4237 77.957 41.4306 77.929 41.4306L77.9325 41.4272ZM44.5214 41.1654C44.4935 41.1654 44.4656 41.1584 44.4377 41.1444C44.3539 41.099 44.3225 40.9908 44.3678 40.9071C44.4795 40.7046 44.5947 40.5022 44.7099 40.3032C44.7588 40.2194 44.867 40.1915 44.9473 40.2404C45.031 40.2892 45.059 40.3975 45.0101 40.4777C44.8949 40.6732 44.7832 40.8722 44.6715 41.0746C44.6401 41.134 44.5808 41.1654 44.5179 41.1654H44.5214ZM77.1262 39.8948C77.0669 39.8948 77.0075 39.8634 76.9761 39.8076C76.8609 39.6086 76.7457 39.4131 76.6236 39.2177C76.5712 39.1374 76.5991 39.0292 76.6794 38.9768C76.7597 38.928 76.8679 38.9524 76.9203 39.0327C77.0424 39.2316 77.1611 39.4306 77.2763 39.633C77.3252 39.7168 77.2972 39.8215 77.2135 39.8704C77.1856 39.8844 77.1576 39.8948 77.1262 39.8948ZM45.4045 39.6784C45.3731 39.6784 45.3382 39.6679 45.3103 39.6505C45.23 39.5981 45.2056 39.4899 45.2579 39.4096C45.3836 39.2142 45.5127 39.0187 45.6419 38.8267C45.6977 38.7464 45.8059 38.7255 45.8827 38.7814C45.963 38.8372 45.9839 38.9454 45.9281 39.0222C45.7989 39.2107 45.6733 39.4027 45.5476 39.5946C45.5127 39.647 45.4569 39.6749 45.401 39.6749L45.4045 39.6784ZM76.2047 38.4323C76.1489 38.4323 76.093 38.4044 76.0616 38.3555C75.9325 38.167 75.7998 37.9785 75.6637 37.797C75.6078 37.7202 75.6218 37.6085 75.7021 37.5527C75.7789 37.4934 75.8906 37.5108 75.9464 37.5911C76.0826 37.7796 76.2187 37.9681 76.3513 38.16C76.4072 38.2403 76.3862 38.3485 76.3059 38.4044C76.2745 38.4253 76.2396 38.4358 76.2082 38.4358L76.2047 38.4323ZM46.3888 38.2543C46.3539 38.2543 46.3155 38.2438 46.2841 38.2194C46.2073 38.16 46.1899 38.0518 46.2492 37.975C46.3888 37.7866 46.5285 37.6016 46.6716 37.4201C46.7309 37.3433 46.8426 37.3328 46.9159 37.3921C46.9927 37.4515 47.0032 37.5632 46.9438 37.6365C46.8007 37.8145 46.6646 37.9995 46.525 38.181C46.4901 38.2264 46.4377 38.2508 46.3854 38.2508L46.3888 38.2543ZM75.168 37.0466C75.1157 37.0466 75.0668 37.0256 75.0319 36.9837C74.8853 36.8057 74.7387 36.6312 74.5886 36.4567C74.5258 36.3834 74.5328 36.2752 74.6061 36.2089C74.6794 36.146 74.7876 36.153 74.8539 36.2263C75.0075 36.4008 75.1576 36.5788 75.3077 36.7604C75.367 36.8337 75.3565 36.9453 75.2832 37.0047C75.2518 37.0326 75.2134 37.0431 75.1715 37.0431L75.168 37.0466ZM47.4709 36.9035C47.429 36.9035 47.3906 36.8895 47.3557 36.8616C47.2824 36.7987 47.2754 36.687 47.3383 36.6137C47.4918 36.4357 47.6454 36.2647 47.8025 36.0902C47.8688 36.0204 47.977 36.0134 48.0503 36.0797C48.1201 36.146 48.1271 36.2542 48.0608 36.3275C47.9072 36.4951 47.7536 36.6661 47.6035 36.8406C47.5686 36.8825 47.5198 36.9 47.4709 36.9V36.9035ZM74.0127 35.7551C73.9673 35.7551 73.9219 35.7376 73.887 35.7027C73.7265 35.5387 73.5659 35.3781 73.3984 35.221C73.3285 35.1547 73.3251 35.043 73.3914 34.9732C73.4577 34.9034 73.5694 34.8999 73.6392 34.9662C73.8067 35.1268 73.9743 35.2908 74.1383 35.4584C74.2047 35.5282 74.2047 35.6364 74.1383 35.7062C74.1034 35.7376 74.0616 35.7551 74.0162 35.7551H74.0127ZM48.6472 35.6364C48.6018 35.6364 48.5564 35.619 48.525 35.5841C48.4552 35.5142 48.4587 35.406 48.525 35.3362C48.6891 35.1722 48.8566 35.0116 49.0277 34.851C49.0975 34.7847 49.2092 34.7882 49.2755 34.858C49.3418 34.9278 49.3383 35.0395 49.2685 35.1059C49.101 35.2629 48.9369 35.42 48.7729 35.5841C48.738 35.619 48.6926 35.6364 48.6507 35.6364H48.6472ZM72.7491 34.5683C72.7107 34.5683 72.6688 34.5544 72.6374 34.5264C72.4629 34.3798 72.2884 34.2332 72.1069 34.0901C72.0301 34.0308 72.0196 33.9191 72.0789 33.8458C72.1383 33.769 72.25 33.7585 72.3233 33.8179C72.5048 33.9645 72.6863 34.1111 72.8643 34.2612C72.9376 34.324 72.9481 34.4357 72.8852 34.509C72.8503 34.5509 72.8015 34.5718 72.7526 34.5718L72.7491 34.5683ZM49.9212 34.4636C49.8724 34.4636 49.8235 34.4427 49.7886 34.4008C49.7258 34.3275 49.7362 34.2158 49.8095 34.1564C49.9875 34.0063 50.1656 33.8563 50.3506 33.7131C50.4274 33.6538 50.5356 33.6643 50.5949 33.7411C50.6542 33.8179 50.6438 33.9261 50.567 33.9854C50.389 34.1285 50.2109 34.2716 50.0364 34.4217C50.005 34.4496 49.9631 34.4636 49.9247 34.4636H49.9212ZM71.3843 33.5107C71.3494 33.5107 71.3145 33.5002 71.2831 33.4793C71.0981 33.3501 70.9061 33.221 70.7142 33.0988C70.6339 33.0465 70.6094 32.9383 70.6618 32.858C70.7142 32.7777 70.8224 32.7533 70.9026 32.8056C71.0981 32.9313 71.2901 33.0604 71.4821 33.1965C71.5624 33.2524 71.5798 33.3606 71.524 33.4409C71.489 33.4898 71.4367 33.5142 71.3808 33.5142L71.3843 33.5107ZM51.286 33.399C51.2302 33.399 51.1778 33.3746 51.1429 33.3257C51.0871 33.2489 51.1045 33.1372 51.1848 33.0814C51.3733 32.9452 51.5688 32.8126 51.7607 32.6869C51.841 32.6346 51.9492 32.6555 52.0016 32.7358C52.0539 32.8161 52.033 32.9243 51.9527 32.9766C51.7607 33.1023 51.5722 33.2315 51.3872 33.3641C51.3558 33.385 51.3209 33.3955 51.286 33.3955V33.399ZM69.9253 32.5892C69.8974 32.5892 69.866 32.5822 69.838 32.5683C69.6391 32.4566 69.4401 32.3484 69.2342 32.2436C69.1469 32.1983 69.1155 32.0935 69.1574 32.0098C69.2028 31.926 69.3075 31.8911 69.3913 31.933C69.5972 32.0412 69.8031 32.1494 70.0056 32.2646C70.0894 32.3135 70.1208 32.4182 70.0719 32.5019C70.0405 32.5578 69.9811 32.5892 69.9183 32.5892H69.9253ZM52.7381 32.4601C52.6787 32.4601 52.6194 32.4286 52.588 32.3728C52.5391 32.289 52.567 32.1843 52.6508 32.1354C52.8533 32.0168 53.0557 31.9051 53.2616 31.7969C53.3454 31.7515 53.4536 31.7829 53.499 31.8702C53.5444 31.9539 53.513 32.0621 53.4257 32.1075C53.2232 32.2157 53.0243 32.3239 52.8253 32.4426C52.7974 32.4601 52.766 32.467 52.7381 32.467V32.4601ZM68.379 31.8143C68.3546 31.8143 68.3301 31.8108 68.3092 31.8003C68.0998 31.7096 67.8903 31.6188 67.6774 31.5351C67.5867 31.5002 67.5448 31.3989 67.5797 31.3082C67.6146 31.2174 67.7158 31.1755 67.8066 31.2105C68.023 31.2977 68.2394 31.385 68.4523 31.4792C68.5396 31.5176 68.5815 31.6223 68.5396 31.7096C68.5116 31.7759 68.4453 31.8143 68.379 31.8143ZM54.2739 31.6642C54.2076 31.6642 54.1447 31.6258 54.1133 31.563C54.0749 31.4757 54.1133 31.371 54.2006 31.3326C54.4135 31.2349 54.6264 31.1441 54.8428 31.0569C54.9336 31.0185 55.0348 31.0638 55.0697 31.1511C55.1046 31.2419 55.0627 31.3431 54.9755 31.378C54.766 31.4653 54.5531 31.556 54.3472 31.6503C54.3228 31.6607 54.2983 31.6642 54.2739 31.6642ZM66.7664 31.193C66.7489 31.193 66.7315 31.193 66.7106 31.1825C66.4941 31.1092 66.2777 31.0429 66.0543 30.9801C65.9601 30.9522 65.9077 30.8579 65.9357 30.7637C65.9636 30.6694 66.0578 30.6171 66.1521 30.645C66.3755 30.7113 66.5989 30.7776 66.8188 30.8509C66.9095 30.8823 66.9584 30.9801 66.9305 31.0708C66.906 31.1441 66.8397 31.1895 66.7664 31.1895V31.193ZM55.883 31.0324C55.8097 31.0324 55.7434 30.9871 55.719 30.9138C55.6875 30.823 55.7364 30.7218 55.8307 30.6939C56.0506 30.6206 56.2739 30.5507 56.4973 30.4879C56.5881 30.46 56.6858 30.5158 56.7138 30.6066C56.7417 30.7008 56.6858 30.7951 56.5951 30.823C56.3752 30.8858 56.1588 30.9522 55.9423 31.0255C55.9249 31.0324 55.904 31.0359 55.8865 31.0359L55.883 31.0324ZM65.1014 30.7253C65.1014 30.7253 65.077 30.7253 65.063 30.7218C64.8431 30.6729 64.6163 30.624 64.3929 30.5822C64.2986 30.5647 64.2358 30.474 64.2532 30.3797C64.2707 30.2855 64.3614 30.2226 64.4557 30.2401C64.6861 30.282 64.9129 30.3308 65.1398 30.3832C65.2341 30.4041 65.2934 30.4984 65.2725 30.5926C65.255 30.6729 65.1817 30.7288 65.1014 30.7288V30.7253ZM57.548 30.5717C57.4677 30.5717 57.3944 30.5158 57.3769 30.4356C57.356 30.3413 57.4153 30.2471 57.5096 30.2296C57.7365 30.1808 57.9668 30.1354 58.1972 30.097C58.295 30.0795 58.3822 30.1458 58.3997 30.2401C58.4171 30.3343 58.3508 30.4251 58.2566 30.4425C58.0332 30.4809 57.8063 30.5228 57.5864 30.5717C57.5724 30.5717 57.5619 30.5752 57.548 30.5752V30.5717ZM63.3981 30.4181C63.3981 30.4181 63.3841 30.4181 63.3736 30.4181C63.1502 30.3867 62.9234 30.3623 62.693 30.3378C62.5987 30.3274 62.5254 30.2436 62.5359 30.1458C62.5464 30.0516 62.6302 29.9853 62.7279 29.9888C62.9618 30.0132 63.1921 30.0376 63.4225 30.0691C63.5167 30.083 63.5866 30.1703 63.5726 30.2645C63.5621 30.3518 63.4853 30.4146 63.4016 30.4146L63.3981 30.4181ZM59.2583 30.3064C59.1711 30.3064 59.0943 30.2401 59.0838 30.1493C59.0733 30.0551 59.1431 29.9678 59.2409 29.9574C59.4712 29.9364 59.7051 29.919 59.939 29.905C60.0332 29.891 60.117 29.9748 60.1205 30.0691C60.124 30.1668 60.0507 30.2471 59.9529 30.2506C59.7261 30.261 59.4992 30.2785 59.2723 30.2994C59.2653 30.2994 59.2618 30.2994 59.2548 30.2994L59.2583 30.3064ZM61.6772 30.2645H61.6703C61.4434 30.2541 61.213 30.2471 60.9826 30.2436C60.8849 30.2436 60.8081 30.1633 60.8116 30.0656C60.8116 29.9713 60.8919 29.8945 60.9861 29.8945C61.22 29.8945 61.4539 29.905 61.6842 29.9155C61.782 29.919 61.8553 30.0027 61.8518 30.097C61.8483 30.1912 61.7715 30.2645 61.6772 30.2645Z" fill="#003366"/>
<path d="M41.3763 55.8777C41.2891 55.8777 41.2123 55.8114 41.2018 55.7206C41.1913 55.6054 41.1809 55.4868 41.1704 55.3716C41.1634 55.2738 41.2332 55.1901 41.331 55.1831C41.4252 55.1761 41.5125 55.2459 41.5195 55.3437C41.5299 55.4588 41.5404 55.574 41.5509 55.6892C41.5613 55.7835 41.4915 55.8707 41.3938 55.8812C41.3868 55.8812 41.3833 55.8812 41.3763 55.8812V55.8777Z" fill="#003366"/>
</g>
<defs>
<clipPath id="clip0_1174_12294">
<rect width="120" height="120" fill="white" transform="translate(0.666016 0.315918)"/>
</clipPath>
</defs>
</svg>
