<svg width="121" height="121" viewBox="0 0 121 121" fill="none" xmlns="http://www.w3.org/2000/svg">
<g clip-path="url(#clip0_1174_12260)">
<mask id="mask0_1174_12260" style="mask-type:luminance" maskUnits="userSpaceOnUse" x="1" y="1" width="119" height="119">
<path d="M60.2975 119.2C92.8373 119.2 119.216 92.8207 119.216 60.2809C119.216 27.7411 92.8373 1.3623 60.2975 1.3623C27.7577 1.3623 1.37891 27.7411 1.37891 60.2809C1.37891 92.8207 27.7577 119.2 60.2975 119.2Z" fill="white"/>
</mask>
<g mask="url(#mask0_1174_12260)">
<path opacity="0.8" d="M61.6264 22.4078L49.0664 26.9321L59.5657 56.079L72.1256 51.5547L61.6264 22.4078Z" fill="#BEDEFF"/>
<path d="M53.8601 7.3576L45.4551 10.3853L50.022 23.0634L58.427 20.0357L53.8601 7.3576Z" fill="#003366"/>
<path d="M50.198 23.0003L58.2486 20.1003C59.4925 19.6523 60.8674 20.299 61.3155 21.5428L61.6264 22.406L49.0665 26.9303L48.7555 26.0672C48.3075 24.8233 48.9542 23.4484 50.198 23.0003Z" fill="#BEDEFF"/>
<path d="M61.459 21.5634L48.6562 26.1752C48.4405 26.2529 48.3286 26.4908 48.4063 26.7065L48.4134 26.7262C48.4911 26.9419 48.7289 27.0537 48.9446 26.976L61.7475 22.3642C61.9632 22.2865 62.075 22.0487 61.9973 21.833L61.9902 21.8133C61.9125 21.5976 61.6747 21.4857 61.459 21.5634Z" fill="#003366"/>
<path d="M53.9494 6.36354L44.7469 9.67847C44.5167 9.76139 44.3973 10.0152 44.4802 10.2454L44.4873 10.2651C44.5702 10.4953 44.8241 10.6147 45.0543 10.5318L54.2568 7.21684C54.487 7.13392 54.6064 6.88009 54.5235 6.64989L54.5164 6.6302C54.4335 6.4 54.1796 6.28062 53.9494 6.36354Z" fill="#003366"/>
<path d="M67.0156 57.0787C70.4831 55.8298 72.7714 53.3601 72.1226 51.5601L59.5645 56.0845C60.2133 57.8845 63.5482 58.331 67.0191 57.0822L67.0156 57.0787Z" fill="#003366"/>
<path d="M108.852 110.388H20.3418V125.203H108.852V110.388Z" fill="#003366"/>
<path d="M92.1341 71.7622L57.0371 84.4048L58.1709 87.5522L93.2679 74.9095L92.1341 71.7622Z" fill="#003366"/>
<path opacity="0.8" d="M82.5031 78.787L68.9355 83.6743L71.0151 89.4472L84.5826 84.56L82.5031 78.787Z" fill="#003366"/>
<path opacity="0.8" d="M82.9307 102.193H68.5098V110.391H82.9307V102.193Z" fill="#BEDEFF"/>
<path opacity="0.8" d="M87.2278 83.6081L68.373 90.3999L69.7681 94.2726L88.6228 87.4808L87.2278 83.6081Z" fill="#003366"/>
<path d="M78.4857 49.7028L61.582 61.8672L62.99 63.8237L79.8936 51.6593L78.4857 49.7028Z" fill="#003366"/>
<path d="M81.7377 50.3327L61.1504 65.1479L61.5599 65.7171L82.1473 50.9018L81.7377 50.3327Z" fill="#003366"/>
<path d="M81.7125 54.1902L64.8078 66.3542L61.5566 65.7262L82.145 50.9111L81.7125 54.1902Z" fill="#003366"/>
<path d="M79.0341 66.7935L77.6073 67.8191C76.8329 67.6935 76.4003 67.6203 75.6259 67.4947L71.3945 61.6133L75.1271 58.9272L79.3585 64.8086C79.2329 65.5831 79.1596 66.0156 79.0341 66.79V66.7935Z" fill="#003366"/>
<path d="M85.6061 61.0863L84.5143 62.4677C83.7363 62.5584 83.2968 62.6108 82.5189 62.7015L76.1387 57.6573L78.9922 54.0503L85.3724 59.0945C85.4631 59.8724 85.5154 60.3119 85.6061 61.0898V61.0863Z" fill="#003366"/>
<path d="M69.8943 75.1898L72.6989 74.1817L73.5536 72.3642L69.9396 62.3247L64.4629 64.2956L68.0768 74.3352C68.7885 74.6701 69.1861 74.8549 69.8943 75.1898Z" fill="#003366"/>
<path d="M71.5757 55.3797C71.2618 54.5041 70.7071 53.7855 70.0199 53.2622L62.6944 55.8994C62.499 56.7436 62.5304 57.6506 62.8443 58.5227C63.713 60.9331 66.3711 62.1855 68.785 61.3169C71.1955 60.4483 72.4478 57.7901 71.5792 55.3762L71.5757 55.3797Z" fill="#003366"/>
<path d="M56.471 92.388L45.8594 110.391H65.9001V94.9624C65.9001 89.8031 59.0908 87.9473 56.471 92.3915V92.388ZM60.7931 97.5926C59.4257 97.5926 58.3164 96.4833 58.3164 95.1159C58.3164 93.7484 59.4257 92.6391 60.7931 92.6391C62.1605 92.6391 63.2698 93.7484 63.2698 95.1159C63.2698 96.4833 62.1605 97.5926 60.7931 97.5926Z" fill="#003366"/>
<path opacity="0.4" d="M67.3795 93.225L64.6585 85.6692L60.012 87.3436C52.3585 90.0994 43.7248 86.6145 40.4527 79.1669C36.8458 70.9622 41.0248 61.4669 49.3202 58.4773L59.1504 54.9366L49.7562 28.8506C31.376 39.0715 22.5748 61.3866 29.9318 81.818C34.062 93.2808 42.4865 101.96 52.7423 106.687C61.4179 110.688 70.6167 102.215 67.3795 93.225ZM43.5539 38.9878C45.4865 38.2901 47.6178 39.2948 48.312 41.2273C49.0097 43.1599 48.0051 45.2913 46.0725 45.9855C44.1399 46.6831 42.0085 45.6785 41.3144 43.7459C40.6167 41.8134 41.6213 39.682 43.5539 38.9878ZM60.7934 97.5924C59.426 97.5924 58.3167 96.4831 58.3167 95.1157C58.3167 93.7483 59.426 92.639 60.7934 92.639C62.1609 92.639 63.2702 93.7483 63.2702 95.1157C63.2702 96.4831 62.1609 97.5924 60.7934 97.5924Z" fill="#BEDEFF"/>
<path d="M42.3956 58.6344C44.3087 58.6344 45.8595 57.0836 45.8595 55.1705C45.8595 53.2574 44.3087 51.7065 42.3956 51.7065C40.4825 51.7065 38.9316 53.2574 38.9316 55.1705C38.9316 57.0836 40.4825 58.6344 42.3956 58.6344Z" fill="#BEDEFF"/>
<path d="M50.7396 40.3552C49.5605 37.0831 45.9535 35.3843 42.678 36.5633C39.4059 37.7424 37.707 41.3494 38.8861 44.625C40.0652 47.8971 43.6721 49.5959 46.9477 48.4168C50.2198 47.2378 51.9187 43.6308 50.7396 40.3552Z" fill="#003366"/>
</g>
<path d="M60.2971 120.243C27.2309 120.243 0.332031 93.3438 0.332031 60.281C0.332031 27.2182 27.2309 0.315918 60.2971 0.315918C93.3634 0.315918 120.262 27.2148 120.262 60.281C120.262 93.3473 93.3634 120.246 60.2971 120.246V120.243ZM60.2971 2.40894C28.3855 2.40894 2.42505 28.3694 2.42505 60.281C2.42505 92.1927 28.3855 118.153 60.2971 118.153C92.2088 118.153 118.169 92.1927 118.169 60.281C118.169 28.3694 92.2053 2.40894 60.2971 2.40894Z" fill="#DCEDFF"/>
</g>
<defs>
<clipPath id="clip0_1174_12260">
<rect width="120" height="120" fill="white" transform="translate(0.332031 0.315918)"/>
</clipPath>
</defs>
</svg>
