<svg width="120" height="121" viewBox="0 0 120 121" fill="none" xmlns="http://www.w3.org/2000/svg">
<g clip-path="url(#clip0_1174_12228)">
<path d="M74.3923 50.5582L55.2503 50.1952C48.8069 70.112 39.4803 98.9365 39.4803 98.9365C37.9235 103.753 40.5623 108.919 45.3792 110.48C50.1961 112.036 55.362 109.398 56.9223 104.581C56.9223 104.581 69.0343 67.1311 75.1846 48.1113C74.9298 48.8967 74.668 49.7135 74.3923 50.5617V50.5582Z" fill="#003366"/>
<path d="M60.0017 120.316C26.9153 120.316 0 93.4006 0 60.3177C0 27.2347 26.9153 0.315918 60.0017 0.315918C93.0882 0.315918 120.003 27.2312 120.003 60.3177C120.003 93.4041 93.0882 120.319 60.0017 120.319V120.316ZM60.0017 2.41022C28.0706 2.41022 2.0943 28.3865 2.0943 60.3177C2.0943 92.2488 28.0706 118.225 60.0017 118.225C91.9329 118.225 117.909 92.2488 117.909 60.3177C117.909 28.3865 91.9294 2.41022 60.0017 2.41022Z" fill="#DCEDFF"/>
<path d="M67.5908 61.1171C67.4826 61.0054 67.3535 60.9252 67.1894 60.8728C67.0254 60.8204 66.8683 60.8065 66.7182 60.8344C66.5646 60.8623 66.4355 60.9252 66.3203 61.0229C66.2051 61.1206 66.1248 61.2498 66.076 61.3999C66.0271 61.55 66.0201 61.7 66.055 61.8467C66.0899 61.9933 66.1597 62.1224 66.2644 62.2376C66.3692 62.3493 66.5088 62.4331 66.6693 62.4854C66.8299 62.5378 66.987 62.5482 67.1371 62.5203C67.2907 62.4924 67.4233 62.4261 67.535 62.3283C67.6502 62.2306 67.7305 62.1084 67.7793 61.9549C67.8282 61.8013 67.8352 61.6512 67.8003 61.5046C67.7654 61.358 67.6921 61.2323 67.5873 61.1206L67.5908 61.1171Z" fill="#DCEDFF"/>
<path d="M66.9657 50.3036C65.8034 49.9267 64.5608 50.5654 64.1838 51.7243L53.6669 84.2383C53.29 85.4007 53.9287 86.6433 55.0876 87.0202L61.9429 89.2367L73.8211 52.5201L66.9657 50.3036Z" fill="#DCEDFF"/>
<path opacity="0.6" d="M63.627 45.1074C63.9167 44.2123 63.4258 43.252 62.5308 42.9624C61.6357 42.6728 60.6754 43.1636 60.3858 44.0586L44.0029 94.6903C43.7133 95.5854 44.2041 96.5457 45.0991 96.8353C45.9942 97.1249 46.9546 96.6341 47.2442 95.7391L63.627 45.1074Z" fill="#DCEDFF"/>
<path d="M81.5107 32.7635L84.0273 33.5768L84.7673 31.2801L72.3027 27.2485L82.2542 30.4668L81.5107 32.7635Z" fill="#DCEDFF"/>
<path d="M62.3516 24.0308L72.303 27.249L62.3516 24.0308Z" fill="#DCEDFF"/>
<path d="M80.8127 34.9246L80.1181 37.0712C80.0064 37.4133 79.6434 37.5983 79.3013 37.4901C78.9593 37.3784 78.5963 37.5669 78.4846 37.909C76.3135 44.6282 56.9237 104.585 56.9237 104.585C55.367 109.401 50.1975 112.044 45.3806 110.483C40.5637 108.927 37.9214 103.757 39.4817 98.9404C39.4817 98.9404 58.8784 38.9875 61.053 32.2683C61.1647 31.9262 60.9762 31.5632 60.6341 31.4515C60.2921 31.3398 60.1071 30.9768 60.2153 30.6348L60.9099 28.4881L58.3967 27.6748L57.7545 29.6539C57.4997 30.4393 57.9325 31.284 58.7178 31.5388L58.7772 31.5562C59.1192 31.6679 59.3042 32.031 59.196 32.373L37.8027 98.5076C35.9458 104.249 39.0942 110.407 44.8361 112.264C50.578 114.121 56.7352 110.972 58.5922 105.23L79.9855 39.0957C80.0972 38.7537 80.4602 38.5687 80.8022 38.6769C81.5876 38.9317 82.4323 38.4989 82.6871 37.7135L83.3294 35.7344L80.8162 34.9211L80.8127 34.9246Z" fill="#DCEDFF"/>
<path d="M59.8421 23.2213L59.0996 25.5161L61.6136 26.3296L62.3561 24.0348L59.8421 23.2213Z" fill="#DCEDFF"/>
<path d="M85.6403 34.097L89.1727 23.1717C90.2513 19.8383 88.4222 16.264 85.0923 15.1854L69.0011 9.9811C65.6677 8.90253 62.0934 10.7316 61.0148 14.0615L57.4824 24.9868L85.6403 34.097Z" fill="#003366"/>
<path d="M56.8642 27.1753C56.7769 28.4319 57.5448 29.6326 58.7979 30.041L81.6188 37.4234C82.8719 37.8283 84.1983 37.3047 84.8615 36.2331L56.8642 27.1753Z" fill="#DCEDFF"/>
<path d="M65.6606 58.9457C65.7444 58.9737 65.8212 58.9667 65.9015 58.9248C65.9782 58.8864 66.0306 58.8236 66.0585 58.7433C66.0865 58.6595 66.0795 58.5827 66.0376 58.5024C65.9992 58.4256 65.9364 58.3733 65.8561 58.3454C65.7723 58.3174 65.6955 58.3244 65.6152 58.3663C65.5384 58.4047 65.4861 58.4675 65.4582 58.5478C65.4302 58.6281 65.4372 58.7084 65.4791 58.7887C65.5175 58.8655 65.5803 58.9178 65.6606 58.9457Z" fill="#003366"/>
<path d="M64.6096 72.3214C64.5433 72.3004 64.4874 72.3039 64.4351 72.3354C64.3827 72.3668 64.3443 72.4156 64.3234 72.4854L63.737 74.304L62.5991 73.9375L63.0214 72.632C63.0424 72.5622 63.0424 72.4994 63.0144 72.4436C62.9865 72.3877 62.9411 72.3493 62.8783 72.3284C62.8155 72.3074 62.7562 72.3109 62.7003 72.3423C62.6445 72.3703 62.6061 72.4226 62.5851 72.4889L62.1628 73.7944L61.0563 73.4384L61.6427 71.6198C61.6636 71.55 61.6636 71.4872 61.6392 71.4348C61.6148 71.379 61.5694 71.3406 61.5066 71.3196C61.4437 71.2987 61.3809 71.3022 61.325 71.3301C61.2692 71.358 61.2308 71.4104 61.2099 71.4767L60.5467 73.5326C60.5257 73.5989 60.5292 73.6617 60.5571 73.7211C60.5851 73.7804 60.6374 73.8223 60.7037 73.8432L63.7824 74.838C63.8487 74.859 63.9115 74.8555 63.9743 74.8241C64.0337 74.7927 64.0756 74.7438 64.0965 74.6775L64.7597 72.6216C64.7806 72.5518 64.7806 72.4889 64.7527 72.4331C64.7248 72.3772 64.6794 72.3388 64.6131 72.3179L64.6096 72.3214Z" fill="#003366"/>
<path d="M62.393 69.0439C62.4768 69.0718 62.5536 69.0648 62.6339 69.0229C62.7107 68.9845 62.763 68.9217 62.7909 68.8414C62.8189 68.7577 62.8119 68.6809 62.77 68.6006C62.7316 68.5238 62.6688 68.4714 62.5885 68.4435C62.5047 68.4156 62.4279 68.4226 62.3477 68.4645C62.2709 68.5029 62.2185 68.5657 62.1906 68.646C62.1627 68.7297 62.1696 68.8065 62.2115 68.8868C62.2499 68.9636 62.3128 69.016 62.393 69.0439Z" fill="#003366"/>
<path d="M65.1569 70.6148C65.0906 70.5938 65.0313 70.5938 64.9754 70.6183C64.9196 70.6427 64.8847 70.6846 64.8637 70.7439L64.8288 70.8556C64.8079 70.9219 64.752 70.9638 64.6683 70.9848C64.581 71.0022 64.4833 70.9952 64.3716 70.9603L61.8898 70.1575C61.8235 70.1366 61.7607 70.1401 61.7048 70.168C61.649 70.1959 61.6106 70.2448 61.5896 70.3111C61.5687 70.3774 61.5722 70.4402 61.6001 70.4961C61.628 70.5519 61.6769 70.5903 61.7432 70.6113L64.225 71.4141C64.389 71.4664 64.5426 71.4839 64.6857 71.4699C64.8288 71.4525 64.9545 71.4036 65.0627 71.3233C65.1674 71.2431 65.2442 71.1383 65.2861 71.0022V70.9917C65.3175 70.901 65.321 70.8207 65.2966 70.7474C65.2721 70.6776 65.2267 70.6287 65.1604 70.6078L65.1569 70.6148Z" fill="#003366"/>
<path d="M59.7928 78.5206C59.6881 78.3147 59.5031 78.189 59.2797 78.1157L58.8573 77.9796C58.3024 77.8016 57.709 78.1053 57.5275 78.6603C57.3494 79.2152 57.6531 79.8086 58.2081 79.9901L59.2134 80.3148L58.8853 81.3095C58.7038 81.8645 59.0039 82.4579 59.5589 82.6429C60.1139 82.8244 60.7073 82.5242 60.8923 81.9693L61.0075 81.6237L61.0319 81.5469C61.1122 81.3026 61.0913 81.0617 60.9761 80.8314L59.7928 78.5206Z" fill="#003366"/>
<path d="M68.7904 59.3719L66.7659 58.7192C66.6961 58.6982 66.6333 58.6982 66.5775 58.7297C66.5216 58.7576 66.4832 58.8064 66.4588 58.8763C66.4378 58.9426 66.4413 59.0054 66.4692 59.0647C66.4972 59.1241 66.546 59.1625 66.6159 59.1834L68.6403 59.8361C68.7067 59.8571 68.7695 59.8536 68.8288 59.8257C68.8882 59.7943 68.9266 59.7489 68.9475 59.6791C68.9684 59.6128 68.965 59.5464 68.937 59.4906C68.9056 59.4347 68.8602 59.3963 68.7904 59.3719Z" fill="#003366"/>
<path d="M69.4257 57.986C69.3978 57.9337 69.3489 57.8988 69.2756 57.8743L67.9493 57.445C67.8096 57.3996 67.7084 57.3194 67.6456 57.2007C67.5828 57.082 67.5618 56.9389 67.5758 56.7748C67.5897 56.6108 67.6526 56.4363 67.7538 56.2547C67.7747 56.2164 67.7887 56.1814 67.7922 56.1465C67.7957 56.1116 67.7922 56.0767 67.7782 56.0453C67.7643 56.0139 67.7363 55.9825 67.6979 55.9615C67.6211 55.9127 67.5409 55.9266 67.4536 55.9965C67.3663 56.0698 67.293 56.1954 67.2337 56.3769C67.1744 56.5584 67.1639 56.7399 67.1988 56.9179C67.2232 57.0401 67.2651 57.1483 67.3279 57.2495L67.2407 57.2216C67.1639 57.1972 67.1011 57.1972 67.0522 57.2216C67.0033 57.2461 66.9649 57.2984 66.9405 57.3717C66.9161 57.445 66.9196 57.5078 66.944 57.5602C66.9719 57.6126 67.0208 57.651 67.0941 57.6754L69.1256 58.3316C69.2023 58.356 69.2652 58.356 69.314 58.3281C69.3629 58.3002 69.4013 58.2513 69.4257 58.178C69.4502 58.1047 69.4502 58.0384 69.4222 57.9895L69.4257 57.986Z" fill="#003366"/>
<path d="M65.5248 69.4696L63.5003 68.8134C63.4305 68.7925 63.3677 68.7925 63.3118 68.8239C63.256 68.8518 63.2176 68.9007 63.1931 68.9705C63.1722 69.0368 63.1757 69.0996 63.2036 69.159C63.2315 69.2183 63.2804 69.2567 63.3502 69.2777L65.3747 69.9339C65.441 69.9548 65.5039 69.9513 65.5632 69.9234C65.6225 69.892 65.6609 69.8466 65.6819 69.7768C65.7028 69.7105 65.6993 69.6442 65.6714 69.5883C65.64 69.5325 65.5946 69.4941 65.5248 69.4696Z" fill="#003366"/>
<path d="M67.2694 64.0875L66.1525 63.7245C65.9012 63.6442 65.6743 63.6233 65.4683 63.6617C65.2659 63.7001 65.0914 63.7909 64.9483 63.927C64.8051 64.0631 64.7004 64.2376 64.6341 64.4471C64.5678 64.6565 64.5538 64.8415 64.5922 65.03C64.6132 65.1347 64.6446 65.2289 64.69 65.3162L63.5765 64.9567C63.5067 64.9357 63.4439 64.9357 63.388 64.9671C63.3322 64.9951 63.2938 65.0439 63.2693 65.1137C63.2484 65.1836 63.2519 65.2429 63.2798 65.3022C63.3077 65.3616 63.3566 65.4 63.4264 65.4209L66.519 66.4227C66.5853 66.4436 66.6481 66.4401 66.7075 66.4122C66.7668 66.3808 66.8052 66.3354 66.8261 66.2656C66.8471 66.1993 66.8436 66.133 66.8157 66.0771C66.7843 66.0213 66.7389 65.9829 66.6691 65.9585L65.3881 65.5431C65.2764 65.5082 65.1856 65.4453 65.1193 65.3581C65.053 65.2708 65.0111 65.1661 64.9901 65.0439C64.9727 64.9253 64.9832 64.7996 65.025 64.6739C65.0704 64.5343 65.1367 64.4191 65.224 64.3284C65.3113 64.2376 65.4195 64.1783 65.5486 64.1504C65.6778 64.1224 65.8314 64.1364 66.0024 64.1923L67.1193 64.5553C67.1857 64.5762 67.2485 64.5727 67.3078 64.5448C67.3672 64.5134 67.4056 64.468 67.4265 64.3982C67.4475 64.3284 67.444 64.269 67.416 64.2097C67.3846 64.1504 67.3393 64.112 67.2694 64.091V64.0875Z" fill="#003366"/>
<path d="M66.2706 67.1695C66.2043 67.1485 66.1449 67.1485 66.0891 67.173C66.0332 67.1974 65.9983 67.2358 65.9809 67.2916L65.932 67.4487C65.9006 67.5464 65.8343 67.6162 65.7296 67.6546C65.6249 67.693 65.5132 67.6965 65.391 67.6546L64.267 67.2916L64.3927 66.9042C64.4136 66.8414 64.4102 66.782 64.3892 66.7331C64.3648 66.6808 64.3264 66.6459 64.2705 66.6284C64.2112 66.6075 64.1554 66.611 64.1065 66.6424C64.0576 66.6703 64.0227 66.7157 64.0018 66.7785L63.8761 67.166L63.2199 66.9531C63.1536 66.9321 63.0907 66.9356 63.0349 66.9635C62.9791 66.9914 62.9407 67.0403 62.9197 67.1066C62.8988 67.173 62.9023 67.2358 62.9302 67.2916C62.9581 67.3475 63.007 67.3859 63.0733 67.4068L63.7295 67.6197L63.6632 67.8292C63.6422 67.892 63.6457 67.9513 63.6667 68.0002C63.6911 68.0526 63.733 68.0875 63.7923 68.1049C63.8482 68.1224 63.8971 68.1189 63.9494 68.091C63.9983 68.063 64.0332 68.0177 64.0541 67.9548L64.1204 67.7454L65.2444 68.1084C65.4119 68.1608 65.5725 68.1747 65.7296 68.1503C65.8866 68.1259 66.0228 68.063 66.138 67.9653C66.2531 67.8711 66.3369 67.7454 66.3858 67.5918L66.4137 67.508C66.4381 67.4313 66.4381 67.358 66.4137 67.2951C66.3858 67.2323 66.3404 67.1904 66.2741 67.166L66.2706 67.1695Z" fill="#003366"/>
<path d="M62.8758 79.2746L61.8705 78.95L62.1952 77.9447C62.3732 77.3898 62.0695 76.7964 61.5145 76.6149C60.9595 76.4368 60.3661 76.7405 60.1846 77.2955L60.052 77.7004V77.7179C59.9682 77.9622 59.9857 78.203 60.1044 78.4334L61.2876 80.7441C61.3924 80.9501 61.5773 81.0757 61.8007 81.149L62.2231 81.2852C62.7781 81.4632 63.3715 81.1595 63.553 80.6045C63.731 80.0495 63.4273 79.4561 62.8723 79.2746H62.8758ZM61.5669 77.5992C61.5075 77.7842 61.3086 77.8854 61.1271 77.8261C60.9421 77.7667 60.8409 77.5678 60.9002 77.3863C60.9595 77.2048 61.1585 77.1 61.34 77.1594C61.525 77.2187 61.6262 77.4177 61.5669 77.5992ZM63.0189 80.4439C62.9596 80.6289 62.7606 80.7302 62.5791 80.6708C62.3941 80.6115 62.2929 80.4125 62.3522 80.231C62.4116 80.046 62.6105 79.9448 62.792 80.0041C62.9735 80.0635 63.0783 80.2624 63.0189 80.4439Z" fill="#003366"/>
<path d="M68.4915 60.8761C68.4635 60.8167 68.4147 60.7783 68.3448 60.7574L67.3326 60.4293C67.0918 60.3525 66.8614 60.3385 66.6345 60.3874C66.4076 60.4363 66.2087 60.5375 66.0376 60.6876C65.8666 60.8377 65.7409 61.0331 65.6641 61.2705C65.5873 61.5078 65.5734 61.7382 65.6223 61.9616C65.6711 62.185 65.7723 62.384 65.9294 62.5585C66.0865 62.7295 66.282 62.8552 66.5228 62.932C66.7637 63.0088 66.994 63.0297 67.2139 62.9878C67.4373 62.9459 67.6293 62.8587 67.7968 62.719C67.9644 62.5794 68.0831 62.3979 68.1564 62.178C68.2297 61.9546 68.2366 61.7417 68.1843 61.5288C68.1529 61.3961 68.097 61.2775 68.0237 61.1658L68.1948 61.2216C68.2611 61.2426 68.3239 61.2391 68.3832 61.2112C68.4426 61.1797 68.481 61.1344 68.5019 61.0645C68.5229 60.9982 68.5194 60.9354 68.4915 60.8761ZM67.7794 61.9546C67.7305 62.1082 67.6502 62.2304 67.5351 62.3281C67.4199 62.4258 67.2872 62.4922 67.1371 62.5201C66.987 62.548 66.83 62.5375 66.6694 62.4852C66.5088 62.4328 66.3727 62.3491 66.2645 62.2374C66.1598 62.1257 66.09 61.9965 66.0551 61.8464C66.0202 61.6998 66.0272 61.5497 66.076 61.3996C66.1249 61.2495 66.2087 61.1204 66.3204 61.0227C66.4321 60.9249 66.5647 60.8621 66.7183 60.8342C66.8684 60.8063 67.0254 60.8202 67.1895 60.8726C67.3535 60.9249 67.4827 61.0052 67.5909 61.1169C67.6956 61.2286 67.7689 61.3577 67.8038 61.5009C67.8387 61.6475 67.8317 61.7941 67.7829 61.9511L67.7794 61.9546Z" fill="#003366"/>
</g>
<defs>
<clipPath id="clip0_1174_12228">
<rect width="120" height="120" fill="white" transform="translate(0 0.315918)"/>
</clipPath>
</defs>
</svg>
