<svg width="120" height="121" viewBox="0 0 120 121" fill="none" xmlns="http://www.w3.org/2000/svg">
<g clip-path="url(#clip0_1174_12315)">
<mask id="mask0_1174_12315" style="mask-type:luminance" maskUnits="userSpaceOnUse" x="1" y="1" width="118" height="119">
<path d="M60.0245 119.078C92.4643 119.078 118.762 92.7802 118.762 60.3404C118.762 27.9007 92.4643 1.60303 60.0245 1.60303C27.5847 1.60303 1.28711 27.9007 1.28711 60.3404C1.28711 92.7802 27.5847 119.078 60.0245 119.078Z" fill="white"/>
</mask>
<g mask="url(#mask0_1174_12315)">
<g opacity="0.6">
<path d="M-37.5719 92.0278L-37.7598 91.847C-37.4432 91.5165 -37.1198 91.1861 -36.7893 90.8522L-36.605 91.0365C-36.9354 91.367 -37.2589 91.6974 -37.5719 92.0244V92.0278ZM-35.1128 89.5965L-35.2902 89.4052C-34.9563 89.0922 -34.6154 88.7791 -34.2676 88.4661L-34.0937 88.6609C-34.4415 88.9739 -34.7789 89.287 -35.1128 89.5965ZM-32.5319 87.2904L-32.7024 87.0922C-32.3545 86.7931 -31.9998 86.4974 -31.638 86.1983L-31.4711 86.4C-31.8293 86.6991 -32.1841 86.9948 -32.5319 87.2904ZM-29.8572 85.0922L-30.0206 84.887C-29.6624 84.6018 -29.2972 84.3165 -28.925 84.0313L-28.765 84.2365C-29.1337 84.5217 -29.4989 84.807 -29.8572 85.0887V85.0922ZM-27.1093 82.9844L-27.2659 82.7757C-26.8972 82.5009 -26.525 82.2296 -26.1459 81.9548L-25.9928 82.167C-26.3685 82.4417 -26.7406 82.713 -27.1093 82.9878V82.9844ZM-24.2989 80.96L-24.4485 80.7444C-24.0728 80.48 -23.6937 80.2157 -23.3076 79.9548L-23.1615 80.1704C-23.5441 80.4348 -23.9232 80.6957 -24.2989 80.96ZM-21.4398 79.0052L-21.5859 78.7896C-21.2032 78.5357 -20.8172 78.2817 -20.4276 78.0244L-20.285 78.2435C-20.6745 78.4974 -21.0606 78.7513 -21.4432 79.0052H-21.4398ZM-18.5354 77.1165L-18.6745 76.8974C-18.285 76.6504 -17.8954 76.4035 -17.4989 76.1565L-17.3598 76.3791C-17.7528 76.6261 -18.1459 76.873 -18.5319 77.1165H-18.5354ZM-15.5928 75.2835L-15.7285 75.0609C-15.3354 74.8209 -14.9389 74.5809 -14.5424 74.3443L-14.4067 74.567C-14.8032 74.807 -15.1998 75.0435 -15.5928 75.2835ZM-12.6189 73.5061L-12.7511 73.28C-12.3545 73.047 -11.9545 72.8139 -11.5511 72.5809L-11.4189 72.807C-11.8224 73.04 -12.2189 73.2731 -12.6154 73.5026L-12.6189 73.5061ZM-9.61716 71.7774L-9.74585 71.5513C-9.34585 71.3252 -8.94238 71.0991 -8.53542 70.8731L-8.40672 71.0991C-8.8102 71.3252 -9.21368 71.5513 -9.61368 71.7774H-9.61716ZM-6.58759 70.0939L-6.71281 69.8644C-6.30933 69.6452 -5.90237 69.4226 -5.49194 69.2035L-5.36672 69.433C-5.77368 69.6522 -6.18064 69.8748 -6.58411 70.0939H-6.58759ZM-3.53368 68.4522L-3.65542 68.2226C-3.24846 68.007 -2.83803 67.7913 -2.42759 67.5757L-2.30585 67.8052C-2.71629 68.0209 -3.12672 68.2365 -3.53368 68.4522ZM-0.462376 66.8487L-0.580635 66.6157C-0.1702 66.4035 0.240234 66.1948 0.654148 65.9861L0.772408 66.2191C0.358494 66.4278 -0.0519409 66.64 -0.462376 66.8487ZM2.6298 65.2835L2.51502 65.0504C2.92893 64.8452 3.34285 64.64 3.75676 64.4348L3.87154 64.6678C3.45763 64.8731 3.04371 65.0783 2.6298 65.2835ZM5.73936 63.7531L5.62458 63.52C6.03849 63.3183 6.45588 63.1165 6.87328 62.9148L6.98458 63.1513C6.56719 63.3531 6.1498 63.5548 5.73589 63.7531H5.73936ZM8.86284 62.2539L8.75154 62.0174C9.16893 61.8191 9.58632 61.6244 10.0072 61.4261L10.1185 61.6626C9.69762 61.8609 9.28023 62.0557 8.86284 62.2539ZM12.0037 60.7896L11.8959 60.553C12.3133 60.3617 12.7341 60.167 13.1585 59.9757L13.2663 60.2122C12.8455 60.4035 12.4246 60.5983 12.0072 60.7896H12.0037ZM15.1585 59.3531L15.0507 59.1165C15.4715 58.9287 15.8924 58.7374 16.3168 58.5496L16.4211 58.7896C15.9968 58.9774 15.5759 59.1652 15.155 59.3565L15.1585 59.3531ZM18.3272 57.9444L18.2228 57.7044C18.6472 57.52 19.0681 57.3357 19.4959 57.1513L19.6002 57.3913C19.1759 57.5757 18.7515 57.76 18.3307 57.9444H18.3272ZM21.5063 56.567L21.402 56.327C21.8263 56.1461 22.2507 55.9652 22.6785 55.7844L22.7794 56.0244C22.3515 56.2052 21.9272 56.3861 21.5028 56.567H21.5063ZM24.6994 55.2174L24.5985 54.9774C25.0228 54.8 25.4507 54.6226 25.8785 54.4452L25.9794 54.6852C25.5515 54.8626 25.1237 55.04 24.6994 55.2174ZM27.9028 53.8922L27.8055 53.6522C28.2333 53.4783 28.6611 53.3044 29.0889 53.1304L29.1863 53.3739C28.7585 53.5478 28.3307 53.7217 27.9028 53.8957V53.8922ZM31.1168 52.5948L31.0194 52.3513C31.4472 52.1809 31.8785 52.0104 32.3098 51.84L32.4072 52.0835C31.9759 52.2539 31.5481 52.4244 31.1202 52.5948H31.1168ZM34.3376 51.3218L34.2437 51.0783C34.675 50.9113 35.1063 50.7444 35.5376 50.5774L35.6315 50.8209C35.2002 50.9878 34.7689 51.1548 34.3376 51.3218ZM37.5724 50.073L37.4785 49.8296C37.9098 49.6661 38.3376 49.5026 38.7689 49.3391L38.8628 49.5826C38.4315 49.7461 38.0037 49.9096 37.5724 50.073ZM40.8037 48.8522L40.7133 48.6087C41.1446 48.4487 41.5759 48.2887 42.0107 48.1287L42.1011 48.3722C41.6698 48.5322 41.235 48.6922 40.8037 48.8522ZM44.0455 47.6557L43.955 47.4087C44.3898 47.2522 44.8211 47.0922 45.2559 46.9357L45.3428 47.1826C44.9081 47.3391 44.4733 47.4957 44.042 47.6557H44.0455ZM47.3046 46.4835L47.2176 46.2365C47.6524 46.08 48.0872 45.927 48.5255 45.7739L48.6124 46.0209C48.1776 46.1739 47.7394 46.3304 47.3046 46.4835ZM50.5741 45.3322L50.4872 45.0852C50.9255 44.9322 51.3602 44.7826 51.7985 44.6296L51.882 44.8765C51.4437 45.0261 51.0089 45.1791 50.5707 45.3322H50.5741ZM53.8576 44.2017L53.7741 43.9548C54.2124 43.8052 54.6507 43.6557 55.0924 43.5096L55.1759 43.7565C54.7376 43.9026 54.2994 44.0522 53.8576 44.2017ZM57.1515 43.0957L57.0681 42.8487C57.5098 42.7026 57.9481 42.5565 58.3898 42.4139L58.4698 42.6609C58.0281 42.807 57.5898 42.9496 57.1481 43.0957H57.1515ZM60.4594 42.0139L60.3794 41.767C60.8211 41.6244 61.2594 41.4817 61.7011 41.3426L61.7811 41.5896C61.3394 41.7322 60.9011 41.8713 60.4628 42.0139H60.4594ZM63.7602 40.96L63.6802 40.713C64.122 40.5739 64.5637 40.4348 65.0055 40.2957L65.082 40.5461C64.6402 40.6852 64.1985 40.8209 63.7602 40.96ZM67.0681 39.927L66.9915 39.6765C67.4333 39.5409 67.875 39.4052 68.3168 39.2696L68.3933 39.52C67.9515 39.6557 67.5098 39.7878 67.0681 39.927ZM70.3863 38.9217L70.3133 38.6713C70.755 38.5391 71.2002 38.407 71.642 38.2748L71.715 38.5252C71.2733 38.6574 70.8281 38.7896 70.3863 38.9217ZM73.7115 37.9409L73.6385 37.6904C74.0837 37.5617 74.5255 37.433 74.9707 37.3044L75.0437 37.5548C74.5985 37.6835 74.1568 37.8122 73.7115 37.9409ZM77.0437 36.9878L76.9741 36.7374C77.4194 36.6122 77.8646 36.487 78.3098 36.3617L78.3794 36.6122C77.9342 36.7374 77.4889 36.8626 77.0437 36.9878ZM80.3828 36.0591L80.3133 35.8087C80.7585 35.687 81.2072 35.5652 81.6524 35.4435L81.722 35.6939C81.2768 35.8157 80.8315 35.9339 80.3828 36.0591ZM83.7289 35.1548L83.6628 34.9044C84.1115 34.7861 84.5568 34.6678 85.0055 34.5496L85.0715 34.8035C84.6263 34.9217 84.1776 35.0365 83.7324 35.1583L83.7289 35.1548ZM87.082 34.2817L87.0159 34.0278C87.4646 33.913 87.9133 33.7983 88.362 33.687L88.4246 33.9409C87.9759 34.0557 87.5307 34.167 87.082 34.2817ZM90.442 33.4365L90.3794 33.1826C90.8281 33.0713 91.2767 32.96 91.7254 32.8522L91.7881 33.1061C91.3394 33.2139 90.8907 33.3252 90.442 33.4365ZM93.8124 32.6191L93.7533 32.3652C94.2055 32.2574 94.6542 32.1531 95.1028 32.0452L95.162 32.2991C94.7133 32.4035 94.2646 32.5113 93.8124 32.6191ZM97.1863 31.8331L97.1272 31.5791C97.5794 31.4748 98.0315 31.3739 98.4802 31.2731L98.5359 31.527C98.0872 31.6278 97.635 31.7287 97.1828 31.8331H97.1863ZM100.571 31.0817L100.515 30.8278C100.967 30.7304 101.419 30.6331 101.872 30.5357L101.927 30.7896C101.475 30.887 101.026 30.9844 100.571 31.0817ZM103.962 30.3617L103.91 30.1078C104.365 30.0139 104.818 29.92 105.27 29.8296L105.322 30.0835C104.87 30.1739 104.418 30.2678 103.965 30.3617H103.962ZM107.36 29.6765L107.312 29.4191C107.767 29.3287 108.219 29.2417 108.675 29.1548L108.724 29.4122C108.272 29.4991 107.816 29.5861 107.364 29.6765H107.36ZM110.762 29.0296L110.713 28.7722C111.169 28.6887 111.625 28.6052 112.08 28.5252L112.125 28.7826C111.673 28.8626 111.218 28.9461 110.762 29.0296ZM114.174 28.4209L114.129 28.1635C114.588 28.0835 115.044 28.007 115.496 27.9304L115.538 28.1878C115.082 28.2644 114.626 28.3409 114.171 28.4174L114.174 28.4209ZM117.597 27.8574L117.555 27.6C118.014 27.527 118.47 27.4574 118.925 27.3878L118.964 27.6452C118.508 27.7148 118.052 27.7844 117.593 27.8574H117.597ZM121.023 27.3391L120.985 27.0817C121.444 27.0157 121.903 26.9496 122.358 26.887L122.393 27.1444C121.938 27.207 121.479 27.2731 121.019 27.3391H121.023ZM124.456 26.8731L124.421 26.6157C124.884 26.5565 125.339 26.5009 125.799 26.4417L125.83 26.6991C125.374 26.7548 124.915 26.8139 124.456 26.8731ZM127.896 26.4591L127.868 26.1983C128.331 26.1461 128.79 26.0974 129.249 26.0487L129.277 26.3096C128.821 26.3583 128.362 26.407 127.899 26.4591H127.896ZM156.894 26.3165C156.445 26.2435 155.99 26.1774 155.527 26.1148L155.562 25.8574C156.028 25.92 156.484 25.9896 156.936 26.0626L156.894 26.32V26.3165ZM131.343 26.1044L131.318 25.8435C131.781 25.8017 132.244 25.76 132.699 25.7183L132.72 25.9791C132.261 26.0174 131.802 26.0591 131.339 26.1009L131.343 26.1044ZM153.465 25.8678C153.012 25.8226 152.553 25.7774 152.087 25.7391L152.108 25.4783C152.574 25.5165 153.037 25.5617 153.492 25.607L153.465 25.8678ZM134.793 25.8157L134.776 25.5548C135.242 25.52 135.701 25.4887 136.16 25.4609L136.178 25.7217C135.719 25.7496 135.259 25.7809 134.797 25.8157H134.793ZM138.251 25.6035L138.237 25.3426C138.703 25.3183 139.165 25.2974 139.625 25.28L139.635 25.5409C139.176 25.5583 138.717 25.5791 138.251 25.6035ZM150.018 25.593C149.562 25.5652 149.099 25.5444 148.633 25.5235L148.644 25.2626C149.11 25.2835 149.572 25.3044 150.032 25.3322L150.018 25.593ZM141.712 25.4748L141.705 25.2139C142.171 25.2035 142.633 25.193 143.092 25.1896V25.4504C142.637 25.4574 142.178 25.4644 141.712 25.4748ZM146.56 25.4609C146.105 25.4504 145.642 25.447 145.176 25.4435V25.1826C145.645 25.1826 146.108 25.1896 146.567 25.2L146.56 25.4609Z" fill="#003366"/>
</g>
<g opacity="0.6">
<path d="M-8.03543 99.4331C-8.50499 99.4331 -8.97108 99.4296 -9.43716 99.4227V99.1618C-8.97108 99.1688 -8.50499 99.1723 -8.03543 99.1723V99.4331ZM-5.93456 99.4227V99.1618C-5.47195 99.1549 -5.00586 99.1479 -4.53978 99.1375L-4.53282 99.3983C-5.00238 99.4088 -5.46847 99.4157 -5.93456 99.4227ZM-11.5346 99.3775C-12.0041 99.3636 -12.4702 99.3462 -12.9328 99.3288L-12.9224 99.0679C-12.4598 99.0853 -11.9937 99.1027 -11.5241 99.1166L-11.5311 99.3775H-11.5346ZM-2.43543 99.3427L-2.44586 99.0818C-1.98325 99.0644 -1.51717 99.047 -1.0476 99.0262L-1.03717 99.287C-1.50673 99.3079 -1.97282 99.3253 -2.43543 99.3427ZM-15.0337 99.2244C-15.5033 99.1966 -15.9693 99.1688 -16.4319 99.134L-16.4146 98.8731C-15.9519 98.9044 -15.4859 98.9357 -15.0198 98.9636L-15.0337 99.2244ZM1.0637 99.1792L1.04979 98.9184C1.5124 98.894 1.97849 98.8627 2.44457 98.8349L2.46196 99.0957C1.99588 99.127 1.52979 99.1549 1.0637 99.1792ZM-18.5259 98.967C-18.9919 98.9253 -19.458 98.8801 -19.9206 98.8314L-19.8928 98.5705C-19.4337 98.6192 -18.9676 98.6644 -18.5015 98.7062L-18.5259 98.967ZM4.55588 98.9497L4.53501 98.6888C4.99762 98.654 5.4637 98.6157 5.92979 98.5775L5.95066 98.8383C5.48457 98.8766 5.01849 98.9149 4.55588 98.9497ZM8.04457 98.647L8.02022 98.3862C8.48283 98.341 8.94544 98.2957 9.41153 98.247L9.43935 98.5079C8.97327 98.5566 8.51066 98.6018 8.04457 98.647ZM-22.0076 98.5914C-22.4737 98.5323 -22.9363 98.4697 -23.3954 98.4036L-23.3572 98.1462C-22.898 98.2123 -22.4389 98.2749 -21.9728 98.3305L-22.0041 98.5879L-22.0076 98.5914ZM11.5298 98.2853L11.502 98.0244C11.9646 97.9723 12.4272 97.9201 12.8898 97.8644L12.9211 98.1218C12.455 98.1775 11.9924 98.2331 11.5298 98.2853ZM-25.4754 98.0836C-25.938 98.007 -26.4006 97.9236 -26.8563 97.8401L-26.8076 97.5827C-26.3519 97.6662 -25.8928 97.7496 -25.4302 97.8262L-25.4719 98.0836H-25.4754ZM15.0046 97.8644L14.9698 97.607C15.4324 97.5479 15.8915 97.4853 16.3576 97.4227L16.3924 97.6801C15.9298 97.7427 15.4672 97.8053 15.0046 97.8644ZM-28.9154 97.4262C-29.3746 97.3288 -29.8302 97.2244 -30.2824 97.1201L-30.2233 96.8662C-29.7746 96.9705 -29.3189 97.0749 -28.8598 97.1723L-28.9154 97.4262ZM18.4724 97.3879L18.4341 97.1305C18.8933 97.0644 19.3559 96.9949 19.8185 96.9253L19.8567 97.1827C19.3941 97.2523 18.9315 97.3218 18.4724 97.3879ZM21.9333 96.8557L21.8915 96.5984C22.3507 96.5253 22.8098 96.4488 23.2724 96.3723L23.3141 96.6296C22.8515 96.7062 22.3924 96.7827 21.9333 96.8557ZM-32.3241 96.6053C-32.7798 96.4836 -33.2285 96.3549 -33.6737 96.2262L-33.6006 95.9757C-33.1589 96.1044 -32.7102 96.2331 -32.258 96.3549L-32.3276 96.6053H-32.3241ZM25.3837 96.2749L25.3385 96.0175C25.7976 95.9375 26.2567 95.854 26.7159 95.7705L26.7611 96.0279C26.302 96.1114 25.8428 96.1949 25.3837 96.2749ZM28.8272 95.6418L28.7785 95.3844C29.2341 95.2975 29.6933 95.2105 30.1524 95.1201L30.2011 95.3775C29.742 95.4679 29.2828 95.5549 28.8272 95.6418ZM-35.6806 95.5966C-36.1259 95.447 -36.5676 95.294 -37.0059 95.134L-36.9154 94.887C-36.4806 95.0436 -36.0424 95.1966 -35.5972 95.3462L-35.6806 95.5931V95.5966ZM32.2637 94.967L32.2115 94.7131C32.6672 94.6192 33.1228 94.5253 33.582 94.4314L33.6341 94.6853C33.175 94.7827 32.7194 94.8766 32.2637 94.967ZM35.6898 94.2436L35.6341 93.9897C36.0898 93.8888 36.5454 93.7914 37.0011 93.687L37.0567 93.941C36.6011 94.0418 36.1454 94.1427 35.6898 94.2436ZM39.1054 93.4783L39.0463 93.2244C39.4985 93.1201 39.9541 93.0123 40.4098 92.9079L40.4689 93.1618C40.0133 93.2697 39.5611 93.374 39.1054 93.4783ZM42.5107 92.6714L42.448 92.4175C42.9002 92.3062 43.3524 92.1949 43.808 92.0836L43.8707 92.3375C43.4185 92.4488 42.9628 92.5601 42.5107 92.6714ZM45.9089 91.8262L45.8428 91.5723C46.295 91.4575 46.7472 91.3392 47.1959 91.221L47.262 91.4749C46.8098 91.5931 46.3576 91.7079 45.9054 91.8262H45.9089ZM49.2933 90.9357L49.2272 90.6853C49.6759 90.5636 50.1281 90.4418 50.5767 90.3201L50.6463 90.5705C50.1941 90.6957 49.7454 90.8175 49.2933 90.9357ZM52.6672 90.0105L52.5976 89.7601C53.0463 89.6349 53.495 89.5062 53.9437 89.3775L54.0167 89.6279C53.568 89.7566 53.1194 89.8853 52.6707 90.0105H52.6672ZM56.0341 89.0436L55.9611 88.7931C56.4098 88.661 56.855 88.5288 57.3037 88.3966L57.3767 88.647C56.928 88.7792 56.4828 88.9114 56.0341 89.0436ZM59.3872 88.0418L59.3107 87.7914C59.7559 87.6557 60.2011 87.5166 60.6463 87.381L60.7228 87.6314C60.2776 87.7705 59.8324 87.9062 59.3837 88.0418H59.3872ZM62.7367 86.9983L62.6568 86.7514C63.102 86.6088 63.5472 86.4662 63.9924 86.3236L64.0724 86.5705C63.6272 86.7131 63.182 86.8557 62.7333 86.9983H62.7367ZM66.0759 85.9166L65.9959 85.6697C66.4411 85.5236 66.8828 85.3775 67.3281 85.2279L67.4115 85.4749C66.9663 85.6244 66.5246 85.7705 66.0794 85.9166H66.0759ZM69.4011 84.8001L69.3176 84.5531C69.7594 84.4036 70.2011 84.2505 70.6428 84.0975L70.7298 84.3444C70.2881 84.4975 69.8463 84.6505 69.4046 84.8001H69.4011ZM72.7124 83.6488L72.6254 83.4018C73.0637 83.2453 73.5054 83.0888 73.9437 82.9323L74.0307 83.1792C73.5924 83.3392 73.1507 83.4957 72.7124 83.6488ZM76.0028 82.4592L75.9124 82.2157C76.3507 82.0557 76.7854 81.8923 77.2237 81.7323L77.3141 81.9757C76.8759 82.1392 76.4411 82.2992 76.0028 82.4592ZM79.2794 81.2383L79.1854 80.9949C79.6202 80.8279 80.055 80.6644 80.4898 80.4975L80.5837 80.741C80.1489 80.9079 79.7141 81.0749 79.2794 81.2383ZM82.535 79.9792L82.4411 79.7357C82.8724 79.5653 83.3072 79.3949 83.7385 79.2244L83.8359 79.4679C83.4046 79.6383 82.9698 79.8123 82.5385 79.9792H82.535ZM85.7767 78.6888L85.6794 78.4453C86.1107 78.2714 86.5385 78.094 86.9698 77.9201L87.0672 78.1601C86.6394 78.3375 86.208 78.5114 85.7767 78.6888ZM89.0046 77.3531L88.9037 77.1131C89.335 76.9323 89.7628 76.7514 90.1941 76.5705L90.295 76.8105C89.8672 76.9914 89.4359 77.1757 89.0046 77.3566V77.3531ZM92.2254 75.9827L92.1211 75.7427C92.5489 75.5583 92.9767 75.3705 93.4046 75.1827L93.5089 75.4227C93.0811 75.6105 92.6533 75.7949 92.2254 75.9827ZM95.4289 74.5705L95.3211 74.334C95.7489 74.1427 96.1733 73.9514 96.5976 73.7601L96.7054 73.9966C96.2811 74.1879 95.8567 74.3792 95.4289 74.5705ZM98.615 73.1236L98.5072 72.8871C98.9315 72.6923 99.3524 72.494 99.7767 72.2957L99.888 72.5323C99.4672 72.7305 99.0428 72.9253 98.6185 73.1236H98.615ZM101.784 71.6314L101.672 71.3949C102.093 71.1931 102.514 70.9914 102.932 70.7896L103.046 71.0262C102.625 71.2279 102.208 71.4331 101.784 71.6314ZM104.935 70.101L104.82 69.8679C105.238 69.6627 105.655 69.454 106.072 69.2453L106.191 69.4783C105.773 69.687 105.356 69.8957 104.938 70.101H104.935ZM108.062 68.5288L107.944 68.2957C108.361 68.0836 108.775 67.8714 109.189 67.6557L109.311 67.8888C108.897 68.1044 108.483 68.3166 108.065 68.5288H108.062ZM111.168 66.9149L111.046 66.6853C111.46 66.4662 111.871 66.2471 112.281 66.0279L112.403 66.2575C111.992 66.4766 111.582 66.6957 111.168 66.9149ZM114.25 65.2557L114.125 65.0262C114.535 64.8036 114.942 64.5775 115.349 64.3514L115.474 64.581C115.067 64.807 114.66 65.0331 114.25 65.2592V65.2557ZM117.307 63.5479L117.178 63.3218C117.585 63.0923 117.989 62.8592 118.392 62.6262L118.521 62.8523C118.118 63.0853 117.714 63.3149 117.307 63.5479ZM120.337 61.7949L120.205 61.5688C120.608 61.3323 121.008 61.0923 121.408 60.8557L121.544 61.0784C121.144 61.3184 120.744 61.5549 120.34 61.7949H120.337ZM123.338 59.9897L123.203 59.767C123.603 59.5236 123.999 59.2766 124.392 59.0331L124.532 59.2557C124.135 59.5027 123.738 59.7462 123.338 59.9931V59.9897ZM126.305 58.1357L126.166 57.9166C126.559 57.6662 126.952 57.4123 127.342 57.1584L127.485 57.3775C127.095 57.6314 126.702 57.8818 126.305 58.1357ZM129.241 56.2227L129.095 56.007C129.485 55.7496 129.871 55.4888 130.257 55.2279L130.403 55.4436C130.017 55.7044 129.631 55.9653 129.241 56.2262V56.2227ZM132.135 54.2505L131.985 54.0349C132.368 53.767 132.751 53.4992 133.13 53.2314L133.279 53.4436C132.9 53.7114 132.518 53.9827 132.135 54.247V54.2505ZM134.987 52.2192L134.834 52.007C135.213 51.7323 135.589 51.454 135.961 51.1757L136.118 51.3844C135.745 51.6627 135.37 51.9375 134.991 52.2157L134.987 52.2192ZM137.791 50.1218L137.631 49.9131C138.003 49.6279 138.372 49.3427 138.737 49.0575L138.897 49.2627C138.532 49.5479 138.163 49.8366 137.791 50.1218ZM140.542 47.9549L140.378 47.7531C140.744 47.4575 141.102 47.1618 141.46 46.8662L141.627 47.0679C141.269 47.3636 140.907 47.6592 140.542 47.9549ZM143.231 45.7114L143.06 45.5131C143.415 45.207 143.766 44.901 144.114 44.5949L144.288 44.7897C143.94 45.0957 143.585 45.4018 143.231 45.7079V45.7114ZM145.853 43.3879L145.676 43.1966C146.02 42.8801 146.365 42.5636 146.698 42.247L146.876 42.4384C146.538 42.7584 146.194 43.0749 145.85 43.3914L145.853 43.3879ZM148.396 40.9775L148.212 40.7897C148.545 40.4627 148.876 40.1323 149.199 39.8018L149.384 39.9862C149.057 40.3166 148.726 40.647 148.392 40.9775H148.396ZM150.845 38.4731L150.653 38.2957C150.973 37.9549 151.29 37.6105 151.599 37.2697L151.794 37.4436C151.481 37.7879 151.165 38.1288 150.845 38.4731ZM153.185 35.8644L152.987 35.694C153.293 35.3392 153.592 34.981 153.885 34.6262L154.086 34.7931C153.791 35.1514 153.492 35.5097 153.185 35.8644ZM155.401 33.1514L155.196 32.9914C155.481 32.6192 155.763 32.2505 156.038 31.8784L156.246 32.0349C155.972 32.407 155.69 32.7827 155.401 33.1549V33.1514ZM157.46 30.3166L157.245 30.1705C157.509 29.7844 157.766 29.3949 158.017 29.0088L158.236 29.1514C157.985 29.541 157.725 29.9305 157.46 30.3201V30.3166Z" fill="#003366"/>
</g>
<g opacity="0.6">
<path d="M-38.5597 91.3771L-38.8066 91.2936C-38.6571 90.8519 -38.5006 90.4101 -38.3406 89.9719L-38.0971 90.0623C-38.2571 90.5006 -38.4101 90.9388 -38.5597 91.3771ZM-37.3527 88.1075L-37.5962 88.0101C-37.4223 87.5788 -37.2449 87.1475 -37.064 86.7162L-36.824 86.8171C-37.0049 87.2449 -37.1823 87.6762 -37.3562 88.1075H-37.3527ZM-35.9753 84.9006L-36.2119 84.7927C-36.0171 84.3684 -35.8188 83.9475 -35.6171 83.5267L-35.3806 83.6414C-35.5823 84.0623 -35.7806 84.4832 -35.9753 84.9041V84.9006ZM-34.4449 81.7667L-34.6779 81.6449C-34.4623 81.231 -34.2466 80.8171 -34.024 80.4067L-33.7945 80.5319C-34.0171 80.9423 -34.2327 81.3528 -34.4484 81.7667H-34.4449ZM-32.7684 78.7093L-32.9945 78.5771C-32.7614 78.1736 -32.5249 77.7701 -32.2849 77.3701L-32.0623 77.5058C-32.3023 77.9058 -32.5388 78.3058 -32.7684 78.7093ZM-30.9632 75.7249L-31.1823 75.5858C-30.9319 75.1927 -30.6779 74.7997 -30.4206 74.4101L-30.2014 74.5527C-30.4588 74.9423 -30.7093 75.3319 -30.9597 75.7249H-30.9632ZM-29.0293 72.8171L-29.2449 72.6675C-28.9806 72.2849 -28.7092 71.9023 -28.4379 71.5232L-28.2258 71.6762C-28.4971 72.0554 -28.7649 72.4345 -29.0293 72.8171ZM-26.9875 69.9893L-27.1962 69.8327C-26.9179 69.4606 -26.6327 69.0884 -26.3475 68.7197L-26.1423 68.8797C-26.4275 69.2484 -26.7092 69.6171 -26.991 69.9893H-26.9875ZM-24.8379 67.238L-25.0397 67.0745C-24.7475 66.7127 -24.4484 66.351 -24.1493 65.9928L-23.9475 66.1597C-24.2466 66.518 -24.5423 66.8762 -24.8345 67.238H-24.8379ZM-22.591 64.5667L-22.7893 64.3962C-22.4832 64.0449 -22.1736 63.6936 -21.864 63.3458L-21.6693 63.5197C-21.9788 63.8675 -22.2884 64.2154 -22.5945 64.5667H-22.591ZM-20.2571 61.9719L-20.4484 61.7945C-20.1319 61.4536 -19.8119 61.1128 -19.4884 60.7754L-19.3006 60.9562C-19.624 61.2936 -19.9406 61.6345 -20.2571 61.9719ZM-17.8397 59.4501L-18.024 59.2658C-17.6971 58.9354 -17.3666 58.6049 -17.0327 58.278L-16.8484 58.4623C-17.1788 58.7893 -17.5093 59.1197 -17.8362 59.4501H-17.8397ZM-15.3493 57.0049L-15.5301 56.8171C-15.1927 56.4971 -14.8519 56.1771 -14.511 55.8571L-14.3336 56.0484C-14.6745 56.3649 -15.0153 56.6849 -15.3493 57.0049ZM-12.7858 54.6328L-12.9597 54.438C-12.6119 54.1249 -12.264 53.8154 -11.9127 53.5058L-11.7388 53.7006C-12.0901 54.0101 -12.4379 54.3197 -12.7823 54.6293L-12.7858 54.6328ZM-10.1597 52.3301L-10.3301 52.1319C-9.97534 51.8293 -9.62056 51.5301 -9.25882 51.2275L-9.09186 51.4293C-9.45012 51.7284 -9.8049 52.0275 -10.1597 52.3301ZM-7.47447 50.1006L-7.63795 49.8988C-7.27621 49.6067 -6.91099 49.3145 -6.54577 49.0258L-6.38229 49.231C-6.74751 49.5197 -7.11273 49.8119 -7.47447 50.1041V50.1006ZM-4.73012 47.9371L-4.89012 47.7319C-4.52142 47.4467 -4.14925 47.1649 -3.77708 46.8832L-3.62056 47.0919C-3.99273 47.3736 -4.3649 47.6554 -4.7336 47.9371H-4.73012ZM-1.93708 45.8397L-2.09012 45.6275C-1.71447 45.3527 -1.33534 45.078 -0.956207 44.8067L-0.803165 45.0188C-1.18229 45.2901 -1.55795 45.5649 -1.9336 45.8397H-1.93708ZM0.908138 43.8119L0.758575 43.5962C1.14118 43.3284 1.52379 43.0641 1.90988 42.7997L2.05597 43.0154C1.66988 43.2797 1.28727 43.544 0.904659 43.8084L0.908138 43.8119ZM3.7951 41.8467L3.64901 41.631C4.03857 41.3736 4.42814 41.1162 4.8177 40.8623L4.96031 41.0814C4.57075 41.3354 4.18118 41.5927 3.79162 41.8501L3.7951 41.8467ZM6.72379 39.9475L6.58466 39.7284C6.9777 39.478 7.37423 39.231 7.77075 38.9841L7.90988 39.2067C7.51336 39.4536 7.12032 39.7006 6.72727 39.9475H6.72379ZM9.69423 38.1075L9.55857 37.8849C9.95858 37.6449 10.3586 37.4049 10.7586 37.1649L10.8908 37.3875C10.4907 37.6241 10.0908 37.8641 9.69075 38.1041L9.69423 38.1075ZM12.7029 36.3336L12.5708 36.1075C12.9742 35.8745 13.3777 35.6449 13.7847 35.4119L13.9134 35.638C13.5064 35.8675 13.1029 36.1006 12.6994 36.3336H12.7029ZM15.7464 34.6154L15.6212 34.3858C16.0281 34.1597 16.4386 33.9371 16.849 33.7145L16.9742 33.944C16.5638 34.1667 16.1568 34.3893 15.7464 34.6119V34.6154ZM18.8212 32.9597L18.6994 32.7301C19.1134 32.5145 19.5273 32.2988 19.9412 32.0832L20.0594 32.3162C19.6455 32.5319 19.2316 32.7441 18.8212 32.9632V32.9597ZM21.9308 31.3632L21.8125 31.1301C22.2264 30.9214 22.6438 30.7162 23.0612 30.511L23.176 30.7441C22.7586 30.9493 22.3447 31.1545 21.9308 31.3632ZM25.0542 29.8327L24.9429 29.5962C25.3603 29.3945 25.7812 29.1962 26.2021 28.998L26.3134 29.2345C25.8925 29.4327 25.4751 29.631 25.0542 29.8293V29.8327ZM28.209 28.358L28.1012 28.1214C28.5255 27.9267 28.9464 27.7354 29.3742 27.5475L29.482 27.7875C29.0577 27.9754 28.6334 28.1667 28.2125 28.3614L28.209 28.358ZM31.3916 26.9388L31.2873 26.6988C31.7151 26.5145 32.1429 26.3301 32.5707 26.1458L32.6716 26.3858C32.2438 26.5667 31.816 26.751 31.3916 26.9354V26.9388ZM34.6021 25.5788L34.5012 25.3388C34.9325 25.1614 35.3638 24.9841 35.7951 24.8101L35.8925 25.0536C35.4612 25.2275 35.0299 25.4049 34.6021 25.5823V25.5788ZM157.242 25.1997C156.856 24.9388 156.466 24.6849 156.077 24.431L156.219 24.2119C156.612 24.4658 157.002 24.7232 157.392 24.9841L157.246 25.1997H157.242ZM37.8403 24.2745L37.7464 24.031C38.1812 23.8606 38.616 23.6901 39.0508 23.5232L39.1447 23.7667C38.7099 23.9336 38.2751 24.1041 37.8438 24.2745H37.8403ZM154.296 23.3249C153.896 23.0849 153.496 22.8484 153.089 22.6188L153.218 22.3927C153.625 22.6258 154.028 22.8623 154.428 23.1023L154.292 23.3249H154.296ZM41.0994 23.0258L41.009 22.7823C41.4473 22.6188 41.882 22.4588 42.3203 22.2988L42.4107 22.5458C41.9725 22.7058 41.5342 22.8658 41.0994 23.0293V23.0258ZM44.3864 21.8362L44.2994 21.5893C44.7412 21.4327 45.1794 21.2797 45.6212 21.1267L45.7047 21.3736C45.2629 21.5267 44.8247 21.6797 44.3829 21.8327L44.3864 21.8362ZM151.256 21.6032C150.846 21.3841 150.432 21.1684 150.014 20.9562L150.132 20.7232C150.55 20.9354 150.964 21.151 151.378 21.3736L151.256 21.6032ZM47.6942 20.7023L47.6107 20.4554C48.0525 20.3093 48.4977 20.1632 48.9429 20.0171L49.0229 20.2641C48.5777 20.4101 48.136 20.5527 47.6942 20.7023ZM148.132 20.031C147.712 19.8327 147.287 19.6345 146.863 19.4432L146.971 19.2067C147.399 19.398 147.823 19.5962 148.244 19.7945L148.132 20.031ZM51.0229 19.6275L50.9464 19.3806C51.3916 19.2414 51.8403 19.1023 52.2855 18.9667L52.3621 19.2171C51.9168 19.3527 51.4681 19.4919 51.0229 19.631V19.6275ZM54.3725 18.6084L54.2994 18.358C54.7481 18.2258 55.1968 18.0971 55.6455 17.9684L55.7186 18.2188C55.2699 18.3475 54.8212 18.4797 54.3725 18.6084ZM144.939 18.6084C144.512 18.4275 144.08 18.2536 143.649 18.0797L143.746 17.8362C144.181 18.0101 144.612 18.1875 145.044 18.3649L144.943 18.6049L144.939 18.6084ZM57.7429 17.6519L57.6734 17.4014C58.1255 17.2762 58.5777 17.1545 59.0299 17.0327L59.096 17.2832C58.6438 17.4049 58.1916 17.5267 57.7429 17.6484V17.6519ZM141.694 17.3284C141.259 17.1684 140.821 17.0084 140.379 16.8554L140.466 16.6084C140.908 16.7614 141.346 16.9214 141.785 17.0814L141.694 17.3249V17.3284ZM61.1342 16.7545L61.0681 16.5006C61.5238 16.3858 61.976 16.271 62.4316 16.1562L62.4942 16.4101C62.0386 16.5214 61.5864 16.6362 61.1342 16.751V16.7545ZM138.393 16.1875C137.952 16.0449 137.506 15.9058 137.061 15.7667L137.138 15.5162C137.586 15.6519 138.032 15.7945 138.473 15.9371L138.393 16.1841V16.1875ZM64.5325 15.9162L64.4734 15.6623C64.929 15.5545 65.3812 15.4501 65.8368 15.3458L65.896 15.5997C65.4438 15.7041 64.9881 15.8084 64.536 15.9162H64.5325ZM135.054 15.1788C134.609 15.0536 134.157 14.9319 133.708 14.8101L133.774 14.5597C134.226 14.678 134.675 14.8032 135.124 14.9284L135.054 15.1788ZM67.9377 15.1441L67.882 14.8901C68.3377 14.7927 68.7934 14.6954 69.249 14.598L69.3012 14.8519C68.8455 14.9458 68.3899 15.0432 67.9342 15.1441H67.9377ZM71.3603 14.4345L71.3081 14.1771C71.7673 14.0867 72.2229 13.9997 72.682 13.9127L72.7308 14.1701C72.2751 14.2571 71.816 14.3441 71.3603 14.4345ZM131.677 14.2954C131.225 14.1875 130.772 14.0797 130.317 13.9754L130.376 13.7214C130.832 13.8258 131.287 13.9301 131.739 14.0414L131.677 14.2954ZM74.7934 13.791L74.7481 13.5336C75.2073 13.4501 75.6664 13.3736 76.1255 13.2936L76.1707 13.551C75.7116 13.6275 75.2525 13.7075 74.7934 13.791ZM128.272 13.5301C127.816 13.4362 127.36 13.3458 126.901 13.2588L126.95 13.0014C127.409 13.0884 127.868 13.1823 128.324 13.2762L128.272 13.5301ZM78.2368 13.2136L78.1951 12.9562C78.6577 12.8832 79.1168 12.8101 79.5794 12.7441L79.6177 13.0014C79.1586 13.071 78.696 13.1406 78.2368 13.2136ZM124.842 12.8832C124.383 12.8032 123.924 12.7301 123.465 12.6536L123.506 12.3962C123.969 12.4693 124.428 12.5458 124.887 12.6258L124.842 12.8832ZM81.6942 12.6988L81.6594 12.4414C82.122 12.3788 82.5847 12.3162 83.0473 12.2536L83.082 12.511C82.6194 12.5701 82.1603 12.6327 81.6977 12.6954L81.6942 12.6988ZM121.392 12.3441C120.932 12.278 120.47 12.2188 120.007 12.1597L120.039 11.9023C120.501 11.9614 120.964 12.0241 121.426 12.0867L121.392 12.3441ZM85.1586 12.2571L85.1273 11.9997C85.5899 11.9441 86.056 11.8919 86.5186 11.8432L86.5464 12.1041C86.0838 12.1562 85.6212 12.2084 85.1586 12.2606V12.2571ZM117.927 11.9127C117.465 11.8606 117.002 11.8119 116.539 11.7667L116.564 11.5058C117.03 11.551 117.492 11.5997 117.955 11.6519L117.927 11.9127ZM88.6334 11.8849L88.609 11.624C89.0751 11.5788 89.5377 11.5371 90.0038 11.4954L90.0281 11.7562C89.5655 11.798 89.0994 11.8397 88.6368 11.8849H88.6334ZM92.1116 11.5858L92.0907 11.3249C92.5568 11.2901 93.0229 11.2554 93.4855 11.2275L93.5029 11.4884C93.0403 11.5197 92.5742 11.551 92.1081 11.5858H92.1116ZM114.449 11.5823C113.986 11.5441 113.52 11.5093 113.058 11.478L113.075 11.2171C113.541 11.2484 114.007 11.2832 114.47 11.3214L114.449 11.5823ZM95.6003 11.3632L95.5864 11.1023C96.0525 11.078 96.5186 11.0536 96.9846 11.0327L96.9951 11.2936C96.529 11.3145 96.0664 11.3354 95.6003 11.3597V11.3632ZM110.967 11.3458C110.505 11.3214 110.039 11.2971 109.572 11.2797L109.583 11.0188C110.049 11.0397 110.515 11.0606 110.981 11.0884L110.967 11.3493V11.3458ZM99.089 11.2171L99.082 10.9562C99.5481 10.9423 100.014 10.9284 100.48 10.9214L100.487 11.1823C100.021 11.1927 99.5586 11.2032 99.0925 11.2171H99.089ZM107.479 11.2032C107.012 11.1893 106.55 11.1788 106.084 11.1719V10.911C106.557 10.918 107.023 10.9284 107.489 10.9423L107.482 11.2032H107.479ZM102.581 11.151V10.8901C102.901 10.8901 103.221 10.8901 103.541 10.8901H103.979V11.151H103.541C103.221 11.151 102.901 11.151 102.581 11.151Z" fill="#003366"/>
</g>
<g opacity="0.6">
<path d="M30.4525 119.283H30.3516V119.022H30.4525C30.8838 119.022 31.3116 119.022 31.7429 119.015V119.276C31.3151 119.28 30.8838 119.283 30.4525 119.283ZM28.2542 119.262C27.7881 119.255 27.322 119.245 26.8559 119.231L26.8629 118.97C27.329 118.984 27.7916 118.994 28.2577 119.001V119.262H28.2542ZM33.8403 119.238L33.8333 118.977C34.2994 118.967 34.762 118.949 35.2281 118.935L35.2385 119.196C34.7725 119.214 34.3064 119.227 33.8403 119.238ZM24.7585 119.158C24.2925 119.137 23.8264 119.116 23.3603 119.088L23.3742 118.827C23.8368 118.852 24.3029 118.876 24.769 118.897L24.7585 119.158ZM37.3359 119.106L37.322 118.845C37.7881 118.82 38.2507 118.796 38.7168 118.768L38.7342 119.029C38.2681 119.057 37.802 119.085 37.3359 119.109V119.106ZM21.2698 118.956C20.8038 118.921 20.3412 118.887 19.8751 118.848L19.8959 118.587C20.3585 118.626 20.8246 118.66 21.2872 118.695L21.2698 118.956ZM40.8316 118.883L40.8107 118.622C41.2768 118.587 41.7394 118.549 42.2055 118.507L42.2264 118.768C41.7603 118.81 41.2942 118.845 40.8281 118.883H40.8316ZM17.7846 118.657C17.322 118.612 16.8559 118.56 16.3933 118.511L16.4212 118.25C16.8838 118.302 17.3464 118.351 17.809 118.396L17.7846 118.657ZM44.3203 118.57L44.2925 118.309C44.7551 118.261 45.2212 118.212 45.6838 118.16L45.7116 118.42C45.2455 118.473 44.7829 118.521 44.3168 118.57H44.3203ZM14.3133 118.257C13.8507 118.198 13.3881 118.135 12.9255 118.069L12.9638 117.812C13.4229 117.878 13.8855 117.94 14.3481 118L14.3133 118.257ZM47.802 118.177L47.7707 117.92C48.2333 117.86 48.6959 117.801 49.1585 117.739L49.1933 117.996C48.7307 118.059 48.2681 118.118 47.8055 118.177H47.802ZM10.8525 117.76C10.3933 117.687 9.93071 117.61 9.47158 117.53L9.5168 117.273C9.97593 117.353 10.4351 117.429 10.8942 117.502L10.8525 117.76ZM51.2698 117.697L51.2316 117.44C51.6907 117.37 52.1533 117.3 52.6125 117.224L52.6542 117.481C52.1916 117.554 51.7325 117.627 51.2698 117.697ZM7.40898 117.154C6.94985 117.067 6.49419 116.977 6.03854 116.883L6.09071 116.629C6.54637 116.723 7.00202 116.814 7.46115 116.9L7.41246 117.158L7.40898 117.154ZM54.7272 117.134L54.682 116.876C55.1412 116.796 55.6003 116.713 56.0594 116.629L56.1081 116.887C55.649 116.97 55.1899 117.054 54.7307 117.134H54.7272ZM58.1673 116.49L58.1151 116.233C58.5707 116.142 59.0298 116.048 59.4855 115.954L59.5377 116.208C59.082 116.302 58.6229 116.396 58.1673 116.49ZM3.98637 116.441C3.53072 116.34 3.07854 116.233 2.62289 116.125L2.68202 115.871C3.13419 115.979 3.58637 116.083 4.04202 116.184L3.98637 116.438V116.441ZM61.5899 115.767L61.5342 115.513C61.9899 115.412 62.442 115.307 62.8942 115.203L62.9533 115.457C62.4977 115.561 62.0455 115.666 61.5899 115.77V115.767ZM0.588108 115.624C0.135937 115.506 -0.312759 115.387 -0.764935 115.266L-0.69537 115.015C-0.246674 115.137 0.202019 115.255 0.654194 115.374L0.588108 115.627V115.624ZM64.9916 114.963L64.929 114.709C65.3812 114.598 65.8333 114.483 66.282 114.368L66.3481 114.622C65.8959 114.737 65.4438 114.852 64.9916 114.967V114.963ZM-2.78233 114.692C-3.23102 114.56 -3.67624 114.427 -4.12146 114.288L-4.04493 114.038C-3.59972 114.174 -3.1545 114.309 -2.70928 114.441L-2.78233 114.692ZM68.3759 114.083L68.3064 113.833C68.7551 113.711 69.2038 113.586 69.6525 113.461L69.722 113.711C69.2733 113.836 68.8246 113.961 68.3759 114.083ZM-6.11798 113.648C-6.55972 113.502 -7.00146 113.353 -7.4432 113.2L-7.35624 112.953C-6.91798 113.106 -6.47624 113.255 -6.0345 113.401L-6.11798 113.648ZM71.7394 113.127L71.6664 112.876C72.1116 112.744 72.5568 112.608 73.002 112.473L73.0786 112.723C72.6333 112.859 72.1881 112.994 71.7394 113.127ZM-9.41537 112.494C-9.85363 112.33 -10.2884 112.167 -10.7232 112L-10.6293 111.756C-10.1945 111.923 -9.75972 112.09 -9.32493 112.25L-9.41537 112.494ZM75.0751 112.094L74.9951 111.847C75.4368 111.704 75.8786 111.561 76.3203 111.412L76.4038 111.659C75.962 111.805 75.5203 111.951 75.0751 112.094ZM-12.6675 111.224C-13.0988 111.047 -13.5267 110.866 -13.9545 110.681L-13.8502 110.441C-13.4223 110.626 -12.9945 110.803 -12.5667 110.98L-12.6675 111.221V111.224ZM78.3864 110.984L78.2994 110.737C78.7377 110.584 79.1759 110.431 79.6142 110.274L79.7012 110.521C79.2629 110.678 78.8246 110.831 78.3829 110.984H78.3864ZM-15.8745 109.836C-16.2988 109.645 -16.7197 109.447 -17.1406 109.248L-17.0293 109.012C-16.6084 109.21 -16.1875 109.405 -15.7667 109.596L-15.8745 109.833V109.836ZM81.6699 109.805L81.5794 109.561C82.0142 109.398 82.449 109.234 82.8838 109.067L82.9777 109.311C82.5429 109.478 82.1081 109.641 81.6733 109.805H81.6699ZM84.9255 108.546L84.8281 108.302C85.2594 108.132 85.6907 107.954 86.1185 107.78L86.2159 108.021C85.7846 108.198 85.3533 108.372 84.922 108.542L84.9255 108.546ZM-19.0258 108.33C-19.4432 108.121 -19.8571 107.909 -20.271 107.697L-20.1493 107.464C-19.7388 107.676 -19.3249 107.888 -18.9075 108.097L-19.0258 108.33ZM88.1533 107.217L88.0525 106.977C88.4803 106.796 88.9046 106.612 89.3325 106.427L89.4368 106.667C89.0125 106.852 88.5846 107.036 88.1568 107.221L88.1533 107.217ZM-22.118 106.709C-22.5249 106.487 -22.9319 106.257 -23.3354 106.027L-23.2067 105.801C-22.8032 106.031 -22.3997 106.257 -21.9928 106.48L-22.118 106.709ZM91.3429 105.815L91.2351 105.579C91.6594 105.387 92.0803 105.193 92.5012 104.998L92.6125 105.234C92.1916 105.429 91.7672 105.624 91.3464 105.815H91.3429ZM-25.1441 104.97C-25.5441 104.73 -25.9406 104.487 -26.3336 104.243L-26.1945 104.021C-25.8015 104.267 -25.4049 104.507 -25.0084 104.747L-25.1441 104.97ZM94.5046 104.34L94.3933 104.104C94.8107 103.902 95.2281 103.701 95.6455 103.495L95.7603 103.728C95.3429 103.934 94.9255 104.139 94.5081 104.337L94.5046 104.34ZM-28.0971 103.116C-28.4867 102.862 -28.8728 102.605 -29.2588 102.344L-29.1128 102.128C-28.7302 102.389 -28.3441 102.647 -27.9545 102.9L-28.0971 103.12V103.116ZM97.6246 102.793L97.5064 102.56C97.9203 102.347 98.3307 102.135 98.7412 101.923L98.8629 102.153C98.4525 102.368 98.0386 102.58 97.6246 102.793ZM100.71 101.175L100.585 100.946C100.992 100.727 101.399 100.504 101.806 100.278L101.931 100.507C101.524 100.734 101.117 100.956 100.71 101.175ZM-30.9771 101.147C-31.3562 100.876 -31.7319 100.605 -32.1041 100.327L-31.9475 100.118C-31.5754 100.393 -31.1997 100.667 -30.8241 100.935L-30.9771 101.147ZM103.753 99.4848L103.625 99.2588C104.028 99.0292 104.428 98.7962 104.828 98.5631L104.96 98.7892C104.56 99.0222 104.157 99.2553 103.753 99.4848ZM-33.7736 99.064C-34.1388 98.7788 -34.5041 98.4901 -34.8658 98.2014L-34.7023 97.9996C-34.3406 98.2883 -33.9788 98.577 -33.6136 98.8622L-33.7736 99.0675V99.064ZM106.755 97.7214L106.619 97.4988C107.016 97.2588 107.412 97.0188 107.806 96.7753L107.941 96.9979C107.548 97.2414 107.152 97.4814 106.752 97.7214H106.755ZM-36.4797 96.8727C-36.8345 96.5735 -37.1893 96.2709 -37.5371 95.9648L-37.3667 95.7666C-37.0154 96.0727 -36.6641 96.3753 -36.3093 96.6709L-36.4762 96.8692L-36.4797 96.8727ZM109.712 95.8883L109.572 95.6692C109.962 95.4188 110.352 95.1683 110.741 94.9179L110.884 95.137C110.494 95.3909 110.105 95.6414 109.715 95.8918L109.712 95.8883ZM112.623 93.9788L112.477 93.7631C112.859 93.5057 113.242 93.2449 113.625 92.984L113.771 93.1996C113.388 93.4605 113.006 93.7214 112.619 93.9822L112.623 93.9788ZM115.482 92.0031L115.332 91.7909C115.712 91.5231 116.087 91.2518 116.459 90.9805L116.612 91.1927C116.237 91.464 115.861 91.7353 115.482 92.0031ZM118.289 89.9509L118.132 89.7422C118.501 89.464 118.87 89.1857 119.239 88.904L119.399 89.1127C119.03 89.3944 118.661 89.6727 118.289 89.9544V89.9509ZM121.044 87.8292L120.88 87.624C121.246 87.3353 121.607 87.0466 121.969 86.7544L122.132 86.9562C121.771 87.2483 121.409 87.5405 121.044 87.8292ZM123.75 85.6275L123.583 85.4257C123.938 85.1266 124.292 84.8275 124.647 84.5248L124.818 84.7231C124.463 85.0257 124.108 85.3249 123.753 85.624L123.75 85.6275ZM126.397 83.3492L126.223 83.1544C126.571 82.8483 126.919 82.5353 127.263 82.2257L127.437 82.4205C127.092 82.7335 126.745 83.0431 126.397 83.3527V83.3492ZM128.978 81.0014L128.8 80.8101C129.141 80.4935 129.475 80.1735 129.812 79.8535L129.993 80.0414C129.656 80.3614 129.319 80.6814 128.981 81.0014H128.978ZM131.492 78.577L131.308 78.3927C131.639 78.0657 131.965 77.7353 132.292 77.4049L132.477 77.5892C132.15 77.9196 131.823 78.2501 131.492 78.577ZM133.934 76.0831L133.746 75.9022C134.066 75.5648 134.383 75.2275 134.699 74.8866L134.891 75.064C134.574 75.4048 134.258 75.7457 133.934 76.0831ZM136.299 73.5162L136.105 73.3422C136.414 72.9944 136.72 72.6466 137.026 72.2988L137.225 72.4692C136.919 72.8205 136.612 73.1683 136.299 73.5162ZM138.585 70.8796L138.386 70.7127C138.686 70.3579 138.981 69.9996 139.273 69.6414L139.475 69.8048C139.179 70.1666 138.884 70.5248 138.585 70.8796ZM140.783 68.1666L140.578 68.0066C140.866 67.6414 141.148 67.2727 141.43 66.904L141.639 67.064C141.357 67.4327 141.072 67.8014 140.783 68.1666ZM142.894 65.3875L142.685 65.2344C142.96 64.8622 143.232 64.4866 143.499 64.1109L143.712 64.264C143.444 64.6396 143.172 65.0153 142.898 65.3909L142.894 65.3875ZM144.905 62.5492L144.689 62.4031C144.95 62.0205 145.207 61.6379 145.465 61.2518L145.68 61.3944C145.423 61.7805 145.165 62.1666 144.905 62.5492ZM146.818 59.6448L146.599 59.5057C146.845 59.1162 147.092 58.7231 147.332 58.3301L147.555 58.4657C147.312 58.8622 147.068 59.2553 146.818 59.6448ZM148.626 56.6709L148.4 56.5388C148.633 56.1388 148.866 55.7388 149.092 55.3353L149.319 55.464C149.089 55.8675 148.859 56.2709 148.623 56.6709H148.626ZM150.331 53.6344L150.101 53.5092C150.32 53.1022 150.536 52.6918 150.752 52.2814L150.985 52.4031C150.772 52.8135 150.553 53.2275 150.334 53.6344H150.331ZM151.924 50.5353L151.691 50.4205C151.896 50.0031 152.098 49.5857 152.292 49.1683L152.529 49.2796C152.331 49.7005 152.129 50.1179 151.924 50.5353ZM153.399 47.377L153.159 47.2727C153.346 46.8483 153.531 46.424 153.715 45.9962L153.955 46.097C153.774 46.5248 153.586 46.9527 153.399 47.377ZM154.755 44.1631L154.512 44.0657C154.682 43.6344 154.852 43.2031 155.019 42.7683L155.263 42.8622C155.096 43.297 154.929 43.7318 154.755 44.1631ZM155.986 40.8935L155.739 40.8066C155.896 40.3683 156.046 39.9301 156.195 39.4883L156.442 39.5718C156.292 40.0135 156.139 40.4553 155.986 40.8935ZM157.089 37.5753L156.839 37.4988C156.978 37.0535 157.11 36.6083 157.242 36.1631L157.492 36.2362C157.36 36.6848 157.228 37.1301 157.089 37.5753ZM158.059 34.2153L157.809 34.1492C157.927 33.7005 158.046 33.2483 158.157 32.7962L158.411 32.8588C158.299 33.3109 158.181 33.7666 158.059 34.2153ZM158.891 30.817L158.637 30.7614C158.738 30.3092 158.835 29.8535 158.929 29.4014L159.183 29.4535C159.089 29.9092 158.992 30.3648 158.891 30.817Z" fill="#003366"/>
</g>
<g opacity="0.6">
<path d="M91.4501 158.215C91.1057 157.912 90.7579 157.599 90.4135 157.283L90.5909 157.092C90.9353 157.408 91.2796 157.718 91.624 158.02L91.4535 158.215H91.4501ZM88.897 155.836C88.57 155.512 88.2431 155.182 87.9127 154.845L88.1005 154.664C88.4274 155.001 88.7544 155.328 89.0814 155.652L88.897 155.836ZM86.4727 153.325C86.1596 152.987 85.8501 152.643 85.537 152.292L85.7318 152.118C86.0448 152.465 86.3544 152.81 86.664 153.147L86.4727 153.325ZM84.1631 150.712C83.864 150.361 83.5648 150.003 83.2692 149.645L83.4709 149.478C83.7701 149.839 84.0657 150.194 84.3648 150.545L84.1666 150.716L84.1631 150.712ZM81.9509 148.013C81.6657 147.652 81.377 147.286 81.0918 146.914L81.297 146.754C81.5822 147.123 81.8675 147.492 82.1561 147.85L81.9509 148.013ZM79.8292 145.248C79.5544 144.879 79.2761 144.504 79.0014 144.125L79.2135 143.972C79.4883 144.347 79.7631 144.723 80.0379 145.092L79.8292 145.248ZM77.7805 142.427C77.5127 142.052 77.2483 141.669 76.9805 141.283L77.1961 141.133C77.4605 141.516 77.7283 141.899 77.9927 142.274L77.7805 142.424V142.427ZM75.8048 139.554C75.5474 139.172 75.2901 138.782 75.0327 138.392L75.2518 138.25C75.5092 138.639 75.7666 139.025 76.024 139.408L75.8083 139.554H75.8048ZM73.8918 136.639C73.6414 136.25 73.3909 135.857 73.144 135.464L73.3631 135.325C73.6135 135.718 73.8605 136.111 74.1109 136.5L73.8918 136.639ZM72.0379 133.69C71.7944 133.297 71.5544 132.9 71.3109 132.5L71.5335 132.365C71.777 132.765 72.017 133.158 72.2605 133.554L72.0379 133.69ZM70.2361 130.705C69.9996 130.309 69.7666 129.905 69.5301 129.502L69.7561 129.37C69.9927 129.773 70.2257 130.173 70.4622 130.57L70.2361 130.702V130.705ZM68.4866 127.693C68.257 127.29 68.0275 126.886 67.7979 126.479L68.024 126.351C68.2535 126.758 68.4831 127.161 68.7092 127.561L68.4831 127.69L68.4866 127.693ZM66.7787 124.653C66.5561 124.246 66.3335 123.839 66.1074 123.432L66.337 123.307C66.5596 123.718 66.7822 124.125 67.0048 124.528L66.7753 124.653H66.7787ZM65.1161 121.589C64.897 121.182 64.6814 120.772 64.4622 120.358L64.6918 120.236C64.9074 120.646 65.1266 121.057 65.3457 121.467L65.1161 121.589ZM63.4953 118.504C63.2831 118.093 63.0709 117.679 62.8587 117.265L63.0918 117.147C63.304 117.561 63.5161 117.975 63.7283 118.385L63.4953 118.507V118.504ZM61.9127 115.401C61.704 114.987 61.4987 114.573 61.2901 114.156L61.5231 114.041C61.7318 114.459 61.937 114.872 62.1457 115.286L61.9127 115.405V115.401ZM60.3683 112.278C60.1666 111.86 59.9614 111.443 59.7596 111.025L59.9961 110.911C60.1979 111.332 60.3996 111.749 60.6048 112.163L60.3718 112.278H60.3683ZM58.8553 109.14C58.657 108.723 58.4587 108.302 58.2605 107.881L58.497 107.77C58.6953 108.191 58.8935 108.612 59.0918 109.029L58.8553 109.14ZM57.377 105.982C57.1822 105.561 56.9874 105.14 56.7961 104.716L57.0327 104.608C57.2274 105.032 57.4188 105.453 57.6135 105.874L57.377 105.982ZM55.9335 102.813C55.7422 102.389 55.5544 101.968 55.3631 101.54L55.6031 101.436C55.7909 101.86 55.9822 102.285 56.1735 102.705L55.937 102.813H55.9335ZM54.5179 99.6307C54.33 99.2063 54.1457 98.7785 53.9614 98.3542L54.2014 98.2498C54.3857 98.6776 54.5735 99.102 54.7579 99.5264L54.5179 99.6307ZM53.1335 96.4307C52.9527 96.0029 52.7683 95.575 52.5874 95.1472L52.8274 95.0463C53.0083 95.4742 53.1892 95.902 53.3735 96.3263L53.1335 96.4272V96.4307ZM51.7805 93.2203C51.6031 92.7924 51.4257 92.3646 51.2483 91.9333L51.4883 91.8324C51.6657 92.2637 51.8431 92.6916 52.0205 93.1194L51.7805 93.2203ZM50.4553 89.9994C50.2814 89.5681 50.1074 89.1403 49.9335 88.7055L50.177 88.6081C50.3509 89.0394 50.5248 89.4707 50.6988 89.8985L50.4588 89.9959L50.4553 89.9994ZM49.1579 86.7646C48.9874 86.3333 48.817 85.902 48.6466 85.4672L48.8901 85.3733C49.0605 85.8046 49.2309 86.2359 49.4014 86.6672L49.1579 86.7646ZM47.8883 83.5194C47.7214 83.0881 47.5544 82.6568 47.3909 82.2255L47.6344 82.1316C47.7979 82.5629 47.9648 82.9942 48.1318 83.4255L47.8883 83.5194ZM46.6501 80.2777C46.4866 79.8429 46.3231 79.4116 46.1631 78.9768L46.4066 78.8864C46.5701 79.3211 46.7301 79.7524 46.8935 80.1872L46.6501 80.2777ZM45.4396 77.022C45.2796 76.5872 45.1196 76.1524 44.9631 75.7142L45.2101 75.6237C45.3701 76.0585 45.5266 76.4933 45.6866 76.9281L45.4431 77.0185L45.4396 77.022ZM44.2535 73.749C44.097 73.3107 43.9405 72.8759 43.7874 72.4377L44.0344 72.3507C44.1909 72.789 44.344 73.2237 44.5005 73.662L44.2535 73.749ZM43.0918 70.4655C42.9387 70.0272 42.7857 69.5855 42.6327 69.1472L42.8796 69.0637C43.0327 69.502 43.1822 69.9437 43.3353 70.382L43.0883 70.469L43.0918 70.4655ZM41.9544 67.1681C41.8048 66.7263 41.6553 66.2846 41.5057 65.8463L41.7527 65.7629C41.9022 66.2046 42.0518 66.6463 42.2014 67.0846L41.9544 67.1681ZM40.8448 63.8568C40.6987 63.415 40.5527 62.9698 40.4066 62.5281L40.6535 62.4481C40.7996 62.8898 40.9457 63.335 41.0918 63.7768L40.8448 63.8603V63.8568ZM39.7596 60.5316C39.617 60.0898 39.4744 59.6481 39.3353 59.2029L39.5822 59.1229C39.7214 59.5646 39.864 60.0063 40.0066 60.4481L39.7596 60.5281V60.5316ZM38.7057 57.2098C38.5666 56.7646 38.4274 56.3229 38.2918 55.8776L38.5422 55.8011C38.6779 56.2429 38.817 56.6881 38.9561 57.1298L38.7057 57.2063V57.2098ZM37.6761 53.8811C37.5405 53.4359 37.4048 52.9907 37.2727 52.5455L37.5231 52.4724C37.6553 52.9177 37.7909 53.3594 37.9266 53.8046L37.6761 53.8811ZM36.6779 50.5455C36.5457 50.1003 36.417 49.655 36.2848 49.2063L36.5353 49.1333C36.664 49.5785 36.7961 50.0237 36.9283 50.469L36.6779 50.542V50.5455ZM35.7074 47.1994C35.5787 46.7507 35.4535 46.3055 35.3283 45.8603L35.5787 45.7907C35.704 46.2359 35.8327 46.6846 35.9579 47.1298L35.7074 47.2029V47.1994ZM34.7614 43.8429C34.6361 43.3942 34.5144 42.9455 34.3927 42.5003L34.6431 42.4307C34.7648 42.8794 34.8866 43.3246 35.0118 43.7733L34.7614 43.8429ZM33.8501 40.4829C33.7318 40.0342 33.6101 39.5855 33.4918 39.1368L33.7457 39.0707C33.864 39.5194 33.9822 39.9681 34.104 40.4168L33.8535 40.4829H33.8501ZM32.9631 37.1124C32.8483 36.6603 32.7335 36.2116 32.6187 35.7629L32.8727 35.7003C32.9874 36.1489 33.1022 36.5976 33.217 37.0498L32.9631 37.1159V37.1124ZM32.1109 33.735C31.9996 33.2829 31.8883 32.8307 31.777 32.382L32.0309 32.3194C32.1422 32.7681 32.2501 33.2203 32.3648 33.6724L32.1109 33.735ZM31.2901 30.3472C31.1822 29.895 31.0744 29.4429 30.9701 28.9907L31.224 28.9316C31.3283 29.3837 31.4361 29.8359 31.544 30.2881L31.2901 30.3472ZM30.5005 26.9524C30.3961 26.5003 30.2953 26.0446 30.1944 25.5924L30.4483 25.5368C30.5492 25.9889 30.6501 26.4411 30.7544 26.8968L30.5005 26.9559V26.9524ZM29.7457 23.5507C29.6483 23.095 29.5509 22.6429 29.4535 22.1872L29.7074 22.1316C29.8048 22.5837 29.9022 23.0394 29.9996 23.495L29.7457 23.5507ZM29.0292 20.142C28.9353 19.6863 28.8448 19.2307 28.7509 18.775L29.0083 18.7229C29.0987 19.1785 29.1927 19.6307 29.2866 20.0863L29.0327 20.1385L29.0292 20.142ZM28.3474 16.7263C28.2605 16.2672 28.1735 15.8116 28.0866 15.3559L28.344 15.3072C28.4309 15.7629 28.5179 16.2185 28.6048 16.6742L28.3474 16.7229V16.7263ZM27.704 13.3003C27.6205 12.8411 27.5405 12.3855 27.4605 11.9298L27.7179 11.8846C27.7979 12.3403 27.8814 12.7959 27.9614 13.255L27.704 13.3003ZM27.1057 9.86721C27.0292 9.40808 26.9527 8.94895 26.8796 8.4933L27.137 8.45156C27.2101 8.90721 27.2866 9.36634 27.3631 9.82547L27.1057 9.86721ZM26.5492 6.42722C26.4796 5.96461 26.4066 5.50547 26.3405 5.04982L26.5979 5.01156C26.6674 5.47069 26.737 5.92635 26.8066 6.38895L26.5492 6.43069V6.42722ZM26.0414 2.98026C25.9753 2.51765 25.9127 2.05852 25.8535 1.59939L26.1109 1.5646C26.1735 2.02373 26.2361 2.48286 26.2987 2.94547L26.0414 2.98026ZM25.5857 -0.473652C25.5266 -0.93626 25.4709 -1.39888 25.4187 -1.85801L25.6761 -1.88931C25.7318 -1.43018 25.7874 -0.971046 25.8431 -0.508438L25.5857 -0.477135V-0.473652ZM25.1857 -3.938C25.137 -4.40061 25.0883 -4.86322 25.0431 -5.32583L25.304 -5.35018C25.3492 -4.89105 25.3979 -4.42844 25.4466 -3.96583L25.1857 -3.938ZM24.8414 -7.40583C24.7996 -7.87192 24.7614 -8.33453 24.7231 -8.79366L24.984 -8.81453C25.0222 -8.3554 25.0605 -7.89279 25.1022 -7.4267L24.8414 -7.40235V-7.40583ZM24.5701 -10.8806C24.5387 -11.3467 24.5074 -11.8093 24.4796 -12.2719L24.7405 -12.2858C24.7683 -11.8267 24.7996 -11.3606 24.8309 -10.898L24.5701 -10.8806ZM24.3683 -14.3589C24.3474 -14.825 24.3266 -15.291 24.3092 -15.7502L24.5701 -15.7606C24.5874 -15.3015 24.6048 -14.8354 24.6292 -14.3693L24.3683 -14.3554V-14.3589ZM24.2466 -17.8441C24.2361 -18.3102 24.2292 -18.7763 24.2257 -19.2389H24.4866C24.4901 -18.7797 24.5005 -18.3171 24.5074 -17.851L24.2466 -17.8441ZM24.4796 -21.3258H24.2188C24.2188 -21.7954 24.2292 -22.2615 24.2361 -22.7206H24.497C24.4866 -22.2545 24.4831 -21.7919 24.4796 -21.3258ZM24.5596 -24.8041L24.2987 -24.8145C24.3161 -25.2841 24.337 -25.7467 24.3648 -26.2093L24.6257 -26.1954C24.6014 -25.7363 24.5805 -25.2737 24.5596 -24.8076V-24.8041ZM24.7614 -28.2754L24.5005 -28.2963C24.5353 -28.7658 24.577 -29.2284 24.6187 -29.6876L24.8796 -29.6632C24.8379 -29.2076 24.7961 -28.745 24.7614 -28.2789V-28.2754ZM25.1022 -31.7328L24.8448 -31.7641C24.9005 -32.2302 24.9631 -32.6928 25.0292 -33.1484L25.2866 -33.1102C25.2205 -32.658 25.1614 -32.1989 25.1022 -31.7328ZM25.617 -35.1693L25.3596 -35.2145C25.4431 -35.6771 25.5301 -36.1363 25.6205 -36.585L25.8744 -36.5328C25.784 -36.0841 25.697 -35.6284 25.6135 -35.1693H25.617Z" fill="#003366"/>
</g>
<g opacity="0.6">
<path d="M94.4243 157.269L94.1703 157.217C94.2608 156.768 94.3477 156.313 94.4312 155.854L94.6886 155.899C94.6051 156.361 94.5182 156.821 94.4277 157.269H94.4243ZM95.019 153.829L94.7617 153.791C94.8277 153.339 94.8869 152.88 94.946 152.414L95.2034 152.445C95.1477 152.911 95.0851 153.374 95.019 153.829ZM95.426 150.365L95.1651 150.341C95.2069 149.885 95.2486 149.422 95.2834 148.956L95.5443 148.977C95.5095 149.447 95.4677 149.909 95.426 150.368V150.365ZM95.6834 146.89L95.4225 146.876C95.4469 146.417 95.4677 145.954 95.4886 145.488L95.7495 145.499C95.7321 145.968 95.7112 146.431 95.6834 146.894V146.89ZM95.8086 143.405H95.5477C95.5582 142.939 95.5617 142.476 95.5651 142.01H95.826C95.826 142.48 95.8156 142.946 95.8086 143.405ZM95.5616 139.923C95.5582 139.464 95.5477 138.998 95.5408 138.532L95.8017 138.525C95.8121 138.991 95.819 139.457 95.8225 139.92H95.5616V139.923ZM95.4782 136.445C95.4608 135.986 95.4434 135.52 95.419 135.054L95.6799 135.04C95.7008 135.506 95.7216 135.972 95.739 136.431L95.4782 136.441V136.445ZM95.3077 132.97C95.2799 132.511 95.2486 132.045 95.2173 131.582L95.4782 131.565C95.5095 132.031 95.5408 132.494 95.5686 132.956L95.3077 132.97ZM95.0608 129.499C95.0225 129.04 94.9843 128.577 94.9425 128.111L95.2034 128.087C95.2451 128.553 95.2834 129.015 95.3216 129.474L95.0608 129.495V129.499ZM94.7477 126.031C94.7025 125.572 94.6538 125.109 94.6051 124.647L94.866 124.619C94.9147 125.081 94.9634 125.544 95.0086 126.007L94.7477 126.031ZM94.3686 122.57C94.313 122.111 94.2573 121.652 94.2016 121.189L94.459 121.158C94.5182 121.621 94.5738 122.083 94.626 122.542L94.3686 122.574V122.57ZM93.9338 119.116C93.8712 118.657 93.8086 118.198 93.746 117.735L94.0034 117.701C94.0695 118.163 94.1321 118.622 94.1912 119.081L93.9338 119.116ZM93.4469 115.673C93.3773 115.214 93.3077 114.758 93.2382 114.295L93.4956 114.254C93.5651 114.716 93.6382 115.175 93.7043 115.631L93.4469 115.669V115.673ZM92.9112 112.233C92.8382 111.777 92.7617 111.318 92.6851 110.859L92.9425 110.817C93.019 111.276 93.0956 111.735 93.1686 112.191L92.9112 112.233ZM92.3303 108.8C92.2504 108.344 92.1669 107.888 92.0869 107.429L92.3443 107.384C92.4277 107.843 92.5077 108.299 92.5877 108.754L92.3303 108.8ZM91.7043 105.374C91.6173 104.918 91.5303 104.462 91.4434 104.007L91.7008 103.958C91.7877 104.417 91.8747 104.873 91.9617 105.328L91.7043 105.377V105.374ZM91.0399 101.958C90.9495 101.502 90.8556 101.05 90.7617 100.594L91.0156 100.542C91.1095 100.998 91.1999 101.454 91.2938 101.909L91.0364 101.961L91.0399 101.958ZM90.3373 98.5457C90.2399 98.0936 90.1425 97.6379 90.0451 97.1823L90.299 97.1266C90.3964 97.5823 90.4938 98.0344 90.5912 98.4901L90.3373 98.5457ZM89.5964 95.144C89.4956 94.6918 89.3947 94.2397 89.2903 93.784L89.5443 93.7249C89.6486 94.177 89.7495 94.6327 89.8503 95.0849L89.5964 95.1405V95.144ZM88.8208 91.7492C88.7164 91.2971 88.6086 90.8449 88.5008 90.3927L88.7547 90.3336C88.8625 90.7858 88.9703 91.2379 89.0747 91.6901L88.8208 91.7492ZM88.0138 88.3649C87.9025 87.9162 87.7947 87.464 87.6799 87.0118L87.9338 86.9492C88.0451 87.4014 88.1564 87.8536 88.2677 88.3023L88.0138 88.3649ZM87.1756 84.984C87.0608 84.5353 86.946 84.0866 86.8312 83.6345L87.0851 83.5684C87.1999 84.0205 87.3147 84.4692 87.4295 84.9179L87.1756 84.9805V84.984ZM86.3025 81.6136C86.1843 81.1649 86.066 80.7162 85.9443 80.2675L86.1947 80.2014C86.3164 80.6501 86.4347 81.0988 86.553 81.5475L86.299 81.6136H86.3025ZM85.4016 78.2501C85.2799 77.8014 85.1582 77.3562 85.033 76.9075L85.2834 76.8379C85.4086 77.2866 85.5303 77.7353 85.6521 78.1805L85.4016 78.2501ZM84.4695 74.8971C84.3443 74.4518 84.2156 74.0031 84.0903 73.5579L84.3408 73.4849C84.4695 73.9336 84.5947 74.3788 84.7199 74.824L84.4695 74.8936V74.8971ZM83.5095 71.551C83.3808 71.1058 83.2486 70.6605 83.1164 70.2153L83.3669 70.1423C83.499 70.5875 83.6277 71.0327 83.7599 71.4814L83.5095 71.5544V71.551ZM82.5216 68.2118C82.3895 67.7666 82.2538 67.3249 82.1182 66.8797L82.3686 66.8031C82.5043 67.2484 82.6399 67.6936 82.7721 68.1388L82.5216 68.2118ZM81.506 64.8797C81.3703 64.4379 81.2312 63.9927 81.0921 63.551L81.3425 63.4744C81.4816 63.9197 81.6208 64.3614 81.7564 64.8031L81.506 64.8797ZM80.466 61.5579C80.3269 61.1162 80.1843 60.6745 80.0416 60.2327L80.2886 60.1527C80.4312 60.5944 80.5738 61.0362 80.713 61.4814L80.466 61.5614V61.5579ZM79.3912 58.2362C79.2451 57.7944 79.099 57.3492 78.9529 56.9075L79.1999 56.824C79.346 57.2657 79.4921 57.711 79.6382 58.1527L79.3912 58.2327V58.2362ZM78.2921 54.9214C78.1425 54.4797 77.993 54.0379 77.8434 53.5997L78.0903 53.5162C78.2399 53.9579 78.3895 54.3997 78.539 54.8379L78.2921 54.9214ZM77.1651 51.6205C77.0121 51.1823 76.8625 50.7405 76.7095 50.3023L76.9564 50.2153C77.1095 50.6536 77.2625 51.0953 77.4156 51.5336L77.1686 51.6171L77.1651 51.6205ZM76.0138 48.3301C75.8573 47.8918 75.7043 47.4571 75.5477 47.0188L75.7947 46.9318C75.9512 47.3701 76.1077 47.8049 76.2608 48.2431L76.0138 48.3301ZM74.8382 45.0571C74.6782 44.6223 74.5217 44.1875 74.3617 43.7527L74.6051 43.6623C74.7651 44.0971 74.9251 44.5318 75.0816 44.9701L74.8382 45.0605V45.0571ZM73.6382 41.7944C73.4747 41.3597 73.3147 40.9284 73.1512 40.4936L73.3947 40.4031C73.5582 40.8379 73.7216 41.2692 73.8817 41.704L73.6382 41.7944ZM72.4103 38.5492C72.2434 38.1179 72.0799 37.6866 71.913 37.2553L72.1564 37.1614C72.3234 37.5927 72.4903 38.024 72.6538 38.4553L72.4103 38.5492ZM71.1582 35.3075C70.9877 34.8762 70.8173 34.4449 70.6469 34.0136L70.8903 33.9162C71.0608 34.3475 71.2312 34.7788 71.4016 35.2136L71.1582 35.3075ZM69.8712 32.0727C69.6973 31.6414 69.5234 31.2101 69.3495 30.7823L69.5895 30.6849C69.7634 31.1162 69.9373 31.544 70.1112 31.9788L69.8677 32.0762L69.8712 32.0727ZM68.5599 28.8484C68.3825 28.4171 68.2051 27.9892 68.0277 27.5614L68.2677 27.4605C68.4451 27.8884 68.6225 28.3162 68.7999 28.7475L68.5599 28.8484ZM67.2173 25.6344C67.0364 25.2066 66.8556 24.7788 66.6712 24.3545L66.9112 24.2536C67.0921 24.6814 67.2764 25.1092 67.4573 25.5371L67.2173 25.6379V25.6344ZM65.8469 22.4344C65.6625 22.0066 65.4747 21.5823 65.2903 21.1579L65.5303 21.0536C65.7182 21.4779 65.9025 21.9058 66.0869 22.3301L65.8469 22.4344ZM64.4451 19.2449C64.2573 18.8205 64.066 18.3962 63.8747 17.9753L64.1112 17.8675C64.3025 18.2918 64.4903 18.7127 64.6816 19.1405L64.4416 19.2449H64.4451ZM63.0121 16.0727C62.8173 15.6484 62.626 15.2275 62.4312 14.8066L62.6677 14.6988C62.8625 15.1197 63.0573 15.5405 63.2486 15.9649L63.0121 16.0727ZM61.5512 12.9145C61.353 12.4936 61.1547 12.0727 60.9564 11.6553L61.193 11.544C61.3912 11.9614 61.5895 12.3823 61.7877 12.8031L61.5512 12.9145ZM60.0521 9.7701C59.8503 9.34923 59.6486 8.93184 59.4434 8.51793L59.6764 8.40315C59.8782 8.82054 60.0834 9.23793 60.2851 9.65532L60.0486 9.7701H60.0521ZM58.5217 6.64315C58.313 6.22576 58.1077 5.81184 57.899 5.39793L58.1321 5.27967C58.3408 5.69358 58.546 6.1075 58.7547 6.52489L58.5217 6.63967V6.64315ZM56.9564 3.53358C56.7443 3.11967 56.5321 2.70576 56.3199 2.29532L56.553 2.17358C56.7651 2.58401 56.9773 2.99793 57.1895 3.41184L56.9564 3.5301V3.53358ZM55.353 0.444889C55.1373 0.0344543 54.9182 -0.37598 54.699 -0.786415L54.9286 -0.908154C55.1477 -0.501198 55.3634 -0.0907669 55.5825 0.323147L55.353 0.444889ZM53.7077 -2.62294C53.4851 -3.03337 53.2625 -3.44033 53.0399 -3.84381L53.2695 -3.96902C53.4921 -3.56207 53.7147 -3.15511 53.9408 -2.74815L53.7112 -2.62294H53.7077ZM52.0208 -5.6699C51.7912 -6.07685 51.5616 -6.48033 51.3356 -6.88033L51.5616 -7.00903C51.7912 -6.60555 52.0208 -6.20207 52.2503 -5.79511L52.0243 -5.66642L52.0208 -5.6699ZM50.2886 -8.68903C50.0521 -9.0925 49.819 -9.4925 49.5825 -9.88902L49.8086 -10.0212C50.0451 -9.62468 50.2782 -9.2212 50.5147 -8.81772L50.2886 -8.68555V-8.68903ZM48.5112 -11.6803C48.2677 -12.0803 48.0277 -12.4734 47.7843 -12.8699L48.0069 -13.0055C48.2503 -12.6125 48.4903 -12.216 48.7338 -11.816L48.5112 -11.6803ZM46.6817 -14.6403C46.4312 -15.0334 46.1843 -15.4264 45.9338 -15.816L46.153 -15.9551C46.4034 -15.5655 46.6538 -15.1725 46.9008 -14.7795L46.6817 -14.6403ZM44.7964 -17.569C44.539 -17.9586 44.2817 -18.3447 44.0243 -18.7273L44.2399 -18.8734C44.4973 -18.4908 44.7547 -18.1012 45.0121 -17.7116L44.793 -17.569H44.7964ZM42.8486 -20.4525C42.5843 -20.8351 42.3164 -21.2177 42.0521 -21.5934L42.2643 -21.7429C42.5321 -21.3673 42.7964 -20.9847 43.0643 -20.5986L42.8486 -20.449V-20.4525ZM40.8347 -23.2908C40.5599 -23.6664 40.2851 -24.0421 40.0103 -24.4108L40.219 -24.5673C40.4938 -24.1986 40.7721 -23.8229 41.0469 -23.4438L40.8347 -23.2908ZM38.7477 -26.0734C38.4625 -26.4421 38.1773 -26.8108 37.8886 -27.169L38.0938 -27.3325C38.379 -26.9708 38.6677 -26.6055 38.953 -26.2334L38.7477 -26.0734ZM36.5773 -28.7934C36.2782 -29.1551 35.9825 -29.5099 35.6834 -29.8612L35.8817 -30.0316C36.1808 -29.6803 36.4799 -29.3221 36.7756 -28.9603L36.5738 -28.7934H36.5773ZM34.3164 -31.4334C34.0034 -31.7812 33.6938 -32.1255 33.3843 -32.4629L33.5756 -32.6403C33.8886 -32.3029 34.1982 -31.9586 34.5112 -31.6073L34.3164 -31.4334ZM31.9477 -33.9795C31.6208 -34.3168 31.2938 -34.6438 30.9669 -34.9673L31.1512 -35.1516C31.4782 -34.8282 31.8051 -34.4977 32.1356 -34.1603L31.9477 -33.9795ZM29.4608 -36.4073C29.1164 -36.7238 28.7721 -37.0334 28.4277 -37.336L28.5982 -37.5308C28.9425 -37.2282 29.2903 -36.9151 29.6347 -36.5986L29.4573 -36.4073H29.4608Z" fill="#003366"/>
</g>
<g opacity="0.6">
<path d="M90.9662 159.304C90.5245 159.176 90.0827 159.047 89.6445 158.911L89.721 158.661C90.1593 158.797 90.5975 158.929 91.0393 159.054L90.9662 159.304ZM87.6758 158.271C87.2375 158.122 86.8027 157.969 86.368 157.812L86.4549 157.565C86.8862 157.722 87.321 157.875 87.7558 158.021L87.6723 158.268L87.6758 158.271ZM84.4236 157.082C83.9958 156.915 83.5645 156.741 83.1401 156.564L83.241 156.324C83.6654 156.501 84.0932 156.671 84.521 156.838L84.4271 157.082H84.4236ZM81.2306 155.746C80.8097 155.558 80.3888 155.367 79.9715 155.172L80.0827 154.936C80.5001 155.131 80.9175 155.322 81.3384 155.51L81.234 155.75L81.2306 155.746ZM78.1001 154.271C77.6862 154.066 77.2758 153.857 76.8653 153.642L76.9871 153.409C77.3975 153.621 77.8045 153.83 78.2184 154.035L78.1036 154.268L78.1001 154.271ZM75.0358 152.661C74.6323 152.438 74.2288 152.212 73.8288 151.983L73.9575 151.757C74.3575 151.986 74.7575 152.212 75.161 152.435L75.0358 152.664V152.661ZM72.0375 150.929C71.6445 150.689 71.2514 150.449 70.8584 150.202L70.9975 149.979C71.3871 150.223 71.7801 150.466 72.1732 150.703L72.0375 150.925V150.929ZM69.1123 149.082C68.7262 148.828 68.3436 148.57 67.961 148.31L68.1071 148.094C68.4897 148.355 68.8723 148.609 69.2549 148.863L69.1123 149.082ZM66.2567 147.124C65.881 146.856 65.5088 146.584 65.1332 146.313L65.2862 146.104C65.6584 146.376 66.0306 146.647 66.4062 146.915L66.2532 147.127L66.2567 147.124ZM63.474 145.064C63.1088 144.783 62.7436 144.501 62.3819 144.212L62.5419 144.007C62.9036 144.292 63.2654 144.574 63.6306 144.856L63.4706 145.064H63.474ZM60.7645 142.911C60.4097 142.619 60.0549 142.324 59.7001 142.024L59.8671 141.826C60.2184 142.125 60.5732 142.417 60.928 142.71L60.761 142.911H60.7645ZM58.128 140.668C57.7801 140.362 57.4358 140.056 57.0949 139.746L57.2688 139.551C57.6097 139.861 57.954 140.167 58.3019 140.47L58.128 140.664V140.668ZM55.5645 138.344C55.2271 138.028 54.8932 137.711 54.5593 137.391L54.7401 137.204C55.0741 137.524 55.408 137.84 55.7419 138.153L55.5645 138.344ZM53.0741 135.941C52.7471 135.617 52.4201 135.29 52.0967 134.96L52.281 134.776C52.6045 135.106 52.928 135.43 53.2549 135.757L53.0706 135.941H53.0741ZM50.6567 133.468C50.3401 133.134 50.0236 132.797 49.7106 132.459L49.9019 132.282C50.2149 132.619 50.5314 132.957 50.848 133.287L50.6601 133.468H50.6567ZM48.3054 130.925C47.9958 130.581 47.6897 130.237 47.3871 129.892L47.5819 129.718C47.888 130.066 48.1906 130.41 48.5001 130.751L48.3054 130.925ZM46.0271 128.32C45.728 127.969 45.4323 127.617 45.1367 127.263L45.3384 127.096C45.6341 127.45 45.9297 127.802 46.2288 128.153L46.0306 128.324L46.0271 128.32ZM43.8184 125.656C43.5297 125.297 43.241 124.936 42.9523 124.574L43.1575 124.414C43.4427 124.776 43.7314 125.134 44.0201 125.492L43.8184 125.656ZM41.6793 122.936C41.3975 122.57 41.1193 122.202 40.841 121.833L41.0497 121.677C41.328 122.045 41.6062 122.41 41.8845 122.776L41.6758 122.936H41.6793ZM39.6062 120.164C39.3349 119.791 39.0636 119.416 38.7958 119.04L39.008 118.887C39.2758 119.263 39.5471 119.635 39.8184 120.007L39.6062 120.16V120.164ZM37.5993 117.346C37.3349 116.967 37.0741 116.588 36.8167 116.205L37.0323 116.059C37.2932 116.442 37.5541 116.821 37.8149 117.197L37.5993 117.346ZM35.6619 114.48C35.408 114.094 35.1541 113.708 34.9036 113.322L35.1227 113.179C35.3732 113.565 35.6271 113.951 35.8775 114.337L35.6584 114.48H35.6619ZM33.7871 111.572C33.5401 111.183 33.2967 110.79 33.0567 110.397L33.2793 110.261C33.5227 110.654 33.7662 111.044 34.0097 111.433L33.7906 111.572H33.7871ZM31.9749 108.623C31.7384 108.226 31.5019 107.83 31.2688 107.433L31.4949 107.301C31.728 107.697 31.9645 108.094 32.201 108.49L31.9784 108.623H31.9749ZM30.2288 105.635C29.9993 105.235 29.7732 104.831 29.5471 104.431L29.7732 104.303C29.9993 104.706 30.2254 105.106 30.4514 105.506L30.2254 105.635H30.2288ZM28.5488 102.612C28.3297 102.209 28.1106 101.805 27.8949 101.398L28.1245 101.277C28.3401 101.684 28.5558 102.087 28.7749 102.487L28.5454 102.612H28.5488ZM26.9349 99.5653C26.7227 99.1583 26.5141 98.7479 26.3054 98.3374L26.5384 98.2192C26.7471 98.6296 26.9558 99.0366 27.1645 99.447L26.9314 99.5653H26.9349ZM25.3801 96.487C25.1784 96.0731 24.9767 95.6592 24.7749 95.2453L25.0114 95.1305C25.2097 95.5444 25.4114 95.9583 25.6132 96.3687L25.3801 96.4835V96.487ZM23.8914 93.374C23.6967 92.9566 23.5054 92.5392 23.3106 92.1218L23.5471 92.014C23.7384 92.4314 23.9297 92.8488 24.1245 93.2661L23.888 93.3774L23.8914 93.374ZM22.4584 90.2331C22.2706 89.8122 22.0862 89.3914 21.9019 88.967L22.1419 88.8627C22.3262 89.2835 22.5106 89.7044 22.6949 90.1253L22.4549 90.2296L22.4584 90.2331ZM21.0914 87.0609C20.9141 86.6366 20.7367 86.2122 20.5593 85.7844L20.7993 85.6835C20.9732 86.1079 21.1506 86.5357 21.328 86.9566L21.088 87.0574L21.0914 87.0609ZM19.7801 83.8609C19.6097 83.4331 19.4393 83.0053 19.2723 82.574L19.5158 82.4801C19.6827 82.9079 19.8497 83.3392 20.0201 83.767L19.7767 83.8644L19.7801 83.8609ZM18.5349 80.6366C18.3714 80.2053 18.2114 79.774 18.0549 79.3392L18.2984 79.2487C18.4584 79.6801 18.6184 80.1148 18.7784 80.5427L18.5349 80.6331V80.6366ZM17.3488 77.3844C17.1958 76.9496 17.0427 76.5148 16.8932 76.0766L17.1401 75.9931C17.2897 76.4279 17.4427 76.8627 17.5958 77.2974L17.3488 77.3844ZM16.2254 74.1114C16.0793 73.6731 15.9367 73.2348 15.7941 72.7931L16.041 72.7131C16.1836 73.1514 16.3262 73.5896 16.4723 74.0279L16.2254 74.1114ZM15.1645 70.814C15.0254 70.3722 14.8897 69.9305 14.7575 69.4887L15.008 69.4122C15.1401 69.854 15.2758 70.2957 15.4149 70.734L15.1645 70.8105V70.814ZM14.1662 67.4922C14.0375 67.047 13.9088 66.6018 13.7836 66.16L14.0341 66.0905C14.1593 66.5357 14.288 66.9774 14.4167 67.4227L14.1662 67.4957V67.4922ZM13.2306 64.1531C13.1088 63.7044 12.9906 63.2592 12.8758 62.8105L13.1297 62.7444C13.248 63.1896 13.3662 63.6383 13.4845 64.0835L13.2341 64.1531H13.2306ZM12.361 60.7931C12.2497 60.3444 12.1384 59.8957 12.0306 59.4435L12.2845 59.3809C12.3923 59.8296 12.5036 60.2783 12.6149 60.727L12.361 60.7896V60.7931ZM11.5541 57.4157C11.4497 56.9635 11.3488 56.5114 11.2514 56.0592L11.5054 56.0035C11.6027 56.4557 11.7071 56.9079 11.808 57.3566L11.5541 57.4157ZM10.8201 54.0279C10.7262 53.5757 10.6358 53.1235 10.5454 52.6714L10.8027 52.6192C10.8932 53.0714 10.9836 53.5235 11.0775 53.9722L10.8236 54.0244L10.8201 54.0279ZM10.1523 50.6331C10.0688 50.1809 9.98535 49.7253 9.90535 49.2696L10.1627 49.2244C10.2427 49.6766 10.3262 50.1322 10.4097 50.5844L10.1523 50.6331ZM9.55405 47.2279C9.47753 46.7722 9.40448 46.3166 9.33492 45.8609L9.59231 45.8192C9.66536 46.2748 9.7384 46.7305 9.81144 47.1827L9.55405 47.2244V47.2279ZM9.02535 43.8053C8.95927 43.3496 8.89666 42.8905 8.83405 42.4348L9.09144 42.4001C9.15405 42.8557 9.21666 43.3114 9.28275 43.767L9.02535 43.8053ZM8.5697 40.3757C8.51405 39.9166 8.4584 39.4575 8.40622 39.0018L8.66709 38.974C8.71927 39.4331 8.77144 39.8887 8.83057 40.3479L8.57318 40.3792L8.5697 40.3757ZM8.18361 36.9392C8.1384 36.4801 8.09318 36.0209 8.05144 35.5618L8.31231 35.5374C8.35405 35.9966 8.39927 36.4557 8.44448 36.9148L8.18361 36.9392ZM7.87753 33.4922C7.84274 33.0331 7.80796 32.5705 7.77666 32.1114L8.03753 32.094C8.06883 32.5531 8.10361 33.0122 8.1384 33.4714L7.87753 33.4922ZM7.64448 30.0383C7.62014 29.5757 7.59579 29.1166 7.57492 28.6574L7.83579 28.6435C7.85666 29.1027 7.88101 29.5618 7.90535 30.0244L7.64448 30.0383ZM7.49492 26.5809C7.48101 26.1183 7.46709 25.6557 7.45666 25.1931L7.71753 25.1861C7.72796 25.6488 7.74188 26.1079 7.75579 26.5705L7.49492 26.5774V26.5809ZM7.42536 23.1166C7.42536 22.7374 7.42188 22.3618 7.42188 21.9827V21.7288H7.68274V21.9792C7.68274 22.3548 7.68275 22.734 7.68623 23.1096H7.42536V23.1166ZM7.70014 19.6557H7.43927C7.44622 19.1896 7.45666 18.727 7.47057 18.2644L7.73144 18.2714C7.71753 18.734 7.71057 19.1931 7.70014 19.6557ZM7.80449 16.1948L7.54362 16.1844C7.56449 15.7218 7.58536 15.2592 7.6097 14.7966L7.87057 14.8105C7.84623 15.2696 7.82536 15.7322 7.80449 16.1948ZM7.99579 12.7374L7.73492 12.7201C7.76623 12.2574 7.801 11.7948 7.83927 11.3357L8.10013 11.3566C8.06187 11.8157 8.03057 12.2783 7.99579 12.7374ZM8.28101 9.28701L8.02014 9.26266C8.06535 8.80006 8.11057 8.34092 8.16275 7.88179L8.42362 7.90962C8.37492 8.36875 8.32622 8.82788 8.28101 9.28701ZM8.66362 5.84701L8.40622 5.8157C8.46535 5.35658 8.52449 4.89744 8.58709 4.43831L8.84448 4.47309C8.78187 4.92875 8.72275 5.38787 8.66362 5.84701ZM9.14361 2.41744L8.88623 2.37571C8.95927 1.91657 9.03231 1.46092 9.10883 1.00527L9.36622 1.04701C9.2897 1.50266 9.21666 1.95831 9.14361 2.41396V2.41744ZM9.73144 -0.994728L9.47405 -1.04343C9.56101 -1.49908 9.64796 -1.95473 9.7384 -2.40691L9.99579 -2.35473C9.90536 -1.90256 9.8184 -1.45038 9.73144 -0.994728ZM10.4236 -4.38603L10.1697 -4.44169C10.2706 -4.89386 10.3714 -5.34604 10.4793 -5.79473L10.7332 -5.7356C10.6288 -5.28691 10.5245 -4.83473 10.4236 -4.38603ZM11.2271 -7.75299L10.9732 -7.81908C11.088 -8.26777 11.2062 -8.71647 11.328 -9.16169L11.5784 -9.09212C11.4567 -8.64691 11.3384 -8.20168 11.2236 -7.75299H11.2271ZM12.1454 -11.0886L11.8949 -11.1617C12.0271 -11.6069 12.1593 -12.0486 12.2949 -12.4904L12.5454 -12.4139C12.4097 -11.9756 12.274 -11.5304 12.1454 -11.0886ZM13.1819 -14.3895L12.9349 -14.473C13.081 -14.9113 13.2306 -15.3495 13.3836 -15.7878L13.6306 -15.7008C13.4775 -15.266 13.328 -14.8278 13.1819 -14.3895ZM14.3436 -17.6486L14.1001 -17.7426C14.2636 -18.1773 14.4306 -18.6086 14.601 -19.0365L14.8445 -18.9391C14.674 -18.5113 14.5071 -18.0799 14.3471 -17.6486H14.3436ZM15.6271 -20.8591L15.3871 -20.9599C15.568 -21.3878 15.7523 -21.8121 15.9401 -22.233L16.1801 -22.1286C15.9923 -21.7078 15.8114 -21.2834 15.6306 -20.8591H15.6271ZM17.0393 -24.0139L16.8027 -24.1252C17.001 -24.5426 17.2027 -24.9599 17.408 -25.3739L17.641 -25.2591C17.4358 -24.8452 17.2375 -24.4313 17.0393 -24.0139ZM18.5871 -27.106L18.3575 -27.2278C18.5732 -27.6382 18.7923 -28.0452 19.0149 -28.4486L19.2445 -28.3234C19.0219 -27.9199 18.8027 -27.513 18.5906 -27.106H18.5871ZM20.2636 -30.1286L20.0375 -30.2608C20.2706 -30.6608 20.5071 -31.0573 20.7506 -31.4504L20.9732 -31.3147C20.7332 -30.9217 20.4967 -30.5252 20.2636 -30.1286ZM22.0758 -33.0678L21.8567 -33.2104C22.1071 -33.5999 22.3645 -33.9826 22.6219 -34.3652L22.8375 -34.2191C22.5801 -33.8365 22.3262 -33.4539 22.0758 -33.0678ZM24.0236 -35.9165L23.8114 -36.0695C24.0827 -36.4452 24.3541 -36.8173 24.6323 -37.186L24.841 -37.0295C24.5662 -36.6608 24.2949 -36.2886 24.0236 -35.9165Z" fill="#003366"/>
</g>
<g opacity="0.6">
<path d="M95.4167 157.871L95.208 157.714C95.4828 157.346 95.7541 156.973 96.0254 156.601L96.2376 156.754C95.9698 157.13 95.695 157.502 95.4167 157.871ZM97.4237 155.046L97.208 154.9C97.4654 154.518 97.7193 154.135 97.9698 153.749L98.1889 153.892C97.9385 154.281 97.6811 154.664 97.4237 155.046ZM99.2985 152.132L99.0759 151.996C99.3159 151.603 99.5524 151.206 99.7854 150.81L100.012 150.942C99.7785 151.342 99.5419 151.739 99.2985 152.132ZM101.034 149.133L100.805 149.008C101.027 148.605 101.246 148.198 101.458 147.791L101.688 147.913C101.472 148.323 101.253 148.73 101.031 149.133H101.034ZM102.638 146.059L102.405 145.944C102.61 145.53 102.808 145.116 103.006 144.699L103.243 144.81C103.045 145.227 102.843 145.645 102.638 146.059ZM104.109 142.918L103.869 142.813C104.057 142.393 104.238 141.968 104.418 141.544L104.658 141.645C104.478 142.073 104.293 142.497 104.105 142.918H104.109ZM105.448 139.721L105.205 139.624C105.375 139.196 105.542 138.765 105.702 138.333L105.945 138.427C105.782 138.862 105.615 139.293 105.445 139.721H105.448ZM106.662 136.469L106.415 136.382C106.568 135.947 106.718 135.509 106.864 135.071L107.111 135.154C106.965 135.593 106.815 136.031 106.662 136.469ZM107.751 133.175L107.5 133.099C107.636 132.66 107.772 132.215 107.9 131.773L108.151 131.847C108.018 132.292 107.886 132.733 107.747 133.175H107.751ZM108.718 129.843L108.467 129.773C108.589 129.328 108.707 128.883 108.822 128.434L109.076 128.5C108.961 128.949 108.843 129.398 108.721 129.843H108.718ZM109.57 126.48L109.316 126.42C109.42 125.972 109.525 125.52 109.625 125.071L109.879 125.127C109.778 125.579 109.678 126.031 109.57 126.48ZM110.307 123.088L110.05 123.036C110.14 122.584 110.227 122.132 110.314 121.676L110.572 121.725C110.485 122.18 110.398 122.636 110.307 123.088ZM110.937 119.676L110.679 119.634C110.756 119.179 110.829 118.723 110.902 118.267L111.159 118.309C111.086 118.768 111.013 119.224 110.937 119.68V119.676ZM111.462 116.247L111.205 116.212C111.267 115.756 111.326 115.297 111.385 114.838L111.643 114.869C111.584 115.328 111.525 115.787 111.462 116.247ZM111.886 112.803L111.625 112.775C111.674 112.316 111.723 111.857 111.768 111.398L112.029 111.422C111.984 111.885 111.938 112.344 111.886 112.803ZM112.21 109.349L111.949 109.328C111.987 108.869 112.018 108.407 112.053 107.947L112.314 107.965C112.283 108.427 112.248 108.89 112.21 109.349ZM112.439 105.885L112.178 105.871C112.203 105.412 112.224 104.949 112.245 104.487L112.505 104.497C112.485 104.96 112.464 105.422 112.439 105.885ZM112.578 102.42L112.318 102.413C112.332 101.951 112.338 101.492 112.349 101.029H112.61C112.603 101.495 112.592 101.958 112.578 102.42ZM112.627 98.9526H112.366V98.6987C112.366 98.323 112.366 97.9439 112.363 97.5683H112.624C112.624 97.9439 112.627 98.323 112.627 98.6987V98.9526ZM112.332 95.4952C112.321 95.0326 112.307 94.5735 112.293 94.1109L112.554 94.1039C112.568 94.5665 112.582 95.0291 112.592 95.4917L112.332 95.4987V95.4952ZM112.21 92.0378C112.189 91.5787 112.165 91.1196 112.14 90.657L112.401 90.643C112.425 91.1057 112.45 91.5648 112.471 92.0239L112.21 92.0378ZM112.012 88.5909C111.98 88.1317 111.945 87.6726 111.911 87.2135L112.172 87.1926C112.206 87.6517 112.241 88.1143 112.272 88.5735L112.012 88.5909ZM111.737 85.1474C111.695 84.6883 111.65 84.2291 111.605 83.77L111.865 83.7456C111.911 84.2048 111.956 84.6639 111.998 85.123L111.737 85.1474ZM111.382 81.7109C111.33 81.2517 111.278 80.7961 111.218 80.337L111.476 80.3056C111.532 80.7648 111.587 81.2239 111.639 81.6796L111.378 81.7074L111.382 81.7109ZM110.958 78.2813C110.895 77.8256 110.832 77.37 110.766 76.9143L111.024 76.8761C111.09 77.3317 111.152 77.7909 111.215 78.2465L110.958 78.2813ZM110.457 74.8622C110.384 74.4065 110.311 73.9509 110.238 73.4987L110.495 73.4569C110.572 73.9126 110.645 74.3682 110.714 74.8239L110.457 74.8656V74.8622ZM109.886 71.4569C109.806 71.0048 109.723 70.5491 109.639 70.0969L109.897 70.0483C109.98 70.5004 110.064 70.9561 110.144 71.4117L109.886 71.4569ZM109.246 68.0622C109.156 67.61 109.065 67.1578 108.972 66.7091L109.225 66.657C109.319 67.1091 109.41 67.5613 109.5 68.0135L109.243 68.0656L109.246 68.0622ZM108.54 64.6778C108.443 64.2256 108.338 63.7735 108.238 63.3248L108.492 63.2656C108.596 63.7178 108.697 64.17 108.794 64.6222L108.54 64.6778ZM107.765 61.3004C107.657 60.8517 107.545 60.403 107.434 59.9543L107.688 59.8917C107.799 60.3404 107.911 60.7891 108.018 61.2413L107.765 61.3039V61.3004ZM106.919 57.937C106.801 57.4917 106.683 57.043 106.565 56.5978L106.815 56.5283C106.937 56.9769 107.055 57.4222 107.17 57.8709L106.916 57.937H106.919ZM106.012 54.5943C105.886 54.1491 105.758 53.7074 105.629 53.2622L105.879 53.1891C106.008 53.6343 106.137 54.0796 106.262 54.5213L106.012 54.5909V54.5943ZM105.041 51.2726C104.909 50.8309 104.773 50.3891 104.634 49.9509L104.885 49.8743C105.024 50.3161 105.159 50.7578 105.292 51.1996L105.041 51.2761V51.2726ZM104.008 47.9683C103.865 47.53 103.723 47.0917 103.577 46.6535L103.824 46.57C103.97 47.0082 104.112 47.4465 104.255 47.8883L104.008 47.9683ZM102.909 44.6883C102.759 44.2535 102.606 43.8187 102.453 43.3839L102.7 43.297C102.853 43.7317 103.006 44.1665 103.156 44.6048L102.909 44.6883ZM101.751 41.4326C101.591 41.0013 101.431 40.5665 101.271 40.1387L101.514 40.0482C101.678 40.4796 101.838 40.9109 101.994 41.3456L101.751 41.4361V41.4326ZM100.53 38.2013C100.363 37.7735 100.196 37.3422 100.025 36.9143L100.269 36.8169C100.439 37.2448 100.61 37.6726 100.777 38.1039L100.533 38.1978L100.53 38.2013ZM99.2463 34.9978C99.0724 34.5735 98.895 34.1456 98.7176 33.7248L98.9576 33.6239C99.135 34.0482 99.3124 34.4726 99.4898 34.9004L99.2498 35.0013L99.2463 34.9978ZM97.9037 31.8187C97.7193 31.3978 97.535 30.977 97.3506 30.5561L97.5906 30.4517C97.7785 30.8726 97.9628 31.2935 98.1472 31.7178L97.9072 31.8222L97.9037 31.8187ZM96.4985 28.6709C96.3072 28.2535 96.1159 27.8361 95.9211 27.4187L96.1576 27.3074C96.3524 27.7248 96.5472 28.1422 96.7385 28.5596L96.5019 28.6674L96.4985 28.6709ZM95.0341 25.5509C94.8359 25.1369 94.6341 24.723 94.4324 24.3126L94.6654 24.1978C94.8672 24.6117 95.0689 25.0256 95.2706 25.4396L95.0341 25.5543V25.5509ZM93.5106 22.4622C93.3019 22.0517 93.0932 21.6448 92.8846 21.2343L93.1176 21.1161C93.3298 21.523 93.5385 21.9335 93.7472 22.3439L93.5141 22.4622H93.5106ZM91.9211 19.4083C91.7054 19.0013 91.4898 18.5978 91.2706 18.1978L91.5002 18.0726C91.7193 18.4761 91.9385 18.8796 92.1541 19.2865L91.9246 19.4083H91.9211ZM90.2689 16.3787C90.0428 15.9752 89.8167 15.5752 89.5906 15.1752L89.8167 15.0465C90.0463 15.4465 90.2724 15.85 90.4985 16.25L90.2724 16.3787H90.2689ZM88.5541 13.3839C88.3211 12.9874 88.0845 12.5909 87.848 12.1943L88.0706 12.0622C88.3072 12.4587 88.5437 12.8552 88.7767 13.2517L88.5506 13.3839H88.5541ZM86.7698 10.4239C86.5263 10.0309 86.2828 9.6413 86.0393 9.25173L86.2585 9.1126C86.5054 9.50216 86.7489 9.89521 86.9889 10.2883L86.7663 10.4239H86.7698ZM84.9263 7.50565C84.6759 7.11956 84.4219 6.73347 84.1715 6.34738L84.3906 6.20477C84.6446 6.59086 84.8985 6.97695 85.1489 7.36303L84.9298 7.50565H84.9263ZM83.0132 4.62564C82.7524 4.24303 82.4915 3.86391 82.2306 3.48825L82.4463 3.33869C82.7106 3.71782 82.9715 4.09695 83.2289 4.47956L83.0132 4.62564ZM81.0376 1.79086C80.7698 1.41521 80.4985 1.04303 80.2272 0.67086L80.4393 0.517818C80.7106 0.889992 80.9819 1.26564 81.2498 1.6413L81.0376 1.79434V1.79086ZM78.9958 -0.995224C78.7176 -1.36392 78.4393 -1.72914 78.1611 -2.09436L78.3663 -2.25436C78.648 -1.88914 78.9263 -1.52044 79.2045 -1.15174L78.9958 -0.995224ZM76.888 -3.72914C76.6028 -4.09087 76.3141 -4.44914 76.0254 -4.8074L76.2272 -4.97087C76.5159 -4.61261 76.8046 -4.25087 77.0898 -3.88914L76.8846 -3.72914H76.888ZM74.7106 -6.41087C74.415 -6.76566 74.1193 -7.11696 73.8202 -7.46827L74.0185 -7.6387C74.3176 -7.2874 74.6132 -6.93609 74.9089 -6.58131L74.7072 -6.41435L74.7106 -6.41087ZM72.4637 -9.03348C72.1576 -9.38131 71.855 -9.72566 71.5454 -10.0665L71.7402 -10.2404C72.0498 -9.89609 72.3559 -9.55174 72.6585 -9.2074L72.4637 -9.03348ZM70.1506 -11.597C69.8376 -11.9344 69.5211 -12.2717 69.2045 -12.6022L69.3924 -12.7831C69.7089 -12.4491 70.0254 -12.1117 70.3419 -11.7744L70.1506 -11.597ZM67.7646 -14.0944C67.4411 -14.4248 67.1176 -14.7483 66.7906 -15.0752L66.975 -15.2596C67.3019 -14.9361 67.6289 -14.6091 67.9524 -14.2787L67.768 -14.0944H67.7646ZM65.3054 -16.5187C64.9715 -16.8387 64.6376 -17.1552 64.3037 -17.4683L64.4811 -17.6596C64.8185 -17.343 65.1524 -17.0265 65.4863 -16.7065L65.3054 -16.5187ZM62.7767 -18.8735C62.4359 -19.183 62.0915 -19.4891 61.7437 -19.7917L61.9176 -19.9865C62.2654 -19.6804 62.6098 -19.3744 62.9506 -19.0648L62.7767 -18.87V-18.8735ZM60.1785 -21.1413C59.8272 -21.4404 59.4724 -21.7326 59.1176 -22.0248L59.2846 -22.2265C59.6393 -21.9344 59.9941 -21.6387 60.3489 -21.3396L60.1819 -21.1413H60.1785ZM57.5037 -23.3257C57.1419 -23.6109 56.7802 -23.8926 56.415 -24.1744L56.575 -24.383C56.9402 -24.1013 57.3054 -23.8196 57.6672 -23.5309L57.5072 -23.3257H57.5037ZM54.7593 -25.4196C54.3872 -25.6909 54.015 -25.9622 53.6393 -26.23L53.7924 -26.4422C54.168 -26.1744 54.5402 -25.903 54.9159 -25.6317L54.7628 -25.423L54.7593 -25.4196ZM51.9385 -27.4126C51.5559 -27.6735 51.1732 -27.9274 50.7906 -28.1813L50.9332 -28.4004C51.3193 -28.1465 51.7019 -27.8891 52.0845 -27.6283L51.9385 -27.4126ZM49.0515 -29.2978C48.6619 -29.5413 48.2689 -29.7848 47.8759 -30.0213L48.0115 -30.2439C48.4046 -30.0039 48.7976 -29.7639 49.1906 -29.517L49.0515 -29.2944V-29.2978ZM46.0915 -31.0752C45.6915 -31.3048 45.2915 -31.5309 44.888 -31.7535L45.0132 -31.983C45.4167 -31.7604 45.8202 -31.5344 46.2202 -31.3048L46.0915 -31.0787V-31.0752ZM43.0619 -32.7274C42.6515 -32.9396 42.2445 -33.1483 41.8306 -33.3535L41.9454 -33.5865C42.3593 -33.3813 42.7698 -33.1726 43.1802 -32.957L43.0585 -32.7239L43.0619 -32.7274ZM39.9663 -34.2509C39.5489 -34.4457 39.1315 -34.637 38.7106 -34.8248L38.815 -35.0648C39.2359 -34.877 39.6567 -34.6857 40.0741 -34.4909L39.9628 -34.2544L39.9663 -34.2509ZM36.808 -35.6422C36.3837 -35.8196 35.9559 -35.99 35.528 -36.157L35.6219 -36.4004C36.0498 -36.2335 36.4811 -36.0596 36.9054 -35.8822L36.8045 -35.6422H36.808ZM33.5906 -36.8874C33.1593 -37.0439 32.7246 -37.197 32.2898 -37.343L32.3732 -37.59C32.8115 -37.4404 33.2463 -37.2874 33.6811 -37.1309L33.5941 -36.8839L33.5906 -36.8874ZM30.328 -37.9796C29.8898 -38.1152 29.4515 -38.2474 29.0098 -38.3726L29.0828 -38.623C29.5246 -38.4944 29.9663 -38.3657 30.4046 -38.23L30.328 -37.9796Z" fill="#003366"/>
</g>
<path d="M59.2442 63.8569C49.8251 48.7404 44.6946 31.3213 42.4477 13.763C41.7103 7.92999 41.3103 2.06216 41.2129 -3.80566C41.9294 7.87434 43.8425 19.5056 47.2059 30.7022C48.8685 36.2674 50.8998 41.7665 53.3311 47.0361C55.759 52.3091 58.5798 57.3909 61.8598 62.1317C63.0007 63.8917 60.4407 65.617 59.2477 63.8535L59.2442 63.8569Z" fill="#003366"/>
<path d="M91.1689 53.8884C92.6263 40.2849 86.0733 19.2484 80.8628 6.44495C76.9081 -2.62635 71.5481 -11.0194 65.6211 -18.9429C71.8367 -11.2177 77.5272 -2.96722 81.8194 6.01017C85.9481 15.0884 89.3011 24.4832 91.8124 34.1632C93.3985 40.7476 94.7654 47.3458 94.2785 54.2363C94.2054 55.0989 93.4507 55.7389 92.588 55.6658C91.6941 55.5928 91.0402 54.7754 91.1654 53.8884H91.1689Z" fill="#003366"/>
<path d="M48.4894 29.8433C38.5311 14.692 34.3085 -3.65581 33.8633 -21.5967C34.3572 -12.6297 35.8215 -3.71494 38.4337 4.84158C39.7276 9.09897 41.3242 13.3181 43.2268 17.339C45.1328 21.3668 47.3485 25.2451 49.9189 28.8555C50.5694 29.8085 49.1676 30.8033 48.4859 29.8433H48.4894Z" fill="#003366"/>
<path d="M71.3636 100.987C53.7532 84.5388 40.2715 64.0379 31.1584 41.8153C24.9288 26.7336 20.7306 10.7892 18.4141 -5.33252C21.4262 11.2831 26.4802 27.4953 33.6106 42.7892C34.8801 45.3979 36.4106 48.6083 37.8019 51.137C42.4384 59.9336 47.8958 68.2849 53.9828 76.1318C60.1184 83.9231 66.9184 91.1718 74.3828 97.624C76.5949 99.6692 73.708 102.998 71.3636 100.987Z" fill="#003366"/>
<path d="M99.4292 88.4831C106.601 57.3179 104.198 24.591 97.5996 -6.4873C103.44 16.8623 106.605 41.0188 105.433 65.1197C105.029 73.1718 104.114 81.217 102.487 89.1649C102.313 90.0136 101.485 90.5562 100.64 90.3857C99.7735 90.2118 99.224 89.3423 99.4326 88.4831H99.4292Z" fill="#003366"/>
<path d="M113.587 43.7982C112.87 26.6956 110.004 9.74606 106.449 -6.98438C110.581 9.66606 114.025 26.5704 115.326 43.7078C115.378 44.8661 113.663 44.9704 113.59 43.7982H113.587Z" fill="#003366"/>
<path d="M78.4165 22.8139C74.0131 6.06951 65.62 -9.37745 55.9922 -23.687C63.6513 -13.1688 70.4687 -1.93745 75.6304 10.0452C77.3522 14.0486 78.8757 18.1495 80.093 22.3617C80.2252 22.8243 79.9609 23.3043 79.4983 23.4399C79.0252 23.5791 78.5313 23.2939 78.4131 22.8173L78.4165 22.8139Z" fill="#003366"/>
<path d="M67.822 7.24487C62.2846 -4.08035 55.5959 -14.8664 48.5977 -25.3604C56.1037 -15.1517 63.2724 -4.68905 69.3698 6.45182C69.8985 7.4953 68.3646 8.29182 67.822 7.24487Z" fill="#003366"/>
<path d="M43.3415 106.146C34.211 102.779 25.4563 98.1634 17.9154 91.9825C8.24235 84.1182 0.760611 73.2486 -1.85156 60.9634C1.00757 73.1373 8.62844 83.7495 18.4058 91.3703C20.5276 93.0399 22.8684 94.6782 25.171 96.0903C31.0076 99.7251 37.3136 102.588 43.8076 104.831C44.6597 105.137 44.2389 106.445 43.3415 106.143V106.146Z" fill="#003366"/>
<path d="M82.0489 120.208C64.7306 112.887 48.4176 102.612 35.3532 89.0048L34.1184 87.7422L32.9463 86.4239C32.5358 85.9439 30.3862 83.5718 30.0419 83.1057C29.6732 82.6466 28.7689 81.5057 28.3932 81.0361C28.0628 80.6153 27.0749 79.3805 26.7445 78.9666C26.3549 78.4274 24.6019 75.9474 24.1915 75.3735C16.7932 64.81 11.5445 52.7057 8.7793 40.1353C11.8193 52.6361 17.2802 64.5248 24.8732 74.89C25.2871 75.457 27.1167 77.9022 27.4819 78.3961C27.8228 78.8031 28.8036 79.9857 29.1584 80.4135C29.5445 80.8796 30.4662 81.9822 30.8349 82.4274C31.8749 83.6379 33.9028 85.7596 34.9706 86.9283C35.7602 87.704 37.8958 89.7944 38.7132 90.5944C39.9584 91.7283 41.3567 92.9561 42.6158 94.0866C43.5271 94.8761 45.7149 96.6153 46.6645 97.4083C53.9828 103.12 61.9515 108.09 70.2402 112.26C74.4002 114.337 78.6506 116.233 82.9706 117.951C84.421 118.56 83.6176 120.793 82.0454 120.205L82.0489 120.208Z" fill="#003366"/>
<path d="M29.0468 76.2118C22.852 67.137 18.3651 56.9074 15.8712 46.2153C13.0225 34.1666 12.7059 21.5196 14.7059 9.31787C13.019 21.5266 13.6346 34.0692 16.7685 45.9927C17.2729 47.9335 17.979 50.337 18.6364 52.2187C21.4085 60.3996 25.4259 68.2083 30.4659 75.21C31.1164 76.1422 29.7355 77.1683 29.0433 76.2118H29.0468Z" fill="#003366"/>
<path d="M21.2444 44.2327C11.8496 29.1962 8.91744 10.6675 11.7557 -6.71338C9.9157 6.30227 11.2305 19.8292 16.1174 32.0553C17.7453 36.111 19.7487 40.0136 22.1244 43.6692C22.4861 44.2431 21.6374 44.824 21.2444 44.2292V44.2327Z" fill="#003366"/>
</g>
<path d="M60.025 120.125C27.0615 120.125 0.244141 93.3073 0.244141 60.3439C0.244141 27.3804 27.0615 0.562988 60.025 0.562988C92.9885 0.562988 119.806 27.3804 119.806 60.3439C119.806 93.3073 92.9885 120.125 60.025 120.125ZM60.025 2.64647C28.2128 2.64647 2.3311 28.5282 2.3311 60.3404C2.3311 92.1526 28.2128 118.034 60.025 118.034C91.8372 118.034 117.719 92.1526 117.719 60.3404C117.719 28.5282 91.8372 2.64647 60.025 2.64647Z" fill="#DCEDFF"/>
</g>
<defs>
<clipPath id="clip0_1174_12315">
<rect width="120" height="120" fill="white" transform="translate(0 0.315918)"/>
</clipPath>
</defs>
</svg>
