<svg width="105" height="20" viewBox="0 0 105 20" fill="none" xmlns="http://www.w3.org/2000/svg">
<path d="M101.849 17.9417C102.812 17.9417 103.588 17.1575 103.588 16.19C103.588 15.2286 102.812 14.4424 101.849 14.4424C100.886 14.4424 100.109 15.2266 100.109 16.19C100.109 17.1575 100.886 17.9417 101.849 17.9417Z" fill="#E1071B"/>
<path d="M16.7426 16.9478L17.4846 16.7971C18.1374 16.6423 18.3361 16.5303 18.3361 15.1961V4.73062C18.3361 3.39647 18.1374 3.30684 17.5454 3.15204L16.7385 2.97891V2.36377H23.9195C27.9134 2.36377 30.0057 3.74681 30.0057 6.84286C30.0057 9.34415 28.1729 11.5603 24.5946 11.5603C23.7431 11.5603 23.1511 11.3831 22.9342 11.2934V10.6152C25.1359 10.5928 25.9671 9.84726 25.9671 6.99156C25.9671 4.09512 25.3589 3.32925 23.6539 3.32925C23.1065 3.32925 22.5186 3.41887 22.2996 3.48405V15.1961C22.2996 16.4916 22.4091 16.5791 23.1734 16.7564L24.1303 16.9519V17.563H16.7324V16.9458H16.7426V16.9478Z" fill="#056BB0"/>
<path d="M29.229 16.9702L29.7947 16.8154C30.5144 16.6199 30.6015 16.5099 30.6015 15.5648V8.74529C30.6015 7.80018 30.4921 7.73907 29.8818 7.32151L29.1621 6.8347V6.40084L33.7703 5.87329L34.0096 6.04643L33.969 7.5639H34.0582C34.7333 6.83673 35.9782 5.87329 37.2453 5.87329C38.2914 5.87329 38.928 6.44158 38.928 7.51909C38.928 8.57012 38.2711 9.16489 37.4176 9.16489C36.4161 9.16489 36.1545 8.85935 35.741 8.18107C35.6092 7.93665 35.4754 7.89184 35.2828 7.89184C34.8895 7.89184 34.3867 8.18107 34.0826 8.4642V15.5729C34.0826 16.6015 34.1718 16.7136 34.8246 16.8235L35.5443 16.9784V17.569H29.2331V16.9702H29.229Z" fill="#056BB0"/>
<path d="M48.0298 8.61083C47.527 7.36018 47.2878 7.05465 46.7242 6.88152L46.3086 6.74912V6.18083H52.8814V6.74912L52.2894 6.90392C51.8352 7.03225 51.6142 7.25019 51.6142 7.80015C51.6142 8.10568 51.7237 8.4825 51.8961 8.98358L53.7288 14.0513H53.8383L55.6082 8.98358C55.8028 8.45602 55.89 8.06494 55.89 7.75534C55.89 7.2726 55.6731 7.03225 55.2149 6.89985L54.6269 6.74505V6.17676H58.6655V6.74505L58.2499 6.87744C57.6802 7.07298 57.443 7.405 56.8956 8.85118L53.5098 17.5609H51.6568L48.0298 8.61083Z" fill="#056BB0"/>
<path d="M60.228 10.5234L63.9624 10.3279C63.9624 7.67178 63.6137 6.70426 62.302 6.70426C61.1849 6.70426 60.3111 7.75936 60.228 10.5234ZM56.7754 11.8168C56.7754 7.99768 59.5914 5.86914 62.4744 5.86914C65.4891 5.86914 67.3644 7.38661 67.4272 11.3545H60.228C60.2888 14.9557 61.6452 15.9395 63.8915 15.9395C65.2458 15.9395 66.2696 15.5443 67.1008 15.1064V15.8335C66.3426 16.685 64.6822 17.8297 62.4744 17.8297C58.673 17.8297 56.7754 15.5463 56.7754 11.8168Z" fill="#056BB0"/>
<path d="M66.6625 16.9702L67.2322 16.8154C67.9519 16.6199 68.0391 16.5099 68.0391 15.5648V8.74529C68.0391 7.80018 67.9296 7.73907 67.3193 7.32151L66.5996 6.8347V6.40084L71.2038 5.87329L71.4471 6.02402L71.4025 7.42947H71.4917C72.6473 6.59638 74.0908 5.87329 75.6843 5.87329C77.5373 5.87329 78.5409 6.8347 78.5409 8.81251V15.5668C78.5409 16.5343 78.6301 16.6443 79.3316 16.8174L79.8972 16.9722V17.5629H73.8009V16.9722L74.326 16.8398C74.9828 16.6667 75.0457 16.5995 75.0457 15.5668V9.66596C75.0457 8.32773 74.5692 7.91017 73.5414 7.91017C72.777 7.91017 71.9924 8.08738 71.512 8.1933V15.5627C71.512 16.6178 71.5789 16.6626 72.2317 16.8358L72.7568 16.9682V17.5589H66.6665V16.9702H66.6625Z" fill="#056BB0"/>
<path d="M79.0078 11.9025C79.0078 7.31752 82.5882 5.87134 85.6414 5.87134C87.8046 5.87134 89.1143 6.57202 89.1143 7.91229C89.1143 8.81259 88.5061 9.44606 87.5654 9.44606C86.43 9.44606 86.0773 8.65779 85.9942 7.73916C85.8847 6.90607 85.7509 6.77164 85.0312 6.77164C83.8086 6.77164 82.4969 7.49473 82.4969 10.9615C82.4969 14.1859 83.4599 15.9417 85.905 15.9417C87.2592 15.9417 88.2628 15.5465 89.0697 15.131V15.8317C88.4331 16.622 86.8457 17.8278 84.4838 17.8278C80.95 17.8298 79.0078 15.5017 79.0078 11.9025Z" fill="#056BB0"/>
<path d="M92.2493 10.5234L95.9838 10.3279C95.9838 7.67178 95.6351 6.70426 94.3234 6.70426C93.2103 6.70426 92.3365 7.75936 92.2493 10.5234ZM88.8008 11.8168C88.8008 7.99768 91.6168 5.86914 94.4997 5.86914C97.5104 5.86914 99.3898 7.38661 99.4567 11.3545H92.2534C92.3203 14.9557 93.6705 15.9395 95.9209 15.9395C97.2712 15.9395 98.299 15.5443 99.1303 15.1064V15.8335C98.366 16.685 96.7076 17.8297 94.4997 17.8297C90.7004 17.8297 88.8008 15.5463 88.8008 11.8168Z" fill="#056BB0"/>
<path d="M42.0863 16.7747C40.4928 16.7747 39.769 15.8133 39.769 11.3118C39.769 7.53749 40.5759 6.53127 41.9545 6.53127C43.4386 6.53127 44.2901 7.36435 44.2901 11.7946C44.288 16.0129 43.3919 16.7747 42.0863 16.7747ZM42.0154 5.67578C40.9834 5.67578 39.9495 5.90187 39.0412 6.37239C39.2885 6.69626 39.4304 7.12604 39.4304 7.66785C39.4304 8.94497 38.6357 9.66399 37.6038 9.66399C37.0787 9.66399 36.7259 9.58862 36.4482 9.44197C36.2312 10.0978 36.1035 10.8433 36.1035 11.6907C36.1035 15.7033 38.8587 17.6323 42.0174 17.6323C45.0321 17.6323 47.9535 15.7909 47.9535 11.5787C47.9556 7.58637 45.1841 5.67578 42.0154 5.67578Z" fill="#056BB0"/>
<path d="M2.01758 15.2673L2.4859 15.1696C2.90152 15.0677 3.02519 15.0005 3.02519 14.1532V7.53739C3.02519 6.69005 2.90152 6.61876 2.4859 6.5271L2.01758 6.42933V6.04028H6.62987V6.43136L6.07436 6.53728C5.6324 6.63913 5.53508 6.69208 5.53508 7.53943V13.8212C5.53508 14.8763 5.57968 15.0412 6.73529 15.0412C7.84224 15.0412 8.08958 14.9027 8.50519 14.2509C8.79308 13.7947 9.07083 13.2488 9.45401 12.2507H9.89598L9.67905 15.6523H2.01758V15.2673Z" fill="#056BB0"/>
<path d="M13.7536 14.4344V12.2162L13.117 12.2692C12.4115 12.3262 12.0405 12.646 12.0405 13.6441C12.0405 14.5444 12.4378 14.8377 12.9812 14.8377C13.3643 14.8377 13.6259 14.6727 13.7536 14.4344ZM9.86914 13.9903C9.86914 12.7702 10.7957 12.2305 12.3588 11.8536L13.7536 11.5074V10.3015C13.7536 9.14866 13.5326 8.80239 12.7744 8.80239C12.3588 8.80239 12.2229 8.90831 12.1925 9.29939C12.1216 10.1732 11.8357 10.5195 11.116 10.5195C10.5118 10.5195 10.1793 10.2038 10.1793 9.65992C10.1793 8.77388 11.3086 8.25854 13.2285 8.25854C14.9538 8.25854 15.9614 8.80035 15.9614 10.161V14.0046C15.9614 14.5138 16.0141 14.7236 16.2797 14.8641C16.4602 14.9619 16.7338 14.9884 16.9285 15.0006V15.3367C16.669 15.5445 16.1114 15.8194 15.3127 15.8194C14.5139 15.8194 14.0273 15.5139 13.8773 14.9721H13.8063C13.4617 15.4161 12.8393 15.8194 11.9431 15.8194C10.6416 15.8215 9.86914 15.1575 9.86914 13.9903Z" fill="#056BB0"/>
</svg>
