<svg width="73" height="16" viewBox="0 0 73 16" fill="none" xmlns="http://www.w3.org/2000/svg">
<g clip-path="url(#clip0_1174_11550)">
<path fill-rule="evenodd" clip-rule="evenodd" d="M27.6212 15.0051C27.6034 14.023 27.5988 13.1537 27.5986 12.0959C27.5986 11.1119 27.6208 9.99067 27.5986 9.05499C27.5789 8.22447 27.5874 7.3608 27.5874 6.31053C27.5874 5.81946 27.6039 5.33087 27.5874 4.85049C27.571 4.37274 27.6288 3.85163 27.5312 3.41244C27.5078 3.30729 27.3622 3.19393 27.2614 3.10504C27.0626 2.92958 26.8862 2.80864 26.6658 2.62203C26.5944 2.56148 26.414 2.40476 26.3511 2.40243C26.2906 2.40026 26.1725 2.50201 26.0927 2.54522C25.906 2.64619 25.7909 2.70798 25.587 2.81963C25.5248 2.8537 25.3574 2.9206 25.3396 2.96226C25.3043 3.04557 25.3396 3.30187 25.3396 3.45627C25.3396 3.92875 25.3396 4.50174 25.3396 4.9273C25.3396 5.5641 25.3509 5.94939 25.3509 6.5851C25.3509 7.25674 25.3509 7.88083 25.3509 8.45134C25.3509 9.08566 25.3473 9.71068 25.1149 10.1528C25.0457 10.2846 24.9164 10.4616 24.8115 10.581C24.7015 10.7063 24.5444 10.7938 24.4069 10.8994C24.2648 11.0086 24.1119 11.0914 23.9574 11.1738C23.7985 11.2585 23.6667 11.3685 23.519 11.4592C23.3305 11.5752 23.1228 11.6712 22.9233 11.8106C22.8017 11.8955 22.639 11.9772 22.4738 12.074C22.3676 12.1361 22.3267 12.1979 22.2491 12.096C22.215 12.0513 22.101 11.8986 22.103 11.8436C22.1054 11.7739 22.2377 11.6774 22.2829 11.635C22.3605 11.5621 22.4281 11.5034 22.4739 11.4374C22.5211 11.3694 22.546 11.2852 22.5863 11.2178C22.6305 11.1439 22.6692 11.0868 22.6986 11.0092C22.8711 10.5558 22.8559 9.8341 22.856 9.13196C22.856 8.13589 22.8485 6.99053 22.8448 6.23387C22.8418 5.61458 22.8448 4.94712 22.8448 4.22485C22.8448 3.8665 22.8621 3.50428 22.7661 3.28081C22.7097 3.14933 22.5304 2.99184 22.3614 2.96241C22.1441 2.92463 21.875 2.98317 21.6645 3.01723C21.0815 3.11201 20.1922 3.35298 19.6414 3.0942C19.406 2.98347 19.1495 2.72408 19.102 2.41343C19.0528 2.09178 19.2344 1.69843 19.383 1.4474C19.5779 1.11801 19.8826 0.810142 20.1248 0.5142C20.2079 0.412611 20.2706 0.308389 20.3721 0.206799C20.4342 0.1447 20.555 0.274784 20.6419 0.338587C20.6959 0.378231 20.8396 0.455198 20.8442 0.492365C20.8488 0.530151 20.6024 0.845915 20.5632 0.898568C20.5186 0.958654 20.4569 1.02571 20.417 1.09617C20.3308 1.24902 20.2547 1.47372 20.4283 1.61217C20.494 1.66452 20.7054 1.69487 20.8891 1.66699C21.104 1.63463 21.2882 1.52375 21.4848 1.44755C21.6846 1.36997 21.9015 1.31639 22.0917 1.24995C22.6425 1.0573 23.1382 0.802398 23.935 0.876732C24.2523 0.906311 24.5406 1.04646 24.733 1.21712C24.8079 1.28355 24.8971 1.34627 24.9466 1.40373C24.9921 1.45669 25.0253 1.55689 25.0814 1.64531C25.1458 1.74644 25.2005 1.81473 25.2388 1.90873C25.2664 1.97672 25.2968 2.20514 25.3286 2.22713C25.361 2.24958 25.5401 2.13715 25.6435 2.0845C25.7749 2.01729 25.8725 1.95937 25.9468 1.90889C26.1531 1.76889 26.3916 1.67799 26.5538 1.56866C26.8341 1.37957 27.1318 1.22192 27.453 1.04166C27.5343 0.996131 27.6969 0.876887 27.7564 0.877042C27.8083 0.877197 27.9574 0.993033 28.0374 1.05266C28.1393 1.12869 28.2127 1.20907 28.2846 1.26125C28.3764 1.32785 28.4802 1.37399 28.5656 1.43687C28.6598 1.50625 28.7419 1.59343 28.8128 1.64547C28.907 1.71469 28.998 1.7692 29.0826 1.83208C29.1642 1.89278 29.2383 1.97455 29.3299 2.04067C29.4068 2.09612 29.5084 2.1387 29.6109 2.21629C29.7019 2.2852 29.7987 2.41079 29.8582 2.41389C29.9189 2.41714 30.1031 2.26739 30.1841 2.21629C30.3008 2.14273 30.4076 2.09008 30.5102 2.02968C30.7361 1.89665 30.9434 1.76595 31.1507 1.64547C31.2609 1.58151 31.3548 1.50299 31.4655 1.43687C31.5681 1.37554 31.6894 1.33094 31.8027 1.26125C31.887 1.20938 31.9933 1.12018 32.1061 1.05266C32.2065 0.992414 32.37 0.877197 32.4431 0.877042C32.5179 0.877042 32.8422 1.06241 32.9153 1.10763C33.0651 1.20039 33.2075 1.29347 33.3536 1.36006C33.5133 1.43284 33.6434 1.53939 33.792 1.62348C33.9462 1.71066 34.1124 1.77106 34.2528 1.85407C34.5882 2.05229 34.8532 2.21629 35.3205 2.16147C35.6205 2.12631 35.8341 1.98973 36.0623 1.85407C36.1278 1.8152 36.2411 1.73296 36.2983 1.74427C36.3833 1.76099 36.4826 2.03603 36.5344 2.10649C36.567 2.15109 36.6227 2.16813 36.6129 2.22728C36.5972 2.32314 36.1631 2.50046 36.0511 2.56767C35.5315 2.87863 35.0793 3.18061 34.8708 3.77528C34.75 4.12016 34.7347 4.56152 34.7247 4.98274C34.6929 6.32787 34.741 8.01726 34.7358 9.0886C34.732 9.89404 34.7471 10.6961 34.7471 11.7781C34.7469 12.2221 34.7013 12.8578 34.8818 13.1065C34.9216 13.1613 35.0131 13.2087 35.0955 13.2601C35.1664 13.3043 35.2629 13.39 35.3202 13.3919C35.3976 13.3944 35.6365 13.2296 35.7024 13.1943C35.7356 13.1766 36.0298 12.9859 36.0958 13.0077C36.1396 13.0222 36.1944 13.1861 36.2194 13.2383C36.2543 13.3106 36.3313 13.423 36.3205 13.4799C36.3061 13.5576 36.0966 13.6284 36.0058 13.6773C35.8816 13.7447 35.7779 13.8212 35.691 13.8749C35.1042 14.239 34.6551 14.4491 34.0725 14.808C33.9827 14.8632 33.8229 14.9836 33.7466 14.9836C33.646 14.9836 33.4881 14.821 33.3871 14.7531C33.0465 14.5243 32.6195 14.3194 32.443 13.9627C32.2583 13.5894 32.2785 12.8939 32.2856 12.3379C32.3061 10.7436 32.2573 8.76618 32.2856 7.332C32.2932 6.94624 32.2722 6.4784 32.2856 6.05857C32.313 5.20807 32.5648 4.53922 33.0386 4.11552C33.1387 4.02601 33.2793 3.92984 33.4207 3.83011C33.4514 3.80858 33.5551 3.75809 33.5556 3.7423C33.5569 3.70111 33.2974 3.58635 33.2635 3.56668C33.1448 3.49824 33.0546 3.44218 32.9712 3.39107C32.7659 3.26532 32.5486 3.17365 32.3643 3.06183C32.0819 2.89071 31.7955 2.71417 31.4763 2.54583C31.394 2.50247 31.2209 2.38184 31.1729 2.38122C31.1094 2.38029 30.9709 2.49039 30.8919 2.53484C30.689 2.64944 30.5678 2.72733 30.3524 2.85324C30.2736 2.89938 30.1158 2.96272 30.0939 3.01785C30.0481 3.13307 30.0939 3.61562 30.0939 3.77544C30.0939 5.17555 30.1052 5.95884 30.1052 7.28833C30.1052 8.25188 30.1127 9.21574 30.1052 10.0768C30.0975 10.9347 30.1165 11.6709 30.1165 12.7224C30.1165 13.2504 30.1106 13.7106 29.8467 13.963C29.7205 14.0837 29.5069 14.1709 29.3298 14.2703C28.9696 14.4725 28.5924 14.6116 28.2283 14.7971C28.0624 14.8809 27.8723 15.0263 27.6212 15.0051Z" fill="black"/>
<path fill-rule="evenodd" clip-rule="evenodd" d="M63.2941 12.4362C63.5085 12.367 63.6374 12.2899 63.8449 12.1837C63.889 12.161 63.9928 12.0951 64.0248 12.1068C64.0701 12.1237 64.1037 12.2854 64.1259 12.3373C64.1563 12.4084 64.2242 12.5217 64.2159 12.5679C64.2046 12.6301 64.0318 12.6936 63.9574 12.7325C63.6829 12.8756 63.4017 13.0514 63.1481 13.1935C62.7817 13.3989 62.4145 13.5909 62.0692 13.7973C61.8858 13.907 61.706 14.0134 61.5297 14.1046C61.0766 14.3398 60.6553 14.5986 60.1922 14.8731C60.1065 14.9239 59.9675 15.0035 59.9112 15.0049C59.8121 15.0071 59.6512 14.8801 59.5516 14.8183C58.9968 14.4736 58.441 14.1351 57.8881 13.7863C57.5604 13.5797 57.1324 13.4523 57.034 13.0287C56.9874 12.8285 57.0038 12.59 57.0114 12.3811C57.0433 11.5097 56.9946 10.1395 57.0003 8.99985C57.002 8.6511 56.9969 8.29925 56.9891 7.96801C56.9864 7.8596 57.0142 7.70087 56.9891 7.68244C56.9531 7.65611 56.8093 7.74686 56.7644 7.77025C56.5472 7.8833 56.3971 8.00935 56.1573 8.07765C56.1459 7.96553 56.1591 7.86812 56.1573 7.78124C56.1558 7.70567 56.1205 7.5903 56.1573 7.51767C56.1865 7.46037 56.3825 7.37163 56.4945 7.30907C56.631 7.23303 56.7647 7.15483 56.8429 7.11146C56.9535 7.05014 57.0869 6.99563 57.2025 6.92486C57.3215 6.85191 57.4258 6.75915 57.5286 6.70542C57.6386 6.6475 57.7619 6.61405 57.8545 6.56263C57.958 6.50533 58.0494 6.40297 58.1355 6.35403C58.241 6.29379 58.3628 6.27087 58.495 6.20026C58.6018 6.14327 58.7008 6.05654 58.8098 5.99166C58.9176 5.92754 59.0335 5.87799 59.1469 5.81604C59.6899 5.51948 60.2208 5.19799 60.7879 4.883C60.8889 4.82678 61.0931 4.7461 61.1138 4.69639C61.1495 4.6106 61.1125 4.3543 61.1027 4.22437C61.0757 3.87144 60.9768 3.59439 60.8329 3.35714C60.709 3.15288 60.4703 2.90851 60.2596 2.75334C60.0804 2.6214 59.923 2.54412 59.7091 2.4241C59.6222 2.37532 59.4893 2.25035 59.4168 2.24849C59.3608 2.24694 59.2536 2.32778 59.1808 2.36928C59.0084 2.46746 58.8936 2.52368 58.72 2.62171C58.6506 2.66089 58.5421 2.74017 58.4841 2.7425C58.3882 2.74606 58.264 2.6629 58.1807 2.62171C58.0822 2.57308 58.0004 2.54288 57.8997 2.47892C58.2215 2.23734 58.6018 2.06188 58.9561 1.85313C59.0727 1.78452 59.195 1.71917 59.3159 1.65552C59.4347 1.5928 59.5484 1.51413 59.6643 1.44692C59.7858 1.37646 59.9161 1.32799 60.0351 1.26031C60.1529 1.19326 60.2562 1.10514 60.3722 1.04072C60.4946 0.972735 60.6205 0.916675 60.743 0.854111C60.8356 0.806723 60.9494 0.912959 61.0578 0.974903C61.314 1.12109 61.5803 1.27472 61.8221 1.42493C62.0595 1.57267 62.2976 1.75866 62.4852 1.97376C62.5487 2.04655 62.6307 2.10199 62.6875 2.17137C62.7894 2.29572 62.8895 2.46452 62.9685 2.62155C63.0502 2.78385 63.1207 2.95869 63.1708 3.13755C63.278 3.51836 63.2719 3.96916 63.2719 4.44397C63.2721 5.49161 63.2832 6.20413 63.2832 7.14445C63.2829 8.99025 63.2786 10.9362 63.2941 12.4362ZM60.9453 5.67388C60.7472 5.79653 60.5302 5.88821 60.3384 6.01411C60.2383 6.07993 60.1465 6.14807 60.0461 6.20072C59.9403 6.25632 59.825 6.29364 59.7202 6.3545C59.6351 6.40374 59.5765 6.4804 59.4617 6.5521C59.3826 6.6015 59.2058 6.65292 59.1807 6.71672C59.1568 6.77696 59.1807 6.93508 59.1807 7.06795C59.1807 7.98442 59.1606 8.54332 59.1807 9.16478C59.1947 9.60087 59.1926 10.0281 59.1918 10.4382C59.191 10.8714 59.1552 11.3516 59.1918 11.8434C59.2226 12.2591 59.4215 12.374 59.7089 12.568C59.8643 12.673 60.0261 12.7413 60.1809 12.8423C60.2926 12.9155 60.4326 13.0241 60.6305 13.1387C60.7075 13.1833 61.0323 13.4433 61.1138 13.3803C61.1551 13.3485 61.1363 13.0255 61.1363 12.8753C61.1363 12.3353 61.1254 11.7123 61.1363 11.3274C61.1575 10.5853 61.1432 10.0986 61.1363 9.39521C61.1301 8.75703 61.1269 8.41803 61.1252 7.73757C61.1238 7.19401 61.1233 6.38532 61.1252 5.92631C61.1257 5.7829 61.1131 5.63873 60.9678 5.66289C60.9531 5.66521 60.9536 5.66861 60.9453 5.67388Z" fill="black"/>
<path fill-rule="evenodd" clip-rule="evenodd" d="M7.91811 4.22458C7.93036 4.06523 7.90195 3.98284 7.89558 3.8732C7.89215 3.81358 7.87925 3.70719 7.90685 3.64261C7.93885 3.56781 8.189 3.42472 8.26656 3.36819C8.44095 3.24105 8.65812 3.17818 8.69372 2.96199C8.73731 2.69625 8.49892 2.35245 8.37907 2.20456C8.11536 1.87904 7.77312 1.63064 7.24391 1.53494C6.82786 1.45967 6.27057 1.67447 6.04132 1.89716C6.00458 1.93278 5.97584 1.99751 5.92898 2.05078C5.88424 2.10189 5.82481 2.13673 5.79411 2.18257C5.76178 2.23089 5.73973 2.30909 5.70414 2.38017C5.22669 3.3318 5.42623 4.78146 5.62543 5.94804C5.71198 6.45413 5.81942 7.00606 5.91771 7.55086C5.9636 7.80561 6.01079 8.09489 6.03005 8.37411C6.07561 9.03041 6.07447 9.67201 5.81648 10.1745C5.77402 10.2571 5.70202 10.3441 5.6478 10.4271C5.49726 10.6579 5.31291 10.8641 5.08594 11.0308C4.96838 11.117 4.8513 11.1655 4.76003 11.2284C4.65422 11.3013 4.58368 11.3815 4.47901 11.4588C4.34643 11.5567 4.1642 11.6341 4.00696 11.7662C3.95079 11.8133 3.8778 11.8678 3.78212 11.9308C3.72154 11.9706 3.62144 12.0888 3.54617 12.0844C3.49016 12.0812 3.30092 11.8556 3.29896 11.7989C3.29618 11.7202 3.44836 11.5689 3.47873 11.5026C3.66749 11.0921 3.7008 10.5924 3.66978 10.0424C3.66635 9.98111 3.68496 9.91684 3.68088 9.84483C3.66014 9.46527 3.59989 9.09143 3.53474 8.71418C3.41538 8.02195 3.28557 7.30959 3.14139 6.57337C3.10824 6.40411 3.09224 6.22695 3.07395 6.05737C3.05436 5.87587 3.00651 5.70243 2.99525 5.53038C2.9252 4.45687 3.14727 3.73429 3.53474 3.03849C3.79469 2.57143 4.20649 2.13193 4.64736 1.81988C4.72329 1.76615 4.80575 1.71829 4.88331 1.66611C4.96021 1.61438 5.02308 1.54748 5.09688 1.50149C5.20857 1.4318 5.34132 1.38162 5.4677 1.32587C5.80717 1.17612 6.2433 0.986416 6.68156 0.930666C7.14284 0.871973 7.58648 0.876774 8.08646 0.930666C8.32143 0.956064 8.5657 0.974337 8.76082 1.02947C9.026 1.10427 9.28905 1.25851 9.52516 1.3697C9.64926 1.42824 9.75376 1.49514 9.86234 1.5783C9.97289 1.66285 10.0991 1.72371 10.1883 1.79774C10.2918 1.88384 10.3875 2.00494 10.5029 2.12713C10.5432 2.16972 10.596 2.22438 10.649 2.30274C10.683 2.35292 10.7745 2.47154 10.7727 2.48935C10.7678 2.54061 10.5103 2.68541 10.4355 2.73094C10.2964 2.81549 10.1698 2.87217 10.0647 2.93954C9.94399 3.01681 9.83426 3.1009 9.7162 3.17013C9.35175 3.38368 8.99498 3.58903 8.63722 3.81776C8.40193 3.96906 8.1668 4.12036 7.91811 4.22458Z" fill="black"/>
<path fill-rule="evenodd" clip-rule="evenodd" d="M3.19752 2.92944C3.1936 3.03909 3.09644 3.05767 3.01758 3.09406C3.06101 3.02298 3.08877 2.93657 3.19752 2.92944Z" fill="black"/>
<path fill-rule="evenodd" clip-rule="evenodd" d="M19.6621 3.58803C19.6943 3.52082 19.9147 3.43023 19.9206 3.52221C19.923 3.56046 19.7395 3.62473 19.6621 3.58803Z" fill="black"/>
<path fill-rule="evenodd" clip-rule="evenodd" d="M65.0365 7.83646C65.0819 7.70018 64.9766 7.40594 65.0365 7.27648C65.0501 7.24736 65.2684 7.13509 65.3514 7.08987C65.4771 7.02142 65.5826 6.96598 65.6662 6.91426C65.883 6.77984 66.1204 6.67391 66.3067 6.56287C66.4047 6.50465 66.5097 6.40492 66.599 6.35428C66.7176 6.28707 66.8475 6.25145 66.9586 6.18966C67.0662 6.12973 67.1539 6.04409 67.262 5.98106C67.4303 5.88319 67.6117 5.80591 67.7791 5.70664C68.2626 5.41999 68.7878 5.14109 69.2852 4.85041C69.3571 4.80844 69.432 4.92118 69.4988 4.99319C69.7578 5.27272 70.0074 5.55798 70.2742 5.82744C70.3849 5.93909 70.4703 6.0571 70.5665 6.16782C70.6251 6.23519 70.7128 6.27622 70.7688 6.33244C70.824 6.38788 70.8647 6.4935 70.9262 6.56303C70.9765 6.61986 71.0786 6.67391 71.1398 6.73864C71.188 6.78959 71.2343 6.88638 71.2859 6.94724C71.3472 7.01941 71.4316 7.07222 71.4995 7.14485C71.627 7.28097 71.7524 7.42081 71.8929 7.57288C71.9154 7.59704 72.0867 7.77421 72.0841 7.79248C72.0787 7.83011 71.8937 7.92659 71.848 7.9571C71.6086 8.11676 71.3077 8.26589 71.0951 8.40713C70.9282 8.51801 70.7513 8.60086 70.5892 8.70353C69.8623 9.16409 69.095 9.58408 68.3413 10.0648C68.2647 10.1136 68.1216 10.1851 68.1053 10.2185C68.063 10.3042 68.1042 10.5521 68.1053 10.6576C68.1073 10.8381 68.1027 10.9806 68.1053 11.1516C68.1112 11.5497 68.0568 11.8534 68.1053 12.1614C68.1435 12.4046 68.4007 12.5453 68.5886 12.6665C68.9337 12.8885 69.2532 13.096 69.6115 13.3472C69.6715 13.3893 69.776 13.4759 69.8138 13.479C69.8788 13.4841 69.9661 13.4028 70.0273 13.3692C70.3825 13.1735 70.7061 13.0246 71.0725 12.8312C71.1235 12.8043 71.1868 12.7615 71.2748 12.7214C71.329 12.6968 71.4652 12.6181 71.4884 12.6226C71.5542 12.6353 71.5994 12.8001 71.6345 12.886C71.6723 12.9788 71.7733 13.1094 71.7582 13.1715C71.7444 13.2283 71.4285 13.3757 71.3648 13.413C70.5561 13.8851 69.7854 14.3191 68.9598 14.7853C68.8876 14.826 68.6391 15.0038 68.555 15.0049C68.4763 15.0058 68.3093 14.883 68.2291 14.8291C67.9224 14.6237 67.6151 14.433 67.3188 14.2363C67.113 14.1 66.9047 14 66.7006 13.8522C66.3378 13.5894 65.9637 13.5159 65.9251 12.963C65.9041 12.6607 65.9287 12.3827 65.9251 12.1286C65.9127 11.2753 65.9139 10.5924 65.9139 9.51594C65.9139 8.99142 65.9183 8.39489 65.9139 7.94595C65.9126 7.81726 65.9441 7.45953 65.9028 7.41911C65.8675 7.38473 65.5289 7.61625 65.4869 7.6387C65.3174 7.72899 65.208 7.78381 65.0365 7.83646ZM69.0491 8.7805C69.2477 8.64701 69.5084 8.53303 69.7235 8.38529C69.7795 8.34673 69.9245 8.2549 69.9256 8.22067C69.9264 8.19884 69.861 8.14975 69.8245 8.11087C69.7122 7.99148 69.6108 7.85241 69.5212 7.75949C69.1636 7.38953 68.844 6.96443 68.4983 6.60686C68.4213 6.52726 68.3774 6.42381 68.3073 6.35443C68.2879 6.33523 68.1651 6.41653 68.1499 6.46423C68.1192 6.55978 68.1499 6.73121 68.1499 6.83745C68.1501 7.79573 68.145 8.43407 68.161 9.31849C68.469 9.15263 68.7469 8.98368 69.0491 8.7805Z" fill="black"/>
<path fill-rule="evenodd" clip-rule="evenodd" d="M38.0164 7.43014C37.7884 7.53467 37.6043 7.64308 37.3531 7.77053C37.2999 7.79763 37.1596 7.88915 37.1283 7.85833C37.0876 7.81823 37.1319 7.65934 37.1395 7.53994C37.1433 7.47923 37.1165 7.35286 37.1395 7.29835C37.1577 7.25515 37.3761 7.16037 37.4655 7.11175C37.6892 6.98987 37.8773 6.86149 38.0948 6.73853C38.2133 6.67147 38.3335 6.6295 38.4319 6.57391C38.5324 6.51708 38.6375 6.40356 38.7241 6.35447C38.8263 6.2964 38.9453 6.26604 39.05 6.21169C39.1524 6.15857 39.2371 6.08671 39.331 6.02508C39.4272 5.9622 39.5307 5.92426 39.6345 5.87146C39.8352 5.76925 40.0267 5.64009 40.2189 5.53107C40.6169 5.30543 41.0069 5.07701 41.3992 4.87244C41.485 4.82753 41.6756 4.95885 41.7925 5.02606C41.9044 5.09033 42.0226 5.15584 42.1184 5.21267C42.4695 5.42143 42.765 5.60107 43.1074 5.78349C43.3331 5.90367 43.5472 6.0418 43.7593 6.16771C43.8794 6.23894 44.0093 6.28602 44.119 6.35432C44.3541 6.50081 44.4988 6.70802 44.5236 7.06776C44.5559 7.53808 44.5236 7.98408 44.5236 8.429C44.5238 9.69624 44.5347 10.6253 44.5349 12.0847C44.5349 12.2027 44.529 12.4116 44.546 12.4249C44.5798 12.4511 44.8476 12.3058 44.8944 12.2821C44.9445 12.257 45.1354 12.0991 45.2205 12.1175C45.2648 12.1271 45.4483 12.4899 45.4341 12.5565C45.4243 12.6021 45.2109 12.7139 45.1756 12.7323C44.6864 12.9869 44.2877 13.2379 43.8267 13.5007C43.6417 13.6062 43.4467 13.6965 43.2761 13.7971C42.6241 14.1813 42.0549 14.4887 41.3879 14.873C41.294 14.9272 41.1773 15.0162 41.1069 15.0156C41.0001 15.0148 40.836 14.8801 40.7361 14.8181C40.3834 14.5993 39.9956 14.4039 39.6683 14.2143C39.4335 14.0784 39.2005 13.935 38.9602 13.7973C38.6148 13.5992 38.1642 13.4524 38.0611 13.0179C37.9894 12.7156 38.0326 12.3529 38.0273 12.0628C38.0092 11.0595 38.0363 9.73867 38.0273 8.65959C38.0237 8.21978 38.0174 7.87583 38.0164 7.43014ZM40.2754 6.4971C40.1876 6.52714 40.2088 6.7314 40.208 6.7935C40.2039 7.13575 40.2119 7.50076 40.2193 7.77053C40.2287 8.12594 40.2193 8.8287 40.2193 9.30753C40.2191 9.89709 40.2201 10.3848 40.2193 10.8662C40.2184 11.3404 40.1587 12.0119 40.3429 12.2714C40.4307 12.3953 40.6511 12.4844 40.8037 12.5787C41.2231 12.8385 41.6393 13.04 42.0513 13.2813C42.0693 13.2918 42.2428 13.4427 42.3209 13.3801C42.3583 13.3504 42.3434 13.1332 42.3434 13.0287C42.3434 12.6261 42.3434 12.2615 42.3434 11.9091C42.3436 10.5105 42.3322 9.83561 42.3323 8.44015C42.3323 8.21188 42.3697 7.94521 42.2985 7.75938C42.2477 7.62713 42.0234 7.4399 41.8939 7.36417C41.7038 7.25313 41.5425 7.17183 41.3657 7.07876C41.0744 6.92529 40.8722 6.77817 40.5902 6.63957C40.5063 6.59838 40.3701 6.48471 40.298 6.49694C40.2909 6.49834 40.282 6.49493 40.2754 6.4971Z" fill="black"/>
<path fill-rule="evenodd" clip-rule="evenodd" d="M8.86287 7.85856C8.86793 7.75341 8.85226 7.67489 8.8516 7.58414C8.85111 7.52096 8.82826 7.38143 8.86287 7.30973C8.88475 7.2642 9.08739 7.16648 9.18879 7.11213C9.31223 7.046 9.43224 6.99164 9.52597 6.93651C9.63488 6.8724 9.73089 6.78877 9.84062 6.72791C9.96014 6.66148 10.0906 6.62214 10.1891 6.56329C10.2818 6.50785 10.3667 6.41261 10.4475 6.36569C10.5939 6.28083 10.7581 6.23251 10.8971 6.1461C11.0323 6.06216 11.1536 5.96135 11.2904 5.88268C11.4447 5.79394 11.6085 5.73633 11.7625 5.64109C12.1926 5.3755 12.6622 5.1316 13.1112 4.88366C13.2097 4.8293 13.3955 5.10899 13.4709 5.19106C13.6837 5.42274 13.8662 5.62189 14.0891 5.8387C14.2062 5.95267 14.2882 6.07966 14.3814 6.17908C14.448 6.25001 14.547 6.30003 14.6061 6.36569C14.6634 6.42934 14.692 6.52024 14.741 6.57429C14.7914 6.63004 14.8961 6.68703 14.9545 6.7499C15.0086 6.80798 15.0616 6.91592 15.1232 6.98049C15.174 7.03392 15.263 7.09834 15.3368 7.1781C15.4769 7.32971 15.5686 7.44136 15.7301 7.60629C15.7625 7.63928 15.9228 7.78407 15.9212 7.81489C15.9184 7.8646 15.7403 7.95411 15.6851 7.99066C15.441 8.15218 15.147 8.29992 14.932 8.44069C14.6121 8.65037 14.2552 8.83419 13.9204 9.0335C13.3465 9.37512 12.7629 9.7217 12.1784 10.0983C12.0855 10.1583 11.9521 10.1996 11.931 10.252C11.8933 10.3463 11.931 10.6046 11.931 10.757C11.931 11.0538 11.9282 11.4312 11.931 11.745C11.9334 12.0194 11.9168 12.2481 12.0433 12.4038C12.1344 12.5157 12.2902 12.5983 12.4367 12.6892C12.7198 12.8648 12.9474 13.0409 13.2459 13.2382C13.3009 13.2744 13.3759 13.3176 13.4482 13.3699C13.6378 13.5068 13.6558 13.5214 13.8754 13.4029C14.232 13.2104 14.5422 13.0529 14.9095 12.8539C14.9591 12.827 15.2543 12.6362 15.3366 12.6563C15.4054 12.6731 15.4459 12.8344 15.4828 12.9199C15.5237 13.015 15.6235 13.149 15.6064 13.2053C15.5984 13.232 15.462 13.2905 15.4041 13.326C15.2063 13.4477 14.9903 13.5663 14.7971 13.6663C14.4946 13.8231 14.2568 13.9891 13.9992 14.1274C13.6027 14.3402 13.1953 14.5664 12.7853 14.8081C12.6826 14.8689 12.4757 15.0291 12.3807 15.0277C12.2961 15.0265 12.1436 14.8933 12.066 14.8411C11.7638 14.6381 11.4434 14.4613 11.1443 14.2593C10.947 14.1261 10.7339 14.0233 10.5261 13.8751C10.1714 13.6219 9.79996 13.5223 9.75049 12.9859C9.70379 12.479 9.75653 11.9461 9.75049 11.504C9.74461 11.074 9.7593 10.5917 9.75049 10.2196C9.73563 9.5814 9.73922 8.69884 9.73922 7.79336C9.73922 7.67304 9.74395 7.45174 9.72795 7.44214C9.68909 7.4186 9.54752 7.52592 9.50327 7.55178C9.29754 7.67195 9.06583 7.79243 8.86287 7.85856ZM12.8416 8.81359C13.0346 8.68413 13.2954 8.55761 13.5047 8.40739C13.5653 8.36403 13.7065 8.28784 13.707 8.24277C13.707 8.22899 13.614 8.13205 13.5947 8.11099C13.4889 7.99685 13.4365 7.9315 13.3475 7.82557C13.3039 7.77385 13.2511 7.73281 13.2013 7.68279C13.0175 7.49804 12.8495 7.2625 12.6731 7.07914C12.5735 6.97538 12.5025 6.86001 12.4146 6.76074C12.363 6.70252 12.2886 6.65683 12.2349 6.59613C12.1789 6.53294 12.1387 6.45721 12.0887 6.39852C12.0699 6.37638 11.9467 6.44591 11.9313 6.47533C11.9042 6.52752 11.9199 6.75269 11.92 6.83756C11.9217 7.62998 11.9274 8.36806 11.9426 9.34043C12.2414 9.15956 12.5337 9.02018 12.8416 8.81359Z" fill="black"/>
<path fill-rule="evenodd" clip-rule="evenodd" d="M48.2888 4.89439C48.3055 4.89346 48.294 4.88247 48.3114 4.89439C48.5455 5.05669 48.7423 5.32553 48.9745 5.55302C49.1417 5.71671 49.3035 5.85578 49.469 6.04703C49.5273 6.11455 49.5748 6.21676 49.6152 6.22264C49.6856 6.23286 49.8487 6.09271 49.9186 6.04703C50.0242 5.97796 50.137 5.92422 50.2219 5.88241C50.4484 5.77091 50.6444 5.64346 50.8289 5.54218C51.1243 5.38004 51.4399 5.21976 51.7506 5.04817C51.8339 5.00233 51.9977 4.88448 52.054 4.88355C52.1218 4.88247 52.262 5.00264 52.3237 5.04817C52.5685 5.22889 52.8254 5.41318 53.0544 5.58616C53.415 5.85872 53.9599 6.08714 54.0435 6.60717C54.082 6.84736 54.0547 7.13308 54.0547 7.39758C54.0547 8.61526 54.0714 10.2498 54.0658 11.9095C54.0644 12.3536 54.048 12.7858 54.1222 13.1389C54.1524 13.2836 54.3006 13.3996 54.4368 13.4903C54.5098 13.5389 54.6257 13.6212 54.6728 13.6221C54.7454 13.6237 54.9779 13.477 55.055 13.4355C55.0937 13.4146 55.3615 13.2222 55.4258 13.238C55.4648 13.2475 55.5169 13.3715 55.5494 13.4466C55.5778 13.5122 55.6494 13.6326 55.6394 13.6771C55.6293 13.7217 55.4164 13.8242 55.3697 13.8528C54.8016 14.2002 54.2348 14.4872 53.6839 14.8299C53.6098 14.876 53.4643 14.9821 53.4029 14.9835C53.3317 14.9854 53.1637 14.8666 53.0993 14.8299C52.9656 14.7537 52.8938 14.7128 52.8072 14.6653C52.5029 14.4982 52.1797 14.3404 52.0429 14.0286C51.8501 13.5896 51.9079 12.9835 51.908 12.3601C51.9082 11.8619 51.8927 11.3576 51.8969 10.8231C51.9012 10.2333 51.8968 9.13808 51.8969 8.25428C51.8969 7.73363 51.9003 7.4061 51.6157 7.14547C51.5419 7.07764 51.4358 7.03784 51.3462 6.96985C51.2611 6.90543 51.1959 6.81546 51.1102 6.75026C51.0191 6.68119 50.9108 6.63489 50.829 6.57464C50.7827 6.54027 50.6643 6.36976 50.6044 6.36605C50.5506 6.36279 50.4056 6.50341 50.3233 6.55265C50.2515 6.59555 50.1349 6.63783 50.0311 6.68444C49.9595 6.71665 49.7897 6.79641 49.7726 6.83822C49.7365 6.92556 49.7726 7.16281 49.7726 7.31024C49.7726 8.29996 49.7649 9.58361 49.7726 10.2853C49.7816 11.0982 49.7837 12.0789 49.7837 13.0078C49.7839 13.4759 49.8265 13.9165 49.5926 14.1604C49.5489 14.2061 49.4821 14.2566 49.4241 14.2922C49.1578 14.4556 48.8961 14.526 48.5362 14.6764C48.4074 14.7303 48.2553 14.8053 48.0978 14.874C48.0596 14.8906 47.7123 15.0902 47.6145 14.9946C47.5836 14.9646 47.5919 14.5544 47.5919 14.5335C47.5896 13.178 47.5673 11.2927 47.5807 9.97774C47.5869 9.37393 47.5807 8.45606 47.5807 7.5845C47.5807 7.40501 47.6127 7.19874 47.5807 7.0575C47.5629 6.97868 47.4497 6.87647 47.3785 6.79408C47.2978 6.70101 47.2023 6.6321 47.1424 6.56349C47.0857 6.49876 47.0312 6.34638 46.9514 6.33291C46.8364 6.3137 46.7069 6.49334 46.6143 6.5525C46.5498 6.59369 46.437 6.63953 46.3446 6.68429C46.2598 6.72533 46.1304 6.82846 46.0861 6.82707C46.0185 6.82475 45.9254 6.68196 45.8838 6.64031C45.856 6.61259 45.7057 6.5017 45.7153 6.42087C45.7246 6.34173 46.0221 6.23674 46.0861 6.20127C46.2685 6.1003 46.4333 5.96279 46.6256 5.86104C46.9958 5.66499 47.3574 5.43548 47.7159 5.21325C47.8942 5.10268 48.0829 4.98173 48.2666 4.89486C48.2713 4.89207 48.2831 4.8947 48.2888 4.89439Z" fill="black"/>
<path fill-rule="evenodd" clip-rule="evenodd" d="M40.6467 7.03514C40.6482 7.07169 40.5735 7.1375 40.5456 7.11195C40.5041 7.07417 40.5739 6.98388 40.6467 7.03514Z" fill="black"/>
<path fill-rule="evenodd" clip-rule="evenodd" d="M12.2787 7.16684C12.3868 7.09312 12.3368 7.33331 12.2562 7.25464C12.2185 7.21779 12.2678 7.17443 12.2787 7.16684Z" fill="black"/>
<path fill-rule="evenodd" clip-rule="evenodd" d="M68.6435 7.30957C68.8734 7.29083 68.5161 7.49478 68.4861 7.47419C68.4002 7.41503 68.5999 7.31313 68.6435 7.30957Z" fill="black"/>
<path fill-rule="evenodd" clip-rule="evenodd" d="M12.4246 7.34253C12.5481 7.33355 12.4651 7.40882 12.3908 7.45233C12.3441 7.47959 12.1913 7.56089 12.2559 7.43034C12.269 7.40401 12.3867 7.34532 12.4246 7.34253Z" fill="black"/>
<path fill-rule="evenodd" clip-rule="evenodd" d="M2.65868 12.0082C2.64758 11.9062 2.83225 11.7885 2.89479 11.8325C2.96925 11.8851 2.70408 12.0197 2.65868 12.0082Z" fill="black"/>
<path fill-rule="evenodd" clip-rule="evenodd" d="M4.73713 12.1398C4.84604 12.1293 5.00329 12.14 5.13049 12.1507C5.25981 12.1615 5.38782 12.1364 5.52384 12.1507C5.60303 12.159 5.68892 12.1905 5.77105 12.2055C6.20049 12.2848 6.56086 12.3524 6.90621 12.5239C7.26657 12.7027 7.47982 12.8838 7.73798 13.1277C7.79333 13.18 7.90338 13.3312 7.95155 13.3363C8.0652 13.3482 8.30784 13.0654 8.43488 13.0947C8.49121 13.1077 8.54787 13.2551 8.58102 13.3143C8.60894 13.3643 8.70789 13.5108 8.69336 13.5667C8.68144 13.6127 8.48043 13.7033 8.40108 13.7533C7.81488 14.1238 7.26135 14.4527 6.69263 14.8511C6.62225 14.9005 6.44542 15.0221 6.38925 15.0158C6.3223 15.0083 6.23266 14.8374 6.18694 14.7742C5.76942 14.1973 5.05897 13.8794 4.08514 13.7972C3.96398 13.7869 3.82584 13.8103 3.72542 13.8191C3.641 13.8266 3.54581 13.8119 3.45568 13.8191C3.17238 13.8418 2.86965 13.913 2.59027 13.9728C1.75148 14.1519 1.02208 14.4521 0.37613 14.796C0.281588 14.8463 0.209253 14.9043 0.0838504 14.9718C0.00955594 15.0117 -0.156994 15.139 -0.208429 15.1364C-0.252189 15.1345 -0.424618 14.974 -0.421842 14.9061C-0.419882 14.8618 -0.277335 14.7413 -0.196999 14.6537C-0.112091 14.5611 -0.0397561 14.4623 0.0276805 14.4011C0.702536 13.792 1.43911 13.253 2.27562 12.8423C2.69755 12.6351 3.16683 12.4519 3.65815 12.3154C3.90977 12.2456 4.18539 12.1754 4.44485 12.1508C4.52748 12.1431 4.65386 12.1479 4.73713 12.1398Z" fill="black"/>
<path fill-rule="evenodd" clip-rule="evenodd" d="M22.1915 12.3922C23.0362 12.353 23.691 12.5181 24.237 12.8313C24.4011 12.9254 24.5366 13.0361 24.6865 13.1716C24.7285 13.2095 24.8095 13.2794 24.8327 13.2814C24.8759 13.2849 25.0036 13.2036 25.0686 13.1716C25.2486 13.083 25.333 13.0361 25.5181 12.93C25.58 12.8945 25.6899 12.8058 25.7428 12.8202C25.7946 12.8344 25.8467 13.0105 25.889 13.0946C25.9195 13.1553 26.018 13.2777 26.0126 13.3251C26.0023 13.4153 25.7675 13.4963 25.6641 13.5556C24.924 13.9795 24.228 14.3733 23.4836 14.8071C23.3933 14.8597 23.177 15.0168 23.1128 15.0047C23.0594 14.9946 23.0174 14.8577 22.9892 14.8071C22.6427 14.1841 21.9628 13.7986 20.8874 13.874C20.269 13.9172 19.5955 14.1023 19.0779 14.3022C18.7374 14.4339 18.2954 14.6339 17.9653 14.8621C17.8821 14.9195 17.6885 15.0744 17.6281 15.0707C17.5948 15.0685 17.3807 14.8466 17.3809 14.7962C17.3809 14.7645 17.5846 14.5754 17.6619 14.5C18.163 14.0105 18.7056 13.6393 19.3141 13.2704C19.4275 13.2018 19.5715 13.1476 19.7075 13.0838C19.8445 13.0195 19.9671 12.9351 20.0783 12.8863C20.2986 12.7895 20.5698 12.7281 20.8201 12.6447C21.2561 12.4996 21.6361 12.418 22.1915 12.3922Z" fill="black"/>
<path fill-rule="evenodd" clip-rule="evenodd" d="M60.8098 12.7107C60.8124 12.8052 60.6574 12.8221 60.6524 12.7655C60.6498 12.7361 60.7659 12.6861 60.8098 12.7107Z" fill="black"/>
<path fill-rule="evenodd" clip-rule="evenodd" d="M42.0062 12.7217C42.0729 12.8395 41.8741 12.8722 41.8601 12.8095C41.8495 12.7624 41.9597 12.7421 42.0062 12.7217Z" fill="black"/>
<path fill-rule="evenodd" clip-rule="evenodd" d="M3.71403 14.1377C3.70097 14.1986 3.54258 14.2747 3.51172 14.1815C3.56871 14.1569 3.63337 14.1396 3.71403 14.1377Z" fill="black"/>
<path fill-rule="evenodd" clip-rule="evenodd" d="M20.8088 14.2148C20.791 14.2727 20.7014 14.3119 20.6289 14.2808C20.6441 14.2148 20.7228 14.2112 20.8088 14.2148Z" fill="black"/>
<path d="M18.8203 1.61022C18.8598 1.56315 18.9106 1.52815 18.9505 1.48169" stroke="black" stroke-width="0.818385" stroke-linecap="round"/>
<path d="M18.5488 1.99635C18.613 1.91521 18.7162 1.88114 18.8 1.82275" stroke="black" stroke-width="0.866035" stroke-linecap="round"/>
<path d="M6.80859 2.00884C6.9113 1.96532 6.99392 1.88154 7.10283 1.85181" stroke="black" stroke-width="0.924555" stroke-linecap="round"/>
<path d="M7.04102 2.1224C7.16381 2.07625 7.27549 2.00982 7.388 1.94385" stroke="black" stroke-width="0.906075" stroke-linecap="round"/>
<path d="M7.2793 2.23999C7.40029 2.17479 7.52226 2.11114 7.64799 2.05322" stroke="black" stroke-width="0.908068" stroke-linecap="round"/>
<path d="M18.4043 2.30912C18.5055 2.23107 18.6247 2.17516 18.7398 2.12158" stroke="black" stroke-width="0.805159" stroke-linecap="round"/>
<path d="M7.42773 2.41898C7.56391 2.34496 7.69438 2.2604 7.83284 2.18994" stroke="black" stroke-width="0.949015" stroke-linecap="round"/>
<path d="M7.58594 2.58378C7.72408 2.51022 7.86434 2.43976 8.00101 2.36279" stroke="black" stroke-width="0.897741" stroke-linecap="round"/>
<path d="M18.3418 2.58364C18.462 2.50776 18.5964 2.45403 18.7201 2.38232" stroke="black" stroke-width="0.839583" stroke-linecap="round"/>
<path d="M7.7207 2.77022C7.85688 2.69511 7.98784 2.61179 8.12695 2.54272" stroke="black" stroke-width="0.913866" stroke-linecap="round"/>
<path d="M18.7596 2.60718C18.6259 2.68136 18.4895 2.76235 18.3496 2.82879" stroke="black" stroke-width="0.703155" stroke-linecap="round"/>
<path d="M7.83203 2.94595C7.96919 2.86852 8.10961 2.80007 8.2453 2.72388" stroke="black" stroke-width="0.805159" stroke-linecap="round"/>
<path d="M59.5008 2.70654C59.3656 2.76663 59.2436 2.85211 59.1074 2.9074" stroke="black" stroke-width="0.762944" stroke-linecap="round"/>
<path d="M18.4043 3.04573C18.545 2.96783 18.6879 2.89009 18.831 2.81421" stroke="black" stroke-width="0.647533" stroke-linecap="round"/>
<path d="M59.3203 3.04292C59.4459 2.97184 59.5695 2.89534 59.7024 2.83618" stroke="black" stroke-width="0.921113" stroke-linecap="round"/>
<path d="M30.8848 3.03374C31.0033 2.96529 31.1235 2.89436 31.25 2.84155" stroke="black" stroke-width="0.854983" stroke-linecap="round"/>
<path d="M7.91211 3.16528C8.05449 3.08304 8.19084 2.98765 8.328 2.90186" stroke="black" stroke-width="0.602601" stroke-linecap="round"/>
<path d="M26.0469 3.15767C26.1883 3.09898 26.3096 2.99956 26.4492 2.93823" stroke="black" stroke-width="1.01098" stroke-linecap="round"/>
<path d="M31.0918 3.17639C31.2196 3.11057 31.3464 3.04151 31.4677 2.96655" stroke="black" stroke-width="0.859331" stroke-linecap="round"/>
<path d="M59.5234 3.18577C59.6614 3.12197 59.7916 3.04299 59.9223 2.9668" stroke="black" stroke-width="0.975467" stroke-linecap="round"/>
<path d="M18.5215 3.2424C18.6678 3.17163 18.8082 3.09497 18.9486 3.01196" stroke="black" stroke-width="0.769285" stroke-linecap="round"/>
<path d="M26.2363 3.29174C26.3681 3.22794 26.4984 3.16212 26.6261 3.09058" stroke="black" stroke-width="0.933433" stroke-linecap="round"/>
<path d="M31.3203 3.29325C31.4457 3.24881 31.5634 3.17355 31.6838 3.11377" stroke="black" stroke-width="0.799723" stroke-linecap="round"/>
<path d="M59.7129 3.33023C59.8448 3.26007 59.9805 3.19581 60.1138 3.12891" stroke="black" stroke-width="0.852265" stroke-linecap="round"/>
<path d="M18.6973 3.37761C18.825 3.30823 18.9536 3.2421 19.0857 3.1814" stroke="black" stroke-width="0.720005" stroke-linecap="round"/>
<path d="M26.4414 3.43618C26.5681 3.35906 26.7038 3.29138 26.8385 3.22681" stroke="black" stroke-width="0.864585" stroke-linecap="round"/>
<path d="M31.543 3.42328C31.6689 3.35871 31.7913 3.28778 31.9197 3.22754" stroke="black" stroke-width="0.844837" stroke-linecap="round"/>
<path d="M59.8711 3.51534C60.0045 3.42598 60.1461 3.34948 60.2878 3.27515" stroke="black" stroke-width="0.935607" stroke-linecap="round"/>
<path d="M2.77148 3.46549C2.82504 3.38868 2.92236 3.36607 2.98882 3.30273" stroke="black" stroke-width="0.85607" stroke-linecap="round"/>
<path d="M18.9492 3.50576C19.0585 3.44133 19.1669 3.3701 19.2826 3.31543" stroke="black" stroke-width="0.877087" stroke-linecap="round"/>
<path d="M21.8145 3.45084C21.9072 3.40082 21.9937 3.33608 22.0955 3.30542" stroke="black" stroke-width="0.848642" stroke-linecap="round"/>
<path d="M31.7734 3.55849C31.9029 3.49407 32.0216 3.40905 32.1501 3.34106" stroke="black" stroke-width="0.772728" stroke-linecap="round"/>
<path d="M26.6055 3.60962C26.748 3.53761 26.8816 3.45042 27.0187 3.37036" stroke="black" stroke-width="0.860237" stroke-linecap="round"/>
<path d="M21.9492 3.62806C22.0967 3.56704 22.227 3.47412 22.3679 3.39917" stroke="black" stroke-width="0.992135" stroke-linecap="round"/>
<path d="M19.2441 3.58893C19.3516 3.56353 19.4479 3.48471 19.5443 3.42896" stroke="black" stroke-width="0.814036" stroke-linecap="round"/>
<path d="M59.998 3.68859C60.143 3.61596 60.2889 3.54209 60.4272 3.4563" stroke="black" stroke-width="0.84067" stroke-linecap="round"/>
<path d="M32.3687 3.48364C32.2458 3.55271 32.1213 3.62178 31.9922 3.67985" stroke="black" stroke-width="0.824182" stroke-linecap="round"/>
<path d="M26.7461 3.76602C26.8867 3.69881 27.0281 3.63129 27.1664 3.55835" stroke="black" stroke-width="0.913866" stroke-linecap="round"/>
<path d="M22.0273 3.82405C22.1606 3.74398 22.3018 3.67786 22.4432 3.61328" stroke="black" stroke-width="0.681051" stroke-linecap="round"/>
<path d="M32.209 3.79818C32.3393 3.74011 32.4658 3.67259 32.5953 3.61157" stroke="black" stroke-width="0.87455" stroke-linecap="round"/>
<path d="M2.58203 3.80061C2.65094 3.72426 2.76752 3.71451 2.84214 3.64404" stroke="black" stroke-width="0.851903" stroke-linecap="round"/>
<path d="M60.1094 3.87127C60.2462 3.78331 60.3932 3.71719 60.5386 3.64502" stroke="black" stroke-width="0.745007" stroke-linecap="round"/>
<path d="M32.4355 3.94482C32.5624 3.8711 32.6841 3.78763 32.8198 3.72925" stroke="black" stroke-width="0.888501" stroke-linecap="round"/>
<path d="M26.793 3.9977C26.929 3.92538 27.0606 3.84082 27.1958 3.76587" stroke="black" stroke-width="0.820015" stroke-linecap="round"/>
<path d="M22.082 4.04906C22.2109 3.98618 22.3341 3.91138 22.4574 3.83813" stroke="black" stroke-width="0.798093" stroke-linecap="round"/>
<path d="M60.2129 4.06936C60.3566 3.99735 60.5001 3.92069 60.6363 3.83521" stroke="black" stroke-width="0.902633" stroke-linecap="round"/>
<path d="M2.44922 4.13142C2.5129 4.04517 2.64565 4.02581 2.73023 3.95581" stroke="black" stroke-width="0.877811" stroke-linecap="round"/>
<path d="M26.8262 4.23799C26.9514 4.17248 27.0726 4.0966 27.2012 4.0376" stroke="black" stroke-width="0.788309" stroke-linecap="round"/>
<path d="M60.2715 4.28148C60.4137 4.20483 60.5569 4.12585 60.7006 4.05151" stroke="black" stroke-width="0.891581" stroke-linecap="round"/>
<path d="M22.082 4.30468C22.2038 4.23701 22.3239 4.1684 22.4468 4.10352" stroke="black" stroke-width="0.768198" stroke-linecap="round"/>
<path d="M2.3418 4.42784C2.44532 4.3439 2.5846 4.30689 2.68469 4.21924" stroke="black" stroke-width="0.86223" stroke-linecap="round"/>
<path d="M26.8301 4.48619C26.957 4.41619 27.084 4.34527 27.213 4.2793" stroke="black" stroke-width="0.769829" stroke-linecap="round"/>
<path d="M60.3184 4.51131C60.4531 4.43388 60.5937 4.3676 60.7258 4.28784" stroke="black" stroke-width="0.939593" stroke-linecap="round"/>
<path d="M22.0977 4.55193C22.2195 4.48209 22.3429 4.41658 22.4668 4.35107" stroke="black" stroke-width="0.757146" stroke-linecap="round"/>
<path d="M2.2832 4.71334C2.39522 4.62847 2.53989 4.58449 2.64847 4.4939" stroke="black" stroke-width="0.903176" stroke-linecap="round"/>
<path d="M60.3262 4.74611C60.4622 4.66652 60.6031 4.5911 60.7401 4.51196" stroke="black" stroke-width="0.592998" stroke-linecap="round"/>
<path d="M26.8281 4.73545C26.9557 4.66763 27.0842 4.59918 27.2102 4.52686" stroke="black" stroke-width="0.778888" stroke-linecap="round"/>
<path d="M22.0996 4.79766C22.225 4.72967 22.3509 4.66447 22.4752 4.59277" stroke="black" stroke-width="0.750624" stroke-linecap="round"/>
<path d="M2.23633 4.96728C2.36875 4.89883 2.49987 4.82821 2.62805 4.75171" stroke="black" stroke-width="0.801173" stroke-linecap="round"/>
<path d="M26.8379 4.98132C26.9605 4.91241 27.0827 4.84287 27.2072 4.77783" stroke="black" stroke-width="0.800629" stroke-linecap="round"/>
<path d="M22.0938 5.0487C22.2226 4.98862 22.3423 4.91026 22.4673 4.84521" stroke="black" stroke-width="0.762763" stroke-linecap="round"/>
<path d="M31.9023 5.00411C31.9639 4.93102 32.0687 4.90996 32.1402 4.84863" stroke="black" stroke-width="0.867846" stroke-linecap="round"/>
<path d="M2.24414 5.21464C2.36269 5.14573 2.48613 5.08378 2.60761 5.02075" stroke="black" stroke-width="0.871108" stroke-linecap="round"/>
<path d="M26.8262 5.2261C26.9544 5.16214 27.0851 5.09245 27.2099 5.02075" stroke="black" stroke-width="0.784142" stroke-linecap="round"/>
<path d="M22.0996 5.29882C22.2222 5.23316 22.3447 5.16518 22.4668 5.09766" stroke="black" stroke-width="0.890675" stroke-linecap="round"/>
<path d="M31.7207 5.3392C31.8174 5.2627 31.9357 5.21809 32.0401 5.15259" stroke="black" stroke-width="0.792295" stroke-linecap="round"/>
<path d="M2.21484 5.47236C2.3538 5.40933 2.48737 5.33422 2.62126 5.26392" stroke="black" stroke-width="0.724534" stroke-linecap="round"/>
<path d="M26.832 5.4746C26.9589 5.40894 27.0879 5.34653 27.2104 5.27344" stroke="black" stroke-width="0.879623" stroke-linecap="round"/>
<path d="M22.0977 5.5379C22.2216 5.471 22.3512 5.41478 22.4711 5.34277" stroke="black" stroke-width="0.862411" stroke-linecap="round"/>
<path d="M31.627 5.63558C31.7321 5.55242 31.8624 5.50782 31.9736 5.43457" stroke="black" stroke-width="0.907887" stroke-linecap="round"/>
<path d="M2.23438 5.72991C2.36255 5.65852 2.48534 5.57876 2.61809 5.51465" stroke="black" stroke-width="0.962241" stroke-linecap="round"/>
<path d="M26.8281 5.73409C26.9543 5.65944 27.0791 5.58108 27.2102 5.51465" stroke="black" stroke-width="0.911148" stroke-linecap="round"/>
<path d="M22.0996 5.79273C22.2242 5.7249 22.3504 5.65939 22.4668 5.58057" stroke="black" stroke-width="0.91604" stroke-linecap="round"/>
<path d="M31.5586 5.90723C31.6833 5.8346 31.8241 5.78411 31.9408 5.70142" stroke="black" stroke-width="0.769829" stroke-linecap="round"/>
<path d="M2.23438 5.95619C2.37366 5.88744 2.51457 5.81945 2.65124 5.74512" stroke="black" stroke-width="0.88995" stroke-linecap="round"/>
<path d="M27.2088 5.77808C27.082 5.84482 26.9506 5.90584 26.8242 5.9732" stroke="black" stroke-width="0.743195" stroke-linecap="round"/>
<path d="M22.0918 6.05255C22.2041 5.96211 22.3434 5.90729 22.4724 5.84302" stroke="black" stroke-width="0.764756" stroke-linecap="round"/>
<path d="M31.5488 6.18438C31.6726 6.11516 31.7877 6.03385 31.9084 5.96045" stroke="black" stroke-width="0.945753" stroke-linecap="round"/>
<path d="M2.26758 6.2155C2.40915 6.14535 2.53634 6.05321 2.67122 5.97314" stroke="black" stroke-width="0.874912" stroke-linecap="round"/>
<path d="M26.834 6.22932C26.97 6.1745 27.0918 6.09242 27.2135 6.0105" stroke="black" stroke-width="0.858244" stroke-linecap="round"/>
<path d="M22.0957 6.28526C22.2281 6.23632 22.3563 6.17144 22.4722 6.09106" stroke="black" stroke-width="0.744464" stroke-linecap="round"/>
<path d="M2.29102 6.43579C2.41528 6.34876 2.56044 6.29347 2.69857 6.22998" stroke="black" stroke-width="0.777257" stroke-linecap="round"/>
<path d="M31.498 6.44786C31.6112 6.35091 31.7601 6.2995 31.8961 6.23926" stroke="black" stroke-width="0.852084" stroke-linecap="round"/>
<path d="M60.3359 6.49182C60.4623 6.39844 60.6034 6.32643 60.7473 6.26123" stroke="black" stroke-width="0.796824" stroke-linecap="round"/>
<path d="M26.832 6.4751C26.9422 6.39194 27.0678 6.33262 27.1935 6.27563" stroke="black" stroke-width="0.815667" stroke-linecap="round"/>
<path d="M22.0938 6.55258C22.2262 6.48723 22.3362 6.38316 22.4724 6.32617" stroke="black" stroke-width="0.837952" stroke-linecap="round"/>
<path d="M2.33398 6.66219C2.46951 6.60582 2.60193 6.53644 2.7177 6.44678" stroke="black" stroke-width="0.991773" stroke-linecap="round"/>
<path d="M31.5078 6.68931C31.6376 6.62861 31.78 6.57673 31.8888 6.48071" stroke="black" stroke-width="0.766568" stroke-linecap="round"/>
<path d="M60.3535 6.72227C60.4863 6.65274 60.6562 6.61263 60.7563 6.50098" stroke="black" stroke-width="0.820378" stroke-linecap="round"/>
<path d="M27.2213 6.5083C27.1137 6.60943 26.9631 6.64551 26.834 6.71504" stroke="black" stroke-width="0.712939" stroke-linecap="round"/>
<path d="M22.0957 6.77718C22.2172 6.71678 22.3421 6.65855 22.4665 6.60156" stroke="black" stroke-width="0.693552" stroke-linecap="round"/>
<path d="M2.36328 6.91231C2.49489 6.82497 2.63025 6.74227 2.77574 6.67847" stroke="black" stroke-width="0.965321" stroke-linecap="round"/>
<path d="M31.5039 6.95277C31.6402 6.89253 31.7519 6.78831 31.8884 6.72729" stroke="black" stroke-width="0.853171" stroke-linecap="round"/>
<path d="M60.3379 6.99686C60.4857 6.92887 60.6138 6.83131 60.7544 6.75171" stroke="black" stroke-width="0.964958" stroke-linecap="round"/>
<path d="M26.832 6.97875C26.9666 6.91959 27.083 6.82853 27.2099 6.75513" stroke="black" stroke-width="0.849729" stroke-linecap="round"/>
<path d="M22.0898 7.04064C22.2291 6.98427 22.3593 6.90606 22.4821 6.82104" stroke="black" stroke-width="0.797368" stroke-linecap="round"/>
<path d="M46.5176 7.04862C46.6484 6.98884 46.7764 6.92241 46.8944 6.84033" stroke="black" stroke-width="0.929266" stroke-linecap="round"/>
<path d="M2.4082 7.12497C2.54569 7.05327 2.68791 6.98946 2.82033 6.90894" stroke="black" stroke-width="0.806608" stroke-linecap="round"/>
<path d="M50.7581 6.97876C50.6223 7.04582 50.482 7.10993 50.3516 7.18658" stroke="black" stroke-width="0.939412" stroke-linecap="round"/>
<path d="M31.5156 7.18731C31.6415 7.12412 31.7653 7.05289 31.8958 6.99683" stroke="black" stroke-width="0.849366" stroke-linecap="round"/>
<path d="M46.666 7.20658C46.8007 7.14866 46.9232 7.06457 47.0613 7.0127" stroke="black" stroke-width="0.889044" stroke-linecap="round"/>
<path d="M26.8398 7.21718C26.9677 7.15152 27.0903 7.07889 27.2205 7.0188" stroke="black" stroke-width="0.889226" stroke-linecap="round"/>
<path d="M60.3477 7.23089C60.4745 7.15439 60.6079 7.08981 60.7397 7.02368" stroke="black" stroke-width="0.879442" stroke-linecap="round"/>
<path d="M22.0957 7.29323C22.2205 7.22618 22.3426 7.15401 22.467 7.08618" stroke="black" stroke-width="0.905532" stroke-linecap="round"/>
<path d="M50.5293 7.33019C50.6777 7.26422 50.8146 7.17966 50.9558 7.10254" stroke="black" stroke-width="1.00681" stroke-linecap="round"/>
<path d="M2.46094 7.34802C2.60087 7.27167 2.74081 7.1992 2.87682 7.11743" stroke="black" stroke-width="0.944847" stroke-linecap="round"/>
<path d="M40.5859 7.30457C40.6674 7.26957 40.7347 7.20902 40.8173 7.17773" stroke="black" stroke-width="1.00518" stroke-linecap="round"/>
<path d="M46.8223 7.38251C46.9495 7.31964 47.0736 7.24778 47.1975 7.17871" stroke="black" stroke-width="0.913141" stroke-linecap="round"/>
<path d="M31.5078 7.44143C31.6347 7.36725 31.7727 7.30686 31.8981 7.22974" stroke="black" stroke-width="0.865491" stroke-linecap="round"/>
<path d="M50.7227 7.47985C50.8652 7.40675 51.0037 7.32514 51.1496 7.26025" stroke="black" stroke-width="0.874731" stroke-linecap="round"/>
<path d="M60.3379 7.49092C60.4729 7.40884 60.6169 7.34411 60.7531 7.26343" stroke="black" stroke-width="0.774902" stroke-linecap="round"/>
<path d="M26.832 7.47422C26.9553 7.39726 27.0863 7.33531 27.2141 7.26562" stroke="black" stroke-width="0.896292" stroke-linecap="round"/>
<path d="M40.6484 7.51535C40.7742 7.44039 40.9053 7.37675 41.0333 7.30566" stroke="black" stroke-width="0.98525" stroke-linecap="round"/>
<path d="M22.0977 7.54552C22.2229 7.46561 22.3558 7.39716 22.4859 7.32593" stroke="black" stroke-width="0.913322" stroke-linecap="round"/>
<path d="M2.49414 7.58939C2.6282 7.51119 2.76013 7.42818 2.90039 7.36035" stroke="black" stroke-width="0.859331" stroke-linecap="round"/>
<path d="M46.8535 7.61755C46.9761 7.55839 47.0939 7.48344 47.209 7.41406" stroke="black" stroke-width="0.808963" stroke-linecap="round"/>
<path d="M50.9141 7.64443C51.0591 7.58 51.1881 7.4843 51.3293 7.4126" stroke="black" stroke-width="0.946659" stroke-linecap="round"/>
<path d="M40.8633 7.64997C41.0037 7.59669 41.1291 7.50796 41.2596 7.43579" stroke="black" stroke-width="0.993041" stroke-linecap="round"/>
<path d="M31.8855 7.48169C31.7721 7.56439 31.641 7.62757 31.5156 7.69184" stroke="black" stroke-width="0.918395" stroke-linecap="round"/>
<path d="M26.834 7.71386C26.9661 7.65764 27.0957 7.59136 27.2149 7.51099" stroke="black" stroke-width="0.903176" stroke-linecap="round"/>
<path d="M60.3516 7.72501C60.4892 7.66167 60.6301 7.59942 60.7532 7.5127" stroke="black" stroke-width="0.750261" stroke-linecap="round"/>
<path d="M68.5273 7.66946C68.6196 7.62316 68.7123 7.57577 68.7992 7.52002" stroke="black" stroke-width="0.937419" stroke-linecap="round"/>
<path d="M12.3203 7.69118C12.4119 7.65231 12.5006 7.60523 12.5853 7.55273" stroke="black" stroke-width="0.891219" stroke-linecap="round"/>
<path d="M22.1074 7.77607C22.2297 7.71118 22.3551 7.65466 22.4768 7.58838" stroke="black" stroke-width="0.832517" stroke-linecap="round"/>
<path d="M41.0996 7.76112C41.2322 7.71559 41.3574 7.63971 41.4838 7.57544" stroke="black" stroke-width="0.925099" stroke-linecap="round"/>
<path d="M2.54297 7.79068C2.67637 7.72501 2.81337 7.66183 2.94383 7.58936" stroke="black" stroke-width="0.84683" stroke-linecap="round"/>
<path d="M51.0449 7.81436C51.187 7.74018 51.3315 7.67266 51.4749 7.60034" stroke="black" stroke-width="0.744283" stroke-linecap="round"/>
<path d="M46.791 7.86413C46.9123 7.78066 47.0515 7.71996 47.184 7.66064" stroke="black" stroke-width="0.721635" stroke-linecap="round"/>
<path d="M68.5273 7.90846C68.6668 7.8318 68.8066 7.75422 68.9509 7.6853" stroke="black" stroke-width="0.934339" stroke-linecap="round"/>
<path d="M41.3223 7.89707C41.4539 7.83884 41.5723 7.7515 41.7081 7.69946" stroke="black" stroke-width="0.997208" stroke-linecap="round"/>
<path d="M12.3203 7.94468C12.454 7.86028 12.5948 7.78378 12.7367 7.71533" stroke="black" stroke-width="0.944666" stroke-linecap="round"/>
<path d="M31.5078 7.9462C31.6268 7.86443 31.7554 7.79923 31.8843 7.73218" stroke="black" stroke-width="0.924374" stroke-linecap="round"/>
<path d="M60.3457 7.98753C60.483 7.90886 60.6153 7.82105 60.7586 7.75415" stroke="black" stroke-width="0.801173" stroke-linecap="round"/>
<path d="M26.8496 7.9739C26.969 7.89431 27.0947 7.82369 27.2221 7.75586" stroke="black" stroke-width="0.827444" stroke-linecap="round"/>
<path d="M2.57812 8.04528C2.7112 7.95887 2.85277 7.8864 2.98683 7.80029" stroke="black" stroke-width="1.05845" stroke-linecap="round"/>
<path d="M51.1035 8.04391C51.2413 7.96818 51.372 7.8844 51.5083 7.80542" stroke="black" stroke-width="0.882884" stroke-linecap="round"/>
<path d="M22.1035 8.0434C22.2332 7.98331 22.3524 7.89953 22.475 7.8252" stroke="black" stroke-width="0.790846" stroke-linecap="round"/>
<path d="M41.5059 8.07253C41.6393 7.99417 41.7758 7.91906 41.9067 7.83838" stroke="black" stroke-width="0.92365" stroke-linecap="round"/>
<path d="M68.6836 8.08354C68.8266 8.01927 68.9515 7.92511 69.0915 7.8562" stroke="black" stroke-width="0.958073" stroke-linecap="round"/>
<path d="M46.8047 8.10966C46.9472 8.04354 47.0801 7.96099 47.2126 7.88232" stroke="black" stroke-width="0.791389" stroke-linecap="round"/>
<path d="M12.4629 8.12535C12.6071 8.05319 12.7464 7.97235 12.8845 7.89136" stroke="black" stroke-width="0.744645" stroke-linecap="round"/>
<path d="M31.5098 8.18594C31.6396 8.12461 31.7761 8.06654 31.8956 7.98462" stroke="black" stroke-width="0.752979" stroke-linecap="round"/>
<path d="M60.3516 8.22108C60.4931 8.1551 60.6353 8.08774 60.7678 8.00659" stroke="black" stroke-width="0.736854" stroke-linecap="round"/>
<path d="M26.8516 8.20744C26.9734 8.1441 27.105 8.09083 27.2209 8.01758" stroke="black" stroke-width="0.724353" stroke-linecap="round"/>
<path d="M65.1367 8.22613C65.277 8.16093 65.4132 8.08598 65.5521 8.0166" stroke="black" stroke-width="0.652425" stroke-linecap="round"/>
<path d="M2.61719 8.24831C2.75761 8.17877 2.90424 8.11621 3.0414 8.03955" stroke="black" stroke-width="0.831067" stroke-linecap="round"/>
<path d="M68.8516 8.23713C68.9868 8.16728 69.1256 8.10488 69.2586 8.03101" stroke="black" stroke-width="0.863498" stroke-linecap="round"/>
<path d="M9.36404 8.05225C9.23471 8.11605 9.10703 8.18001 8.97656 8.24102" stroke="black" stroke-width="0.725983" stroke-linecap="round"/>
<path d="M51.1035 8.27554C51.2387 8.19765 51.3822 8.13632 51.5194 8.06152" stroke="black" stroke-width="0.748993" stroke-linecap="round"/>
<path d="M12.6309 8.26882C12.7621 8.19759 12.8978 8.13394 13.0334 8.06982" stroke="black" stroke-width="0.86223" stroke-linecap="round"/>
<path d="M41.5391 8.28118C41.6792 8.21443 41.817 8.14242 41.9563 8.07397" stroke="black" stroke-width="0.883609" stroke-linecap="round"/>
<path d="M22.0957 8.28094C22.2229 8.20971 22.3581 8.15303 22.4863 8.0835" stroke="black" stroke-width="0.727614" stroke-linecap="round"/>
<path d="M46.8047 8.35239C46.9316 8.27217 47.0669 8.21023 47.2 8.14209" stroke="black" stroke-width="0.771097" stroke-linecap="round"/>
<path d="M37.2578 8.35798C37.3814 8.27482 37.5171 8.21164 37.6512 8.14722" stroke="black" stroke-width="0.767836" stroke-linecap="round"/>
<path d="M68.9746 8.42396C69.0994 8.33414 69.2336 8.25593 69.368 8.18237" stroke="black" stroke-width="0.564553" stroke-linecap="round"/>
<path d="M12.7676 8.44573C12.8941 8.3539 13.0347 8.28065 13.1665 8.19873" stroke="black" stroke-width="0.468528" stroke-linecap="round"/>
<path d="M31.5137 8.44574C31.6327 8.37435 31.7516 8.30342 31.8716 8.23389" stroke="black" stroke-width="0.831248" stroke-linecap="round"/>
<path d="M60.3477 8.49334C60.4896 8.4221 60.6169 8.32748 60.7596 8.25903" stroke="black" stroke-width="0.954993" stroke-linecap="round"/>
<path d="M2.66211 8.49404C2.79535 8.41877 2.92157 8.3336 3.05709 8.26221" stroke="black" stroke-width="0.896473" stroke-linecap="round"/>
<path d="M26.8359 8.4737C26.9703 8.40943 27.0874 8.31682 27.2232 8.25317" stroke="black" stroke-width="0.828349" stroke-linecap="round"/>
<path d="M65.1426 8.48992C65.277 8.41234 65.4068 8.32871 65.5434 8.25562" stroke="black" stroke-width="0.94684" stroke-linecap="round"/>
<path d="M56.2129 8.48434C56.3483 8.40691 56.4787 8.32065 56.6203 8.25391" stroke="black" stroke-width="0.694821" stroke-linecap="round"/>
<path d="M8.99414 8.50355C9.12363 8.43356 9.2456 8.35334 9.37508 8.28442" stroke="black" stroke-width="0.959523" stroke-linecap="round"/>
<path d="M51.1133 8.52854C51.2588 8.46412 51.3891 8.37167 51.5266 8.29517" stroke="black" stroke-width="0.822914" stroke-linecap="round"/>
<path d="M41.5508 8.53366C41.6928 8.4714 41.821 8.38112 41.9556 8.30322" stroke="black" stroke-width="0.847373" stroke-linecap="round"/>
<path d="M22.1035 8.53726C22.2328 8.48615 22.3427 8.39463 22.467 8.33594" stroke="black" stroke-width="0.805159" stroke-linecap="round"/>
<path d="M37.252 8.60953C37.3901 8.54232 37.5273 8.47403 37.6559 8.39087" stroke="black" stroke-width="0.778888" stroke-linecap="round"/>
<path d="M46.8711 8.59572C46.9885 8.54183 47.1036 8.48577 47.2107 8.41577" stroke="black" stroke-width="0.767836" stroke-linecap="round"/>
<path d="M31.5137 8.67636C31.6454 8.61643 31.7808 8.5517 31.9049 8.47876" stroke="black" stroke-width="0.729245" stroke-linecap="round"/>
<path d="M2.71484 8.69499C2.84498 8.62298 2.98818 8.56971 3.1144 8.49243" stroke="black" stroke-width="0.879623" stroke-linecap="round"/>
<path d="M56.2148 8.71675C56.3463 8.64009 56.489 8.58341 56.6214 8.5083" stroke="black" stroke-width="0.838495" stroke-linecap="round"/>
<path d="M60.334 8.74215C60.4682 8.64893 60.6258 8.59194 60.7667 8.51172" stroke="black" stroke-width="0.844656" stroke-linecap="round"/>
<path d="M65.1387 8.7276C65.2673 8.64273 65.4181 8.58605 65.5554 8.51172" stroke="black" stroke-width="0.846105" stroke-linecap="round"/>
<path d="M26.8516 8.70157C26.9703 8.63823 27.0877 8.5783 27.2096 8.52271" stroke="black" stroke-width="0.738304" stroke-linecap="round"/>
<path d="M8.97852 8.74889C9.10229 8.67223 9.23389 8.61183 9.36599 8.54834" stroke="black" stroke-width="0.868209" stroke-linecap="round"/>
<path d="M41.5586 8.77153C41.6861 8.69286 41.8198 8.62674 41.9559 8.56665" stroke="black" stroke-width="0.767111" stroke-linecap="round"/>
<path d="M51.1152 8.77417C51.2436 8.70014 51.3753 8.6303 51.5097 8.56665" stroke="black" stroke-width="0.867665" stroke-linecap="round"/>
<path d="M22.1074 8.7788C22.2269 8.69951 22.3582 8.63741 22.4879 8.57593" stroke="black" stroke-width="0.733774" stroke-linecap="round"/>
<path d="M37.2656 8.85957C37.3936 8.78617 37.5172 8.70456 37.6528 8.64648" stroke="black" stroke-width="0.936332" stroke-linecap="round"/>
<path d="M46.8555 8.8618C46.9716 8.79599 47.0839 8.72367 47.2051 8.66528" stroke="black" stroke-width="0.928541" stroke-linecap="round"/>
<path d="M2.74414 8.94243C2.8813 8.87352 3.00866 8.79113 3.14239 8.7168" stroke="black" stroke-width="0.870564" stroke-linecap="round"/>
<path d="M31.5117 8.93815C31.6479 8.87156 31.7764 8.79088 31.9067 8.71484" stroke="black" stroke-width="0.791027" stroke-linecap="round"/>
<path d="M56.2188 8.97278C56.3556 8.89937 56.4932 8.82628 56.6234 8.74219" stroke="black" stroke-width="0.924918" stroke-linecap="round"/>
<path d="M26.8418 8.96533C26.9734 8.90571 27.099 8.8303 27.2201 8.75317" stroke="black" stroke-width="0.924374" stroke-linecap="round"/>
<path d="M60.3574 8.97633C60.4961 8.9116 60.629 8.83386 60.7583 8.75317" stroke="black" stroke-width="0.912235" stroke-linecap="round"/>
<path d="M65.1465 8.97646C65.2838 8.90894 65.4146 8.83043 65.5454 8.75269" stroke="black" stroke-width="0.924555" stroke-linecap="round"/>
<path d="M8.98047 8.99784C9.10914 8.92723 9.24679 8.86636 9.36811 8.7832" stroke="black" stroke-width="0.914953" stroke-linecap="round"/>
<path d="M51.1152 9.02776C51.2511 8.94568 51.4051 8.88699 51.5311 8.79175" stroke="black" stroke-width="0.894117" stroke-linecap="round"/>
<path d="M41.5605 9.02638C41.6894 8.95607 41.8241 8.89443 41.9483 8.81592" stroke="black" stroke-width="0.918577" stroke-linecap="round"/>
<path d="M22.1016 9.02482C22.2302 8.96876 22.3555 8.89783 22.4768 8.8269" stroke="black" stroke-width="0.750443" stroke-linecap="round"/>
<path d="M37.2598 9.10544C37.391 9.0359 37.5246 8.97132 37.6515 8.89575" stroke="black" stroke-width="0.881978" stroke-linecap="round"/>
<path d="M46.8555 9.10471C46.975 9.03873 47.103 8.98314 47.2176 8.90942" stroke="black" stroke-width="0.887414" stroke-linecap="round"/>
<path d="M2.78516 9.1661C2.91399 9.08975 3.04935 9.02409 3.17998 8.95068" stroke="black" stroke-width="0.937963" stroke-linecap="round"/>
<path d="M31.5234 9.17614C31.6446 9.11047 31.7644 9.04543 31.8858 8.98364" stroke="black" stroke-width="0.767473" stroke-linecap="round"/>
<path d="M56.2109 9.21789C56.3466 9.14572 56.483 9.07526 56.6156 8.99829" stroke="black" stroke-width="0.904082" stroke-linecap="round"/>
<path d="M26.8301 9.22525C26.953 9.14782 27.0879 9.08355 27.2149 9.01123" stroke="black" stroke-width="0.898466" stroke-linecap="round"/>
<path d="M60.3438 9.23627C60.4829 9.16256 60.6207 9.08528 60.7578 9.01343" stroke="black" stroke-width="0.768379" stroke-linecap="round"/>
<path d="M65.1387 9.23063C65.2726 9.15382 65.4143 9.08692 65.5461 9.00562" stroke="black" stroke-width="0.785591" stroke-linecap="round"/>
<path d="M8.97852 9.25151C9.10849 9.17981 9.23993 9.10904 9.37187 9.03857" stroke="black" stroke-width="0.787041" stroke-linecap="round"/>
<path d="M51.1133 9.27597C51.2451 9.19358 51.3884 9.13071 51.5207 9.04956" stroke="black" stroke-width="0.897016" stroke-linecap="round"/>
<path d="M41.5566 9.27477C41.6905 9.20028 41.8285 9.1323 41.9614 9.05518" stroke="black" stroke-width="0.922019" stroke-linecap="round"/>
<path d="M22.1074 9.28008C22.2315 9.2107 22.3589 9.1469 22.482 9.0752" stroke="black" stroke-width="0.89611" stroke-linecap="round"/>
<path d="M37.2578 9.35688C37.3865 9.28007 37.5217 9.21549 37.6528 9.14209" stroke="black" stroke-width="0.909155" stroke-linecap="round"/>
<path d="M46.8594 9.34983C46.9769 9.29238 47.0896 9.22486 47.2055 9.16431" stroke="black" stroke-width="0.914953" stroke-linecap="round"/>
<path d="M2.83008 9.39688C2.96642 9.32441 3.10325 9.24977 3.23388 9.17017" stroke="black" stroke-width="0.949739" stroke-linecap="round"/>
<path d="M31.5156 9.43502C31.6454 9.36689 31.7736 9.29689 31.901 9.22534" stroke="black" stroke-width="0.903901" stroke-linecap="round"/>
<path d="M26.8379 9.46679C26.9639 9.39663 27.0918 9.3285 27.2182 9.25757" stroke="black" stroke-width="0.93905" stroke-linecap="round"/>
<path d="M56.2148 9.47233C56.3481 9.39784 56.4913 9.32893 56.6222 9.24731" stroke="black" stroke-width="0.772728" stroke-linecap="round"/>
<path d="M60.3535 9.47789C60.493 9.40836 60.6283 9.32907 60.7666 9.2583" stroke="black" stroke-width="0.767836" stroke-linecap="round"/>
<path d="M65.1348 9.48192C65.2723 9.40697 65.4091 9.33186 65.5464 9.2583" stroke="black" stroke-width="0.762219" stroke-linecap="round"/>
<path d="M8.98828 9.49448C9.10683 9.42666 9.23239 9.36889 9.34881 9.29858" stroke="black" stroke-width="0.780881" stroke-linecap="round"/>
<path d="M41.5488 9.53104C41.6937 9.46275 41.8329 9.37711 41.9747 9.302" stroke="black" stroke-width="0.799904" stroke-linecap="round"/>
<path d="M51.1133 9.527C51.2524 9.45561 51.3881 9.37648 51.5269 9.30493" stroke="black" stroke-width="0.772728" stroke-linecap="round"/>
<path d="M22.1113 9.5253C22.2359 9.4618 22.3595 9.39552 22.4786 9.32397" stroke="black" stroke-width="0.905169" stroke-linecap="round"/>
<path d="M37.252 9.61301C37.3845 9.53667 37.5233 9.4724 37.6538 9.39233" stroke="black" stroke-width="0.788309" stroke-linecap="round"/>
<path d="M2.86328 9.62738C2.99358 9.55754 3.12225 9.48522 3.25304 9.41724" stroke="black" stroke-width="0.930716" stroke-linecap="round"/>
<path d="M46.8672 9.60293C46.9776 9.53618 47.0999 9.48678 47.2068 9.41431" stroke="black" stroke-width="0.778525" stroke-linecap="round"/>
<path d="M31.5137 9.68637C31.6314 9.61684 31.754 9.55443 31.8734 9.48877" stroke="black" stroke-width="0.890675" stroke-linecap="round"/>
<path d="M56.2168 9.7161C56.3554 9.64889 56.4849 9.56867 56.6229 9.49976" stroke="black" stroke-width="0.770191" stroke-linecap="round"/>
<path d="M26.8477 9.71685C26.9683 9.64314 27.0968 9.57856 27.2226 9.51367" stroke="black" stroke-width="0.78541" stroke-linecap="round"/>
<path d="M60.3672 9.72275C60.4965 9.65229 60.625 9.57671 60.7587 9.51074" stroke="black" stroke-width="0.76077" stroke-linecap="round"/>
<path d="M65.1406 9.72726C65.2683 9.65463 65.3981 9.58633 65.527 9.51587" stroke="black" stroke-width="0.775626" stroke-linecap="round"/>
<path d="M8.97852 9.74999C9.10441 9.67224 9.24238 9.6086 9.37187 9.53271" stroke="black" stroke-width="0.771097" stroke-linecap="round"/>
<path d="M41.5547 9.77831C41.6943 9.71032 41.8264 9.62546 41.9663 9.55469" stroke="black" stroke-width="0.819653" stroke-linecap="round"/>
<path d="M51.1152 9.77416C51.2539 9.70323 51.3876 9.62255 51.5269 9.55054" stroke="black" stroke-width="0.795737" stroke-linecap="round"/>
<path d="M22.1074 9.77551C22.2349 9.7066 22.362 9.63691 22.4884 9.56567" stroke="black" stroke-width="0.904988" stroke-linecap="round"/>
<path d="M2.89844 9.86039C3.02449 9.789 3.15071 9.71776 3.27971 9.6521" stroke="black" stroke-width="0.944666" stroke-linecap="round"/>
<path d="M37.2559 9.85705C37.394 9.79402 37.5248 9.7138 37.6577 9.63916" stroke="black" stroke-width="0.78994" stroke-linecap="round"/>
<path d="M46.875 9.84558C46.9865 9.78318 47.1025 9.72619 47.2151 9.66455" stroke="black" stroke-width="0.791751" stroke-linecap="round"/>
<path d="M31.5176 9.93515C31.6433 9.86933 31.7672 9.80444 31.8902 9.73584" stroke="black" stroke-width="0.763125" stroke-linecap="round"/>
<path d="M56.2129 9.96512C56.3483 9.89172 56.4875 9.82729 56.6203 9.74878" stroke="black" stroke-width="0.761495" stroke-linecap="round"/>
<path d="M60.3516 9.97009C60.4935 9.90629 60.6309 9.82777 60.7681 9.7522" stroke="black" stroke-width="0.779069" stroke-linecap="round"/>
<path d="M65.1406 9.96847C65.2735 9.90033 65.4073 9.83452 65.5356 9.75879" stroke="black" stroke-width="0.743377" stroke-linecap="round"/>
<path d="M26.8477 9.95752C26.9737 9.8962 27.0962 9.83085 27.2185 9.75977" stroke="black" stroke-width="0.777076" stroke-linecap="round"/>
<path d="M8.97656 9.98876C9.10458 9.92233 9.23618 9.85837 9.36387 9.7876" stroke="black" stroke-width="0.761676" stroke-linecap="round"/>
<path d="M51.1133 10.0212C51.25 9.94373 51.3958 9.87326 51.5319 9.79614" stroke="black" stroke-width="0.766205" stroke-linecap="round"/>
<path d="M41.5508 10.0267C41.6858 9.94805 41.8287 9.88022 41.9667 9.80713" stroke="black" stroke-width="0.779794" stroke-linecap="round"/>
<path d="M22.1074 10.0311C22.2289 9.95333 22.3613 9.89712 22.4853 9.82495" stroke="black" stroke-width="0.752798" stroke-linecap="round"/>
<path d="M2.9082 10.1015C3.04095 10.0308 3.16881 9.95124 3.30368 9.88403" stroke="black" stroke-width="0.96061" stroke-linecap="round"/>
<path d="M37.2578 10.1079C37.3816 10.0361 37.5047 9.96853 37.6316 9.90039" stroke="black" stroke-width="0.794288" stroke-linecap="round"/>
<path d="M46.8711 10.0962C46.9872 10.0341 47.099 9.96601 47.2174 9.90747" stroke="black" stroke-width="0.803347" stroke-linecap="round"/>
<path d="M31.5254 10.1845C31.6497 10.1139 31.7733 10.0433 31.8978 9.97485" stroke="black" stroke-width="0.795013" stroke-linecap="round"/>
<path d="M56.2188 10.2133C56.359 10.1464 56.4942 10.0688 56.626 9.98779" stroke="black" stroke-width="0.792476" stroke-linecap="round"/>
<path d="M60.3535 10.2224C60.4974 10.156 60.635 10.0787 60.7683 9.99341" stroke="black" stroke-width="0.800448" stroke-linecap="round"/>
<path d="M26.8496 10.2111C26.9757 10.1454 27.0965 10.0751 27.2204 10.0046" stroke="black" stroke-width="0.795737" stroke-linecap="round"/>
<path d="M65.1426 10.2242C65.2788 10.1599 65.4094 10.0839 65.5372 10.0059" stroke="black" stroke-width="0.899734" stroke-linecap="round"/>
<path d="M9.36813 10.0339C9.2424 10.1163 9.10508 10.1789 8.97266 10.2497" stroke="black" stroke-width="0.886689" stroke-linecap="round"/>
<path d="M41.9562 10.0596C41.8298 10.133 41.6982 10.1996 41.5664 10.2645" stroke="black" stroke-width="0.78378" stroke-linecap="round"/>
<path d="M51.1152 10.268C51.2526 10.2014 51.3904 10.1271 51.5233 10.0503" stroke="black" stroke-width="0.765299" stroke-linecap="round"/>
<path d="M22.1074 10.2705C22.2304 10.2152 22.3523 10.1497 22.4706 10.0833" stroke="black" stroke-width="0.739028" stroke-linecap="round"/>
<path d="M2.92383 10.3271C3.0507 10.2634 3.17561 10.1985 3.30249 10.1355" stroke="black" stroke-width="0.882522" stroke-linecap="round"/>
<path d="M37.2578 10.345C37.3891 10.275 37.5236 10.2146 37.6541 10.1418" stroke="black" stroke-width="0.752436" stroke-linecap="round"/>
<path d="M46.8574 10.3465C46.9707 10.2774 47.1017 10.2268 47.2155 10.1582" stroke="black" stroke-width="0.745007" stroke-linecap="round"/>
<path d="M31.5098 10.4329C31.6361 10.3601 31.7656 10.2889 31.8981 10.2258" stroke="black" stroke-width="0.775989" stroke-linecap="round"/>
<path d="M56.2188 10.4659C56.3507 10.3877 56.4874 10.3142 56.6268 10.248" stroke="black" stroke-width="0.883971" stroke-linecap="round"/>
<path d="M26.8535 10.4475C26.9755 10.3817 27.0991 10.3161 27.2207 10.2485" stroke="black" stroke-width="0.799542" stroke-linecap="round"/>
<path d="M60.3535 10.4754C60.4879 10.4009 60.6198 10.3224 60.7594 10.2573" stroke="black" stroke-width="0.898466" stroke-linecap="round"/>
<path d="M65.1367 10.4713C65.2739 10.4023 65.404 10.3174 65.5453 10.2539" stroke="black" stroke-width="0.902633" stroke-linecap="round"/>
<path d="M8.96875 10.5096C9.08844 10.4176 9.23441 10.3592 9.36586 10.2827" stroke="black" stroke-width="0.912235" stroke-linecap="round"/>
<path d="M41.5645 10.5237C41.6912 10.4319 41.8365 10.374 41.9674 10.29" stroke="black" stroke-width="0.798817" stroke-linecap="round"/>
<path d="M51.1172 10.5237C51.2493 10.4341 51.391 10.3641 51.5314 10.29" stroke="black" stroke-width="0.793926" stroke-linecap="round"/>
<path d="M22.0996 10.5302C22.2162 10.4608 22.3396 10.3953 22.4559 10.323" stroke="black" stroke-width="0.89448" stroke-linecap="round"/>
<path d="M3.30997 10.3635C3.18179 10.4295 3.06423 10.513 2.93164 10.5738" stroke="black" stroke-width="0.798817" stroke-linecap="round"/>
<path d="M37.2734 10.6011C37.4006 10.528 37.5352 10.4605 37.6563 10.3779" stroke="black" stroke-width="0.921294" stroke-linecap="round"/>
<path d="M46.8652 10.6054C46.9826 10.5351 47.1048 10.4727 47.2199 10.3999" stroke="black" stroke-width="0.88379" stroke-linecap="round"/>
<path d="M31.9044 10.4658C31.784 10.5398 31.6567 10.614 31.5234 10.6729" stroke="black" stroke-width="0.775989" stroke-linecap="round"/>
<path d="M56.2148 10.7132C56.3538 10.6481 56.4892 10.5772 56.6201 10.498" stroke="black" stroke-width="0.880167" stroke-linecap="round"/>
<path d="M26.8594 10.7021C26.9853 10.6378 27.1138 10.5759 27.2302 10.4988" stroke="black" stroke-width="0.872014" stroke-linecap="round"/>
<path d="M60.3555 10.7215C60.4907 10.6518 60.6267 10.586 60.7585 10.5098" stroke="black" stroke-width="0.86531" stroke-linecap="round"/>
<path d="M65.1504 10.7132C65.2835 10.6505 65.4154 10.58 65.5408 10.5042" stroke="black" stroke-width="0.873463" stroke-linecap="round"/>
<path d="M8.99219 10.7324C9.11416 10.6638 9.24544 10.6119 9.36301 10.5359" stroke="black" stroke-width="0.84538" stroke-linecap="round"/>
<path d="M41.5625 10.7624C41.6956 10.6894 41.8401 10.6385 41.9652 10.553" stroke="black" stroke-width="0.855345" stroke-linecap="round"/>
<path d="M51.127 10.7608C51.2599 10.6888 51.3983 10.6287 51.528 10.5508" stroke="black" stroke-width="0.839039" stroke-linecap="round"/>
<path d="M22.0762 10.7759C22.1975 10.7234 22.3129 10.6576 22.4302 10.5977" stroke="black" stroke-width="0.830342" stroke-linecap="round"/>
<path d="M3.28009 10.6414C3.16334 10.6983 3.04725 10.757 2.93164 10.8171" stroke="black" stroke-width="0.829437" stroke-linecap="round"/>
<path d="M37.2676 10.8378C37.3861 10.7619 37.5221 10.7189 37.6402 10.6428" stroke="black" stroke-width="0.85154" stroke-linecap="round"/>
<path d="M46.8652 10.8378C46.9771 10.7666 47.1051 10.7237 47.2173 10.6548" stroke="black" stroke-width="0.841032" stroke-linecap="round"/>
<path d="M31.5254 10.9159C31.6444 10.8455 31.7646 10.7774 31.8911 10.7212" stroke="black" stroke-width="0.78686" stroke-linecap="round"/>
<path d="M56.2188 10.9707C56.3433 10.8784 56.4834 10.809 56.6234 10.7402" stroke="black" stroke-width="0.944123" stroke-linecap="round"/>
<path d="M26.8301 10.9817C26.9454 10.885 27.0828 10.8158 27.2193 10.75" stroke="black" stroke-width="0.933071" stroke-linecap="round"/>
<path d="M60.3477 10.9903C60.4778 10.899 60.6179 10.8235 60.7586 10.7512" stroke="black" stroke-width="0.80534" stroke-linecap="round"/>
<path d="M65.1426 10.9816C65.2698 10.8931 65.4045 10.8138 65.5456 10.7478" stroke="black" stroke-width="0.81458" stroke-linecap="round"/>
<path d="M8.98828 11.0014C9.11401 10.9215 9.23713 10.8343 9.37543 10.7756" stroke="black" stroke-width="0.801897" stroke-linecap="round"/>
<path d="M41.5625 11.0257C41.6938 10.9476 41.8228 10.8697 41.9542 10.792" stroke="black" stroke-width="0.983801" stroke-linecap="round"/>
<path d="M51.1211 11.0202C51.2605 10.9512 51.3804 10.8521 51.5229 10.7869" stroke="black" stroke-width="0.970394" stroke-linecap="round"/>
<path d="M22.0234 11.064C22.1399 11.0025 22.2592 10.9412 22.3551 10.8528" stroke="black" stroke-width="0.95753" stroke-linecap="round"/>
<path d="M2.91016 11.0915C3.03931 11.031 3.16913 10.9631 3.2782 10.8721" stroke="black" stroke-width="0.856251" stroke-linecap="round"/>
<path d="M37.648 10.8721C37.537 10.9613 37.4067 11.0268 37.2793 11.0915" stroke="black" stroke-width="0.963328" stroke-linecap="round"/>
<path d="M46.8789 11.0914C46.9952 11.0271 47.1281 10.9779 47.2207 10.8828" stroke="black" stroke-width="0.926367" stroke-linecap="round"/>
<path d="M31.5293 11.1646C31.6519 11.098 31.8035 11.0581 31.905 10.9597" stroke="black" stroke-width="0.8423" stroke-linecap="round"/>
<path d="M26.8594 11.1853C26.9804 11.1244 27.1094 11.0794 27.223 11.0066" stroke="black" stroke-width="0.834691" stroke-linecap="round"/>
<path d="M56.2305 11.1991C56.3621 11.1273 56.5143 11.0805 56.6352 10.9927" stroke="black" stroke-width="0.713482" stroke-linecap="round"/>
<path d="M60.3516 11.2071C60.4918 11.1497 60.6277 11.0812 60.7632 11.0146" stroke="black" stroke-width="0.696089" stroke-linecap="round"/>
<path d="M65.1426 11.2034C65.2788 11.145 65.4156 11.0845 65.5456 11.0112" stroke="black" stroke-width="0.694821" stroke-linecap="round"/>
<path d="M8.97852 11.2231C9.1062 11.1561 9.24451 11.1115 9.36681 11.0376" stroke="black" stroke-width="0.675253" stroke-linecap="round"/>
<path d="M41.5625 11.2452C41.6975 11.1747 41.8419 11.1209 41.9755 11.0476" stroke="black" stroke-width="0.822733" stroke-linecap="round"/>
<path d="M51.1152 11.254C51.2508 11.1761 51.4015 11.1252 51.5367 11.0476" stroke="black" stroke-width="0.700256" stroke-linecap="round"/>
<path d="M37.2598 11.3444C37.3817 11.2574 37.5184 11.1944 37.6564 11.1343" stroke="black" stroke-width="0.784323" stroke-linecap="round"/>
<path d="M46.8652 11.3398C46.9712 11.2639 47.0876 11.2066 47.209 11.1562" stroke="black" stroke-width="0.77309" stroke-linecap="round"/>
<path d="M2.86523 11.3712C2.96108 11.2817 3.08534 11.2261 3.20242 11.1682" stroke="black" stroke-width="0.937238" stroke-linecap="round"/>
<path d="M21.957 11.3467C22.0191 11.2789 22.1211 11.2521 22.1884 11.1868" stroke="black" stroke-width="0.965502" stroke-linecap="round"/>
<path d="M31.5156 11.4326C31.6366 11.3614 31.7477 11.2764 31.8734 11.2124" stroke="black" stroke-width="0.968219" stroke-linecap="round"/>
<path d="M26.8379 11.4736C26.9702 11.3951 27.0905 11.2993 27.2296 11.2327" stroke="black" stroke-width="0.864404" stroke-linecap="round"/>
<path d="M56.2148 11.4685C56.3618 11.4007 56.4823 11.2931 56.6293 11.2263" stroke="black" stroke-width="0.83306" stroke-linecap="round"/>
<path d="M60.3516 11.4811C60.4922 11.4094 60.6167 11.3063 60.759 11.2341" stroke="black" stroke-width="0.835053" stroke-linecap="round"/>
<path d="M65.1426 11.4757C65.2859 11.4085 65.4032 11.2995 65.5472 11.2341" stroke="black" stroke-width="0.841213" stroke-linecap="round"/>
<path d="M8.97656 11.4958C9.1165 11.4288 9.24157 11.3374 9.37187 11.2561" stroke="black" stroke-width="0.823277" stroke-linecap="round"/>
<path d="M41.582 11.5141C41.7203 11.4484 41.8469 11.3612 41.9754 11.2781" stroke="black" stroke-width="0.877087" stroke-linecap="round"/>
<path d="M51.1309 11.5159C51.2729 11.4498 51.3985 11.3567 51.5317 11.2781" stroke="black" stroke-width="0.850816" stroke-linecap="round"/>
<path d="M37.2637 11.5866C37.3984 11.5377 37.5305 11.4672 37.651 11.3879" stroke="black" stroke-width="0.754066" stroke-linecap="round"/>
<path d="M46.8613 11.5866C46.9844 11.5357 47.1161 11.4787 47.2232 11.3989" stroke="black" stroke-width="0.748087" stroke-linecap="round"/>
<path d="M31.5137 11.6622C31.6461 11.6031 31.7803 11.5447 31.907 11.4702" stroke="black" stroke-width="0.695002" stroke-linecap="round"/>
<path d="M2.80469 11.6442C2.88176 11.5748 3.00536 11.5652 3.07819 11.4868" stroke="black" stroke-width="0.641735" stroke-linecap="round"/>
<path d="M26.8379 11.6954C26.9605 11.6248 27.0933 11.5706 27.22 11.5088" stroke="black" stroke-width="0.731781" stroke-linecap="round"/>
<path d="M56.2305 11.6877C56.3557 11.6166 56.4953 11.5663 56.622 11.4976" stroke="black" stroke-width="0.708409" stroke-linecap="round"/>
<path d="M60.3477 11.7034C60.4837 11.6332 60.6244 11.5725 60.7621 11.5051" stroke="black" stroke-width="0.715294" stroke-linecap="round"/>
<path d="M65.1406 11.7013C65.2748 11.6266 65.4205 11.5728 65.5534 11.4978" stroke="black" stroke-width="0.694096" stroke-linecap="round"/>
<path d="M8.97852 11.7173C9.10555 11.6569 9.23259 11.5908 9.36223 11.5322" stroke="black" stroke-width="0.708771" stroke-linecap="round"/>
<path d="M51.1191 11.7538C51.248 11.6669 51.392 11.6083 51.5329 11.5432" stroke="black" stroke-width="0.76077" stroke-linecap="round"/>
<path d="M41.5625 11.761C41.6797 11.6728 41.8215 11.6226 41.9521 11.5562" stroke="black" stroke-width="0.758958" stroke-linecap="round"/>
<path d="M37.2578 11.8489C37.3886 11.771 37.5129 11.6841 37.6549 11.6257" stroke="black" stroke-width="0.806789" stroke-linecap="round"/>
<path d="M46.8672 11.8424C46.9795 11.7699 47.0937 11.6973 47.2173 11.6418" stroke="black" stroke-width="0.809507" stroke-linecap="round"/>
<path d="M31.5234 11.9202C31.6562 11.8625 31.7734 11.7796 31.8972 11.7061" stroke="black" stroke-width="0.83143" stroke-linecap="round"/>
<path d="M56.2266 11.9514C56.3662 11.8853 56.501 11.8062 56.6299 11.7202" stroke="black" stroke-width="0.811137" stroke-linecap="round"/>
<path d="M60.3574 11.966C60.4939 11.8896 60.6376 11.8223 60.7627 11.7283" stroke="black" stroke-width="0.806608" stroke-linecap="round"/>
<path d="M26.8457 11.9487C26.9783 11.8917 27.0975 11.8129 27.2217 11.739" stroke="black" stroke-width="0.812043" stroke-linecap="round"/>
<path d="M65.1426 11.9696C65.2809 11.8985 65.4133 11.8205 65.5449 11.739" stroke="black" stroke-width="0.924918" stroke-linecap="round"/>
<path d="M8.98242 11.9844C9.11419 11.9152 9.2556 11.8543 9.37202 11.7612" stroke="black" stroke-width="0.890856" stroke-linecap="round"/>
<path d="M51.1211 11.9998C51.2641 11.9418 51.4039 11.8605 51.5342 11.7747" stroke="black" stroke-width="0.794831" stroke-linecap="round"/>
<path d="M41.5625 12.0026C41.7049 11.9458 41.8394 11.867 41.9706 11.7849" stroke="black" stroke-width="0.795013" stroke-linecap="round"/>
<path d="M37.2695 12.0793C37.3974 12.0122 37.5262 11.9554 37.6518 11.8818" stroke="black" stroke-width="0.749537" stroke-linecap="round"/>
<path d="M46.8594 12.0804C46.9797 12.0191 47.1107 11.9629 47.224 11.8909" stroke="black" stroke-width="0.725983" stroke-linecap="round"/>
<path d="M31.5234 12.1648C31.6423 12.0906 31.7739 12.0344 31.8969 11.9653" stroke="black" stroke-width="0.758777" stroke-linecap="round"/>
<path d="M56.2227 12.2032C56.3554 12.1272 56.4924 12.0562 56.6287 11.9861" stroke="black" stroke-width="0.885783" stroke-linecap="round"/>
<path d="M60.3535 12.2222C60.4779 12.1384 60.6189 12.0672 60.7544 11.999" stroke="black" stroke-width="0.890675" stroke-linecap="round"/>
<path d="M65.1445 12.2121C65.2774 12.1356 65.4133 12.0642 65.5475 11.9917" stroke="black" stroke-width="0.88832" stroke-linecap="round"/>
<path d="M27.2221 11.9949C27.0914 12.0452 26.9748 12.1273 26.8496 12.1892" stroke="black" stroke-width="0.778888" stroke-linecap="round"/>
<path d="M8.98828 12.2287C9.11107 12.1497 9.2497 12.0929 9.372 12.0134" stroke="black" stroke-width="0.90227" stroke-linecap="round"/>
<path d="M2.67188 12.1959C2.77605 12.1369 2.883 12.0812 2.98816 12.0247" stroke="black" stroke-width="0.884334" stroke-linecap="round"/>
<path d="M51.1172 12.2567C51.2537 12.1849 51.384 12.0983 51.5252 12.0347" stroke="black" stroke-width="0.781062" stroke-linecap="round"/>
<path d="M41.5625 12.2596C41.6964 12.1835 41.8285 12.1037 41.9686 12.0371" stroke="black" stroke-width="0.818385" stroke-linecap="round"/>
<path d="M37.2695 12.332C37.4042 12.2679 37.5287 12.1898 37.6588 12.1194" stroke="black" stroke-width="0.787584" stroke-linecap="round"/>
<path d="M46.8711 12.3356C46.9905 12.2707 47.1186 12.2123 47.2271 12.1343" stroke="black" stroke-width="0.902995" stroke-linecap="round"/>
<path d="M31.5254 12.4086C31.6531 12.3467 31.7751 12.2838 31.8962 12.2112" stroke="black" stroke-width="0.757509" stroke-linecap="round"/>
<path d="M56.2246 12.4472C56.3623 12.3718 56.512 12.3114 56.6393 12.2222" stroke="black" stroke-width="0.885421" stroke-linecap="round"/>
<path d="M26.8438 12.4472C26.9719 12.3785 27.1022 12.3139 27.2278 12.2405" stroke="black" stroke-width="0.874731" stroke-linecap="round"/>
<path d="M65.1406 12.4591C65.2757 12.3837 65.4163 12.3176 65.5492 12.2388" stroke="black" stroke-width="0.873644" stroke-linecap="round"/>
<path d="M60.3496 12.4637C60.4837 12.3869 60.6272 12.325 60.7588 12.2441" stroke="black" stroke-width="0.861868" stroke-linecap="round"/>
<path d="M8.98438 12.4692C9.11468 12.4086 9.24008 12.3396 9.36842 12.2734" stroke="black" stroke-width="0.884153" stroke-linecap="round"/>
<path d="M41.5508 12.5184C41.6794 12.4303 41.8275 12.3696 41.9654 12.2976" stroke="black" stroke-width="0.874912" stroke-linecap="round"/>
<path d="M51.1211 12.5021C51.2565 12.4282 51.3954 12.3598 51.5314 12.2881" stroke="black" stroke-width="0.868752" stroke-linecap="round"/>
<path d="M37.2676 12.5911C37.3886 12.5103 37.5223 12.4454 37.6513 12.3757" stroke="black" stroke-width="0.902089" stroke-linecap="round"/>
<path d="M46.8711 12.5829C46.9865 12.5123 47.1101 12.4542 47.2274 12.3867" stroke="black" stroke-width="0.915315" stroke-linecap="round"/>
<path d="M31.5176 12.6656C31.6405 12.6005 31.7604 12.5287 31.8825 12.4607" stroke="black" stroke-width="0.796824" stroke-linecap="round"/>
<path d="M56.2305 12.6974C56.3658 12.626 56.5001 12.5514 56.6318 12.4736" stroke="black" stroke-width="0.925824" stroke-linecap="round"/>
<path d="M60.5039 12.6322C60.5908 12.5859 60.6749 12.5368 60.7588 12.4858" stroke="black" stroke-width="0.917308" stroke-linecap="round"/>
<path d="M26.8496 12.6943C26.978 12.6327 27.0971 12.5553 27.2204 12.4856" stroke="black" stroke-width="0.910967" stroke-linecap="round"/>
<path d="M65.1406 12.7145C65.2812 12.6434 65.4162 12.565 65.5518 12.4856" stroke="black" stroke-width="0.805883" stroke-linecap="round"/>
<path d="M8.98828 12.7255C9.12397 12.6662 9.25068 12.5855 9.37902 12.5144" stroke="black" stroke-width="0.799723" stroke-linecap="round"/>
<path d="M41.6953 12.6795C41.7925 12.6487 41.8749 12.5843 41.9657 12.5396" stroke="black" stroke-width="0.947565" stroke-linecap="round"/>
<path d="M51.1406 12.741C51.2739 12.6764 51.4037 12.6041 51.5314 12.5298" stroke="black" stroke-width="0.88995" stroke-linecap="round"/>
<path d="M37.2695 12.826C37.3989 12.7531 37.5363 12.6964 37.6645 12.6221" stroke="black" stroke-width="0.863861" stroke-linecap="round"/>
<path d="M46.8633 12.8261C46.9812 12.764 47.1056 12.711 47.2191 12.6421" stroke="black" stroke-width="0.850816" stroke-linecap="round"/>
<path d="M31.5195 12.9083C31.6472 12.8369 31.7775 12.7712 31.9073 12.7051" stroke="black" stroke-width="0.872376" stroke-linecap="round"/>
<path d="M56.2148 12.9525C56.3513 12.876 56.4905 12.7955 56.6348 12.7288" stroke="black" stroke-width="0.780156" stroke-linecap="round"/>
<path d="M26.8438 12.9412C26.9639 12.8646 27.0941 12.8049 27.2203 12.738" stroke="black" stroke-width="0.910605" stroke-linecap="round"/>
<path d="M65.1406 12.9547C65.2766 12.8824 65.4089 12.8045 65.5485 12.7397" stroke="black" stroke-width="0.759502" stroke-linecap="round"/>
<path d="M8.99414 12.9723C9.11873 12.8972 9.2487 12.8369 9.37247 12.7625" stroke="black" stroke-width="0.805883" stroke-linecap="round"/>
<path d="M51.1152 13.0128C51.2544 12.9362 51.3856 12.8456 51.5311 12.7822" stroke="black" stroke-width="0.79773" stroke-linecap="round"/>
<path d="M37.2676 13.0878C37.408 13.0216 37.5398 12.9366 37.674 12.8589" stroke="black" stroke-width="0.83759" stroke-linecap="round"/>
<path d="M46.8672 13.0872C46.9874 13.0309 47.0974 12.9548 47.213 12.8894" stroke="black" stroke-width="0.817116" stroke-linecap="round"/>
<path d="M31.5254 13.1554C31.6521 13.0978 31.7749 13.0319 31.8928 12.9592" stroke="black" stroke-width="0.899915" stroke-linecap="round"/>
<path d="M56.2402 13.1978C56.3749 13.1154 56.5304 13.0618 56.6566 12.9688" stroke="black" stroke-width="0.933252" stroke-linecap="round"/>
<path d="M26.8496 13.1883C26.9783 13.1204 27.1149 13.064 27.2317 12.9797" stroke="black" stroke-width="0.790302" stroke-linecap="round"/>
<path d="M65.1582 13.1956C65.2831 13.1209 65.4226 13.0664 65.5462 12.9873" stroke="black" stroke-width="0.73776" stroke-linecap="round"/>
<path d="M8.98828 13.2157C9.11662 13.1528 9.24872 13.0946 9.37167 13.0203" stroke="black" stroke-width="0.758777" stroke-linecap="round"/>
<path d="M51.1348 13.2379C51.2705 13.171 51.4044 13.0996 51.5397 13.0332" stroke="black" stroke-width="0.746819" stroke-linecap="round"/>
<path d="M37.293 13.3142C37.4218 13.2369 37.5614 13.1714 37.695 13.1003" stroke="black" stroke-width="0.952276" stroke-linecap="round"/>
<path d="M46.8691 13.3234C46.9833 13.2667 47.0964 13.197 47.216 13.1445" stroke="black" stroke-width="0.755153" stroke-linecap="round"/>
<path d="M56.2617 13.4265C56.4062 13.3542 56.5414 13.2642 56.6887 13.1958" stroke="black" stroke-width="0.854077" stroke-linecap="round"/>
<path d="M31.5254 13.4079C31.6495 13.3345 31.7772 13.2647 31.9047 13.1965" stroke="black" stroke-width="0.89611" stroke-linecap="round"/>
<path d="M65.1562 13.4555C65.2977 13.3781 65.4346 13.2917 65.5798 13.22" stroke="black" stroke-width="0.963509" stroke-linecap="round"/>
<path d="M26.8477 13.4377C26.9794 13.3722 27.1025 13.2918 27.234 13.2263" stroke="black" stroke-width="0.818928" stroke-linecap="round"/>
<path d="M9.00391 13.4757C9.13323 13.3995 9.26451 13.3266 9.39726 13.2561" stroke="black" stroke-width="1.00138" stroke-linecap="round"/>
<path d="M51.5428 13.2651C51.4036 13.3423 51.2671 13.4248 51.127 13.5002" stroke="black" stroke-width="0.802803" stroke-linecap="round"/>
<path d="M37.3359 13.5505C37.4773 13.4735 37.6238 13.3935 37.7636 13.3103" stroke="black" stroke-width="0.823639" stroke-linecap="round"/>
<path d="M46.8789 13.5768C46.9922 13.5117 47.1075 13.4548 47.2195 13.3875" stroke="black" stroke-width="0.790483" stroke-linecap="round"/>
<path d="M56.3418 13.6419C56.4899 13.5651 56.6342 13.4899 56.7802 13.4077" stroke="black" stroke-width="0.827806" stroke-linecap="round"/>
<path d="M65.207 13.6663C65.3579 13.5998 65.4996 13.5147 65.6466 13.4397" stroke="black" stroke-width="0.894299" stroke-linecap="round"/>
<path d="M31.5195 13.6601C31.6529 13.5913 31.7883 13.5261 31.917 13.4482" stroke="black" stroke-width="0.752254" stroke-linecap="round"/>
<path d="M9.05859 13.6837C9.19739 13.6239 9.32916 13.5441 9.46468 13.4775" stroke="black" stroke-width="0.955175" stroke-linecap="round"/>
<path d="M26.8496 13.6822C26.9796 13.6206 27.1042 13.5506 27.2317 13.4846" stroke="black" stroke-width="0.754972" stroke-linecap="round"/>
<path d="M37.4492 13.7277C37.5923 13.656 37.7356 13.5839 37.8764 13.5098" stroke="black" stroke-width="0.730694" stroke-linecap="round"/>
<path d="M51.1309 13.7334C51.269 13.663 51.4106 13.5978 51.5454 13.52" stroke="black" stroke-width="0.755153" stroke-linecap="round"/>
<path d="M56.4805 13.7919C56.6193 13.7253 56.7548 13.6474 56.8968 13.5867" stroke="black" stroke-width="0.918577" stroke-linecap="round"/>
<path d="M65.3418 13.8326C65.4721 13.7606 65.604 13.6922 65.7386 13.6274" stroke="black" stroke-width="0.875094" stroke-linecap="round"/>
<path d="M9.18359 13.8599C9.30834 13.781 9.44452 13.7193 9.57482 13.6494" stroke="black" stroke-width="0.900459" stroke-linecap="round"/>
<path d="M46.8672 13.8142C46.9849 13.7511 47.1064 13.6921 47.2231 13.6311" stroke="black" stroke-width="0.729969" stroke-linecap="round"/>
<path d="M31.5371 13.8954C31.6694 13.8152 31.8041 13.739 31.9434 13.6729" stroke="black" stroke-width="0.786497" stroke-linecap="round"/>
<path d="M37.6309 13.8727C37.7652 13.7979 37.9017 13.7268 38.0392 13.657" stroke="black" stroke-width="0.935245" stroke-linecap="round"/>
<path d="M27.2204 13.7261C27.0936 13.7893 26.9757 13.8668 26.8496 13.9347" stroke="black" stroke-width="0.807333" stroke-linecap="round"/>
<path d="M56.6895 13.9458C56.8193 13.8696 56.9509 13.7973 57.0812 13.7231" stroke="black" stroke-width="0.901002" stroke-linecap="round"/>
<path d="M51.1484 13.9896C51.2887 13.9151 51.4226 13.8309 51.5625 13.7556" stroke="black" stroke-width="0.860056" stroke-linecap="round"/>
<path d="M65.5137 14.0007C65.6559 13.9279 65.789 13.8381 65.9317 13.7661" stroke="black" stroke-width="0.94521" stroke-linecap="round"/>
<path d="M9.76632 13.792C9.6254 13.8623 9.49543 13.9633 9.34766 14.0172" stroke="black" stroke-width="0.955718" stroke-linecap="round"/>
<path d="M37.8281 14.0171C37.9645 13.9533 38.09 13.8692 38.2223 13.7991" stroke="black" stroke-width="0.977641" stroke-linecap="round"/>
<path d="M56.8809 14.0775C57.0254 14.0245 57.1532 13.9317 57.291 13.8633" stroke="black" stroke-width="0.922019" stroke-linecap="round"/>
<path d="M46.8652 14.0743C46.987 14.0177 47.1051 13.9535 47.2191 13.8835" stroke="black" stroke-width="0.866216" stroke-linecap="round"/>
<path d="M31.5918 14.1086C31.7268 14.0413 31.8588 13.9733 31.9897 13.896" stroke="black" stroke-width="0.720005" stroke-linecap="round"/>
<path d="M65.7246 14.1253C65.8577 14.0575 65.9917 13.9904 66.1201 13.9146" stroke="black" stroke-width="0.883971" stroke-linecap="round"/>
<path d="M9.5625 14.1394C9.69574 14.0914 9.82033 14.0131 9.94736 13.9473" stroke="black" stroke-width="0.895386" stroke-linecap="round"/>
<path d="M38.0664 14.1324C38.199 14.0795 38.3198 14.0021 38.447 13.9414" stroke="black" stroke-width="0.908974" stroke-linecap="round"/>
<path d="M51.1953 14.1983C51.3387 14.1207 51.4847 14.0483 51.63 13.9751" stroke="black" stroke-width="0.860418" stroke-linecap="round"/>
<path d="M26.8535 14.1799C26.9802 14.1116 27.112 14.05 27.2364 13.9788" stroke="black" stroke-width="0.847736" stroke-linecap="round"/>
<path d="M57.1641 14.2037C57.2885 14.1421 57.4105 14.073 57.5362 14.0171" stroke="black" stroke-width="0.824001" stroke-linecap="round"/>
<path d="M38.2812 14.2641C38.4116 14.2066 38.5343 14.1281 38.664 14.0679" stroke="black" stroke-width="0.966045" stroke-linecap="round"/>
<path d="M65.9824 14.268C66.1083 14.2021 66.2304 14.1263 66.3609 14.0698" stroke="black" stroke-width="0.824545" stroke-linecap="round"/>
<path d="M9.79688 14.2824C9.91297 14.216 10.0314 14.1523 10.1491 14.0884" stroke="black" stroke-width="0.921113" stroke-linecap="round"/>
<path d="M31.6543 14.33C31.7985 14.2556 31.932 14.1636 32.0814 14.0996" stroke="black" stroke-width="0.66402" stroke-linecap="round"/>
<path d="M46.8711 14.3227C46.9891 14.2548 47.11 14.1899 47.2271 14.1213" stroke="black" stroke-width="0.887051" stroke-linecap="round"/>
<path d="M57.3867 14.3391C57.5077 14.2737 57.6248 14.2006 57.7479 14.1392" stroke="black" stroke-width="0.929628" stroke-linecap="round"/>
<path d="M3.92188 14.2618C3.99584 14.2354 4.06132 14.1817 4.13545 14.1543" stroke="black" stroke-width="0.757871" stroke-linecap="round"/>
<path d="M38.5059 14.3958C38.638 14.3361 38.7642 14.262 38.8884 14.1887" stroke="black" stroke-width="0.947203" stroke-linecap="round"/>
<path d="M4.23047 14.3464C4.33285 14.3082 4.41808 14.2179 4.52503 14.2029" stroke="black" stroke-width="0.859693" stroke-linecap="round"/>
<path d="M9.99023 14.4178C10.1233 14.3579 10.2448 14.2792 10.3723 14.2092" stroke="black" stroke-width="0.896473" stroke-linecap="round"/>
<path d="M51.3301 14.4209C51.4571 14.3508 51.5858 14.2839 51.7107 14.2092" stroke="black" stroke-width="0.841938" stroke-linecap="round"/>
<path d="M66.1953 14.4013C66.3186 14.3425 66.4335 14.2684 66.554 14.2056" stroke="black" stroke-width="0.857338" stroke-linecap="round"/>
<path d="M26.8496 14.4287C26.9814 14.3689 27.1069 14.2935 27.2317 14.22" stroke="black" stroke-width="0.887051" stroke-linecap="round"/>
<path d="M21.0391 14.3301C21.1125 14.2951 21.1832 14.2531 21.2554 14.2148" stroke="black" stroke-width="0.896654" stroke-linecap="round"/>
<path d="M21.3145 14.4212C21.4273 14.378 21.522 14.2906 21.6404 14.2642" stroke="black" stroke-width="0.828349" stroke-linecap="round"/>
<path d="M57.6016 14.4655C57.7244 14.4071 57.8409 14.3368 57.9611 14.2751" stroke="black" stroke-width="0.896473" stroke-linecap="round"/>
<path d="M4.50586 14.4484C4.61297 14.3934 4.72025 14.3381 4.82606 14.2805" stroke="black" stroke-width="0.797368" stroke-linecap="round"/>
<path d="M31.7734 14.5166C31.9046 14.443 32.0404 14.3791 32.1696 14.3022" stroke="black" stroke-width="0.889226" stroke-linecap="round"/>
<path d="M39.1096 14.3262C38.9828 14.3914 38.8551 14.4697 38.7266 14.5222" stroke="black" stroke-width="0.891219" stroke-linecap="round"/>
<path d="M66.4121 14.522C66.5262 14.4658 66.6396 14.4057 66.7513 14.3447" stroke="black" stroke-width="0.910242" stroke-linecap="round"/>
<path d="M10.2012 14.5441C10.3277 14.4869 10.4507 14.4165 10.5749 14.3521" stroke="black" stroke-width="0.859693" stroke-linecap="round"/>
<path d="M21.5566 14.5277C21.6767 14.477 21.7849 14.4033 21.9051 14.3521" stroke="black" stroke-width="0.828893" stroke-linecap="round"/>
<path d="M46.8652 14.5665C46.9836 14.4988 47.1151 14.4471 47.2269 14.374" stroke="black" stroke-width="0.851178" stroke-linecap="round"/>
<path d="M4.73633 14.566C4.85765 14.5131 4.96999 14.4413 5.09033 14.3848" stroke="black" stroke-width="0.893936" stroke-linecap="round"/>
<path d="M51.4414 14.6028C51.5634 14.5251 51.6979 14.4682 51.824 14.3958" stroke="black" stroke-width="0.879985" stroke-linecap="round"/>
<path d="M57.8125 14.6086C57.9394 14.5466 58.0582 14.4683 58.1882 14.4124" stroke="black" stroke-width="0.872014" stroke-linecap="round"/>
<path d="M38.9434 14.6481C39.0822 14.6068 39.2015 14.5102 39.3367 14.4524" stroke="black" stroke-width="0.969307" stroke-linecap="round"/>
<path d="M21.7559 14.6835C21.8852 14.6081 22.0196 14.5401 22.1515 14.4673" stroke="black" stroke-width="0.92836" stroke-linecap="round"/>
<path d="M26.8477 14.6781C26.9762 14.6085 27.1048 14.5433 27.2296 14.4692" stroke="black" stroke-width="0.874188" stroke-linecap="round"/>
<path d="M31.9082 14.683C32.0447 14.6121 32.1771 14.536 32.314 14.4673" stroke="black" stroke-width="0.758596" stroke-linecap="round"/>
<path d="M66.9906 14.4673C66.862 14.5298 66.7444 14.6167 66.6113 14.6647" stroke="black" stroke-width="0.908249" stroke-linecap="round"/>
<path d="M10.4043 14.6868C10.5392 14.6363 10.6654 14.5434 10.8004 14.4836" stroke="black" stroke-width="0.902995" stroke-linecap="round"/>
<path d="M4.94531 14.7048C5.08361 14.6388 5.21065 14.5507 5.35418 14.4958" stroke="black" stroke-width="0.920932" stroke-linecap="round"/>
<path d="M58.0273 14.7361C58.1557 14.6814 58.271 14.5914 58.4003 14.5425" stroke="black" stroke-width="0.888501" stroke-linecap="round"/>
<path d="M51.9592 14.5605C51.8393 14.6268 51.7174 14.6917 51.5957 14.7544" stroke="black" stroke-width="0.93597" stroke-linecap="round"/>
<path d="M39.1797 14.7855C39.3054 14.7145 39.4326 14.6469 39.561 14.5808" stroke="black" stroke-width="0.913322" stroke-linecap="round"/>
<path d="M67.1999 14.6045C67.0721 14.6595 66.9529 14.7474 66.8262 14.7965" stroke="black" stroke-width="0.884877" stroke-linecap="round"/>
<path d="M10.6309 14.8185C10.7584 14.7518 10.8826 14.6759 11.0121 14.6138" stroke="black" stroke-width="0.932346" stroke-linecap="round"/>
<path d="M21.959 14.83C22.0927 14.7632 22.2225 14.6853 22.3549 14.6155" stroke="black" stroke-width="0.793563" stroke-linecap="round"/>
<path d="M32.1094 14.824C32.2397 14.7531 32.3697 14.6795 32.5022 14.614" stroke="black" stroke-width="0.851722" stroke-linecap="round"/>
<path d="M46.8809 14.8164C46.9909 14.7499 47.1104 14.6962 47.2187 14.6287" stroke="black" stroke-width="0.757327" stroke-linecap="round"/>
<path d="M5.15625 14.8415C5.27969 14.7723 5.40461 14.7051 5.53017 14.6404" stroke="black" stroke-width="0.88216" stroke-linecap="round"/>
<path d="M58.2383 14.8733C58.3609 14.8095 58.4834 14.7411 58.6008 14.6702" stroke="black" stroke-width="0.925099" stroke-linecap="round"/>
<path d="M39.4238 14.9062C39.5424 14.8401 39.6575 14.767 39.7808 14.7087" stroke="black" stroke-width="0.842663" stroke-linecap="round"/>
<path d="M51.8008 14.9008C51.9164 14.8353 52.0325 14.7679 52.1499 14.7046" stroke="black" stroke-width="0.927092" stroke-linecap="round"/>
<path d="M26.8594 14.9314C26.9866 14.8629 27.1094 14.7856 27.2387 14.7217" stroke="black" stroke-width="0.778344" stroke-linecap="round"/>
<path d="M67.041 14.9355C67.1671 14.8761 67.2889 14.7976 67.4118 14.7361" stroke="black" stroke-width="0.955718" stroke-linecap="round"/>
<path d="M11.2375 14.7471C11.1011 14.7966 10.9743 14.9122 10.8301 14.9502" stroke="black" stroke-width="1.0175" stroke-linecap="round"/>
<path d="M32.3281 14.9631C32.4594 14.897 32.5873 14.825 32.714 14.751" stroke="black" stroke-width="0.765118" stroke-linecap="round"/>
<path d="M22.0938 15.0051C22.2294 14.935 22.3655 14.8633 22.4984 14.7883" stroke="black" stroke-width="0.819653" stroke-linecap="round"/>
<path d="M5.31445 15.0106C5.44753 14.9415 5.57767 14.87 5.71009 14.7998" stroke="black" stroke-width="0.880529" stroke-linecap="round"/>
<path d="M58.4082 14.9946C58.548 14.9426 58.6677 14.846 58.8063 14.7952" stroke="black" stroke-width="0.915859" stroke-linecap="round"/>
<path d="M39.6074 15.0325C39.7431 14.9805 39.871 14.9062 39.9952 14.834" stroke="black" stroke-width="0.901365" stroke-linecap="round"/>
<path d="M52.0117 15.0271C52.1366 14.9787 52.255 14.9032 52.3742 14.8459" stroke="black" stroke-width="0.88995" stroke-linecap="round"/>
<path d="M47.2287 14.8804C47.1129 14.9442 46.995 15.0052 46.875 15.0582" stroke="black" stroke-width="0.713482" stroke-linecap="round"/>
<path d="M67.2695 15.0572C67.3912 15.0012 67.5094 14.9382 67.6265 14.8745" stroke="black" stroke-width="0.810594" stroke-linecap="round"/>
<path d="M11.0566 15.0819C11.1887 15.0223 11.3182 14.9447 11.45 14.887" stroke="black" stroke-width="0.814218" stroke-linecap="round"/>
<path d="M32.5449 15.082C32.6679 15.0194 32.7908 14.9584 32.9131 14.8931" stroke="black" stroke-width="0.804072" stroke-linecap="round"/>
<path d="M58.6094 15.1243C58.7439 15.065 58.8728 14.991 59.0048 14.9246" stroke="black" stroke-width="0.862773" stroke-linecap="round"/>
<path d="M5.44922 15.1958C5.58752 15.115 5.73333 15.0459 5.87147 14.9668" stroke="black" stroke-width="0.867665" stroke-linecap="round"/>
<path d="M22.2188 15.1958C22.3507 15.1112 22.4965 15.0482 22.6314 14.9705" stroke="black" stroke-width="0.794107" stroke-linecap="round"/>
<path d="M26.8516 15.1786C26.9695 15.1014 27.097 15.0429 27.2224 14.9792" stroke="black" stroke-width="0.737035" stroke-linecap="round"/>
<path d="M39.8477 15.1588C39.977 15.094 40.1074 15.0139 40.2404 14.9656" stroke="black" stroke-width="0.874731" stroke-linecap="round"/>
<path d="M52.25 15.1534C52.3648 15.0903 52.4812 15.0318 52.5984 14.9722" stroke="black" stroke-width="0.868752" stroke-linecap="round"/>
<path d="M67.4688 15.1973C67.5899 15.1308 67.7078 15.0602 67.834 15.0029" stroke="black" stroke-width="0.899734" stroke-linecap="round"/>
<path d="M11.2715 15.2192C11.3918 15.1467 11.5169 15.081 11.6423 15.0171" stroke="black" stroke-width="0.860056" stroke-linecap="round"/>
<path d="M32.7402 15.2442C32.8712 15.1708 32.9961 15.085 33.1349 15.0271" stroke="black" stroke-width="0.820921" stroke-linecap="round"/>
<path d="M58.8477 15.2631C58.9737 15.1897 59.0993 15.1152 59.2288 15.0474" stroke="black" stroke-width="0.915496" stroke-linecap="round"/>
<path d="M40.0781 15.296C40.2052 15.2324 40.3224 15.1524 40.4489 15.0874" stroke="black" stroke-width="0.94068" stroke-linecap="round"/>
<path d="M52.4805 15.2853C52.5997 15.2253 52.7084 15.1457 52.8289 15.0876" stroke="black" stroke-width="0.82382" stroke-linecap="round"/>
<path d="M46.873 15.3189C46.9936 15.2577 47.111 15.1862 47.2249 15.1187" stroke="black" stroke-width="0.771459" stroke-linecap="round"/>
<path d="M68.0528 15.1333C67.9268 15.2069 67.8024 15.2896 67.668 15.3455" stroke="black" stroke-width="0.895567" stroke-linecap="round"/>
<path d="M5.57031 15.3784C5.71057 15.31 5.84153 15.2208 5.97314 15.1379" stroke="black" stroke-width="0.702793" stroke-linecap="round"/>
<path d="M11.4746 15.3655C11.6098 15.2983 11.7386 15.2229 11.868 15.1467" stroke="black" stroke-width="0.906256" stroke-linecap="round"/>
<path d="M22.3066 15.3807C22.4469 15.3091 22.5813 15.2277 22.7129 15.1423" stroke="black" stroke-width="0.38265" stroke-linecap="round"/>
<path d="M59.1074 15.3949C59.2279 15.3335 59.3499 15.2735 59.4614 15.1973" stroke="black" stroke-width="0.614558" stroke-linecap="round"/>
<path d="M26.9082 15.3895C27.0256 15.3384 27.1316 15.2761 27.2426 15.2139" stroke="black" stroke-width="0.647352" stroke-linecap="round"/>
<path d="M40.2695 15.4059C40.3998 15.3557 40.5145 15.2791 40.6348 15.2139" stroke="black" stroke-width="0.326303" stroke-linecap="round"/>
<path d="M50.1758 7.03689C50.3188 6.98083 50.4405 6.88822 50.5745 6.81714" stroke="black" stroke-width="0.916402" stroke-linecap="round"/>
</g>
<defs>
<clipPath id="clip0_1174_11550">
<rect width="73" height="16" fill="white"/>
</clipPath>
</defs>
</svg>
