<svg width="30" height="30" viewBox="0 0 30 30" fill="none" xmlns="http://www.w3.org/2000/svg">
<g clip-path="url(#clip0_1174_8889)">
<path d="M15.001 0H14.999C6.71528 0 0 6.71528 0 14.999V15.001C0 23.2847 6.71528 30 14.999 30H15.001C23.2847 30 30 23.2847 30 15.001V14.999C30 6.71528 23.2847 0 15.001 0Z" fill="#14386C"/>
<path fill-rule="evenodd" clip-rule="evenodd" d="M8.07463 11.5186L11.5474 11.5345L11.5256 16.2085C11.5196 17.4574 10.4931 18.4741 9.24414 18.4701L8.04286 18.4641C6.12679 18.4542 4.57606 16.8916 4.58598 14.9755C4.59591 13.0594 6.15856 11.5087 8.07463 11.5186Z" fill="#6797E8"/>
<path fill-rule="evenodd" clip-rule="evenodd" d="M17.7185 11.5266C18.2526 10.9925 18.4631 10.2836 18.4631 9.51321V8.05382C18.4631 6.13774 16.9084 4.58105 14.9904 4.58105C13.0743 4.58105 11.5176 6.13576 11.5176 8.05382V16.1986C11.5176 17.4476 10.495 18.4701 9.24609 18.4701H9.50422C10.3501 18.4701 11.0827 18.1663 11.6824 17.5667L17.7126 11.5266H17.7165H17.7185Z" fill="white"/>
<path fill-rule="evenodd" clip-rule="evenodd" d="M21.9376 18.4719H18.4648V13.5973C18.4648 12.4596 19.3981 11.5264 20.5358 11.5264H21.9376C23.8537 11.5264 25.4104 13.0811 25.4104 14.9991C25.4104 16.9152 23.8557 18.4719 21.9376 18.4719Z" fill="white"/>
<path fill-rule="evenodd" clip-rule="evenodd" d="M12.2661 18.4719C11.732 19.006 11.5215 19.7109 11.5215 20.4813V21.9446C11.5215 23.8607 13.0762 25.4174 14.9942 25.4174C16.9103 25.4174 18.467 23.8627 18.467 21.9446V13.7998C18.467 12.5509 19.4896 11.5283 20.7385 11.5283H20.4804C19.6306 11.5283 18.8999 11.8321 18.2982 12.4318L12.2681 18.4719H12.2661Z" fill="#6797E8"/>
<path d="M14.9603 23.5748C15.5974 23.5748 16.1139 23.0583 16.1139 22.4212C16.1139 21.7841 15.5974 21.2676 14.9603 21.2676C14.3231 21.2676 13.8066 21.7841 13.8066 22.4212C13.8066 23.0583 14.3231 23.5748 14.9603 23.5748Z" fill="#14386C"/>
<path d="M22.3939 16.1529C23.031 16.1529 23.5475 15.6364 23.5475 14.9993C23.5475 14.3622 23.031 13.8457 22.3939 13.8457C21.7567 13.8457 21.2402 14.3622 21.2402 14.9993C21.2402 15.6364 21.7567 16.1529 22.3939 16.1529Z" fill="#14386C"/>
</g>
<defs>
<clipPath id="clip0_1174_8889">
<rect width="30" height="30" fill="white"/>
</clipPath>
</defs>
</svg>
