<svg width="204" height="137" viewBox="0 0 204 137" fill="none" xmlns="http://www.w3.org/2000/svg">
<path d="M120.603 44.3721L121.132 42.0381L116.684 42.6578C116.049 42.7457 115.685 43.2505 115.712 43.6688C115.735 44.0375 116.031 44.2814 116.464 44.2899L120.603 44.3735V44.3721ZM120.565 42.5471L120.25 43.9396L116.475 43.863C116.335 43.8602 116.165 43.8191 116.154 43.6418C116.14 43.4419 116.341 43.1356 116.748 43.0789L120.566 42.5471H120.565Z" fill="white"/>
<path d="M130.932 44.3735C132.707 44.3735 134.541 43.9088 136.25 43.0233L164.502 28.4008L164.297 28.0254L136.045 42.6479C134.334 43.5333 132.499 43.9825 130.734 43.9456L127.336 43.8762L127.327 44.3012L130.725 44.3707C130.794 44.3707 130.862 44.3735 130.931 44.3735H130.932Z" fill="white"/>
<path d="M128.166 41.258L129.309 41.0914C130.819 40.8721 132.343 40.3165 133.714 39.4862L196.633 1.39375C198.066 0.526813 199.74 0.225654 201.113 0.588216C202.046 0.833822 202.759 1.3572 203.179 2.0984C203.599 2.84253 203.678 3.7314 203.408 4.6685C203.01 6.0515 201.888 7.35117 200.404 8.145L178.82 19.7163L179.024 20.1037L200.609 8.53242C202.192 7.68303 203.395 6.28395 203.825 4.78984C204.129 3.73578 204.036 2.72996 203.556 1.88057C203.079 1.03411 202.272 0.44056 201.224 0.164253C199.74 -0.227548 197.938 0.0911551 196.408 1.01803L133.489 39.1104C132.166 39.9116 130.7 40.4467 129.245 40.6586L128.102 40.8253L128.165 41.2595L128.166 41.258Z" fill="white"/>
<path opacity="0.27" d="M22.7746 79.0985C22.7746 69.813 28.7853 60.5275 40.8083 53.4431C64.8526 39.2742 103.837 39.2742 127.881 53.4431C139.903 60.5275 145.915 69.813 145.915 79.0985C145.915 79.5282 145.915 79.5282 145.915 79.0985V85.9394C145.915 95.2249 139.904 104.51 127.881 111.595C103.837 125.764 64.8526 125.764 40.8083 111.595C28.7868 104.51 22.7746 95.2249 22.7746 85.9394V79.0985C22.7746 79.8718 22.7746 79.8718 22.7746 79.0985Z" fill="white"/>
<path opacity="0.27" d="M84.3448 115.215C50.3405 115.215 22.7746 99.0081 22.7746 79.0158C22.7746 59.0234 50.3405 42.8164 84.3448 42.8164C118.349 42.8164 145.915 59.0234 145.915 79.0158C145.915 99.0081 118.349 115.215 84.3448 115.215Z" fill="white"/>
<path d="M53.6067 66.6216C53.4841 66.501 53.5511 66.2292 53.7563 66.0145C53.9615 65.7998 54.2273 65.7235 54.3498 65.8441C54.4724 65.9647 54.4054 66.2365 54.2002 66.4512C53.995 66.6659 53.7293 66.7422 53.6067 66.6216Z" fill="white"/>
<path opacity="0.57" d="M52.0674 67.9079C51.4898 67.3396 51.8056 66.0586 52.7728 65.0467C53.74 64.0348 54.9923 63.6752 55.5699 64.2435C56.1475 64.8118 55.8317 66.0928 54.8645 67.1047C53.8973 68.1166 52.645 68.4762 52.0674 67.9079Z" fill="white"/>
<path d="M53.3195 68.1013C54.4118 67.7877 55.5201 66.6277 55.7957 65.5106C55.9328 64.9513 55.8365 64.5104 55.5696 64.2471L68.8343 77.2983C69.1012 77.5616 69.1988 78.004 69.0603 78.5618C68.7847 79.6789 67.6764 80.8388 66.5841 81.1525C66.0387 81.3093 65.5998 81.225 65.3315 80.9616L52.0668 67.9105C52.3337 68.1738 52.7727 68.2582 53.3195 68.1013Z" fill="url(#paint0_linear_3190_29022)"/>
<path opacity="0.59" d="M59.5874 71.109C58.902 70.4861 58.221 69.8603 57.5502 69.2255C56.334 68.0848 55.1484 66.9086 54.0021 65.6953L53.327 66.4188C55.0769 68.4532 56.9173 70.4121 58.7912 72.3193C59.7507 73.2958 60.5324 74.4291 61.1799 75.6424C61.3724 76.0019 61.6407 76.36 61.9776 76.684C63.0756 77.7389 64.4829 78.0378 65.1216 77.3528C65.7604 76.6677 65.3885 75.2592 64.2919 74.2043C63.9258 73.8521 63.5248 73.5843 63.1296 73.4097C61.8361 72.8371 60.6403 72.0619 59.5903 71.1075L59.5874 71.109Z" fill="black"/>
<path d="M42.7764 49.3208C45.0863 55.6666 48.8604 61.2061 53.209 66.281C53.2207 66.4393 53.3475 66.5207 53.5357 66.4645C53.7661 66.3949 53.9994 66.1464 54.0548 65.9081C54.0956 65.735 54.03 65.6167 53.9046 65.5915C51.287 62.8144 48.8706 59.8449 46.7502 56.655C45.219 54.3395 43.8395 51.9056 42.7764 49.3193V49.3208Z" fill="black"/>
<path d="M65.3321 80.9587C64.7545 80.3904 65.0703 79.1094 66.0375 78.0975C67.0046 77.0856 68.2569 76.726 68.8345 77.2943C69.4121 77.8626 69.0963 79.1436 68.1291 80.1555C67.162 81.1674 65.9097 81.527 65.3321 80.9587Z" fill="white"/>
<path d="M45.9529 70.7574C45.8303 70.6368 45.8973 70.365 46.1025 70.1503C46.3077 69.9356 46.5735 69.8593 46.696 69.9799C46.8186 70.1005 46.7516 70.3723 46.5464 70.587C46.3412 70.8017 46.0755 70.878 45.9529 70.7574Z" fill="white"/>
<path opacity="0.57" d="M44.4151 72.0446C43.8375 71.4763 44.1533 70.1953 45.1205 69.1834C46.0877 68.1715 47.3399 67.8119 47.9175 68.3802C48.4951 68.9485 48.1793 70.2295 47.2121 71.2414C46.245 72.2533 44.9927 72.6129 44.4151 72.0446Z" fill="white"/>
<path d="M45.6667 72.2371C46.7589 71.9234 47.8672 70.7634 48.1429 69.6464C48.2799 69.0871 48.1837 68.6462 47.9168 68.3828L61.1815 81.434C61.4483 81.6973 61.546 82.1397 61.4075 82.6975C61.1319 83.8146 60.0236 84.9746 58.9313 85.2882C58.3859 85.4451 57.947 85.3607 57.6786 85.0974L44.414 72.0462C44.6809 72.3096 45.1198 72.3939 45.6667 72.2371Z" fill="url(#paint1_linear_3190_29022)"/>
<path opacity="0.59" d="M51.9346 75.2448C51.2492 74.6219 50.5682 73.996 49.8973 73.3613C48.6811 72.2205 47.4955 71.0443 46.3493 69.8311L45.6741 70.5546C47.4241 72.589 49.2644 74.5479 51.1383 76.455C52.0979 77.4315 52.8795 78.5649 53.527 79.7781C53.7195 80.1377 53.9879 80.4957 54.3247 80.8197C55.4228 81.8747 56.8301 82.1735 57.4688 81.4885C58.1075 80.8035 57.7357 79.3949 56.639 78.34C56.273 77.9879 55.872 77.7201 55.4768 77.5455C54.1833 76.9729 52.9875 76.1976 51.9375 75.2433L51.9346 75.2448Z" fill="black"/>
<path d="M35.125 53.4585C37.4349 59.8043 41.209 65.3438 45.5576 70.4187C45.5693 70.577 45.6962 70.6584 45.8843 70.6022C46.1147 70.5326 46.348 70.284 46.4034 70.0458C46.4443 69.8727 46.3786 69.7544 46.2532 69.7292C43.6356 66.9521 41.2192 63.9826 39.0988 60.7927C37.5676 58.4772 36.1881 56.0433 35.125 53.457V53.4585Z" fill="black"/>
<path d="M57.6807 85.0964C57.1031 84.5281 57.4189 83.2471 58.3861 82.2352C59.3533 81.2233 60.6056 80.8637 61.1832 81.432C61.7608 82.0002 61.4449 83.2812 60.4778 84.2931C59.5106 85.305 58.2583 85.6647 57.6807 85.0964Z" fill="white"/>
<path d="M61.2581 62.4849C61.1355 62.3643 61.2025 62.0925 61.4077 61.8778C61.6129 61.6631 61.8786 61.5868 62.0012 61.7074C62.1238 61.828 62.0568 62.0998 61.8516 62.3145C61.6464 62.5292 61.3806 62.6055 61.2581 62.4849Z" fill="white"/>
<path opacity="0.57" d="M59.7193 63.7702C59.1417 63.2019 59.4575 61.9209 60.4247 60.909C61.3919 59.8971 62.6441 59.5375 63.2217 60.1058C63.7993 60.6741 63.4835 61.9551 62.5163 62.967C61.5492 63.9789 60.2969 64.3385 59.7193 63.7702Z" fill="white"/>
<path d="M60.9709 63.9627C62.0631 63.649 63.1714 62.489 63.447 61.3719C63.5841 60.8127 63.4879 60.3718 63.221 60.1084L76.4856 73.1596C76.7525 73.4229 76.8502 73.8653 76.7117 74.4231C76.4361 75.5402 75.3277 76.7002 74.2355 77.0138C73.6901 77.1707 73.2511 77.0863 72.9828 76.823L59.7182 63.7718C59.9851 64.0351 60.424 64.1195 60.9709 63.9627Z" fill="url(#paint2_linear_3190_29022)"/>
<path opacity="0.59" d="M67.2402 66.9703C66.5548 66.3474 65.8738 65.7216 65.203 65.0869C63.9868 63.9461 62.8012 62.7699 61.655 61.5566L60.9798 62.2801C62.7297 64.3145 64.5701 66.2735 66.444 68.1806C67.4036 69.1571 68.1852 70.2905 68.8327 71.5037C69.0252 71.8632 69.2935 72.2213 69.6304 72.5453C70.7285 73.6002 72.1357 73.8991 72.7745 73.2141C73.4132 72.529 73.0413 71.1205 71.9447 70.0656C71.5786 69.7134 71.1776 69.4456 70.7824 69.2711C69.4889 68.6985 68.2931 67.9232 67.2431 66.9689L67.2402 66.9703Z" fill="black"/>
<path d="M50.4292 45.1841C52.7391 51.5299 56.5132 57.0694 60.8618 62.1443C60.8735 62.3026 61.0003 62.384 61.1885 62.3277C61.4189 62.2582 61.6522 62.0096 61.7076 61.7714C61.7485 61.5983 61.6828 61.4799 61.5574 61.4548C58.9398 58.6777 56.5234 55.7082 54.403 52.5183C52.8718 50.2028 51.4923 47.7689 50.4292 45.1826V45.1841Z" fill="black"/>
<path d="M72.9849 76.822C72.4073 76.2537 72.7231 74.9727 73.6903 73.9608C74.6575 72.9489 75.9098 72.5892 76.4874 73.1575C77.065 73.7258 76.7491 75.0068 75.782 76.0187C74.8148 77.0306 73.5625 77.3903 72.9849 76.822Z" fill="white"/>
<path d="M108.083 69.9458C107.96 69.8252 108.027 69.5534 108.232 69.3387C108.438 69.124 108.703 69.0478 108.826 69.1683C108.948 69.2889 108.881 69.5608 108.676 69.7755C108.471 69.9902 108.205 70.0664 108.083 69.9458Z" fill="white"/>
<path opacity="0.57" d="M106.543 71.2321C105.966 70.6638 106.282 69.3828 107.249 68.3709C108.216 67.359 109.468 66.9994 110.046 67.5677C110.624 68.136 110.308 69.417 109.341 70.4289C108.373 71.4408 107.121 71.8004 106.543 71.2321Z" fill="white"/>
<path d="M107.796 71.4246C108.888 71.1109 109.996 69.9509 110.272 68.8339C110.409 68.2746 110.313 67.8337 110.046 67.5703L123.31 80.6215C123.577 80.8849 123.675 81.3272 123.536 81.885C123.261 83.0021 122.152 84.1621 121.06 84.4757C120.515 84.6326 120.076 84.5482 119.808 84.2849L106.543 71.2337C106.81 71.4971 107.249 71.5814 107.796 71.4246Z" fill="url(#paint3_linear_3190_29022)"/>
<path opacity="0.59" d="M114.063 74.4332C113.378 73.8103 112.697 73.1845 112.026 72.5498C110.81 71.409 109.624 70.2328 108.478 69.0195L107.803 69.743C109.553 71.7774 111.393 73.7364 113.267 75.6435C114.227 76.62 115.008 77.7534 115.656 78.9666C115.848 79.3261 116.117 79.6842 116.454 80.0082C117.552 81.0631 118.959 81.362 119.598 80.677C120.236 79.9919 119.865 78.5834 118.768 77.5285C118.402 77.1763 118.001 76.9085 117.606 76.7339C116.312 76.1614 115.116 75.3861 114.066 74.4317L114.063 74.4332Z" fill="black"/>
<path d="M97.2539 52.645C99.5638 58.9909 103.338 64.5303 107.687 69.6052C107.698 69.7635 107.825 69.8449 108.013 69.7887C108.244 69.7191 108.477 69.4706 108.532 69.2324C108.573 69.0593 108.508 68.9409 108.382 68.9157C105.764 66.1386 103.348 63.1691 101.228 59.9792C99.6965 57.6637 98.317 55.2298 97.2539 52.6436V52.645Z" fill="black"/>
<path d="M119.808 84.2829C119.231 83.7146 119.546 82.4336 120.514 81.4217C121.481 80.4098 122.733 80.0502 123.311 80.6185C123.888 81.1868 123.572 82.4678 122.605 83.4797C121.638 84.4916 120.386 84.8512 119.808 84.2829Z" fill="white"/>
<path d="M100.43 74.0855C100.307 73.9649 100.374 73.6931 100.58 73.4784C100.785 73.2637 101.051 73.1874 101.173 73.308C101.296 73.4286 101.229 73.7004 101.023 73.9151C100.818 74.1298 100.553 74.2061 100.43 74.0855Z" fill="white"/>
<path opacity="0.57" d="M98.8921 75.3718C98.3145 74.8035 98.6303 73.5225 99.5975 72.5106C100.565 71.4987 101.817 71.139 102.395 71.7073C102.972 72.2756 102.656 73.5566 101.689 74.5685C100.722 75.5804 99.4697 75.94 98.8921 75.3718Z" fill="white"/>
<path d="M100.144 75.5632C101.236 75.2496 102.345 74.0896 102.62 72.9725C102.757 72.4133 102.661 71.9723 102.394 71.709L115.659 84.7602C115.926 85.0235 116.024 85.4659 115.885 86.0237C115.609 87.1408 114.501 88.3008 113.409 88.6144C112.863 88.7713 112.424 88.6869 112.156 88.4236L98.8915 75.3724C99.1584 75.6357 99.5974 75.7201 100.144 75.5632Z" fill="url(#paint4_linear_3190_29022)"/>
<path opacity="0.59" d="M106.412 78.5709C105.727 77.948 105.046 77.3222 104.375 76.6875C103.159 75.5467 101.973 74.3705 100.827 73.1572L100.152 73.8807C101.902 75.9151 103.742 77.8741 105.616 79.7812C106.575 80.7577 107.357 81.8911 108.005 83.1043C108.197 83.4638 108.465 83.8219 108.802 84.1459C109.9 85.2008 111.308 85.4997 111.946 84.8147C112.585 84.1296 112.213 82.7211 111.117 81.6662C110.751 81.314 110.35 81.0462 109.954 80.8716C108.661 80.2991 107.465 79.5238 106.415 78.5695L106.412 78.5709Z" fill="black"/>
<path d="M89.6011 56.7847C91.911 63.1305 95.6851 68.67 100.034 73.7449C100.045 73.9032 100.172 73.9845 100.36 73.9283C100.591 73.8588 100.824 73.6102 100.88 73.372C100.92 73.1989 100.855 73.0805 100.729 73.0554C98.1117 70.2783 95.6953 67.3088 93.5749 64.1189C92.0437 61.8033 90.6642 59.3695 89.6011 56.7832V56.7847Z" fill="black"/>
<path d="M112.155 88.4225C111.578 87.8543 111.894 86.5733 112.861 85.5614C113.828 84.5495 115.08 84.1898 115.658 84.7581C116.235 85.3264 115.92 86.6074 114.952 87.6193C113.985 88.6312 112.733 88.9908 112.155 88.4225Z" fill="white"/>
<path d="M115.734 65.8101C115.612 65.6895 115.679 65.4177 115.884 65.203C116.089 64.9883 116.355 64.912 116.477 65.0326C116.6 65.1532 116.533 65.425 116.328 65.6397C116.122 65.8544 115.857 65.9307 115.734 65.8101Z" fill="white"/>
<path opacity="0.57" d="M114.196 67.0964C113.619 66.5281 113.935 65.2471 114.902 64.2352C115.869 63.2233 117.121 62.8637 117.699 63.432C118.276 64.0002 117.961 65.2812 116.993 66.2931C116.026 67.305 114.774 67.6647 114.196 67.0964Z" fill="white"/>
<path d="M115.449 67.2878C116.541 66.9742 117.649 65.8142 117.925 64.6971C118.062 64.1379 117.966 63.697 117.699 63.4336L130.964 76.4848C131.231 76.7481 131.328 77.1905 131.19 77.7483C130.914 78.8654 129.806 80.0254 128.714 80.339C128.168 80.4959 127.729 80.4115 127.461 80.1482L114.196 67.097C114.463 67.3603 114.902 67.4447 115.449 67.2878Z" fill="url(#paint5_linear_3190_29022)"/>
<path opacity="0.59" d="M121.716 70.2955C121.031 69.6726 120.35 69.0468 119.679 68.4121C118.463 67.2713 117.277 66.0951 116.131 64.8818L115.456 65.6053C117.206 67.6397 119.046 69.5987 120.92 71.5058C121.88 72.4823 122.661 73.6157 123.309 74.8289C123.501 75.1884 123.77 75.5465 124.106 75.8705C125.205 76.9254 126.612 77.2243 127.251 76.5393C127.889 75.8542 127.517 74.4457 126.421 73.3908C126.055 73.0386 125.654 72.7708 125.259 72.5963C123.965 72.0237 122.769 71.2484 121.719 70.2941L121.716 70.2955Z" fill="black"/>
<path d="M104.905 48.5093C107.215 54.8551 110.989 60.3946 115.338 65.4695C115.35 65.6278 115.476 65.7092 115.665 65.6529C115.895 65.5834 116.128 65.3348 116.184 65.0966C116.225 64.9235 116.159 64.8051 116.034 64.78C113.416 62.0029 110.999 59.0334 108.879 55.8435C107.348 53.528 105.968 51.0941 104.905 48.5078V48.5093Z" fill="black"/>
<path d="M127.461 80.1472C126.883 79.5789 127.199 78.2979 128.166 77.286C129.134 76.2741 130.386 75.9144 130.963 76.4827C131.541 77.051 131.225 78.332 130.258 79.3439C129.291 80.3558 128.039 80.7154 127.461 80.1472Z" fill="white"/>
<path d="M128.133 24.4121C127.768 24.3315 127.51 24.0927 127.556 23.8788C127.602 23.6648 127.935 23.5567 128.299 23.6373C128.664 23.7179 128.922 23.9567 128.876 24.1706C128.83 24.3846 128.497 24.4927 128.133 24.4121Z" fill="white"/>
<path opacity="0.6" d="M122.905 48.7392C121.188 48.3594 119.971 47.234 120.188 46.2257C120.405 45.2173 121.972 44.7078 123.689 45.0876C125.406 45.4675 126.623 46.5928 126.406 47.6012C126.189 48.6095 124.622 49.119 122.905 48.7392Z" fill="white"/>
<path d="M127.884 25.5722C126.167 25.1924 124.95 24.067 125.167 23.0587C125.384 22.0503 126.951 21.5408 128.668 21.9207C130.385 22.3005 131.602 23.4258 131.385 24.4342C131.168 25.4425 129.601 25.9521 127.884 25.5722Z" fill="white"/>
<path d="M130.194 25.5147C128.826 25.9586 126.859 25.5236 125.799 24.5427C125.268 24.0515 125.065 23.5173 125.166 23.0498L120.186 46.2152C120.085 46.6828 120.288 47.2169 120.818 47.7081C121.879 48.6891 123.847 49.1255 125.214 48.6802C125.898 48.4583 126.302 48.0573 126.402 47.5912L131.382 24.4258C131.282 24.8933 130.878 25.2928 130.194 25.5147Z" fill="url(#paint6_linear_3190_29022)"/>
<path opacity="0.59" d="M126.877 33.9272C127.074 32.7642 127.279 31.6028 127.497 30.4472C127.885 28.3581 128.333 26.2793 128.843 24.2183L127.626 23.9697C126.653 27.2381 125.819 30.5552 125.062 33.8739C124.675 35.5739 124.003 37.1851 123.156 38.7017C122.905 39.1515 122.707 39.6841 122.592 40.27C122.215 42.1712 122.844 43.9023 123.996 44.1376C125.148 44.3728 126.388 43.022 126.764 41.1208C126.889 40.486 126.902 39.8705 126.822 39.3231C126.558 37.5328 126.574 35.7115 126.876 33.9272H126.877Z" fill="black"/>
<path d="M138.601 1.01562C133.448 7.78904 130.134 15.6129 127.693 23.7505C127.532 23.8704 127.532 24.0627 127.717 24.2284C127.946 24.4326 128.365 24.5184 128.654 24.4193C128.864 24.3468 128.944 24.1973 128.887 24.042C130.062 19.3311 131.576 14.7104 133.521 10.2629C134.939 7.04186 136.582 3.90816 138.601 1.01562Z" fill="black"/>
<path d="M118.788 47.8147L130.59 45.2869C132.063 44.9721 133.534 44.3394 134.862 43.4498L196.738 1.9922C199.307 0.270865 202.395 0.395621 203.559 2.26844C204.728 4.14869 203.489 7.04036 200.828 8.63842L137.568 46.6429C135.871 47.6632 134 48.2618 132.226 48.3509L118.569 49.043C117.735 49.0846 117.928 48.0004 118.788 47.8162V47.8147ZM174.037 19.2753L174.351 22.2517C174.388 22.5947 174.674 22.8487 175.006 22.8487C175.03 22.8487 175.053 22.8487 175.077 22.8443C175.439 22.8056 175.701 22.4759 175.663 22.1091L175.35 19.1328C175.311 18.7659 174.986 18.5001 174.624 18.5387C174.262 18.5773 173.999 18.907 174.037 19.2739V19.2753ZM170.79 21.4571L171.104 24.4334C171.141 24.7765 171.427 25.0304 171.759 25.0304C171.783 25.0304 171.806 25.0304 171.83 25.026C172.192 24.9874 172.454 24.6577 172.416 24.2908L172.102 21.3145C172.064 20.9477 171.739 20.6818 171.377 20.7204C171.015 20.759 170.752 21.0888 170.79 21.4556V21.4571ZM167.543 23.6388L167.857 26.6151C167.894 26.9582 168.179 27.2122 168.512 27.2122C168.536 27.2122 168.559 27.2122 168.583 27.2077C168.945 27.1691 169.207 26.8394 169.169 26.4726L168.855 23.4962C168.817 23.1294 168.492 22.8636 168.13 22.9022C167.767 22.9408 167.505 23.2705 167.543 23.6373V23.6388Z" fill="white"/>
<path d="M83.9569 98.8652C100.492 98.8652 116.041 95.0673 127.737 88.1727C138.439 81.8643 144.851 73.4824 145.793 64.5725C146.196 60.7567 145.597 56.9469 144.012 53.2505C142.398 49.487 139.794 45.9218 136.275 42.655L136.199 42.5834L136.042 42.6684C134.311 43.6067 132.455 44.084 130.663 44.0437L127.243 43.9707L127.238 44.269L130.657 44.3421C132.484 44.3824 134.387 43.8991 136.155 42.9459C139.605 46.1649 142.159 49.6719 143.744 53.3699C145.309 57.0185 145.9 60.7776 145.503 64.5412C144.572 73.3541 138.211 81.6539 127.592 87.9146C103.532 102.099 64.3829 102.099 40.323 87.9146C34.441 84.4464 29.8877 80.4054 26.7907 75.9035C23.805 71.5626 22.2917 66.9786 22.2917 62.2768C22.2917 57.575 23.805 52.991 26.7907 48.6501C29.8877 44.1482 34.441 40.1072 40.323 36.639C51.1817 30.2366 65.6061 26.47 80.9375 26.03C96.1633 25.5929 111.035 28.4585 122.812 34.0986L122.936 33.8286C111.118 28.1691 96.2014 25.2946 80.9301 25.7331C65.5505 26.1747 51.0776 29.9561 40.178 36.3824C34.2593 39.8715 29.6753 43.9423 26.5534 48.4801C23.5325 52.8716 22.0002 57.5138 22.0002 62.2783C22.0002 67.0428 23.5325 71.6849 26.5534 76.0765C29.6753 80.6142 34.2593 84.6851 40.178 88.1742C51.8746 95.0703 67.4228 98.8667 83.9598 98.8667L83.9569 98.8652Z" fill="white"/>
<path d="M132.186 40.4811L132.749 39.8056C131.454 38.9695 130.059 38.1488 128.597 37.3672L128.102 38.0832C129.539 38.8523 130.913 39.659 132.185 40.4811H132.186Z" fill="white"/>
<path d="M83.9569 122.998C100.465 122.998 115.992 119.199 127.677 112.3C133.606 108.8 138.199 104.714 141.331 100.154C144.372 95.726 145.915 91.0408 145.915 86.2293V62.4573C145.915 55.411 142.564 48.5729 136.225 42.679L135.997 42.4664L135.659 42.6492L135.878 43.0671L135.636 43.3377C141.789 49.0576 145.04 55.6683 145.04 62.4558V86.2279C145.04 90.852 143.551 95.3647 140.615 99.6394C137.557 104.091 133.058 108.091 127.24 111.525C103.374 125.616 64.5425 125.616 40.6767 111.525C34.8604 108.091 30.3593 104.093 27.3017 99.6394C24.3651 95.3632 22.8764 90.852 22.8764 86.2279V62.4558C22.8764 57.8316 24.3651 53.319 27.3017 49.0443C30.3593 44.5926 34.8589 40.5929 40.6767 37.1582C51.4431 30.8019 65.7498 27.0609 80.9605 26.6238C96.0706 26.1911 110.823 29.0355 122.504 34.638L122.876 33.8306C111.073 28.1701 96.1814 25.2945 80.9357 25.7331C65.5821 26.1747 51.1282 29.9588 40.2378 36.388C34.3092 39.8881 29.7163 43.974 26.5843 48.5343C23.5428 52.9622 22.0001 57.6473 22.0001 62.4588V86.2308C22.0001 91.0408 23.5428 95.726 26.5843 100.155C29.7163 104.714 34.3092 108.801 40.2378 112.302C51.9228 119.201 67.4499 123 83.9583 123L83.9569 122.998Z" fill="white"/>
<defs>
<linearGradient id="paint0_linear_3190_29022" x1="62.7327" y1="71.2868" x2="59.1779" y2="74.8998" gradientUnits="userSpaceOnUse">
<stop stop-color="white" stop-opacity="0.3"/>
<stop offset="1" stop-color="white"/>
</linearGradient>
<linearGradient id="paint1_linear_3190_29022" x1="55.0805" y1="75.4239" x2="51.5268" y2="79.0358" gradientUnits="userSpaceOnUse">
<stop stop-color="white" stop-opacity="0.3"/>
<stop offset="1" stop-color="white"/>
</linearGradient>
<linearGradient id="paint2_linear_3190_29022" x1="70.3859" y1="67.1493" x2="66.8311" y2="70.7622" gradientUnits="userSpaceOnUse">
<stop stop-color="white" stop-opacity="0.3"/>
<stop offset="1" stop-color="white"/>
</linearGradient>
<linearGradient id="paint3_linear_3190_29022" x1="117.209" y1="74.6103" x2="113.655" y2="78.2233" gradientUnits="userSpaceOnUse">
<stop stop-color="white" stop-opacity="0.3"/>
<stop offset="1" stop-color="white"/>
</linearGradient>
<linearGradient id="paint4_linear_3190_29022" x1="109.557" y1="78.7503" x2="106.003" y2="82.3633" gradientUnits="userSpaceOnUse">
<stop stop-color="white" stop-opacity="0.3"/>
<stop offset="1" stop-color="white"/>
</linearGradient>
<linearGradient id="paint5_linear_3190_29022" x1="124.862" y1="70.4758" x2="121.308" y2="74.0877" gradientUnits="userSpaceOnUse">
<stop stop-color="white" stop-opacity="0.3"/>
<stop offset="1" stop-color="white"/>
</linearGradient>
<linearGradient id="paint6_linear_3190_29022" x1="122.47" y1="35.6946" x2="128.694" y2="37.0323" gradientUnits="userSpaceOnUse">
<stop stop-color="white"/>
<stop offset="1" stop-color="white" stop-opacity="0.32"/>
</linearGradient>
</defs>
</svg>
