<svg width="266" height="164" viewBox="0 0 266 164" fill="none" xmlns="http://www.w3.org/2000/svg">
<g clip-path="url(#clip0_3190_29090)">
<path d="M201.697 66.8817C200.775 73.203 200.002 79.5669 199.847 85.9655C199.847 86.0816 199.921 86.1957 200.073 86.2827C200.374 86.4586 200.861 86.4586 201.162 86.2827C201.311 86.1957 201.388 86.0796 201.388 85.9655H201.392C201.336 82.8136 201.446 79.6423 201.643 76.4768C201.938 71.7238 202.427 66.9726 203.012 62.2447C203.56 57.5013 204.371 52.8024 205.641 48.1963C203.674 54.2623 202.632 60.5856 201.695 66.8837L201.697 66.8817Z" fill="white"/>
<path d="M231.255 49.6444C230.333 55.9657 229.561 62.3296 229.405 68.7282C229.405 68.8443 229.48 68.9584 229.631 69.0454C229.933 69.2213 230.42 69.2213 230.721 69.0454C230.87 68.9584 230.947 68.8423 230.947 68.7282H230.951C230.895 65.5763 231.004 62.405 231.202 59.2395C231.497 54.4865 231.986 49.7353 232.571 45.0074C233.119 40.264 233.93 35.5651 235.199 30.959C233.232 37.025 232.191 43.3483 231.254 49.6464L231.255 49.6444Z" fill="white"/>
<path d="M201.697 32.2948C200.775 38.6161 200.002 44.98 199.847 51.3786C199.847 51.4947 199.921 51.6087 200.073 51.6958C200.374 51.8717 200.861 51.8717 201.162 51.6958C201.311 51.6087 201.388 51.4927 201.388 51.3786H201.392C201.336 48.2267 201.446 45.0554 201.643 41.8899C201.938 37.1368 202.427 32.3857 203.012 27.6578C203.56 22.9144 204.371 18.2155 205.641 13.6094C203.674 19.6754 202.632 25.9987 201.695 32.2968L201.697 32.2948Z" fill="white"/>
<path d="M231.255 84.0312C230.333 90.3525 229.561 96.7163 229.405 103.115C229.405 103.231 229.48 103.345 229.631 103.432C229.933 103.608 230.42 103.608 230.721 103.432C230.87 103.345 230.947 103.229 230.947 103.115H230.951C230.895 99.963 231.004 96.7917 231.202 93.6262C231.497 88.8732 231.986 84.122 232.571 79.3941C233.119 74.6507 233.93 69.9518 235.199 65.3457C233.232 71.4118 232.191 77.735 231.254 84.0331L231.255 84.0312Z" fill="white"/>
<path opacity="0.24" d="M231.255 118.804C230.333 125.125 229.561 131.489 229.405 137.887C229.405 138.003 229.48 138.118 229.631 138.205C229.933 138.381 230.42 138.381 230.721 138.205C230.87 138.118 230.947 138.002 230.947 137.887H230.951C230.895 134.735 231.004 131.564 231.202 128.399C231.497 123.646 231.986 118.895 232.571 114.167C233.119 109.423 233.93 104.724 235.199 100.118C233.232 106.184 232.191 112.507 231.254 118.806L231.255 118.804Z" fill="white"/>
<path opacity="0.24" d="M200.666 135.931C199.743 142.252 198.971 148.616 198.815 155.014C198.815 155.13 198.89 155.244 199.042 155.332C199.343 155.507 199.83 155.507 200.131 155.332C200.28 155.244 200.357 155.128 200.357 155.014H200.361C200.305 151.862 200.414 148.691 200.612 145.526C200.907 140.773 201.396 136.021 201.981 131.294C202.529 126.55 203.34 121.851 204.609 117.245C202.642 123.311 201.601 129.634 200.664 135.933L200.666 135.931Z" fill="white"/>
<path d="M201.697 102.054C200.775 108.375 200.002 114.739 199.847 121.137C199.847 121.253 199.921 121.368 200.073 121.455C200.374 121.631 200.861 121.631 201.162 121.455C201.311 121.368 201.388 121.252 201.388 121.137H201.392C201.336 117.985 201.446 114.814 201.643 111.649C201.938 106.896 202.427 102.145 203.012 97.4166C203.56 92.6732 204.371 87.9743 205.641 83.3682C203.674 89.4342 202.632 95.7575 201.695 102.056L201.697 102.054Z" fill="white"/>
<path opacity="0.5" d="M200.558 89.8476C204.423 89.8476 207.556 88.0183 207.556 85.7617C207.556 83.5051 204.423 81.6758 200.558 81.6758C196.693 81.6758 193.56 83.5051 193.56 85.7617C193.56 88.0183 196.693 89.8476 200.558 89.8476Z" fill="white"/>
<path opacity="0.5" d="M230.232 72.5684C234.097 72.5684 237.23 70.739 237.23 68.4824C237.23 66.2258 234.097 64.3965 230.232 64.3965C226.367 64.3965 223.234 66.2258 223.234 68.4824C223.234 70.739 226.367 72.5684 230.232 72.5684Z" fill="white"/>
<path opacity="0.5" d="M230.232 107.335C234.097 107.335 237.23 105.506 237.23 103.249C237.23 100.992 234.097 99.1631 230.232 99.1631C226.367 99.1631 223.234 100.992 223.234 103.249C223.234 105.506 226.367 107.335 230.232 107.335Z" fill="white"/>
<path opacity="0.5" d="M170.779 107.251C174.644 107.251 177.777 105.422 177.777 103.165C177.777 100.908 174.644 99.0791 170.779 99.0791C166.914 99.0791 163.781 100.908 163.781 103.165C163.781 105.422 166.914 107.251 170.779 107.251Z" fill="white"/>
<path opacity="0.5" d="M200.558 55.291C204.423 55.291 207.556 53.4617 207.556 51.2051C207.556 48.9485 204.423 47.1191 200.558 47.1191C196.693 47.1191 193.56 48.9485 193.56 51.2051C193.56 53.4617 196.693 55.291 200.558 55.291Z" fill="white"/>
<path opacity="0.5" d="M200.704 124.719C204.569 124.719 207.702 122.889 207.702 120.633C207.702 118.376 204.569 116.547 200.704 116.547C196.839 116.547 193.706 118.376 193.706 120.633C193.706 122.889 196.839 124.719 200.704 124.719Z" fill="white"/>
<path opacity="0.24" d="M171.906 119.345C170.984 125.666 170.211 132.03 170.056 138.428C170.056 138.544 170.131 138.659 170.282 138.746C170.583 138.922 171.07 138.922 171.371 138.746C171.521 138.659 171.598 138.543 171.598 138.428H171.601C171.546 135.276 171.655 132.105 171.853 128.94C172.148 124.187 172.637 119.436 173.222 114.708C173.77 109.964 174.581 105.265 175.85 100.659C173.883 106.725 172.842 113.048 171.904 119.347L171.906 119.345Z" fill="white"/>
<path opacity="0.24" d="M141.98 66.9687C141.057 73.29 140.285 79.6538 140.129 86.0525C140.129 86.1685 140.204 86.2826 140.356 86.3696C140.657 86.5456 141.144 86.5456 141.445 86.3696C141.594 86.2826 141.671 86.1665 141.671 86.0525H141.675C141.619 82.9005 141.728 79.7292 141.926 76.5637C142.221 71.8107 142.71 67.0595 143.295 62.3316C143.843 57.5882 144.654 52.8893 145.923 48.2832C143.956 54.3493 142.915 60.6725 141.978 66.9706L141.98 66.9687Z" fill="white"/>
<path d="M142.058 32.2372C141.136 38.5585 140.363 44.9224 140.208 51.321C140.208 51.437 140.283 51.5511 140.434 51.6381C140.735 51.8141 141.222 51.8141 141.523 51.6381C141.673 51.5511 141.749 51.4351 141.749 51.321H141.753C141.698 48.1691 141.807 44.9978 142.004 41.8323C142.3 37.0792 142.789 32.3281 143.373 27.6002C143.922 22.8568 144.733 18.1579 146.002 13.5518C144.035 19.6178 142.994 25.941 142.056 32.2391L142.058 32.2372Z" fill="white"/>
<path d="M165.882 64.4951C168.996 65.8719 172.808 65.87 175.923 64.4951C173.151 66.3824 168.657 66.3805 165.882 64.4951Z" fill="white"/>
<path d="M175.382 77.0664C172.907 78.7777 168.896 78.7797 166.421 77.0664C169.237 78.2672 172.566 78.2692 175.382 77.0664Z" fill="white"/>
<path d="M169.289 58.2685C169.427 58.7191 169.494 59.0903 169.494 59.3823C169.494 60.0785 169.059 60.3163 168.187 60.0959C167.769 59.9895 167.441 59.8155 167.207 59.5738C166.973 59.332 166.856 59.0459 166.856 58.7133C166.856 58.5605 166.881 58.4135 166.933 58.2685C166.985 58.1235 167.046 57.9823 167.115 57.845L166.442 57.3887C166.258 57.7503 166.166 58.1332 166.166 58.5373C166.166 58.9414 166.248 59.3011 166.411 59.6376C166.574 59.974 166.808 60.2602 167.115 60.4961C167.42 60.7321 167.777 60.9003 168.183 61.0028C168.829 61.1671 169.324 61.1323 169.669 60.8984C170.014 60.6644 170.187 60.2448 170.187 59.6395C170.187 59.218 170.119 58.8196 169.985 58.4445L169.289 58.2685Z" fill="white"/>
<path d="M170.133 55.0662V54.1863L166.224 53.1943V54.0742L167.756 54.4629V56.1104L166.224 55.7217V56.6054L170.133 57.5974V56.7137L168.446 56.2863V54.6369L170.133 55.0662Z" fill="white"/>
<path d="M168.168 52.8217C168.818 52.986 169.318 52.9416 169.665 52.6883C170.012 52.4349 170.186 51.9882 170.186 51.3501C170.186 50.712 170.012 50.1783 169.665 49.749C169.318 49.3197 168.819 49.0219 168.173 48.8576C167.525 48.6932 167.027 48.7357 166.682 48.9871C166.337 49.2385 166.162 49.6833 166.162 50.3233C166.162 50.9634 166.333 51.4971 166.676 51.9283C167.019 52.3576 167.516 52.6554 168.166 52.8197L168.168 52.8217ZM168.173 49.7838C169.051 50.0062 169.49 50.4703 169.49 51.1742C169.49 51.5261 169.379 51.762 169.159 51.8819C168.938 52.0018 168.609 52.0076 168.171 51.8954C167.734 51.7852 167.405 51.6112 167.184 51.3772C166.962 51.1432 166.85 50.8493 166.85 50.4974C166.85 49.7974 167.291 49.5576 168.171 49.7819L168.173 49.7838Z" fill="white"/>
<path d="M170.133 47.6102L166.224 46.6182V47.4999L170.133 48.4919V47.6102Z" fill="white"/>
<path d="M168.998 46.6236V45.094L168.331 44.9258V46.4553L168.998 46.6236Z" fill="white"/>
<path d="M170.133 43.8027L168.743 43.4508V43.0718C168.743 42.5555 168.632 42.1281 168.409 41.7917C168.187 41.4552 167.865 41.2328 167.445 41.1265C167.04 41.024 166.736 41.0781 166.532 41.2889C166.329 41.4997 166.226 41.8574 166.226 42.364V43.6944L170.135 44.6864V43.8027H170.133ZM168.064 43.2768L166.904 42.9828V42.5806C166.904 42.3389 166.95 42.1745 167.044 42.0856C167.136 41.9966 167.28 41.9754 167.476 42.0256C167.667 42.074 167.815 42.1784 167.915 42.3389C168.016 42.4994 168.066 42.716 168.066 42.9867V43.2768H168.064Z" fill="white"/>
<path d="M170.133 38.6238L169.448 38.4517V39.9658L168.44 39.7106V38.3009L167.761 38.1288V39.5385L166.902 39.32V37.8059L166.224 37.6318V40.0296L170.133 41.0216V38.6238Z" fill="white"/>
<path d="M170.132 36.9667L168.294 36.5007C168.071 36.4446 167.699 36.3673 167.176 36.2706V36.2455L170.132 35.1839V34.0623L166.223 33.0703V33.8651L168.073 34.335C168.284 34.3891 168.643 34.4645 169.151 34.5651V34.5844L166.223 35.6499V36.7637L170.132 37.7557V36.9667Z" fill="white"/>
<path d="M170.902 21.0557C169.033 21.0557 167.161 20.64 165.737 19.8085C164.303 18.9712 163.515 17.8419 163.515 16.6256V11.4838C163.515 10.2695 164.305 9.13825 165.737 8.30095C168.584 6.63796 173.218 6.63796 176.065 8.30095C177.499 9.13825 178.287 10.2675 178.287 11.4838V16.6256C178.287 17.84 177.497 18.9712 176.065 19.8085C174.641 20.64 172.771 21.0557 170.9 21.0557H170.902ZM164.09 11.6791V16.6256C164.09 17.6253 164.778 18.5767 166.026 19.3057C168.714 20.8759 173.09 20.8759 175.779 19.3057C177.028 18.5767 177.716 17.6253 177.716 16.6256V11.8377L177.687 11.8338C177.706 11.7178 177.716 11.5999 177.716 11.4838C177.716 10.4841 177.028 9.53273 175.779 8.80372C173.091 7.23355 168.716 7.23355 166.026 8.80372C164.778 9.53273 164.09 10.4841 164.09 11.4838C164.09 11.5477 164.094 11.6134 164.099 11.6791H164.09Z" fill="white"/>
<path d="M170.902 15.7235C169.067 15.7235 167.23 15.3155 165.832 14.4994C164.461 13.6989 163.704 12.6276 163.704 11.4848C163.704 10.342 164.46 9.27069 165.832 8.47013C168.628 6.83808 173.174 6.83808 175.969 8.47013C177.342 9.27069 178.097 10.342 178.097 11.4848C178.097 12.6276 177.342 13.6989 175.969 14.4994C174.571 15.3155 172.736 15.7235 170.9 15.7235H170.902ZM170.902 7.4356C169.101 7.4356 167.301 7.83588 165.93 8.63643C164.621 9.40218 163.898 10.4135 163.898 11.4848C163.898 12.5561 164.619 13.5674 165.93 14.3331C168.672 15.9343 173.133 15.9343 175.875 14.3331C177.184 13.5674 177.907 12.5561 177.907 11.4848C177.907 10.4135 177.186 9.40218 175.875 8.63643C174.504 7.83588 172.704 7.4356 170.903 7.4356H170.902Z" fill="white"/>
<path d="M65.2715 145.473C48.0217 145.473 31.8035 138.697 19.6077 126.395C7.41194 114.093 0.691895 97.7373 0.691895 80.3397C0.691895 79.837 0.697646 79.3207 0.711067 78.7618L0.716819 78.4795H37.7432C43.1653 78.4795 47.5769 82.929 47.5769 88.3975V115.98C47.5769 117.274 48.1406 118.494 49.1223 119.327L64.5103 132.386L79.8945 119.327C80.8762 118.494 81.4379 117.274 81.4379 115.98V88.3975C81.4379 82.929 85.8496 78.4795 91.2716 78.4795H129.822L129.828 78.7618C129.841 79.3149 129.847 79.8312 129.847 80.3397C129.847 97.7373 123.129 114.095 110.931 126.395C98.7337 138.695 82.5174 145.473 65.2676 145.473H65.2715ZM1.2805 79.0596C1.27091 79.5063 1.26708 79.9278 1.26708 80.3397C1.26708 97.5826 7.92386 113.793 20.0142 125.985C32.1045 138.177 48.1751 144.893 65.2715 144.893C82.3678 144.893 98.4403 138.179 110.529 125.985C122.617 113.793 129.276 97.5826 129.276 80.3397C129.276 79.924 129.272 79.5024 129.262 79.0596H91.2736C86.1679 79.0596 82.015 83.248 82.015 88.3975V115.98C82.015 117.446 81.3766 118.826 80.2665 119.77L64.5122 133.142L48.7522 119.77C47.6402 118.826 47.0018 117.446 47.0018 115.98V88.3975C47.0018 83.248 42.8489 79.0596 37.7432 79.0596H1.2805Z" fill="white"/>
<g opacity="0.51">
<path d="M41.7676 91.7989C43.0004 92.0367 44.9215 92.4061 47.2913 92.7928V88.3975C47.2913 83.0798 43.0177 78.7695 37.7452 78.7695H0.998665C0.987161 79.2916 0.979492 79.8157 0.979492 80.3397C0.979492 83.4878 1.2019 86.5817 1.63328 89.6099C3.86883 88.9157 7.01891 90.1049 10.9417 89.8246C18.212 89.3063 24.0366 90.2094 28.5825 90.9074C34.1119 91.7583 35.7799 90.6445 41.7695 91.7969L41.7676 91.7989Z" fill="white"/>
<path d="M91.2737 78.7695C86.0011 78.7695 81.7275 83.0798 81.7275 88.3975V92.6652C84.3312 92.3539 87.4468 92.0077 91.2621 91.6268C100.478 90.7063 105.943 91.9729 108.217 91.9729C118.018 91.9729 123.346 92.0503 128.252 93.4271C129.111 89.2 129.562 84.824 129.562 80.3416C129.562 79.8157 129.554 79.2936 129.542 78.7715H91.2737V78.7695Z" fill="white"/>
</g>
<path d="M65.2713 145.73C47.9698 145.73 31.7056 138.935 19.4714 126.596C7.2373 114.257 0.5 97.8535 0.5 80.4037C0.5 62.9539 7.2373 46.5502 19.4714 34.2112C31.7056 21.8722 47.9698 15.0771 65.2713 15.0771C82.5728 15.0771 98.837 21.8722 111.071 34.2112C123.305 46.5502 130.043 62.9539 130.043 80.4037C130.043 97.8535 123.305 114.257 111.071 126.596C98.837 138.935 82.5728 145.73 65.2713 145.73ZM65.2713 16.044C48.2267 16.044 32.2021 22.7385 20.1482 34.8938C8.09433 47.0491 1.45864 63.213 1.45864 80.4037C1.45864 97.5944 8.09624 113.756 20.1482 125.914C32.2002 138.069 48.2248 144.763 65.2713 144.763C82.3178 144.763 98.3405 138.069 110.394 125.914C122.446 113.758 129.084 97.5964 129.084 80.4037C129.084 63.2111 122.446 47.0511 110.394 34.8938C98.3424 22.7385 82.3178 16.044 65.2713 16.044Z" fill="white"/>
<path d="M170.902 25.8302C170.01 25.8302 169.119 25.6271 168.425 25.221C167.709 24.8034 167.314 24.2291 167.314 23.6064V19.9053L167.686 20.0194C169.7 20.6362 172.106 20.6362 174.121 20.0194L174.493 19.9053V23.6064C174.493 24.2291 174.098 24.8014 173.383 25.221C172.689 25.6271 171.797 25.8302 170.906 25.8302H170.902ZM167.89 20.6826V23.6083C167.89 24.0144 168.181 24.4108 168.712 24.7202C169.92 25.426 171.883 25.426 173.091 24.7202C173.622 24.4108 173.914 24.0144 173.914 23.6083V20.6826C172 21.1912 169.801 21.1912 167.888 20.6826H167.89Z" fill="white"/>
<path d="M170.902 95.7784H170.879C169.115 95.6372 167.334 94.885 167.313 93.5159L164.479 75.7413C164.343 74.8827 164.343 74.0125 164.483 73.1539L164.836 70.9747C164.977 70.1026 164.964 69.2188 164.799 68.3506L163.656 62.3445C163.561 61.8437 163.513 61.3312 163.513 60.8207V25.5324C163.513 24.3181 164.303 23.1868 165.735 22.3495C166.262 22.0421 166.862 21.783 167.516 21.5819L167.888 21.4678V23.6045C167.888 24.0106 168.179 24.407 168.71 24.7164C169.918 25.4222 171.882 25.4222 173.089 24.7164C173.621 24.407 173.912 24.0106 173.912 23.6045V21.4678L174.284 21.5819C174.938 21.783 175.536 22.0402 176.065 22.3495C177.499 23.1868 178.287 24.3161 178.287 25.5324V60.8207C178.287 61.3312 178.239 61.8437 178.143 62.3445L177.001 68.3506C176.836 69.2188 176.824 70.1006 176.964 70.9747L177.317 73.1539C177.432 73.8675 177.434 75.0277 177.321 75.7413L174.487 93.5159C174.466 94.885 172.687 95.6372 170.921 95.7764H170.898L170.902 95.7784ZM167.315 22.2625C166.847 22.4288 166.415 22.6261 166.026 22.8542C164.778 23.5833 164.09 24.5346 164.09 25.5344V60.8227C164.09 61.2964 164.134 61.7721 164.222 62.2362L165.365 68.2423C165.543 69.1782 165.557 70.1296 165.403 71.0694L165.05 73.2487C164.922 74.0454 164.92 74.8537 165.047 75.6504L167.888 93.4695V93.4927C167.888 94.1966 168.831 95.03 170.9 95.1983C172.971 95.03 173.912 94.1966 173.912 93.4927L173.916 93.4463L176.753 75.6504C176.857 75.0006 176.855 73.9004 176.75 73.2487L176.397 71.0694C176.245 70.1296 176.257 69.1782 176.435 68.2423L177.578 62.2362C177.666 61.7721 177.712 61.2964 177.712 60.8227V25.5344C177.712 24.5346 177.024 23.5833 175.776 22.8542C175.386 22.628 174.955 22.4288 174.487 22.2625V23.6065C174.487 24.2291 174.092 24.8015 173.377 25.2211C171.987 26.0333 169.811 26.0333 168.421 25.2211C167.706 24.8034 167.311 24.2291 167.311 23.6065V22.2625H167.315Z" fill="white"/>
<path d="M170.902 29.7738C169.067 29.7738 167.23 29.3658 165.832 28.5497C164.461 27.7492 163.704 26.6779 163.704 25.5351C163.704 24.3923 164.46 23.321 165.832 22.5204C166.348 22.2188 166.933 21.9674 167.573 21.7721L167.698 21.7334V23.6091C167.698 24.0887 168.024 24.5431 168.616 24.8892C169.876 25.626 171.927 25.626 173.187 24.8892C173.779 24.5431 174.105 24.0887 174.105 23.6091V21.7334L174.23 21.7721C174.868 21.9674 175.455 22.2207 175.971 22.5204C177.344 23.321 178.099 24.3923 178.099 25.5351C178.099 26.6779 177.344 27.7492 175.971 28.5497C174.573 29.3658 172.738 29.7738 170.902 29.7738ZM167.506 21.9944C166.929 22.1801 166.4 22.4121 165.93 22.6867C164.621 23.4525 163.898 24.4638 163.898 25.5351C163.898 26.6064 164.619 27.6177 165.93 28.3834C168.672 29.9845 173.133 29.9845 175.875 28.3834C177.184 27.6177 177.907 26.6064 177.907 25.5351C177.907 24.4638 177.186 23.4525 175.875 22.6867C175.405 22.4121 174.876 22.1801 174.299 21.9944V23.6072C174.299 24.1583 173.939 24.6707 173.285 25.0536C171.971 25.8213 169.834 25.8213 168.52 25.0536C167.867 24.6707 167.506 24.1583 167.506 23.6072V21.9944Z" fill="white"/>
<path d="M76.2017 16.4873V118.15L78.2052 116.48V16.8528C77.5418 16.7213 76.8727 16.5995 76.2017 16.4892V16.4873Z" fill="white"/>
<path d="M75.914 118.767V16.1465L76.2476 16.2026C76.9053 16.3109 77.5821 16.4346 78.2589 16.568L78.4908 16.6144V116.616L75.9121 118.769L75.914 118.767ZM76.4892 16.8291V117.533L77.9176 116.342V17.0901C77.4383 16.9973 76.9589 16.9103 76.4892 16.8291Z" fill="white"/>
<path d="M50.8188 17.2136V116.479L52.8224 118.149V16.7939C52.1514 16.9235 51.4841 17.0647 50.8188 17.2136Z" fill="white"/>
<path d="M53.11 118.767L50.5312 116.616V16.9819L50.7556 16.9316C51.442 16.7769 52.1187 16.6338 52.7668 16.5101L53.1081 16.4443V118.769L53.11 118.767ZM51.1064 116.342L52.5348 117.533V17.1463C52.0689 17.2391 51.5915 17.3396 51.1064 17.4479V116.344V116.342Z" fill="white"/>
<path opacity="0.21" d="M66.5673 75.3389C66.5443 75.8474 66.5213 76.356 66.5021 76.8646C66.4446 79.3591 66.4331 82.0953 66.5328 84.5878C66.5635 85.2723 66.6689 87.6934 66.7955 90.5823C66.9393 93.8832 67.7196 97.1105 68.9352 100.179C69.2918 101.077 69.4912 102.096 69.4912 103.179C69.4912 106.771 67.271 109.684 64.535 109.684C61.7991 109.684 59.5789 106.771 59.5789 103.179C59.5789 102.059 59.7955 101.005 60.1751 100.085C61.4655 96.9616 62.2899 93.6627 62.4375 90.2845C62.5698 87.2525 62.6868 84.6188 62.7405 83.5687C62.8325 82.3737 62.9168 80.7591 63.0415 79.5911C63.1105 78.9104 63.283 77.2765 63.3501 76.6248C63.4038 76.1955 63.4613 75.7682 63.5169 75.3408H53.064V118.72L64.5101 127.232L75.9562 118.778V75.3427H66.5654L66.5673 75.3389Z" fill="white"/>
<path opacity="0.58" d="M64.7765 46.6543L56.1411 35.7385H61.0608V20.2979H68.496V35.7385H73.4158L64.7804 46.6543H64.7765Z" fill="white"/>
<path opacity="0.58" d="M170.639 9.69563L167.462 5.67931H169.272V0H172.006V5.67931H173.816L170.639 9.69563Z" fill="white"/>
<path opacity="0.4" d="M175.03 88.2995L174.201 93.4915C174.201 94.4023 173.101 95.315 170.902 95.489C168.701 95.315 167.602 94.4042 167.602 93.4915L166.753 88.168L140.998 103.164L170.779 120.505L200.704 103.249L175.03 88.2995Z" fill="white"/>
<mask id="mask0_3190_29090" style="mask-type:luminance" maskUnits="userSpaceOnUse" x="77" y="42" width="189" height="122">
<path d="M117.103 42.0352C124.935 52.7789 129.563 66.0461 129.563 80.4039C129.563 112.092 107.025 138.471 77.2349 144.125V163.306H265.228V42.0352H117.105H117.103Z" fill="white"/>
</mask>
<g mask="url(#mask0_3190_29090)">
<g opacity="0.64">
<path d="M217.247 162.492L216.251 163.072L216.539 163.575L217.535 162.995L217.247 162.492Z" fill="white"/>
<path d="M220.07 161.501L219.783 160.998L221.681 159.892L221.968 160.395L220.07 161.501ZM224.501 158.921L224.214 158.418L226.112 157.312L226.399 157.815L224.501 158.921ZM228.932 156.342L228.644 155.839L230.542 154.733L230.83 155.236L228.932 156.342ZM233.363 153.762L233.075 153.259L234.973 152.153L235.261 152.656L233.363 153.762ZM237.794 151.182L237.506 150.68L239.404 149.574L239.692 150.076L237.794 151.182ZM242.224 148.603L241.937 148.1L243.835 146.994L244.123 147.497L242.224 148.603ZM246.655 146.023L246.368 145.521L248.266 144.414L248.553 144.917L246.655 146.023ZM251.086 143.444L250.798 142.941L252.697 141.835L252.984 142.338L251.086 143.444ZM255.517 140.864L255.229 140.361L257.127 139.255L257.415 139.758L255.517 140.864ZM259.948 138.285L259.66 137.782L261.558 136.676L261.846 137.179L259.948 138.285Z" fill="white"/>
<path d="M265.084 134.642L264.088 135.222L264.375 135.724L265.372 135.144L265.084 134.642Z" fill="white"/>
<path d="M157.685 162.49L156.689 163.07L156.977 163.573L157.973 162.993L157.685 162.49Z" fill="white"/>
<path d="M160.675 161.407L160.388 160.904L162.41 159.726L162.698 160.229L160.675 161.407ZM165.396 158.659L165.108 158.156L167.131 156.979L167.418 157.481L165.396 158.659ZM170.116 155.911L169.828 155.408L171.851 154.231L172.139 154.734L170.116 155.911ZM174.836 153.163L174.549 152.661L176.571 151.483L176.859 151.986L174.836 153.163ZM179.557 150.416L179.269 149.913L181.292 148.735L181.579 149.238L179.557 150.416ZM184.277 147.668L183.989 147.165L186.012 145.987L186.3 146.49L184.277 147.668ZM188.997 144.92L188.71 144.417L190.732 143.24L191.02 143.742L188.997 144.92ZM193.718 142.172L193.43 141.669L195.453 140.492L195.74 140.994L193.718 142.172ZM198.438 139.424L198.15 138.922L200.173 137.744L200.461 138.247L198.438 139.424ZM203.158 136.677L202.871 136.174L204.893 134.996L205.181 135.499L203.158 136.677ZM207.879 133.929L207.591 133.426L209.614 132.248L209.901 132.751L207.879 133.929ZM212.599 131.181L212.311 130.678L214.334 129.501L214.622 130.003L212.599 131.181ZM217.319 128.433L217.032 127.93L219.054 126.753L219.342 127.255L217.319 128.433ZM222.04 125.685L221.752 125.183L223.775 124.005L224.062 124.508L222.04 125.685ZM226.76 122.937L226.472 122.435L228.495 121.257L228.783 121.76L226.76 122.937ZM231.48 120.19L231.193 119.687L233.215 118.509L233.503 119.012L231.48 120.19ZM236.201 117.442L235.913 116.939L237.936 115.761L238.223 116.264L236.201 117.442ZM240.921 114.694L240.633 114.191L242.656 113.014L242.944 113.516L240.921 114.694ZM245.641 111.946L245.354 111.444L247.376 110.266L247.664 110.769L245.641 111.946ZM250.362 109.198L250.074 108.696L252.097 107.518L252.384 108.021L250.362 109.198ZM255.082 106.451L254.794 105.948L256.817 104.77L257.105 105.273L255.082 106.451ZM259.802 103.703L259.515 103.2L261.537 102.022L261.825 102.525L259.802 103.703Z" fill="white"/>
<path d="M265.216 99.8847L264.22 100.465L264.508 100.967L265.504 100.387L265.216 99.8847Z" fill="white"/>
<path d="M98.1227 162.485L97.1265 163.065L97.4141 163.568L98.4103 162.988L98.1227 162.485Z" fill="white"/>
<path d="M101.082 161.424L100.794 160.921L102.794 159.757L103.082 160.26L101.082 161.424ZM105.747 158.707L105.459 158.204L107.459 157.04L107.746 157.543L105.747 158.707ZM110.411 155.99L110.124 155.488L112.124 154.323L112.411 154.826L110.411 155.99ZM115.076 153.273L114.789 152.771L116.788 151.607L117.076 152.109L115.076 153.273ZM119.741 150.557L119.453 150.054L121.453 148.89L121.741 149.392L119.741 150.557ZM124.406 147.84L124.118 147.337L126.118 146.173L126.405 146.676L124.406 147.84ZM129.07 145.123L128.783 144.62L130.783 143.456L131.07 143.959L129.07 145.123ZM133.735 142.406L133.448 141.903L135.447 140.739L135.735 141.242L133.735 142.406ZM138.4 139.689L138.112 139.186L140.112 138.022L140.4 138.525L138.4 139.689ZM143.065 136.972L142.777 136.469L144.777 135.305L145.064 135.808L143.065 136.972ZM147.729 134.255L147.442 133.753L149.441 132.589L149.729 133.091L147.729 134.255ZM152.394 131.539L152.106 131.036L154.106 129.872L154.394 130.374L152.394 131.539ZM157.059 128.822L156.771 128.319L158.771 127.155L159.059 127.658L157.059 128.822ZM161.724 126.105L161.436 125.602L163.436 124.438L163.723 124.941L161.724 126.105ZM166.388 123.388L166.101 122.885L168.1 121.721L168.388 122.224L166.388 123.388ZM171.053 120.671L170.765 120.168L172.765 119.004L173.053 119.507L171.053 120.671ZM175.718 117.954L175.43 117.451L177.43 116.287L177.717 116.79L175.718 117.954ZM180.382 115.237L180.095 114.735L182.095 113.57L182.382 114.073L180.382 115.237ZM185.047 112.52L184.76 112.018L186.759 110.854L187.047 111.356L185.047 112.52ZM189.712 109.804L189.424 109.301L191.424 108.137L191.712 108.64L189.712 109.804ZM194.377 107.087L194.089 106.584L196.089 105.42L196.376 105.923L194.377 107.087ZM199.041 104.37L198.754 103.867L200.753 102.703L201.041 103.206L199.041 104.37ZM203.706 101.653L203.419 101.15L205.418 99.9862L205.706 100.489L203.706 101.653ZM208.371 98.9362L208.083 98.4334L210.083 97.2693L210.371 97.7721L208.371 98.9362ZM213.036 96.2193L212.748 95.7165L214.748 94.5524L215.035 95.0552L213.036 96.2193ZM217.7 93.5024L217.413 92.9997L219.412 91.8356L219.7 92.3383L217.7 93.5024ZM222.365 90.7856L222.077 90.2828L224.077 89.1187L224.365 89.6215L222.365 90.7856ZM227.03 88.0687L226.742 87.5659L228.742 86.4018L229.029 86.9046L227.03 88.0687ZM231.694 85.3518L231.407 84.8491L233.407 83.685L233.694 84.1877L231.694 85.3518ZM236.359 82.635L236.072 82.1322L238.071 80.9681L238.359 81.4709L236.359 82.635ZM241.024 79.9181L240.736 79.4153L242.736 78.2512L243.024 78.754L241.024 79.9181ZM245.689 77.2012L245.401 76.6985L247.401 75.5344L247.688 76.0371L245.689 77.2012ZM250.353 74.4844L250.066 73.9816L252.066 72.8175L252.353 73.3203L250.353 74.4844ZM255.018 71.7675L254.731 71.2647L256.73 70.1007L257.018 70.6034L255.018 71.7675ZM259.683 69.0506L259.395 68.5479L261.395 67.3838L261.683 67.8866L259.683 69.0506Z" fill="white"/>
<path d="M265.089 65.2754L264.093 65.8555L264.38 66.3579L265.377 65.7777L265.089 65.2754Z" fill="white"/>
<path d="M176.755 82.0224L175.759 82.6025L176.046 83.1049L177.043 82.5248L176.755 82.0224Z" fill="white"/>
<path d="M179.709 80.9582L179.422 80.4555L181.424 79.2894L181.711 79.7922L179.709 80.9582ZM184.382 78.2375L184.094 77.7347L186.096 76.5687L186.383 77.0715L184.382 78.2375ZM189.054 75.5168L188.767 75.014L190.768 73.848L191.056 74.3507L189.054 75.5168ZM193.727 72.796L193.439 72.2933L195.441 71.1272L195.728 71.63L193.727 72.796ZM198.399 70.0753L198.111 69.5725L200.113 68.4065L200.401 68.9093L198.399 70.0753ZM203.071 67.3546L202.784 66.8518L204.785 65.6858L205.073 66.1885L203.071 67.3546ZM207.744 64.6338L207.456 64.1311L209.458 62.965L209.745 63.4678L207.744 64.6338ZM212.416 61.9131L212.129 61.4103L214.13 60.2443L214.418 60.7471L212.416 61.9131ZM217.089 59.1924L216.801 58.6896L218.803 57.5236L219.09 58.0263L217.089 59.1924ZM221.761 56.4716L221.473 55.9689L223.475 54.8028L223.763 55.3056L221.761 56.4716ZM226.433 53.7509L226.146 53.2481L228.147 52.0821L228.435 52.5849L226.433 53.7509ZM231.106 51.0302L230.818 50.5274L232.82 49.3614L233.107 49.8641L231.106 51.0302ZM235.778 48.3094L235.491 47.8067L237.492 46.6407L237.78 47.1434L235.778 48.3094ZM240.451 45.5887L240.163 45.0859L242.165 43.9199L242.452 44.4227L240.451 45.5887Z" fill="white"/>
<path d="M245.842 41.7998L244.846 42.3799L245.134 42.8823L246.13 42.3022L245.842 41.7998Z" fill="white"/>
<path d="M178.859 46.1172L177.862 46.6973L178.15 47.1997L179.146 46.6195L178.859 46.1172Z" fill="white"/>
<path d="M182.947 43.7348L181.195 44.7549L181.482 45.2573L183.234 44.2372L182.947 43.7348Z" fill="white"/>
<path d="M186.28 41.7949L185.284 42.375L185.571 42.8774L186.568 42.2973L186.28 41.7949Z" fill="white"/>
<path d="M78.0836 70.1054L77.0874 70.6855L77.375 71.1879L78.3712 70.6078L78.0836 70.1054Z" fill="white"/>
<path d="M80.9663 69.0906L80.6787 68.5879L82.6228 67.4566L82.9104 67.9594L80.9663 69.0906ZM85.5026 66.4492L85.215 65.9464L87.1591 64.8152L87.4467 65.318L85.5026 66.4492ZM90.0388 63.8077L89.7513 63.305L91.6954 62.1737L91.983 62.6765L90.0388 63.8077ZM94.5751 61.1663L94.2875 60.6635L96.2316 59.5323L96.5192 60.0351L94.5751 61.1663ZM99.1114 58.5248L98.8238 58.0221L100.768 56.8908L101.056 57.3936L99.1114 58.5248ZM103.648 55.8834L103.36 55.3806L105.304 54.2494L105.592 54.7522L103.648 55.8834ZM108.184 53.2419L107.896 52.7392L109.84 51.6079L110.128 52.1107L108.184 53.2419ZM112.72 50.6005L112.433 50.0977L114.377 48.9665L114.664 49.4693L112.72 50.6005ZM117.256 47.959L116.969 47.4563L118.913 46.325L119.201 46.8278L117.256 47.959ZM121.793 45.3176L121.505 44.8148L123.449 43.6836L123.737 44.1864L121.793 45.3176Z" fill="white"/>
<path d="M127.035 41.6045L126.039 42.1846L126.326 42.687L127.322 42.1068L127.035 41.6045Z" fill="white"/>
<path d="M124.307 162.478L124.02 162.98L125.016 163.561L125.303 163.058L124.307 162.478Z" fill="white"/>
<path d="M121.277 161.38L119.22 160.183L119.507 159.68L121.564 160.877L121.277 161.38ZM116.478 158.585L114.421 157.388L114.708 156.886L116.766 158.083L116.478 158.585ZM111.679 155.791L109.622 154.594L109.909 154.091L111.967 155.288L111.679 155.791ZM106.88 152.997L104.823 151.8L105.11 151.297L107.168 152.494L106.88 152.997ZM102.081 150.203L100.024 149.006L100.311 148.503L102.369 149.7L102.081 150.203ZM97.2822 147.409L95.2249 146.212L95.5125 145.709L97.5698 146.906L97.2822 147.409ZM92.4832 144.614L90.426 143.417L90.7136 142.915L92.7708 144.112L92.4832 144.614ZM87.6843 141.82L85.6271 140.623L85.9147 140.12L87.9719 141.317L87.6843 141.82ZM82.8854 139.026L80.8281 137.829L81.1157 137.326L83.173 138.523L82.8854 139.026Z" fill="white"/>
<path d="M77.3774 135.143L77.0898 135.646L78.0861 136.226L78.3737 135.723L77.3774 135.143Z" fill="white"/>
<path d="M184.231 162.687L183.943 163.189L184.94 163.77L185.227 163.267L184.231 162.687Z" fill="white"/>
<path d="M181.263 161.627L179.253 160.457L179.541 159.955L181.55 161.125L181.263 161.627ZM176.573 158.897L174.564 157.727L174.851 157.224L176.86 158.394L176.573 158.897ZM171.883 156.166L169.874 154.997L170.162 154.494L172.171 155.664L171.883 156.166ZM167.194 153.436L165.184 152.266L165.472 151.763L167.481 152.933L167.194 153.436ZM162.504 150.706L160.495 149.536L160.782 149.033L162.792 150.203L162.504 150.706ZM157.814 147.975L155.805 146.805L156.093 146.303L158.102 147.473L157.814 147.975ZM153.125 145.245L151.115 144.075L151.403 143.572L153.412 144.742L153.125 145.245ZM148.435 142.514L146.426 141.345L146.713 140.842L148.723 142.012L148.435 142.514ZM143.745 139.784L141.736 138.614L142.024 138.111L144.033 139.281L143.745 139.784ZM139.056 137.054L137.046 135.884L137.334 135.381L139.343 136.551L139.056 137.054ZM134.366 134.323L132.357 133.153L132.644 132.651L134.654 133.821L134.366 134.323ZM129.676 131.593L127.667 130.423L127.955 129.92L129.964 131.09L129.676 131.593ZM124.987 128.862L122.977 127.693L123.265 127.19L125.274 128.36L124.987 128.862ZM120.297 126.132L118.288 124.962L118.575 124.459L120.585 125.629L120.297 126.132ZM115.607 123.402L113.598 122.232L113.886 121.729L115.895 122.899L115.607 123.402ZM110.918 120.671L108.908 119.501L109.196 118.999L111.205 120.169L110.918 120.671ZM106.228 117.941L104.219 116.771L104.506 116.268L106.516 117.438L106.228 117.941ZM101.538 115.21L99.5291 114.041L99.8167 113.538L101.826 114.708L101.538 115.21ZM96.8488 112.48L94.8395 111.31L95.1271 110.807L97.1364 111.977L96.8488 112.48ZM92.1591 109.75L90.1498 108.58L90.4374 108.077L92.4467 109.247L92.1591 109.75ZM87.4695 107.019L85.4602 105.849L85.7478 105.347L87.7571 106.517L87.4695 107.019ZM82.7798 104.289L80.7705 103.119L81.0581 102.616L83.0674 103.786L82.7798 104.289Z" fill="white"/>
<path d="M77.3769 100.462L77.0894 100.965L78.0856 101.545L78.3732 101.043L77.3769 100.462Z" fill="white"/>
<path d="M244.191 162.92L243.903 163.423L244.9 164.003L245.187 163.501L244.191 162.92Z" fill="white"/>
<path d="M241.237 161.869L239.239 160.705L239.527 160.202L241.524 161.366L241.237 161.869ZM236.576 159.154L234.578 157.99L234.866 157.487L236.863 158.651L236.576 159.154ZM231.915 156.439L229.917 155.275L230.205 154.772L232.203 155.936L231.915 156.439ZM227.254 153.724L225.256 152.56L225.544 152.057L227.542 153.221L227.254 153.724ZM222.593 151.009L220.595 149.845L220.883 149.342L222.881 150.507L222.593 151.009ZM217.932 148.294L215.935 147.13L216.222 146.628L218.22 147.792L217.932 148.294ZM213.271 145.579L211.274 144.415L211.561 143.913L213.559 145.077L213.271 145.579ZM208.611 142.865L206.613 141.7L206.9 141.198L208.898 142.362L208.611 142.865ZM203.95 140.15L201.952 138.985L202.239 138.483L204.237 139.647L203.95 140.15ZM199.289 137.435L197.291 136.271L197.579 135.768L199.576 136.932L199.289 137.435ZM194.628 134.72L192.63 133.556L192.918 133.053L194.915 134.217L194.628 134.72ZM189.967 132.005L187.969 130.841L188.257 130.338L190.255 131.502L189.967 132.005ZM185.306 129.29L183.308 128.126L183.596 127.623L185.594 128.787L185.306 129.29ZM180.645 126.575L178.647 125.411L178.935 124.908L180.933 126.072L180.645 126.575ZM175.984 123.86L173.986 122.696L174.274 122.193L176.272 123.357L175.984 123.86ZM171.323 121.145L169.326 119.981L169.613 119.478L171.611 120.642L171.323 121.145ZM166.662 118.43L164.665 117.266L164.952 116.763L166.95 117.927L166.662 118.43ZM162.002 115.715L160.004 114.551L160.291 114.048L162.289 115.212L162.002 115.715ZM157.341 113L155.343 111.836L155.63 111.333L157.628 112.498L157.341 113ZM152.68 110.285L150.682 109.121L150.97 108.618L152.967 109.783L152.68 110.285ZM148.019 107.57L146.021 106.406L146.309 105.904L148.306 107.068L148.019 107.57ZM143.358 104.855L141.36 103.691L141.648 103.189L143.646 104.353L143.358 104.855ZM138.697 102.141L136.699 100.976L136.987 100.474L138.985 101.638L138.697 102.141ZM134.036 99.4256L132.038 98.2615L132.326 97.7588L134.324 98.9229L134.036 99.4256ZM129.375 96.7107L127.378 95.5466L127.665 95.0438L129.663 96.2079L129.375 96.7107ZM124.714 93.9958L122.717 92.8317L123.004 92.3289L125.002 93.493L124.714 93.9958ZM120.054 91.2808L118.056 90.1167L118.343 89.614L120.341 90.7781L120.054 91.2808ZM115.393 88.5659L113.395 87.4018L113.682 86.8991L115.68 88.0631L115.393 88.5659ZM110.732 85.851L108.734 84.6869L109.022 84.1841L111.019 85.3482L110.732 85.851ZM106.071 83.136L104.073 81.972L104.361 81.4692L106.358 82.6333L106.071 83.136ZM101.41 80.4211L99.4121 79.257L99.6997 78.7543L101.698 79.9184L101.41 80.4211ZM96.749 77.7062L94.7512 76.5421L95.0388 76.0393L97.0366 77.2034L96.749 77.7062ZM92.0881 74.9913L90.0903 73.8272L90.3779 73.3244L92.3757 74.4885L92.0881 74.9913ZM87.4273 72.2763L85.4294 71.1122L85.717 70.6095L87.7148 71.7736L87.4273 72.2763ZM82.7664 69.5614L80.7686 68.3973L81.0561 67.8945L83.0539 69.0586L82.7664 69.5614Z" fill="white"/>
<path d="M77.3769 65.7818L77.0894 66.2842L78.0856 66.8643L78.3732 66.3619L77.3769 65.7818Z" fill="white"/>
<path d="M165.076 82.1695L164.788 82.6719L165.784 83.252L166.072 82.7496L165.076 82.1695Z" fill="white"/>
<path d="M162.095 81.1026L160.075 79.9269L160.362 79.4241L162.383 80.5998L162.095 81.1026ZM157.383 78.3586L155.362 77.1829L155.65 76.6802L157.67 77.8559L157.383 78.3586ZM152.67 75.6147L150.649 74.439L150.937 73.9362L152.958 75.1119L152.67 75.6147ZM147.957 72.8708L145.937 71.6951L146.224 71.1923L148.245 72.368L147.957 72.8708ZM143.245 70.1268L141.224 68.9511L141.512 68.4484L143.532 69.6241L143.245 70.1268ZM138.532 67.3829L136.511 66.2072L136.799 65.7044L138.82 66.8801L138.532 67.3829ZM133.819 64.6389L131.799 63.4633L132.086 62.9605L134.107 64.1362L133.819 64.6389ZM129.107 61.895L127.086 60.7193L127.374 60.2165L129.394 61.3922L129.107 61.895ZM124.394 59.1511L122.373 57.9754L122.661 57.4726L124.682 58.6483L124.394 59.1511ZM119.682 56.4071L117.661 55.2314L117.948 54.7287L119.969 55.9044L119.682 56.4071ZM114.969 53.6632L112.948 52.4875L113.236 51.9847L115.256 53.1604L114.969 53.6632ZM110.256 50.9193L108.235 49.7436L108.523 49.2408L110.544 50.4165L110.256 50.9193ZM105.544 48.1753L103.523 46.9996L103.81 46.4969L105.831 47.6726L105.544 48.1753ZM100.831 45.4314L98.8101 44.2557L99.0976 43.7529L101.118 44.9286L100.831 45.4314Z" fill="white"/>
<path d="M95.3999 41.5943L95.1123 42.0967L96.1085 42.6768L96.3961 42.1744L95.3999 41.5943Z" fill="white"/>
<path d="M163.013 46.2828L162.725 46.7852L163.721 47.3653L164.009 46.8629L163.013 46.2828Z" fill="white"/>
<path d="M158.73 43.7916L158.443 44.2939L160.281 45.3643L160.569 44.8619L158.73 43.7916Z" fill="white"/>
<path d="M155.284 41.7847L154.997 42.2871L155.993 42.8672L156.28 42.3648L155.284 41.7847Z" fill="white"/>
<path d="M264.369 70.6197L264.082 71.1221L265.078 71.7022L265.365 71.1998L264.369 70.6197Z" fill="white"/>
<path d="M261.464 69.6002L259.497 68.4535L259.785 67.9507L261.752 69.0974L261.464 69.6002ZM256.873 66.9259L254.905 65.7792L255.193 65.2764L257.16 66.4231L256.873 66.9259ZM252.281 64.2516L250.314 63.1049L250.601 62.6021L252.568 63.7488L252.281 64.2516ZM247.689 61.5772L245.722 60.4305L246.009 59.9278L247.976 61.0745L247.689 61.5772ZM243.097 58.9029L241.13 57.7562L241.417 57.2534L243.384 58.4001L243.097 58.9029ZM238.505 56.2286L236.538 55.0819L236.825 54.5791L238.793 55.7258L238.505 56.2286ZM233.913 53.5543L231.946 52.4076L232.234 51.9048L234.201 53.0515L233.913 53.5543ZM229.321 50.8799L227.354 49.7332L227.642 49.2305L229.609 50.3772L229.321 50.8799ZM224.729 48.2056L222.762 47.0589L223.05 46.5562L225.017 47.7029L224.729 48.2056ZM220.138 45.5313L218.17 44.3846L218.458 43.8818L220.425 45.0285L220.138 45.5313Z" fill="white"/>
<path d="M214.845 41.7847L214.558 42.2871L215.554 42.8672L215.841 42.3648L214.845 41.7847Z" fill="white"/>
<path d="M264.183 105.198L263.896 105.7L264.892 106.28L265.179 105.778L264.183 105.198Z" fill="white"/>
<path d="M261.28 104.175L259.318 103.034L259.606 102.532L261.567 103.672L261.28 104.175ZM256.705 101.511L254.744 100.37L255.031 99.8669L256.993 101.008L256.705 101.511ZM252.13 98.8459L250.169 97.705L250.457 97.2022L252.418 98.3431L252.13 98.8459ZM247.556 96.1812L245.594 95.0404L245.882 94.5376L247.843 95.6785L247.556 96.1812ZM242.981 93.5166L241.02 92.3757L241.307 91.8729L243.269 93.0138L242.981 93.5166ZM238.407 90.8519L236.445 89.711L236.733 89.2083L238.694 90.3492L238.407 90.8519ZM233.832 88.1873L231.871 87.0464L232.158 86.5436L234.12 87.6845L233.832 88.1873ZM229.257 85.5226L227.296 84.3817L227.584 83.879L229.545 85.0199L229.257 85.5226ZM224.683 82.858L222.721 81.7171L223.009 81.2143L224.97 82.3552L224.683 82.858ZM220.108 80.1933L218.147 79.0524L218.434 78.5497L220.396 79.6906L220.108 80.1933ZM215.534 77.5287L213.572 76.3878L213.86 75.885L215.821 77.0259L215.534 77.5287ZM210.959 74.864L208.998 73.7231L209.285 73.2204L211.246 74.3612L210.959 74.864ZM206.384 72.2013L204.423 71.0604L204.71 70.5576L206.672 71.6985L206.384 72.2013ZM201.81 69.5366L199.848 68.3958L200.136 67.893L202.097 69.0339L201.81 69.5366ZM197.235 66.872L195.274 65.7311L195.561 65.2283L197.523 66.3692L197.235 66.872ZM192.66 64.2073L190.699 63.0664L190.987 62.5637L192.948 63.7046L192.66 64.2073ZM188.086 61.5427L186.124 60.4018L186.412 59.899L188.373 61.0399L188.086 61.5427ZM183.511 58.878L181.55 57.7371L181.837 57.2344L183.799 58.3753L183.511 58.878Z" fill="white"/>
<path d="M178.229 55.1451L177.941 55.6475L178.937 56.2276L179.225 55.7252L178.229 55.1451Z" fill="white"/>
<path d="M77.964 104.858L76.9678 105.438L77.2554 105.941L78.2516 105.361L77.964 104.858Z" fill="white"/>
<path d="M80.8623 103.834L80.5747 103.331L82.5284 102.192L82.816 102.695L80.8623 103.834ZM85.4235 101.179L85.1359 100.676L87.0896 99.5374L87.3772 100.04L85.4235 101.179ZM89.9847 98.5241L89.6971 98.0214L91.6508 96.8824L91.9384 97.3852L89.9847 98.5241ZM94.5459 95.8691L94.2583 95.3664L96.212 94.2293L96.4996 94.7321L94.5459 95.8711V95.8691ZM99.1071 93.2141L98.8195 92.7114L100.773 91.5724L101.061 92.0752L99.1071 93.2141ZM103.668 90.5592L103.381 90.0564L105.334 88.9174L105.622 89.4202L103.668 90.5592ZM108.229 87.9042L107.942 87.4014L109.896 86.2625L110.183 86.7652L108.229 87.9022V87.9042ZM112.791 85.2492L112.503 84.7464L114.457 83.6075L114.744 84.1102L112.791 85.2492ZM117.352 82.5942L117.064 82.0914L119.018 80.9525L119.306 81.4553L117.352 82.5942ZM121.913 79.9392L121.625 79.4365L123.579 78.2975L123.867 78.8003L121.913 79.9392ZM126.474 77.2842L126.187 76.7815L128.14 75.6425L128.428 76.1453L126.474 77.2842ZM131.035 74.6293L130.748 74.1265L132.702 72.9875L132.989 73.4903L131.035 74.6293ZM135.597 71.9743L135.309 71.4715L137.263 70.3325L137.55 70.8353L135.597 71.9743ZM140.158 69.3193L139.87 68.8165L141.824 67.6776L142.112 68.1803L140.158 69.3193ZM144.719 66.6643L144.431 66.1615L146.385 65.0226L146.673 65.5253L144.719 66.6643ZM149.28 64.0093L148.993 63.5065L150.946 62.3676L151.234 62.8704L149.28 64.0093ZM153.841 61.3543L153.554 60.8516L155.508 59.7126L155.795 60.2154L153.841 61.3543ZM158.403 58.6993L158.115 58.1966L160.069 57.0576L160.356 57.5604L158.403 58.6993Z" fill="white"/>
<path d="M163.659 54.9638L162.663 55.5439L162.95 56.0463L163.946 55.4662L163.659 54.9638Z" fill="white"/>
<path d="M78.0807 139.473L77.0845 140.053L77.3721 140.555L78.3683 139.975L78.0807 139.473Z" fill="white"/>
<path d="M81.0679 138.398L80.7803 137.895L82.7992 136.719L83.0868 137.222L81.0679 138.398ZM85.7805 135.654L85.4929 135.151L87.5118 133.975L87.7994 134.478L85.7805 135.654ZM90.4932 132.91L90.2056 132.407L92.2264 131.231L92.514 131.734L90.4932 132.91ZM95.2058 130.166L94.9183 129.663L96.9371 128.487L97.2247 128.99L95.2058 130.166ZM99.9185 127.422L99.6309 126.919L101.652 125.743L101.939 126.246L99.9185 127.422ZM104.631 124.678L104.344 124.175L106.364 123L106.652 123.502L104.631 124.678ZM109.344 121.934L109.056 121.431L111.075 120.256L111.363 120.758L109.344 121.934ZM114.057 119.19L113.769 118.687L115.79 117.512L116.077 118.014L114.057 119.19ZM118.769 116.446L118.482 115.943L120.5 114.768L120.788 115.27L118.769 116.446ZM123.482 113.702L123.194 113.199L125.213 112.024L125.501 112.527L123.482 113.702ZM128.194 110.958L127.907 110.456L129.928 109.28L130.215 109.783L128.194 110.958ZM132.907 108.214L132.62 107.712L134.638 106.536L134.926 107.039L132.907 108.214ZM137.62 105.47L137.332 104.968L139.353 103.792L139.641 104.295L137.62 105.47ZM142.332 102.726L142.045 102.224L144.064 101.048L144.351 101.551L142.332 102.726ZM147.045 99.9825L146.758 99.4798L148.776 98.3041L149.064 98.8068L147.045 99.9825ZM151.758 97.2386L151.47 96.7358L153.491 95.5601L153.779 96.0629L151.758 97.2386ZM156.47 94.4947L156.183 93.9919L158.202 92.8162L158.489 93.319L156.47 94.4947ZM161.183 91.7507L160.896 91.248L162.916 90.0723L163.204 90.575L161.183 91.7507Z" fill="white"/>
<path d="M166.609 87.9297L165.612 88.5098L165.9 89.0122L166.896 88.432L166.609 87.9297Z" fill="white"/>
<path d="M264.386 139.993L264.099 140.495L265.095 141.075L265.382 140.573L264.386 139.993Z" fill="white"/>
<path d="M261.39 138.922L259.354 137.737L259.641 137.234L261.677 138.419L261.39 138.922ZM256.639 136.157L254.603 134.972L254.89 134.469L256.926 135.654L256.639 136.157ZM251.888 133.39L249.852 132.204L250.139 131.702L252.175 132.887L251.888 133.39ZM247.137 130.625L245.101 129.439L245.388 128.936L247.424 130.122L247.137 130.625ZM242.386 127.857L240.35 126.672L240.637 126.169L242.673 127.355L242.386 127.857ZM237.635 125.092L235.599 123.907L235.886 123.404L237.922 124.589L237.635 125.092ZM232.884 122.325L230.848 121.14L231.135 120.637L233.171 121.822L232.884 122.325ZM228.133 119.56L226.097 118.374L226.384 117.872L228.42 119.057L228.133 119.56ZM223.382 116.793L221.345 115.607L221.633 115.105L223.669 116.29L223.382 116.793ZM218.631 114.027L216.594 112.842L216.882 112.339L218.918 113.525L218.631 114.027ZM213.88 111.26L211.843 110.075L212.131 109.572L214.167 110.758L213.88 111.26ZM209.129 108.495L207.092 107.31L207.38 106.807L209.416 107.992L209.129 108.495ZM204.378 105.73L202.341 104.545L202.629 104.042L204.665 105.227L204.378 105.73ZM199.627 102.963L197.59 101.777L197.878 101.275L199.914 102.46L199.627 102.963ZM194.876 100.198L192.839 99.0122L193.127 98.5094L195.163 99.6948L194.876 100.198ZM190.125 97.4304L188.088 96.2451L188.376 95.7423L190.412 96.9277L190.125 97.4304ZM185.374 94.6652L183.337 93.4799L183.625 92.9771L185.661 94.1625L185.374 94.6652ZM180.623 91.8981L178.586 90.7127L178.874 90.21L180.91 91.3953L180.623 91.8981Z" fill="white"/>
<path d="M175.174 88.0503L174.887 88.5527L175.883 89.1328L176.171 88.6305L175.174 88.0503Z" fill="white"/>
</g>
</g>
<g opacity="0.51">
<path d="M62.7405 83.5668C62.8325 82.3718 62.9168 80.7571 63.0415 79.5892C63.1105 78.9085 63.283 77.2745 63.3501 76.6229C63.4038 76.1936 63.4613 75.7662 63.5169 75.3389H53.064V89.4163C54.0418 89.3873 54.8873 89.3177 55.2382 89.2887C57.1037 89.1359 58.4438 88.8246 58.9366 88.7163C60.0984 88.461 61.3102 88.2831 62.5276 88.1632C62.6197 86.0671 62.6964 84.3635 62.7385 83.5687L62.7405 83.5668Z" fill="white"/>
<path d="M66.5675 75.3388C66.5445 75.8474 66.5215 76.356 66.5023 76.8645C66.4448 79.359 66.4333 82.0952 66.533 84.5878C66.5541 85.048 66.6078 86.2972 66.6806 87.9447C69.1999 87.9157 71.5333 88.0453 73.2722 88.142C74.2577 88.1961 75.1473 88.2696 75.9583 88.3527V75.3369H66.5675V75.3388Z" fill="white"/>
</g>
<path d="M171.766 95.2697C171.289 95.5482 170.514 95.5482 170.037 95.2697C169.797 95.1305 169.678 95.4573 169.678 95.2736V102.535C169.678 102.718 169.797 102.9 170.037 103.039C170.514 103.318 171.289 103.318 171.766 103.039C172.006 102.9 172.125 102.716 172.125 102.535V95.2736C172.125 95.4573 172.006 95.1286 171.766 95.2697ZM171.283 102.02C171.283 102.378 170.993 102.67 170.639 102.67C170.284 102.67 169.995 102.378 169.995 102.02V97.3427C169.995 96.9849 170.284 96.6929 170.639 96.6929C170.993 96.6929 171.283 96.9849 171.283 97.3427V102.02Z" fill="white"/>
<path d="M95.298 138.018L95.043 137.498C105.201 132.105 113.759 124.038 119.791 114.17C125.995 104.022 129.274 92.3228 129.274 80.3396C129.274 64.4948 123.524 49.2552 113.083 37.4286L113.501 37.0303L167.614 91.7524L167.888 93.4888C167.888 94.1308 168.601 94.711 169.748 95.0068L169.606 95.5695C168.181 95.2041 167.328 94.4364 167.313 93.514L167.077 92.0289L117.122 41.5126C125.365 52.6991 129.849 66.2815 129.849 80.3377C129.849 92.4292 126.54 104.233 120.28 114.472C115.218 122.754 108.393 129.777 100.34 135.037L170.173 102.653L170.413 103.181L95.2961 138.016L95.298 138.018Z" fill="white"/>
<path d="M75.958 74.8555H52.8223V75.8223H75.958V74.8555Z" fill="white"/>
<path d="M70.1677 45.8787C66.9755 55.8818 64.6479 66.1769 63.3499 76.6228C63.2828 77.2745 63.1102 78.9084 63.0412 79.5891C62.9166 80.7571 62.8341 82.3717 62.7402 83.5668C62.6865 84.6187 62.5676 87.2505 62.4373 90.2825C62.2896 93.6627 61.4652 96.9616 60.1749 100.083C59.7953 101.003 59.5786 102.057 59.5786 103.177C59.5786 106.769 61.7988 109.682 64.5348 109.682C67.2707 109.682 69.4909 106.769 69.4909 103.177C69.4909 102.096 69.2896 101.075 68.9349 100.179C67.7174 97.1105 66.939 93.8831 66.7952 90.5823C66.6687 87.6933 66.5632 85.2723 66.5326 84.5878C66.4329 82.0952 66.4444 79.359 66.5019 76.8645C66.8662 66.8189 68.2102 56.779 70.3652 46.9519C70.7161 45.3876 71.0995 43.742 71.5635 42.2124C71.6479 41.8953 71.7706 41.5955 71.8837 41.2881C71.18 42.7461 70.6931 44.3491 70.1677 45.8787Z" fill="black"/>
<path d="M71.8837 41.2885C71.7706 41.596 71.6479 41.8957 71.5636 42.2128C71.1015 43.7424 70.7161 45.388 70.3653 46.9523C68.2102 56.7814 66.8662 66.8212 66.502 76.8649C66.4444 79.3594 66.4329 82.0956 66.5326 84.5882C66.5633 85.2727 66.6688 87.6937 66.7953 90.5827C66.9391 93.8835 67.7194 97.1109 68.935 100.18C69.2916 101.077 69.491 102.096 69.491 103.179C69.491 106.772 67.2708 109.684 64.5348 109.684C61.7989 109.684 59.5787 106.772 59.5787 103.179C59.5787 102.059 59.7953 101.005 60.1749 100.085C61.4653 96.962 62.2897 93.6631 62.4373 90.2849C62.5696 87.2528 62.6866 84.621 62.7403 83.5691C62.8323 82.3741 62.9166 80.7594 63.0413 79.5914C63.1103 78.9108 63.2828 77.2768 63.35 76.6251C64.6479 66.1792 66.9755 55.8841 70.1678 45.8811C70.6931 44.3496 71.1801 42.7484 71.8837 41.2904M71.3661 41.0371C70.7794 42.2534 70.3423 43.5606 69.9185 44.8233C69.8208 45.1153 69.723 45.4054 69.6252 45.6935V45.6993L69.6214 45.7051C66.3524 55.946 64.0517 66.3262 62.7805 76.5555V76.5613V76.5671C62.7518 76.8533 62.7019 77.3251 62.6501 77.826C62.583 78.468 62.5121 79.1506 62.4718 79.5334C62.3894 80.3069 62.3261 81.2602 62.2648 82.1807C62.2322 82.6622 62.2015 83.1166 62.1708 83.5266V83.5343V83.542C62.1229 84.4528 62.0251 86.6514 61.866 90.2636C61.7299 93.4039 60.9821 96.6352 59.6477 99.8664C59.2278 100.88 59.0073 102.028 59.0073 103.185C59.0073 107.091 61.4883 110.27 64.5387 110.27C67.589 110.27 70.07 107.091 70.07 103.185C70.07 102.053 69.8687 100.972 69.4718 99.9708C68.2122 96.7957 67.5066 93.6302 67.3724 90.5633L67.1097 84.5688C67.0215 82.3915 67.0119 79.8042 67.0791 76.8843C67.4337 67.1461 68.7279 57.1159 70.9289 47.0819C71.253 45.6335 71.6402 43.9551 72.1157 42.3868V42.3772L72.1215 42.3675C72.1828 42.1413 72.2672 41.9169 72.3554 41.681C72.3784 41.6192 72.4014 41.5573 72.4244 41.4954L71.368 41.039L71.3661 41.0371Z" fill="white"/>
</g>
<defs>
<clipPath id="clip0_3190_29090">
<rect width="265" height="164" fill="white" transform="translate(0.5)"/>
</clipPath>
</defs>
</svg>
