<svg width="181" height="180" viewBox="0 0 181 180" fill="none" xmlns="http://www.w3.org/2000/svg">
<g clip-path="url(#clip0_1174_12670)">
<path d="M180.599 89.9314C180.599 40.258 140.324 0 90.6386 0C40.9533 0 0.667969 40.258 0.667969 89.9314V180H180.668V89.9314H180.599Z" fill="#25355B"/>
<path d="M114.565 28.5206C122.103 49.4286 104.312 73.0602 74.8188 81.2901C45.3252 89.52 15.3023 79.2424 7.76477 58.3247C0.227195 37.4168 18.0272 13.795 47.511 5.56506C77.0046 -2.66485 107.027 7.61275 114.565 28.5304V28.5206Z" fill="#8D8D8D"/>
<path d="M115.751 33.233C123.289 54.141 105.499 77.7726 76.0049 86.0025C46.5114 94.2324 16.4885 83.9548 8.95091 63.0371C1.41334 42.1292 19.2036 18.5074 48.6972 10.2775C78.1907 2.04755 108.214 12.3251 115.751 33.2428V33.233Z" fill="#DDDDDD"/>
<path d="M85.5522 42.2175C88.7672 51.0059 81.0237 60.9993 68.2618 64.5264C55.4999 68.0535 42.5517 63.7916 39.3368 55.0033C36.1218 46.2149 43.8652 36.2214 56.6271 32.6943C69.389 29.1672 82.3372 33.4291 85.5522 42.2175Z" fill="#25355B"/>
<path d="M41.8748 16.6753C30.8674 21.2997 22.3007 28.4225 17.3116 36.5348C16.1059 38.4943 17.4782 40.5714 20.1737 40.8751L31.6516 42.1782C33.6609 42.4035 35.7977 41.5609 36.8073 40.1305C39.5322 36.2801 43.6588 32.8706 48.8145 30.431C50.6572 29.559 51.5786 27.9228 51.0591 26.4924L48.1088 18.3016C47.4129 16.3715 44.4331 15.6073 41.8748 16.6753Z" fill="white"/>
<path d="M12.6946 49.0171C11.4694 57.923 14.6745 66.2313 21.2221 72.6193C22.8002 74.1673 26.0936 74.0889 28.0932 72.4723L36.6207 65.5847C38.1106 64.3796 38.4145 62.6748 37.3461 61.4599C34.4447 58.1973 32.9353 54.2 33.1901 49.9184C33.2783 48.39 31.8963 47.1555 29.8967 46.9302L18.4188 45.6271C15.7135 45.3234 12.9984 46.94 12.7044 49.0073L12.6946 49.0171Z" fill="white"/>
<path d="M33.1702 80.4865C42.9523 84.768 54.7243 85.9535 66.261 84.2292C69.0545 83.8177 70.9659 81.6622 70.2699 79.7419L67.3196 71.5512C66.8001 70.1208 64.9672 69.2586 62.8794 69.4741C57.2532 70.062 51.6171 69.4741 46.7064 67.642C44.9519 66.9856 42.6583 67.3971 41.1684 68.5923L32.6409 75.48C30.6315 77.0966 30.8864 79.4872 33.1604 80.4865H33.1702Z" fill="white"/>
<path d="M82.828 79.6046C93.8354 74.9802 102.402 67.8574 107.391 59.745C108.597 57.7855 107.225 55.7085 104.529 55.4047L93.0512 54.1017C91.0419 53.8763 88.9051 54.7189 87.8955 56.1494C85.1706 59.9998 81.044 63.4093 75.8883 65.8489C74.0456 66.7209 73.1242 68.3571 73.6437 69.7875L76.594 77.9782C77.2899 79.9083 80.2697 80.6725 82.828 79.6046Z" fill="white"/>
<path d="M112.008 47.2629C113.233 38.3569 110.028 30.0486 103.48 23.6606C101.902 22.1126 98.6085 22.191 96.6089 23.8076L88.0813 30.6953C86.5915 31.9004 86.2876 33.6051 87.356 34.82C90.2573 38.0826 91.7668 42.08 91.512 46.3615C91.4238 47.8899 92.8058 49.1244 94.8054 49.3497L106.283 50.6528C108.989 50.9565 111.704 49.3399 111.998 47.2727L112.008 47.2629Z" fill="white"/>
<path d="M91.5306 15.8031C81.7484 11.5216 69.9765 10.3361 58.4398 12.0604C55.6462 12.4719 53.7349 14.6274 54.4308 16.5477L57.3812 24.7384C57.9007 26.1689 59.7336 27.031 61.8214 26.8155C67.4476 26.2276 73.0836 26.8155 77.9943 28.6476C79.7488 29.3041 82.0425 28.8926 83.5323 27.6973L92.0599 20.8096C94.0692 19.193 93.8144 16.8024 91.5404 15.8031H91.5306Z" fill="white"/>
<path d="M63.9091 180H0.667969V135.147L17.4682 126.721H46.952L63.9091 135.147V180Z" fill="#008DB5"/>
<path d="M54.3816 107.734C54.3816 112.25 51.9703 115.865 48.9906 115.865C46.0108 115.865 43.5996 113.269 43.5996 110.056C43.5996 106.842 46.0108 104.246 48.9906 104.246C51.9703 104.246 54.3816 104.52 54.3816 107.724V107.734Z" fill="#FFD1BB"/>
<path d="M10.0391 107.734C10.0391 112.25 12.4503 115.865 15.43 115.865C18.4 115.865 20.821 113.269 20.821 110.056C20.821 106.852 18.4098 104.246 15.43 104.246C12.4601 104.246 10.0391 104.52 10.0391 107.724V107.734Z" fill="#FFD1BB"/>
<path d="M46.9525 126.613C46.9525 133.422 40.3559 141.692 32.2106 141.692C24.0654 141.692 17.4688 133.413 17.4688 126.613C17.4688 119.814 24.0654 117.041 32.2106 117.041C40.3559 117.041 46.9525 119.804 46.9525 126.613Z" fill="#FFC5B2"/>
<path d="M44.6577 95.6338H19.9082V126.124H44.6577V95.6338Z" fill="#FFC5B2"/>
<path d="M14.2928 115.454C14.2928 115.454 12.7441 109.291 12.7441 99.1704C12.7441 89.0495 20.8796 80.4375 32.2105 80.4375C43.5414 80.4375 51.6768 89.0495 51.6768 99.1704C51.6768 109.291 50.1282 115.454 50.1282 115.454C49.8929 118.334 14.5281 118.334 14.2928 115.454Z" fill="#414347"/>
<path d="M45.0895 127.858C33.7097 136.685 30.4359 136.685 19.3304 127.858C16.9584 126.643 15.3901 122.371 15.2039 119.716C15.2039 119.716 13.9395 108.067 13.9395 101.933C13.9395 95.8001 16.4585 94.0954 19.9185 95.6336C23.9275 97.4167 26.3485 108.057 32.2198 108.057C38.0911 108.057 40.4827 98.083 44.6681 95.6336C47.9418 93.7231 50.4903 95.7315 50.4903 101.933C50.4903 108.135 49.2259 119.716 49.2259 119.716C49.0396 122.371 47.4714 126.653 45.0993 127.858H45.0895Z" fill="#FFD7C2"/>
<path d="M117.711 150.921C117.221 146.845 115.81 143.093 113.712 139.87L67.3499 145.415C66.0756 149.05 65.5856 153.018 66.0756 157.103C67.7812 171.359 80.7293 181.529 94.9811 179.824C109.243 178.119 119.417 165.177 117.711 150.931V150.921Z" fill="#25355B"/>
<path d="M60.5569 176.649L89.2271 161.806L61.5077 136.92L62.3605 144.053C62.6643 146.62 61.1744 149.069 58.7436 149.961L50.6669 152.949C27.0446 161.424 39.0812 155.026 50.6865 162.227C55.2738 165.069 56.7538 169.556 58.2633 172.054L60.5667 176.64L60.5569 176.649Z" fill="#FFC5B2"/>
<path d="M88.1593 166.362C83.1016 166.97 78.8966 165.108 78.5536 162.228C78.2105 159.347 80.8374 156.672 84.4248 156.241C88.0123 155.81 90.3941 157.76 91.5409 160.67C92.5995 163.364 91.7468 165.931 88.1495 166.362H88.1593Z" fill="#FFD1BB"/>
<path d="M117.71 150.921C117.24 147.002 115.926 143.397 113.966 140.262C109.79 133.58 102.086 129.974 94.2643 130.915L61.2617 134.863L61.5852 137.557C61.8498 139.781 62.6928 141.898 64.0356 143.691L71.73 154.007C74.4549 157.662 79.3166 158.985 83.5216 157.211L98.087 151.068C102.733 149.109 107.977 149.109 112.623 151.068L117.887 153.282C117.867 152.499 117.808 151.705 117.71 150.911V150.921Z" fill="#FFD7C2"/>
<path d="M86.139 131.885L82.8946 130.66L75.9354 129.406L74.9258 133.227L86.139 131.885Z" fill="#FFD7C2"/>
<path d="M117.878 153.282C117.859 152.499 117.8 151.705 117.702 150.911C117.32 147.757 116.398 144.798 115.026 142.133V145.425C115.026 148.452 112.223 150.715 109.263 150.059C108.273 149.834 107.234 149.677 106.185 149.628C103.43 149.51 100.666 149.99 98.0787 151.078L85.9245 156.202C88.6788 156.408 90.5607 158.191 91.5409 160.67C92.5995 163.364 91.7468 165.931 88.1495 166.362C85.7089 166.656 83.4643 166.362 81.7587 165.676L71.9766 170.742C77.4264 177.218 85.9343 180.902 94.9716 179.824C108.439 178.217 118.261 166.587 117.869 153.292L117.878 153.282Z" fill="#25355B"/>
<path d="M124.024 115.199L122.328 128.347L130.483 131.904L149.116 152.547L161.28 131.904L132.012 115.513L124.024 115.199Z" fill="#008DB5"/>
<path opacity="0.48" d="M115.791 117.1L111.929 118.913L111.625 128.965L115.007 127.348L115.791 117.1Z" fill="white"/>
<path d="M106.184 130.16L109.595 114.327H121.592L128.365 115.199L118.289 119.285L113.378 119.598L108.428 128.867L106.184 130.16Z" fill="white"/>
<path d="M132.248 59.4124C128.641 61.1269 125.622 63.5959 123.299 66.5254L142.814 107.499C146.558 107.548 150.371 106.764 153.978 105.039C166.584 99.0433 171.935 83.9552 165.937 71.3555C159.938 58.7559 144.843 53.4065 132.238 59.4026L132.248 59.4124Z" fill="#25355B"/>
<path d="M168.964 110.79L151.106 87.1001L130.414 108.077L137.383 107.567C139.892 107.381 142.206 108.949 142.96 111.349L145.489 119.324C152.654 142.642 146.989 130.67 154.507 119.726C157.477 115.405 161.907 114.161 164.397 112.819L168.955 110.79H168.964Z" fill="#FFC5B2"/>
<path d="M132.248 59.4121C128.788 61.0581 125.867 63.3899 123.583 66.1724C118.721 72.0901 117.8 80.3102 121.093 87.2272L134.992 116.394L137.384 115.258C139.354 114.317 141.04 112.887 142.275 111.094L149.401 100.807C151.92 97.1619 151.636 92.273 148.695 88.9516L138.511 77.4395C135.267 73.7654 133.63 68.9451 133.983 64.0561L134.384 58.5205C133.669 58.785 132.953 59.079 132.257 59.4121H132.248Z" fill="#FFD7C2"/>
<path d="M142.745 84.5625L123.269 96.8094L122.848 104.109L134.992 116.395L137.384 115.258C139.354 114.318 141.04 112.887 142.275 111.094L149.401 100.807C150.616 99.0432 151.175 96.9858 151.096 94.9675C148.097 91.1954 142.755 84.5723 142.755 84.5723L142.745 84.5625Z" fill="white"/>
<path d="M115.192 120.039L114.173 119.481C114.173 119.481 114.124 119.422 114.143 119.393L114.77 118.237C114.77 118.237 114.829 118.188 114.859 118.207L115.877 118.766C115.877 118.766 115.926 118.825 115.907 118.854L115.28 120.01C115.28 120.01 115.221 120.059 115.192 120.039Z" fill="#F3E8D7"/>
<path d="M116.251 119.118L114.36 118.089C114.193 118.001 114.134 117.795 114.222 117.629L115.32 115.62C115.369 115.532 115.467 115.464 115.565 115.444L115.752 115.415C115.83 115.405 115.899 115.415 115.967 115.454L117.584 116.336C117.653 116.375 117.702 116.434 117.732 116.502L117.81 116.679C117.849 116.777 117.849 116.884 117.8 116.982L116.702 118.991C116.614 119.157 116.408 119.216 116.242 119.128L116.251 119.118Z" fill="#F3E8D7"/>
<path d="M107.046 133.765C107.046 133.765 107.026 133.746 107.017 133.736L106.87 133.462C106.87 133.462 106.86 133.413 106.87 133.393L107.879 131.541C107.879 131.541 107.938 131.492 107.967 131.512L108.418 131.757C108.418 131.757 108.467 131.816 108.447 131.845L107.438 133.697C107.438 133.697 107.408 133.726 107.379 133.736L107.075 133.756C107.075 133.756 107.046 133.756 107.036 133.756L107.046 133.765Z" fill="#B9B9B9"/>
<path d="M108.321 131.865L107.959 131.669C107.822 131.59 107.753 131.434 107.792 131.287L108.41 128.808C108.439 128.71 108.478 128.612 108.547 128.534L108.919 128.053C108.959 128.004 108.988 127.936 109.017 127.877L109.527 126.378C109.586 126.211 109.655 126.045 109.743 125.878L113.281 119.383C113.33 119.294 113.428 119.226 113.526 119.206L113.712 119.177C113.791 119.167 113.859 119.177 113.928 119.216L115.545 120.098C115.614 120.137 115.663 120.196 115.692 120.264L115.771 120.441C115.81 120.539 115.81 120.646 115.761 120.744L112.223 127.24C112.134 127.397 112.036 127.554 111.919 127.691L110.939 128.935C110.899 128.984 110.86 129.043 110.841 129.112L110.635 129.68C110.596 129.778 110.546 129.866 110.478 129.944L108.723 131.806C108.616 131.923 108.449 131.943 108.312 131.874L108.321 131.865Z" fill="#F3E8D7"/>
<path d="M111.104 124.752C111.104 124.752 111.084 124.81 111.075 124.84C111.075 124.869 111.075 124.899 111.094 124.918C111.104 124.948 111.124 124.967 111.153 124.997C111.182 125.016 111.212 125.046 111.241 125.065C111.29 125.095 111.339 125.104 111.378 125.114C111.418 125.114 111.457 125.114 111.486 125.104C111.516 125.095 111.545 125.055 111.565 125.016C111.584 124.987 111.594 124.957 111.604 124.928C111.614 124.899 111.623 124.859 111.623 124.82L111.751 124.889C111.751 124.889 111.741 124.957 111.731 124.997C111.721 125.036 111.702 125.065 111.682 125.104C111.643 125.173 111.594 125.232 111.545 125.261C111.486 125.291 111.427 125.3 111.369 125.3C111.3 125.3 111.231 125.271 111.163 125.232C111.114 125.202 111.065 125.173 111.026 125.134C110.987 125.095 110.967 125.055 110.947 125.006C110.928 124.957 110.928 124.918 110.928 124.859C110.928 124.81 110.947 124.762 110.977 124.703C110.996 124.664 111.016 124.634 111.045 124.605C111.075 124.575 111.104 124.546 111.133 124.526L111.231 124.644C111.231 124.644 111.182 124.683 111.153 124.703C111.133 124.722 111.114 124.752 111.094 124.771L111.104 124.752Z" fill="#606060"/>
<path d="M112.181 124.174L112.103 124.321L111.799 124.155L111.652 124.429L111.956 124.595L111.877 124.742L111.182 124.36L111.26 124.213L111.534 124.36L111.681 124.086L111.407 123.939L111.485 123.792L112.181 124.174Z" fill="#606060"/>
<path d="M112.27 123.165C112.319 123.194 112.367 123.224 112.407 123.263C112.446 123.302 112.475 123.341 112.485 123.39C112.495 123.439 112.505 123.478 112.505 123.537C112.505 123.586 112.485 123.645 112.446 123.704C112.407 123.762 112.377 123.802 112.338 123.841C112.299 123.87 112.26 123.89 112.211 123.9C112.162 123.909 112.113 123.9 112.064 123.9C112.015 123.89 111.956 123.87 111.907 123.841C111.838 123.802 111.78 123.753 111.74 123.704C111.701 123.655 111.682 123.596 111.672 123.527C111.672 123.459 111.691 123.39 111.731 123.312C111.77 123.233 111.819 123.184 111.878 123.145C111.936 123.116 111.995 123.096 112.064 123.106C112.132 123.106 112.201 123.135 112.27 123.175V123.165ZM111.995 123.674C111.995 123.674 112.093 123.714 112.132 123.723C112.172 123.723 112.211 123.723 112.24 123.714C112.27 123.694 112.299 123.665 112.328 123.625C112.358 123.586 112.358 123.547 112.358 123.508C112.358 123.469 112.338 123.439 112.309 123.41C112.279 123.38 112.24 123.351 112.191 123.322C112.123 123.282 112.054 123.263 111.995 123.273C111.936 123.273 111.897 123.312 111.858 123.371C111.838 123.41 111.829 123.449 111.829 123.488C111.829 123.527 111.848 123.557 111.878 123.586C111.907 123.616 111.946 123.645 111.995 123.674Z" fill="#606060"/>
<path d="M112.701 123.214L112.006 122.832L112.084 122.685L112.78 123.067L112.701 123.214Z" fill="#606060"/>
<path d="M112.643 122.841L112.525 122.773L112.663 122.518L112.78 122.587L112.643 122.841Z" fill="#606060"/>
<path d="M112.477 121.969C112.526 121.881 112.585 121.822 112.644 121.803C112.702 121.783 112.771 121.793 112.839 121.832C112.869 121.852 112.898 121.871 112.918 121.891C112.937 121.911 112.957 121.94 112.967 121.979C112.977 122.018 112.977 122.048 112.967 122.087C112.967 122.126 112.947 122.175 112.918 122.224L112.879 122.283L113.124 122.42L113.045 122.567L112.35 122.185L112.467 121.96L112.477 121.969ZM112.585 122.048L112.546 122.116L112.751 122.234L112.781 122.185C112.781 122.185 112.8 122.136 112.81 122.106C112.81 122.087 112.81 122.057 112.81 122.038C112.81 122.018 112.781 121.999 112.761 121.989C112.722 121.969 112.693 121.969 112.673 121.979C112.644 121.989 112.624 122.018 112.604 122.058L112.585 122.048Z" fill="#606060"/>
<path d="M113.603 121.558L113.387 121.96L112.691 121.577L112.907 121.176L113.025 121.244L112.887 121.499L113.044 121.587L113.171 121.352L113.289 121.421L113.162 121.656L113.338 121.754L113.475 121.499L113.593 121.568L113.603 121.558Z" fill="#606060"/>
<path d="M114.015 120.794L113.917 120.98L113.221 120.999C113.221 120.999 113.27 121.029 113.29 121.039C113.31 121.048 113.339 121.058 113.359 121.068C113.378 121.078 113.408 121.088 113.427 121.097L113.76 121.274L113.692 121.411L112.996 121.029L113.094 120.843L113.78 120.823C113.78 120.823 113.741 120.794 113.711 120.784C113.692 120.774 113.672 120.764 113.643 120.755C113.623 120.745 113.604 120.735 113.574 120.725L113.241 120.549L113.31 120.412L114.005 120.794H114.015Z" fill="#606060"/>
<path d="M109.175 116.884L106.577 118.912L105.764 128.876L108.038 127.074L109.175 116.884Z" fill="white"/>
<path d="M120.603 130.003L110.145 130.709L110.88 128.328L118.26 124.879L118.29 119.285L128.366 115.199L127.317 123.547L120.603 130.003Z" fill="white"/>
<path d="M129.729 162.531L130.591 173.348L169.181 177.228L176.708 156.663L129.729 162.531Z" fill="#008DB5"/>
<path d="M117.857 162.58L129.727 162.531L132.727 173.651L123.807 175.709L117.857 162.58Z" fill="white"/>
<path d="M161.256 99.6093L148.336 100.304L148.398 101.459L161.318 100.764L161.256 99.6093Z" fill="white"/>
<path d="M145.038 77.6077L140.998 87.2178L142.064 87.6654L146.103 78.0553L145.038 77.6077Z" fill="white"/>
<path d="M118.289 80.4771L168.484 84.9448L168.964 59.9905L135.668 53.7593L119.367 68.3576L118.289 80.4771Z" fill="#008DB5"/>
<path d="M155.663 81.829C157.79 86.2966 157.378 90.7447 154.839 91.9596C152.291 93.1745 149.007 91.5873 147.498 88.4129C145.988 85.2385 147.047 82.4364 149.37 80.4769C151.526 78.6644 154.153 78.6546 155.673 81.829H155.663Z" fill="#FFD1BB"/>
<path d="M50.0399 110.879C47.6581 115.719 43.2081 119.216 37.9347 120.392L32.2105 121.666L26.7313 120.451C21.3207 119.246 16.7825 115.591 14.4497 110.565L14.332 110.32C14.5477 112.603 15.1946 119.716 15.1946 119.716C15.3808 122.371 16.9491 126.653 19.3211 127.858C30.4364 136.685 33.7004 136.685 45.0802 127.858C47.4523 126.643 49.0205 122.371 49.2068 119.716C49.2068 119.716 49.8047 113.162 50.0203 110.879H50.0399Z" fill="white"/>
<path d="M32.2105 77.4297C22.9576 77.4297 15.6945 82.3187 12.7441 89.03V104.138C14.6653 109.262 21.6246 112.632 21.6246 112.632L43.1395 112.613C43.1395 112.613 50.0693 109.066 51.8827 103.677V89.5002C49.0696 82.5538 41.679 77.4297 32.2105 77.4297Z" fill="#008DB5"/>
<path d="M0.667969 146.522L11.3323 147.698C19.9187 148.648 28.358 150.5 36.4837 153.214L45.3935 156.192C50.8433 158.014 55.2835 161.728 57.7438 166.529L64.654 180H0.667969V146.522Z" fill="#F0F0F0"/>
<path d="M117.858 180V177.845H85.1986C81.9248 177.845 78.749 176.532 76.1907 174.112C71.0154 169.223 63.6739 169.135 58.4201 173.896L57.93 174.337C55.4109 176.61 52.3332 177.845 49.1574 177.845H0.667969V180H117.858Z" fill="#5798F0"/>
<path d="M113.957 140.252C112.006 137.126 109.271 134.667 106.115 133.041V133.236C106.115 136.137 106.86 138.997 108.281 141.535C109.703 144.073 110.448 146.924 110.448 149.833V150.323C111.183 150.529 111.908 150.774 112.624 151.078L117.887 153.292C117.868 152.508 117.809 151.715 117.711 150.921C117.24 147.002 115.927 143.397 113.966 140.261L113.957 140.252Z" fill="#F3A89C"/>
<path d="M94.941 129.778H99.293L103.361 130.758L111.173 177.835C111.173 177.835 95.0488 178.08 94.9312 177.835C94.8136 177.59 94.9312 129.778 94.9312 129.778H94.941Z" fill="#A2C9EA"/>
<mask id="mask0_1174_12670" style="mask-type:luminance" maskUnits="userSpaceOnUse" x="61" y="130" width="57" height="28">
<path d="M117.71 150.921C117.24 147.002 115.926 143.397 113.966 140.262C109.79 133.58 102.086 129.974 94.2643 130.915L61.2617 134.863L61.5852 137.557C61.8498 139.781 62.6928 141.898 64.0356 143.691L71.73 154.007C74.4549 157.662 79.3166 158.985 83.5216 157.211L98.087 151.068C102.733 149.109 107.977 149.109 112.623 151.068L117.887 153.282C117.867 152.499 117.808 151.705 117.71 150.911V150.921Z" fill="white"/>
</mask>
<g mask="url(#mask0_1174_12670)">
<path d="M110.437 155.507C110.222 155.507 110.055 155.33 110.055 155.125V153.675C110.055 153.459 110.231 153.292 110.437 153.292C110.643 153.292 110.82 153.469 110.82 153.675V155.125C110.82 155.34 110.643 155.507 110.437 155.507ZM110.437 151.754C110.222 151.754 110.055 151.578 110.055 151.372V149.834C110.055 149.579 110.055 149.334 110.035 149.08C110.035 148.864 110.192 148.688 110.398 148.678C110.604 148.668 110.79 148.835 110.8 149.04C110.81 149.305 110.82 149.569 110.82 149.824V151.362C110.82 151.578 110.643 151.744 110.437 151.744V151.754ZM110.163 147.149C109.977 147.149 109.82 147.022 109.781 146.836C109.643 146.101 109.457 145.366 109.222 144.651C109.153 144.445 109.261 144.23 109.467 144.161C109.673 144.093 109.888 144.2 109.957 144.406C110.202 145.151 110.398 145.925 110.535 146.689C110.574 146.895 110.437 147.1 110.222 147.14C110.202 147.14 110.173 147.14 110.153 147.14L110.163 147.149ZM108.722 142.77C108.575 142.77 108.438 142.692 108.379 142.554C108.242 142.27 108.095 141.996 107.938 141.722C107.712 141.32 107.507 140.908 107.311 140.497C107.222 140.301 107.311 140.076 107.497 139.987C107.693 139.899 107.918 139.987 108.006 140.174C108.193 140.575 108.389 140.967 108.604 141.349C108.761 141.633 108.918 141.927 109.065 142.221C109.153 142.407 109.075 142.643 108.889 142.741C108.83 142.77 108.781 142.78 108.722 142.78V142.77ZM106.85 138.557C106.683 138.557 106.536 138.449 106.477 138.283C106.252 137.528 106.075 136.754 105.948 135.98C105.919 135.775 106.056 135.569 106.272 135.539C106.477 135.5 106.683 135.647 106.713 135.863C106.83 136.607 107.007 137.342 107.222 138.057C107.281 138.263 107.173 138.479 106.967 138.537C106.928 138.547 106.889 138.557 106.86 138.557H106.85ZM106.115 134.011C105.909 134.011 105.732 133.844 105.732 133.639C105.732 133.511 105.732 133.374 105.732 133.247V131.326C105.732 131.111 105.909 130.944 106.115 130.944C106.321 130.944 106.497 131.121 106.497 131.326V133.247C106.497 133.374 106.497 133.501 106.497 133.629C106.497 133.844 106.33 134.021 106.124 134.021L106.115 134.011Z" fill="#414347"/>
</g>
<path d="M180.667 120.265C180.001 119.246 179.305 118.246 178.589 117.267C176.041 113.779 172.434 111.192 168.307 109.909C161.466 109.987 155.31 114.112 152.634 120.402L143.636 141.545C143.636 141.545 141.294 177.198 140.598 179.99H180.667V120.255V120.265Z" fill="#008DB5"/>
<path d="M104.715 172.152L112.654 176.189L123.809 175.709L126.72 173.397L105.058 171.251L104.715 172.152Z" fill="white"/>
<path d="M101.068 159.837L109.292 164.746L123.465 166.48L122.172 162.531L112.566 160.797L102.137 157.27L101.068 159.837Z" fill="white"/>
<path d="M101.705 169.085L109.988 173.181L125.308 173.632L122.328 168.409L110.536 169.34L101.989 167.136L101.705 169.085Z" fill="white"/>
<path d="M99.9805 164.794L109.224 169.37L122.495 170.016L120.652 164.481L109.263 164.422L100.431 162.58L99.9805 164.794Z" fill="white"/>
</g>
<defs>
<clipPath id="clip0_1174_12670">
<rect width="180" height="180" fill="white" transform="translate(0.667969)"/>
</clipPath>
</defs>
</svg>
