<svg width="178" height="178" viewBox="0 0 178 178" fill="none" xmlns="http://www.w3.org/2000/svg">
<g clip-path="url(#clip0_1174_12498)">
<mask id="mask0_1174_12498" style="mask-type:luminance" maskUnits="userSpaceOnUse" x="0" y="0" width="179" height="178">
<path d="M89.0048 178C138.161 178 178.01 138.153 178.01 89C178.01 39.8467 138.161 0 89.0048 0C39.8488 0 0 39.8467 0 89C0 138.153 39.8488 178 89.0048 178Z" fill="white"/>
</mask>
<g mask="url(#mask0_1174_12498)">
<path d="M178 0.00976562H0V178H178V0.00976562Z" fill="#0E8CB2"/>
<mask id="mask1_1174_12498" style="mask-type:luminance" maskUnits="userSpaceOnUse" x="0" y="0" width="178" height="178">
<path d="M178 0.00976562H0V178H178V0.00976562Z" fill="white"/>
</mask>
<g mask="url(#mask1_1174_12498)">
<path d="M112.849 106.802L102.59 114.676C94.668 120.755 82.9934 120.755 75.0713 114.676L64.8123 106.802C60.5167 103.506 57.8792 93.4316 57.472 88.3799L54.7569 59.8736C53.3412 42.1492 69.0012 27.0815 88.8307 27.0815C108.66 27.0815 124.32 42.1589 122.904 59.8736L120.189 88.3799C119.782 93.4316 117.145 103.506 112.849 106.802Z" fill="#414347"/>
<path d="M154.805 178H23.7754V144.423L59.7594 138.043H117.9L154.805 144.423V178Z" fill="#25355B"/>
<path d="M127.228 83.2117C127.228 91.7345 123.049 98.5411 117.9 98.5411C112.751 98.5411 108.572 93.6446 108.572 87.5943C108.572 81.544 112.751 76.6475 117.9 76.6475C123.049 76.6475 127.228 77.1614 127.228 83.202V83.2117Z" fill="#FFD4BF"/>
<path d="M50.4316 83.2117C50.4316 91.7345 54.6109 98.5411 59.7597 98.5411C64.9086 98.5411 69.0878 93.6446 69.0878 87.5943C69.0878 81.5537 64.9086 76.6475 59.7597 76.6475C54.6109 76.6475 50.4316 77.1614 50.4316 83.202V83.2117Z" fill="#FFD4BF"/>
<path d="M110.085 127.727V91.0562H67.5752V127.727C67.5752 132.526 64.3753 136.744 59.7598 138.043L61.4276 144.423C62.5912 148.854 65.0832 152.83 68.5643 155.797L74.3046 160.683C82.6728 167.82 94.9971 167.82 103.365 160.683L109.106 155.797C112.596 152.82 115.088 148.854 116.242 144.423L117.91 138.043C113.285 136.744 110.095 132.526 110.095 127.727H110.085Z" fill="#F6C8B6"/>
<path d="M111.443 112.155L101.785 120.425C94.3287 126.815 83.3328 126.815 75.8761 120.425L66.2183 112.155C62.1749 108.693 59.6925 103.758 59.3144 98.4542L56.9193 65.1289C56.7157 62.3073 56.7642 59.4761 57.1811 56.6739C58.752 46.047 64.9966 50.0806 70.9988 52.7567C77.9415 55.8497 78.6687 57.2945 88.8405 57.2945C99.0025 57.2945 99.4291 57.0036 106.682 52.7567C112.345 49.4407 118.919 46.047 120.5 56.6739C120.917 59.4664 120.965 62.3073 120.762 65.1289L118.367 98.4542C117.988 103.758 115.496 108.693 111.463 112.155H111.443Z" fill="#FFDAC6"/>
<path d="M88.8307 57.3042C78.6687 57.3042 77.9317 55.8595 70.989 52.7664C64.9965 50.0903 58.7519 46.0568 57.1714 56.6836C56.7544 59.4761 56.7059 62.317 56.9096 65.1386L59.3046 98.4639C59.6828 103.768 62.1748 108.703 66.2086 112.164L75.8664 120.435C79.5898 123.625 84.2054 125.225 88.821 125.225V57.3042H88.8307Z" fill="#FBCBB5"/>
<path d="M111.443 112.155L101.785 120.425C94.3287 126.815 83.3328 126.815 75.8761 120.425L66.2183 112.155C62.1749 108.693 59.6925 103.758 59.3144 98.454L56.9193 65.1287C56.7157 62.3072 56.7642 59.4759 57.1811 56.6738C58.752 46.0469 64.3663 39.5894 71.2606 39.5894C79.6384 39.5894 78.6687 47.0941 88.8308 47.0941C98.9928 47.0941 98.9734 39.5894 106.711 39.5894C114.449 39.5894 118.919 46.0469 120.49 56.6738C120.907 59.4662 120.955 62.3072 120.752 65.1287L118.357 98.454C117.979 103.758 115.487 108.693 111.453 112.155H111.443Z" fill="#FFDAC6"/>
<path d="M88.8307 47.1039C78.6687 47.1039 79.6384 39.5991 71.2606 39.5991C64.3663 39.5991 58.752 46.0567 57.1811 56.6836C56.7642 59.476 56.7157 62.317 56.9193 65.1385L59.3144 98.4638C59.6925 103.768 62.1846 108.703 66.2183 112.164L75.8761 120.435C79.5996 123.625 84.2152 125.225 88.8307 125.225V47.1039Z" fill="#FBCBB5"/>
<path opacity="0.15" d="M88.8289 76.6572L81.6438 96.6407C81.2656 97.6976 81.9056 98.8223 83.0886 99.1714L88.8289 100.888V76.6475V76.6572Z" fill="#AA5C5C"/>
<path d="M56.3651 57.7692C56.3651 57.7692 56.3166 57.7692 56.2973 57.7692C56.0451 57.7304 55.8609 57.4977 55.8997 57.2359C55.9676 56.7511 56.0645 56.276 56.1615 55.8203C56.2197 55.5682 56.4718 55.413 56.7239 55.4712C56.976 55.5294 57.1312 55.7815 57.073 56.0336C56.976 56.4699 56.8887 56.9159 56.8209 57.3813C56.7821 57.614 56.5882 57.7789 56.3554 57.7789L56.3651 57.7692Z" fill="#003366"/>
<path d="M57.4802 53.7064C57.422 53.7064 57.3541 53.6967 57.2959 53.6677C57.0632 53.561 56.9469 53.2895 57.0535 53.0568C57.4511 52.1357 57.9359 51.2824 58.508 50.5261C58.6632 50.3225 58.9541 50.274 59.1577 50.4292C59.3613 50.5843 59.4098 50.8752 59.2547 51.0788C58.731 51.7769 58.285 52.5623 57.9165 53.4156C57.839 53.5901 57.6644 53.6967 57.4899 53.6967L57.4802 53.7064ZM120.169 53.6967C119.984 53.6967 119.819 53.5901 119.742 53.4156C119.373 52.5623 118.927 51.7672 118.413 51.0594C118.258 50.8461 118.307 50.5552 118.52 50.4098C118.733 50.2546 119.024 50.3031 119.17 50.5164C119.722 51.2824 120.207 52.1357 120.605 53.0471C120.712 53.2798 120.605 53.561 120.362 53.658C120.304 53.6871 120.236 53.6967 120.178 53.6967H120.169ZM88.8292 53.2119C88.4026 53.2119 87.9565 53.2022 87.5105 53.1732C87.2487 53.1538 87.0547 52.9308 87.0741 52.6787C87.0935 52.4169 87.3165 52.2229 87.5686 52.2423C88.4898 52.3005 89.3819 52.2908 90.3225 52.2326C90.5843 52.2229 90.8073 52.4072 90.817 52.669C90.8364 52.9308 90.6425 53.1538 90.3807 53.1635C89.857 53.2022 89.3334 53.2216 88.8292 53.2216V53.2119ZM84.7469 52.8241C84.7469 52.8241 84.6888 52.8241 84.6694 52.8241C83.7773 52.669 82.8367 52.4557 81.8865 52.1939C81.6343 52.126 81.4889 51.8739 81.5568 51.6218C81.6246 51.3697 81.8865 51.2243 82.1289 51.2921C83.05 51.5442 83.9615 51.7478 84.8342 51.903C85.0863 51.9515 85.2609 52.1939 85.2124 52.446C85.1736 52.669 84.9797 52.8338 84.7566 52.8338L84.7469 52.8241ZM93.1442 52.8144C92.9212 52.8144 92.7272 52.6496 92.6884 52.4266C92.6399 52.1745 92.8145 51.9321 93.0666 51.8836C93.949 51.7284 94.8605 51.5345 95.7816 51.2921C96.0338 51.2243 96.2859 51.3794 96.3537 51.6315C96.4216 51.8836 96.2665 52.1357 96.0144 52.2036C95.0641 52.446 94.1332 52.6496 93.2217 52.8047C93.1927 52.8047 93.1636 52.8047 93.1442 52.8047V52.8144ZM98.5937 51.4182C98.3997 51.4182 98.2155 51.2921 98.1476 51.0982C98.07 50.8558 98.1961 50.5843 98.4385 50.5067C99.3112 50.2159 100.184 49.8862 101.047 49.5371C101.289 49.4402 101.561 49.5565 101.658 49.7892C101.755 50.0219 101.638 50.3031 101.406 50.4001C100.523 50.7588 99.6312 51.0885 98.7391 51.3891C98.6906 51.4085 98.6421 51.4182 98.5937 51.4182ZM79.3169 51.3697C79.2684 51.3697 79.2102 51.3697 79.1617 51.3406C78.2987 51.04 77.4357 50.7104 76.5049 50.3322C76.2624 50.2353 76.1558 49.9638 76.2527 49.7214C76.3497 49.479 76.6212 49.3723 76.8636 49.4693C77.7751 49.8474 78.6284 50.1674 79.472 50.4583C79.7144 50.5455 79.8405 50.8073 79.7629 51.0497C79.695 51.2436 79.5108 51.36 79.3169 51.36V51.3697ZM103.81 49.2947C103.636 49.2947 103.471 49.1978 103.393 49.0329C103.277 48.8002 103.374 48.5191 103.607 48.4027C104.334 48.044 105.003 47.6949 105.595 47.3458C105.75 47.2489 105.915 47.1616 106.079 47.084C106.312 46.9677 106.593 47.055 106.71 47.2877C106.826 47.5204 106.739 47.8015 106.506 47.9179C106.361 47.9955 106.215 48.073 106.07 48.1603C105.459 48.5191 104.77 48.8875 104.024 49.256C103.956 49.285 103.888 49.3044 103.82 49.3044L103.81 49.2947ZM60.8449 49.2753C60.6994 49.2753 60.5637 49.2172 60.4764 49.0911C60.3213 48.8875 60.3601 48.5966 60.5637 48.4318C61.3394 47.8306 62.2024 47.3555 63.1236 46.9968C63.366 46.8998 63.6375 47.0259 63.7248 47.2683C63.812 47.5107 63.6957 47.7822 63.4533 47.8694C62.6097 48.1894 61.8339 48.6354 61.1261 49.1687C61.0388 49.2366 60.9419 49.2657 60.8449 49.2657V49.2753ZM74.1001 49.256C74.0322 49.256 73.9741 49.2463 73.9062 49.2172C73.5086 49.0329 73.1304 48.8681 72.7814 48.7033C72.3644 48.5094 71.9863 48.3348 71.6469 48.1894C71.5499 48.1506 71.4529 48.1021 71.356 48.0633C71.1136 47.9664 71.0069 47.6949 71.1039 47.4525C71.2008 47.2101 71.4723 47.1034 71.7147 47.2004C71.8214 47.2392 71.9184 47.2877 72.025 47.3361C72.3741 47.4913 72.7523 47.6658 73.1692 47.8597C73.5183 48.0246 73.8965 48.1894 74.294 48.3736C74.5268 48.4803 74.6334 48.7615 74.5268 48.9942C74.4492 49.1687 74.2746 49.2657 74.1001 49.2657V49.256ZM116.862 49.2075C116.755 49.2075 116.658 49.1687 116.571 49.1008C115.873 48.5288 115.097 48.0633 114.283 47.7143C114.05 47.6076 113.934 47.3361 114.04 47.1034C114.147 46.8707 114.418 46.7544 114.651 46.861C115.543 47.2489 116.397 47.7628 117.163 48.3833C117.366 48.5481 117.395 48.839 117.23 49.0426C117.133 49.159 117.007 49.2172 116.872 49.2172L116.862 49.2075ZM68.8252 47.3458C68.8252 47.3458 68.7767 47.3458 68.7573 47.3458C67.8652 47.2101 66.944 47.181 66.0713 47.2683C65.8095 47.2974 65.5865 47.1034 65.5574 46.8513C65.5283 46.5895 65.7223 46.3665 65.9744 46.3374C66.9343 46.2405 67.9234 46.2696 68.8931 46.415C69.1452 46.4538 69.3197 46.6962 69.2906 46.9483C69.2518 47.181 69.0579 47.3458 68.8252 47.3458ZM108.95 47.0937C108.727 47.0937 108.533 46.9289 108.494 46.7059C108.445 46.4538 108.62 46.2114 108.872 46.1629C109.832 45.9981 110.831 45.9787 111.81 46.095C112.062 46.1241 112.246 46.3568 112.217 46.6186C112.188 46.8707 111.956 47.055 111.694 47.0259C110.802 46.9192 109.9 46.9386 109.027 47.0937C108.998 47.0937 108.979 47.0937 108.95 47.0937Z" fill="#003366"/>
<path d="M121.292 57.7696C121.06 57.7696 120.866 57.6047 120.827 57.372C120.759 56.9163 120.672 56.4606 120.575 56.0243C120.517 55.7722 120.672 55.5201 120.924 55.4619C121.176 55.4037 121.428 55.5589 121.486 55.811C121.593 56.2667 121.68 56.7418 121.748 57.2266C121.787 57.4787 121.612 57.7211 121.35 57.7599C121.331 57.7599 121.302 57.7599 121.283 57.7599L121.292 57.7696Z" fill="#003366"/>
<path d="M23.7758 144.423V178H1.34766L23.7758 144.423Z" fill="#25355B"/>
<path d="M154.805 144.423V178H177.233L154.805 144.423Z" fill="#25355B"/>
<path d="M65.5781 79.3721C68.1283 80.3126 71.0179 80.1574 73.7135 80.2835C76.3995 80.2253 79.3182 80.458 81.8296 79.3721L81.8684 79.4302C79.0564 81.6119 68.2156 81.4858 65.5781 79.3721Z" fill="#503023"/>
<path d="M112.122 79.4302C108.786 81.4373 99.0316 81.67 95.793 79.4302L95.8318 79.3721C98.3432 80.4483 101.252 80.2156 103.948 80.2835C106.653 80.235 109.62 80.1768 112.122 79.4302Z" fill="#503023"/>
<path d="M131.636 57.8281V53.9142H142.834V57.0671L137.398 62.6662H142.834V66.5801H131.283V63.4816L136.637 57.8281H131.636Z" fill="white"/>
<path d="M147.44 45.0333V40.2554H161.11V44.1043L154.474 50.9394H161.11V55.7173H147.009V51.9348L153.545 45.0333H147.44Z" fill="white"/>
<path d="M51.9351 41.9453L51.8672 42.0811L57.8888 44.8444L58.073 44.7572L51.9351 41.9453Z" fill="#232323"/>
<path d="M31.5328 31.1537L30.3789 33.6747L47.9976 41.7515C48.2885 41.8873 48.6376 41.7515 48.7733 41.4606L49.4424 39.9965C49.5781 39.7057 49.4424 39.3566 49.1515 39.2208L31.5328 31.144V31.1537Z" fill="#CFCFCF"/>
<path d="M49.4653 39.9541L48.75 41.5142L49.0232 41.6394L49.7385 40.0794L49.4653 39.9541Z" fill="#A0A0A0"/>
<path d="M49.3102 40.9874L52.1484 42.2886L52.2737 42.0153L49.4355 40.7142L49.3102 40.9874Z" fill="#A0A0A0"/>
<path d="M49.7245 40.0742L51.1499 40.7239L52.4298 41.6741L52.2747 42.0231L49.4336 40.7142L49.7245 40.0742Z" fill="#CFCFCF"/>
<path d="M49.0078 41.635L50.4332 42.2846L51.9944 42.6337L52.1495 42.2943L49.3084 40.9854L49.0078 41.635Z" fill="#CFCFCF"/>
<path d="M14.5004 23.9292L13.7852 25.4893L23.6132 29.9949L24.3284 28.4348L14.5004 23.9292Z" fill="white"/>
<path d="M31.3988 31.4364L30.5098 33.3755L37.2087 36.4466L38.0977 34.5075L31.3988 31.4364Z" fill="#F9F9F9"/>
<path d="M31.1188 28.4522L28.0556 35.1332C27.9106 35.4496 28.0495 35.8237 28.3659 35.9687L28.5863 36.0697C28.9027 36.2148 29.2768 36.0759 29.4219 35.7595L32.485 29.0786C32.6301 28.7622 32.4912 28.3881 32.1748 28.243L31.9544 28.142C31.638 27.9969 31.2639 28.1358 31.1188 28.4522Z" fill="#E8CA34"/>
<path d="M24.5503 27.9636L23.3945 30.4844L29.0005 33.0544L30.1562 30.5336L24.5503 27.9636Z" fill="#CEAC1D"/>
<path d="M13.1319 22.3525L11.6973 25.4814L13.4337 26.2775L14.8683 23.1486L13.1319 22.3525Z" fill="white"/>
<path d="M14.4397 24.6928L14.0234 25.6006L15.6541 26.3482L16.0703 25.4403L14.4397 24.6928Z" fill="black"/>
<path d="M15.9512 26.3153L16.2421 25.6851" stroke="black" stroke-width="0.5" stroke-miterlimit="10"/>
<path d="M17.0078 26.8002L17.2987 26.1699" stroke="black" stroke-width="0.5" stroke-miterlimit="10"/>
<path d="M18.0742 27.2845L18.3651 26.6543" stroke="black" stroke-width="0.5" stroke-miterlimit="10"/>
<path d="M19.1309 27.7699L19.4218 27.1396" stroke="black" stroke-width="0.5" stroke-miterlimit="10"/>
<path d="M20.1992 28.264L20.4901 27.624" stroke="black" stroke-width="0.5" stroke-miterlimit="10"/>
<path d="M22.3223 29.2338L22.6132 28.6035" stroke="black" stroke-width="0.5" stroke-miterlimit="10"/>
<path d="M21.2539 28.7489L21.5448 28.1187" stroke="black" stroke-width="0.5" stroke-miterlimit="10"/>
<path d="M23.3789 29.7181L23.6698 29.0879" stroke="black" stroke-width="0.5" stroke-miterlimit="10"/>
<path d="M31.0195 33.3638L31.1456 33.0923" stroke="black" stroke-width="0.5" stroke-miterlimit="10"/>
<path d="M31.7559 33.7036L31.8819 33.4321" stroke="black" stroke-width="0.5" stroke-miterlimit="10"/>
<path d="M32.4922 34.0332L32.6085 33.7617" stroke="black" stroke-width="0.5" stroke-miterlimit="10"/>
<path d="M33.2207 34.3726L33.3468 34.1011" stroke="black" stroke-width="0.5" stroke-miterlimit="10"/>
<path d="M33.957 34.7119L34.0831 34.4404" stroke="black" stroke-width="0.5" stroke-miterlimit="10"/>
<path d="M35.4316 35.3809L35.5577 35.1094" stroke="black" stroke-width="0.5" stroke-miterlimit="10"/>
<path d="M34.6953 35.0416L34.8214 34.7798" stroke="black" stroke-width="0.5" stroke-miterlimit="10"/>
<path d="M36.168 35.7202L36.2843 35.4487" stroke="black" stroke-width="0.5" stroke-miterlimit="10"/>
<path d="M38.098 34.5219L37.209 36.4609L37.8348 36.7478L38.7238 34.8088L38.098 34.5219Z" fill="#232323"/>
<path d="M38.6291 34.9128L37.8613 36.5874L39.2011 37.2016L39.9689 35.527L38.6291 34.9128Z" fill="#232323"/>
<path d="M40.0258 35.3944L39.1367 37.3335L39.7625 37.6204L40.6516 35.6813L40.0258 35.3944Z" fill="#232323"/>
<path d="M39.9102 37.2783L40.484 36.0267L43.5778 37.4451C43.8687 37.5785 43.9928 37.9127 43.8595 38.2035L43.7625 38.4151C43.6291 38.7059 43.2949 38.83 43.004 38.6967L39.9102 37.2783Z" fill="#232323"/>
<path opacity="0.85" d="M39.707 37.7373L40.7052 35.5603L48.4706 39.1203C48.9731 39.3506 49.1926 39.942 48.9623 40.4443L48.7966 40.8057C48.5663 41.3081 47.9749 41.5277 47.4725 41.2973L39.707 37.7373Z" fill="#73CAFF"/>
<path d="M47.3594 41.4604L48.523 38.9395" stroke="black" stroke-miterlimit="10"/>
<path d="M37.8066 37.078L37.9424 36.7871" stroke="black" stroke-width="0.5" stroke-miterlimit="10"/>
<path d="M38.8633 37.5721L38.999 37.2715" stroke="black" stroke-width="0.5" stroke-miterlimit="10"/>
<path d="M39.9297 38.057L40.0654 37.7661" stroke="black" stroke-width="0.5" stroke-miterlimit="10"/>
<path d="M40.9883 38.5419L41.124 38.251" stroke="black" stroke-width="0.5" stroke-miterlimit="10"/>
<path d="M42.0547 39.0267L42.1904 38.7358" stroke="black" stroke-width="0.5" stroke-miterlimit="10"/>
<path d="M44.1777 40.0057L44.3135 39.7051" stroke="black" stroke-width="0.5" stroke-miterlimit="10"/>
<path d="M43.1113 39.5116L43.2471 39.2207" stroke="black" stroke-width="0.5" stroke-miterlimit="10"/>
<path d="M46.3008 40.9759L46.4365 40.6851" stroke="black" stroke-width="0.5" stroke-miterlimit="10"/>
<path d="M45.2344 40.4906L45.3701 40.1997" stroke="black" stroke-width="0.5" stroke-miterlimit="10"/>
<path d="M52.041 42.5352L52.3886 41.7772L52.5031 41.8297C52.6794 41.9105 52.7558 42.1162 52.675 42.2925L52.6184 42.4159C52.5376 42.5921 52.3319 42.6685 52.1556 42.5877L52.041 42.5352Z" fill="#F9F9F9"/>
<g opacity="0.5">
<path d="M70.048 36.6123L69.9316 36.7093L74.0236 41.9063L74.2369 41.916L70.048 36.6123Z" fill="#232323"/>
<path d="M56.8106 17.705L54.6289 19.4212L66.6333 34.6343C66.8369 34.8864 67.2054 34.9349 67.4575 34.7313L68.718 33.7326C68.9701 33.529 69.0186 33.1605 68.815 32.9084L56.8106 17.6953V17.705Z" fill="#CFCFCF"/>
<path d="M68.7498 33.7046L67.4023 34.7676L67.5885 35.0036L68.936 33.9406L68.7498 33.7046Z" fill="#A0A0A0"/>
<path d="M68.1423 34.5654L70.0762 37.0166L70.3122 36.8304L68.3783 34.3792L68.1423 34.5654Z" fill="#A0A0A0"/>
<path d="M68.9413 33.9458L69.9013 35.1675L70.6091 36.6025L70.3182 36.8352L68.3789 34.3821L68.9413 33.9458Z" fill="#CFCFCF"/>
<path d="M67.5938 35.0027L68.5537 36.2341L69.7852 37.2522L70.0858 37.0195L68.1465 34.5664L67.5938 35.0027Z" fill="#CFCFCF"/>
<path d="M44.9354 3.52249L43.5879 4.58545L50.2843 13.0732L51.6318 12.0103L44.9354 3.52249Z" fill="white"/>
<path d="M56.5596 17.9029L54.8848 19.2241L59.4491 25.0095L61.1239 23.6883L56.5596 17.9029Z" fill="#F9F9F9"/>
<path d="M57.6638 15.1059L51.8933 19.658C51.62 19.8736 51.5732 20.2699 51.7888 20.5431L51.939 20.7335C52.1546 21.0067 52.5509 21.0535 52.8242 20.8379L58.5947 16.2858C58.8679 16.0702 58.9147 15.6739 58.6991 15.4006L58.549 15.2103C58.3334 14.9371 57.937 14.8903 57.6638 15.1059Z" fill="#E8CA34"/>
<path d="M52.0503 11.677L49.873 13.3945L53.6927 18.236L55.87 16.5184L52.0503 11.677Z" fill="#CEAC1D"/>
<path d="M44.435 1.47989L41.7324 3.61182L42.9156 5.11145L45.6181 2.97953L44.435 1.47989Z" fill="white"/>
<path d="M44.54 4.17734L43.7559 4.7959L44.8669 6.20419L45.651 5.58563L44.54 4.17734Z" fill="black"/>
<path d="M45.1465 6.3026L45.6895 5.87598" stroke="black" stroke-width="0.5" stroke-miterlimit="10"/>
<path d="M45.8633 7.22343L46.4063 6.78711" stroke="black" stroke-width="0.5" stroke-miterlimit="10"/>
<path d="M46.5918 8.13463L47.1348 7.70801" stroke="black" stroke-width="0.5" stroke-miterlimit="10"/>
<path d="M47.3086 9.05651L47.8613 8.62988" stroke="black" stroke-width="0.5" stroke-miterlimit="10"/>
<path d="M48.0352 9.97734L48.5782 9.54102" stroke="black" stroke-width="0.5" stroke-miterlimit="10"/>
<path d="M49.4805 11.8099L50.0235 11.3735" stroke="black" stroke-width="0.5" stroke-miterlimit="10"/>
<path d="M48.7637 10.8885L49.3067 10.4619" stroke="black" stroke-width="0.5" stroke-miterlimit="10"/>
<path d="M50.209 12.7211L50.752 12.2944" stroke="black" stroke-width="0.5" stroke-miterlimit="10"/>
<path d="M55.3477 19.4503L55.5804 19.2661" stroke="black" stroke-width="0.5" stroke-miterlimit="10"/>
<path d="M55.8418 20.0802L56.0842 19.896" stroke="black" stroke-width="0.5" stroke-miterlimit="10"/>
<path d="M56.3457 20.7107L56.5784 20.5361" stroke="black" stroke-width="0.5" stroke-miterlimit="10"/>
<path d="M56.8516 21.3507L57.0843 21.1665" stroke="black" stroke-width="0.5" stroke-miterlimit="10"/>
<path d="M57.3457 21.9811L57.5784 21.7969" stroke="black" stroke-width="0.5" stroke-miterlimit="10"/>
<path d="M58.3535 23.2511L58.5862 23.0669" stroke="black" stroke-width="0.5" stroke-miterlimit="10"/>
<path d="M57.8496 22.6212L58.0823 22.437" stroke="black" stroke-width="0.5" stroke-miterlimit="10"/>
<path d="M58.8477 23.8913L59.0804 23.707" stroke="black" stroke-width="0.5" stroke-miterlimit="10"/>
<path d="M61.1201 23.6881L59.4453 25.0093L59.8717 25.5498L61.5465 24.2286L61.1201 23.6881Z" fill="#232323"/>
<path d="M61.4113 24.2926L59.9648 25.4336L60.8777 26.5907L62.3241 25.4496L61.4113 24.2926Z" fill="#232323"/>
<path d="M62.4287 25.3526L60.7539 26.6738L61.1803 27.2143L62.8551 25.8931L62.4287 25.3526Z" fill="#232323"/>
<path d="M61.4805 26.9863L62.5615 26.1336L64.6695 28.8055C64.8677 29.0567 64.8259 29.4108 64.5747 29.609L64.392 29.7531C64.1408 29.9513 63.7867 29.9095 63.5885 29.6583L61.4805 26.9863Z" fill="#232323"/>
<path opacity="0.85" d="M61.0703 27.2959L62.9507 25.8126L68.2417 32.5191C68.5841 32.953 68.5101 33.5794 68.0762 33.9217L67.7641 34.1679C67.3302 34.5102 66.7037 34.4363 66.3614 34.0024L61.0703 27.2959Z" fill="#73CAFF"/>
<path d="M66.1973 34.101L68.379 32.3848" stroke="black" stroke-miterlimit="10"/>
<path d="M59.6914 25.8496L59.9435 25.646" stroke="black" stroke-width="0.5" stroke-miterlimit="10"/>
<path d="M60.418 26.7608L60.6701 26.5669" stroke="black" stroke-width="0.5" stroke-miterlimit="10"/>
<path d="M61.1367 27.6821L61.3888 27.4785" stroke="black" stroke-width="0.5" stroke-miterlimit="10"/>
<path d="M61.8633 28.6035L62.1154 28.3999" stroke="black" stroke-width="0.5" stroke-miterlimit="10"/>
<path d="M62.582 29.5147L62.8341 29.3208" stroke="black" stroke-width="0.5" stroke-miterlimit="10"/>
<path d="M64.0352 31.3472L64.2873 31.1533" stroke="black" stroke-width="0.5" stroke-miterlimit="10"/>
<path d="M63.3086 30.436L63.5607 30.2324" stroke="black" stroke-width="0.5" stroke-miterlimit="10"/>
<path d="M65.4805 33.1895L65.7326 32.9858" stroke="black" stroke-width="0.5" stroke-miterlimit="10"/>
<path d="M64.7539 32.2686L65.006 32.0649" stroke="black" stroke-width="0.5" stroke-miterlimit="10"/>
<path d="M69.8672 37.1782L70.5219 36.6618L70.6 36.7607C70.7201 36.913 70.6944 37.1309 70.5421 37.251L70.4355 37.335C70.2833 37.4551 70.0654 37.4294 69.9453 37.2772L69.8672 37.1782Z" fill="#F9F9F9"/>
</g>
<g opacity="0.2">
<path d="M88.5184 41.7031H88.3633L88.373 48.3255L88.5281 48.4613L88.5184 41.7031Z" fill="#232323"/>
<path d="M89.8084 18.6553H87.0352L87.0545 38.0377C87.0545 38.3576 87.3164 38.6194 87.6363 38.6194H89.246C89.566 38.6194 89.8278 38.3576 89.8278 38.028L89.8084 18.6553Z" fill="#CFCFCF"/>
<path d="M89.2983 38.6134L87.582 38.6152L87.5823 38.9158L89.2986 38.914L89.2983 38.6134Z" fill="#A0A0A0"/>
<path d="M88.2897 38.9247L88.293 42.0469L88.5936 42.0466L88.5903 38.9244L88.2897 38.9247Z" fill="#A0A0A0"/>
<path d="M89.3035 38.9204V40.4815L88.9738 42.0425H88.5956L88.5859 38.9204H89.3035Z" fill="#CFCFCF"/>
<path d="M87.5781 38.9204L87.5878 40.4815L87.9175 42.0425H88.2957V38.9204H87.5781Z" fill="#CFCFCF"/>
<path d="M89.2671 0.168613L87.5508 0.17041L87.5621 10.9815L89.2784 10.9797L89.2671 0.168613Z" fill="white"/>
<path d="M89.4809 18.6589L87.3477 18.6611L87.3554 26.0301L89.4886 26.0279L89.4809 18.6589Z" fill="#F9F9F9"/>
<path d="M92.0975 17.1435L84.7475 17.1512C84.3994 17.1516 84.1175 17.434 84.1178 17.7821L84.1181 18.0245C84.1185 18.3726 84.4009 18.6544 84.749 18.6541L92.099 18.6464C92.4471 18.646 92.729 18.3636 92.7287 18.0155L92.7284 17.7731C92.728 17.425 92.4456 17.1431 92.0975 17.1435Z" fill="#E8CA34"/>
<path d="M89.7928 10.979L87.0195 10.9819L87.026 17.1486L89.7992 17.1457L89.7928 10.979Z" fill="#CEAC1D"/>
<path d="M90.1181 -1.74241L86.6758 -1.73877L86.6778 0.17135L90.12 0.167705L90.1181 -1.74241Z" fill="white"/>
<path d="M88.5495 0.431571L87.5508 0.432617L87.5527 2.22638L88.5514 2.22534L88.5495 0.431571Z" fill="black"/>
<path d="M87.6953 2.48242H88.3935" stroke="black" stroke-width="0.5" stroke-miterlimit="10"/>
<path d="M87.6953 3.65576H88.3935" stroke="black" stroke-width="0.5" stroke-miterlimit="10"/>
<path d="M87.7051 4.81885H88.3935" stroke="black" stroke-width="0.5" stroke-miterlimit="10"/>
<path d="M87.7051 5.99268H88.3935" stroke="black" stroke-width="0.5" stroke-miterlimit="10"/>
<path d="M87.7051 7.15625H88.3935" stroke="black" stroke-width="0.5" stroke-miterlimit="10"/>
<path d="M87.7051 9.49268H88.4032" stroke="black" stroke-width="0.5" stroke-miterlimit="10"/>
<path d="M87.7051 8.32963L88.4032 8.31982" stroke="black" stroke-width="0.5" stroke-miterlimit="10"/>
<path d="M87.7051 10.6562H88.4032" stroke="black" stroke-width="0.5" stroke-miterlimit="10"/>
<path d="M87.5879 19.1206H87.8788" stroke="black" stroke-width="0.5" stroke-miterlimit="10"/>
<path d="M87.5879 19.9258H87.8885" stroke="black" stroke-width="0.5" stroke-miterlimit="10"/>
<path d="M87.5879 20.7402H87.8885" stroke="black" stroke-width="0.5" stroke-miterlimit="10"/>
<path d="M87.5879 21.5449H87.8885" stroke="black" stroke-width="0.5" stroke-miterlimit="10"/>
<path d="M87.5879 22.3594L87.8885 22.3496" stroke="black" stroke-width="0.5" stroke-miterlimit="10"/>
<path d="M87.5879 23.9688H87.8885" stroke="black" stroke-width="0.5" stroke-miterlimit="10"/>
<path d="M87.5879 23.1641H87.8885" stroke="black" stroke-width="0.5" stroke-miterlimit="10"/>
<path d="M87.5879 24.7832H87.8885" stroke="black" stroke-width="0.5" stroke-miterlimit="10"/>
<path d="M89.4985 26.028L87.3652 26.0303L87.366 26.7187L89.4992 26.7165L89.4985 26.028Z" fill="#232323"/>
<path d="M89.3541 26.6778L87.5117 26.6797L87.5133 28.1535L89.3556 28.1516L89.3541 26.6778Z" fill="#232323"/>
<path d="M89.5004 28.1418L87.3672 28.144L87.3679 28.8325L89.5012 28.8302L89.5004 28.1418Z" fill="#232323"/>
<path d="M87.7461 28.8315L89.123 28.8301L89.1266 32.2334C89.1269 32.5534 88.8751 32.8057 88.5551 32.8061L88.3224 32.8063C88.0024 32.8067 87.75 32.5548 87.7497 32.2349L87.7461 28.8315Z" fill="#232323"/>
<path opacity="0.85" d="M87.2324 28.832L89.6275 28.8295L89.6364 37.3717C89.637 37.9244 89.1914 38.3709 88.6387 38.3715L88.2412 38.3719C87.6885 38.3725 87.2419 37.9269 87.2414 37.3742L87.2324 28.832Z" fill="#73CAFF"/>
<path d="M87.0547 37.3496H89.8279" stroke="black" stroke-miterlimit="10"/>
<path d="M87.0449 26.8389H87.3649" stroke="black" stroke-width="0.5" stroke-miterlimit="10"/>
<path d="M87.0449 28.0122L87.3649 28.0024" stroke="black" stroke-width="0.5" stroke-miterlimit="10"/>
<path d="M87.0449 29.1758H87.3649" stroke="black" stroke-width="0.5" stroke-miterlimit="10"/>
<path d="M87.0449 30.3394H87.3649" stroke="black" stroke-width="0.5" stroke-miterlimit="10"/>
<path d="M87.0449 31.5122H87.3649" stroke="black" stroke-width="0.5" stroke-miterlimit="10"/>
<path d="M87.0449 33.8491H87.3649" stroke="black" stroke-width="0.5" stroke-miterlimit="10"/>
<path d="M87.0449 32.6758H87.3649" stroke="black" stroke-width="0.5" stroke-miterlimit="10"/>
<path d="M87.0449 36.186H87.3746" stroke="black" stroke-width="0.5" stroke-miterlimit="10"/>
<path d="M87.0449 35.0127H87.3746" stroke="black" stroke-width="0.5" stroke-miterlimit="10"/>
<path d="M88.0312 42.0371L88.8652 42.0362L88.8653 42.1623C88.8655 42.3562 88.7105 42.5115 88.5166 42.5117L88.3808 42.5118C88.1869 42.5121 88.0316 42.3571 88.0314 42.1632L88.0312 42.0371Z" fill="#F9F9F9"/>
</g>
</g>
</g>
</g>
<defs>
<clipPath id="clip0_1174_12498">
<rect width="178" height="178" fill="white"/>
</clipPath>
</defs>
</svg>
