<svg width="181" height="180" viewBox="0 0 181 180" fill="none" xmlns="http://www.w3.org/2000/svg">
<path d="M90.3541 179.056C139.678 179.056 179.663 139.071 179.663 89.7472C179.663 40.4231 139.678 0.437988 90.3541 0.437988C41.03 0.437988 1.04492 40.4231 1.04492 89.7472C1.04492 139.071 41.03 179.056 90.3541 179.056Z" fill="#0E8CB2"/>
<mask id="mask0_1174_12424" style="mask-type:luminance" maskUnits="userSpaceOnUse" x="1" y="0" width="179" height="180">
<path d="M90.3541 179.056C139.678 179.056 179.663 139.071 179.663 89.7472C179.663 40.4231 139.678 0.437988 90.3541 0.437988C41.03 0.437988 1.04492 40.4231 1.04492 89.7472C1.04492 139.071 41.03 179.056 90.3541 179.056Z" fill="white"/>
</mask>
<g mask="url(#mask0_1174_12424)">
<path d="M102.848 -31.4173C116.45 -3.24001 94.9861 32.4389 54.9094 48.2595C14.8326 64.08 -28.6787 54.0584 -42.2809 25.8713C-55.883 -2.30595 -34.4193 -37.9751 5.65749 -53.7957C45.7342 -69.6162 89.2456 -59.5946 102.848 -31.4076V-31.4173Z" fill="#8D8D8D"/>
<path d="M-10.8145 76.9914V147.007L11.3693 164.812H97.7401L134.081 128.471L52.0007 62.5622C36.725 50.3028 14.6774 51.4995 0.822302 65.3449L-10.8047 76.9719L-10.8145 76.9914Z" fill="#E1F0F4"/>
<path d="M105.184 -24.9862C118.786 3.19111 97.3222 38.87 57.2454 54.6906C17.1687 70.5111 -26.3427 60.4895 -39.9448 32.3025C-53.5372 4.12516 -32.0832 -31.5538 7.99356 -47.3743C48.0703 -63.1948 91.5817 -53.1732 105.184 -24.9862Z" fill="#B9B9B9"/>
<path d="M64.2224 -8.01774C70.0019 3.82335 60.6224 18.9336 43.2743 25.7347C25.9262 32.5358 7.18676 28.459 1.4073 16.6179C-4.37216 4.77686 5.0073 -10.3334 22.3554 -17.1345C39.7035 -23.9356 58.443 -19.8588 64.2224 -8.01774Z" fill="#606060"/>
<path d="M-36.7441 12.1132C-37.1625 24.7618 -31.4609 35.9316 -21.3711 43.9197C-18.929 45.8559 -14.3365 45.2721 -11.7776 42.7132L-0.851131 31.8354C1.0559 29.9283 1.24076 27.4959 -0.442482 25.9586C-4.97654 21.8137 -7.67167 16.4332 -7.9441 10.4105C-8.0414 8.26021 -10.1528 6.73265 -12.9841 6.70346L-29.2328 6.54778C-33.0565 6.50887 -36.6371 9.17481 -36.7344 12.1132H-36.7441Z" fill="white"/>
<path d="M-3.50698 53.192C10.7957 57.7553 27.453 57.6969 43.3514 53.6201C47.1946 52.6277 49.559 49.3488 48.3038 46.7607L42.9817 35.7272C42.0476 33.8007 39.3622 32.8569 36.4725 33.4601C28.6887 35.1045 20.7103 35.0947 13.5687 33.2461C11.0195 32.5845 7.86708 33.4893 5.96005 35.3866L-4.96644 46.2645C-7.53508 48.8234 -6.83454 52.1315 -3.50698 53.192Z" fill="white"/>
<path d="M65.8669 44.7275C80.5977 36.6518 91.5534 25.4237 97.3523 13.3491C98.7534 10.4302 96.5252 7.72533 92.7112 7.69614L76.4625 7.54046C73.6215 7.51127 70.7512 9.00965 69.5447 11.1502C66.295 16.9394 61.002 22.3102 54.1523 26.4842C51.7004 27.9729 50.6593 30.4053 51.5836 32.3318L56.9058 43.3653C58.1609 45.9632 62.442 46.6053 65.8669 44.7275Z" fill="white"/>
<path d="M101.992 -4.79721C102.41 -17.4459 96.7087 -28.6156 86.6189 -36.6037C84.1768 -38.5399 79.5843 -37.9561 77.0254 -35.3972L66.0989 -24.5194C64.1919 -22.6123 64.007 -20.1799 65.6903 -18.6426C70.2243 -14.4977 72.9195 -9.11721 73.1919 -3.09451C73.2892 -0.944233 75.4005 0.583336 78.2319 0.612522L94.4805 0.7682C98.3043 0.807117 101.885 -1.85883 101.982 -4.79721H101.992Z" fill="white"/>
</g>
<mask id="mask1_1174_12424" style="mask-type:luminance" maskUnits="userSpaceOnUse" x="1" y="0" width="179" height="180">
<path d="M1.50222 0.447754V80.6986C1.2006 83.6759 1.04492 86.6921 1.04492 89.7472C1.04492 139.067 41.0244 179.056 90.3541 179.056C139.684 179.056 179.663 139.077 179.663 89.7472V0.447754H1.50222Z" fill="white"/>
</mask>
<g mask="url(#mask1_1174_12424)">
<path d="M87.5996 88.5703L92.8926 89.9908C98.5261 91.4989 103.897 93.8341 108.849 96.9184L144.762 119.345L175.371 133.697L169.592 141.121L144.937 137.238L92.0364 116.923L87.6093 88.5605L87.5996 88.5703Z" fill="#FFDAC6"/>
<path d="M167.987 191.579L175.917 141.13L137.961 132.879L86.6372 86.1182L58.6642 94.6511L36.6069 108.234L18.3928 133.045L14.2285 167.4L167.987 191.579Z" fill="#25355B"/>
<path d="M12.457 86.9939L31.1868 99.0782L26.7014 84.2793L12.457 86.9939Z" fill="#414347"/>
<path d="M25.1452 90.6814C38.2083 90.6814 48.7981 80.0916 48.7981 67.0285C48.7981 53.9653 38.2083 43.3755 25.1452 43.3755C12.082 43.3755 1.49219 53.9653 1.49219 67.0285C1.49219 80.0916 12.082 90.6814 25.1452 90.6814Z" fill="#503023"/>
<path d="M68.1402 115.755C73.0927 111.551 63.6062 100.469 58.6635 94.6509L33.2981 64.7515L16.6797 80.5331C16.6797 80.5331 38.8732 106.093 37.5694 112.554C36.2656 119.014 62.3218 120.707 68.1402 115.764V115.755Z" fill="#FBCBB5"/>
<path d="M25.1452 90.6814C38.2083 90.6814 48.7981 80.0916 48.7981 67.0285C48.7981 53.9653 38.2083 43.3755 25.1452 43.3755C12.082 43.3755 1.49219 53.9653 1.49219 67.0285C1.49219 80.0916 12.082 90.6814 25.1452 90.6814Z" fill="#503023"/>
<path d="M25.1452 90.6814C38.2083 90.6814 48.7981 80.0916 48.7981 67.0285C48.7981 53.9653 38.2083 43.3755 25.1452 43.3755C12.082 43.3755 1.49219 53.9653 1.49219 67.0285C1.49219 80.0916 12.082 90.6814 25.1452 90.6814Z" fill="#414347"/>
<path d="M24.2114 83.7151C23.8222 82.8103 18.6071 81.8276 16.2233 83.2189C14.6179 84.1627 13.5087 86.2254 13.8006 87.9379C14.5887 92.5984 26.3617 95.5854 28.2492 92.9584C26.8482 89.9324 26.6633 89.4362 24.2114 83.7151Z" fill="#FFDAC6"/>
<path d="M22.733 73.6834L16.1557 64.8099C16.1168 64.7515 16.0876 64.6931 16.0681 64.6347C15.173 61.7353 15.4551 56.238 21.5265 54.7493C27.6562 53.2412 32.6476 54.4575 35.907 51.7039C39.1665 48.9504 36.8022 46.4499 33.5038 44.9126C37.1427 46.2845 40.4995 48.571 43.1946 51.7429L57.9546 73.1191C57.9643 73.1385 57.9838 73.158 57.9935 73.1775L62.4205 81.6618C63.4519 83.6272 62.9751 86.0499 61.2822 87.4899L58.2659 90.0488C56.6314 91.4304 54.627 92.3061 52.5059 92.5493L37.8043 94.2423C34.5643 94.6121 31.4508 92.8607 30.0984 89.8834L22.7524 73.7223C22.7524 73.7223 22.7427 73.7029 22.733 73.6931V73.6834Z" fill="#FFDAC6"/>
<path d="M43.1849 51.7331L57.9449 73.1094C57.9547 73.1288 57.9741 73.1483 57.9839 73.1677L62.4109 81.6521C63.2185 83.1894 63.1017 84.9991 62.2066 86.4099L36.4909 51.1396C38.826 48.6002 36.5687 46.3429 33.4941 44.9126C37.1331 46.2845 40.4898 48.571 43.1849 51.7429V51.7331Z" fill="#FBCBB5"/>
<path d="M44.6055 62.2803L55.9309 68.2932L52.6033 73.236L44.6055 62.2803Z" fill="#FFDAC6"/>
<path d="M78.7082 60.1007L78.3288 62.4943L73.0066 66.5613L77.5796 67.2813L77.1125 70.2586L67.9082 68.8089L68.2779 66.4348L73.5417 62.3289L69.319 61.6672L69.786 58.6899L78.7082 60.091V60.1007Z" fill="white"/>
<path d="M95.3752 51.9376L94.9179 54.8565L88.4184 59.8284L93.9935 60.7041L93.4195 64.343L82.1816 62.5819L82.6389 59.6824L89.0606 54.6813L83.9038 53.8738L84.4779 50.2349L95.3654 51.9473L95.3752 51.9376Z" fill="white"/>
<path d="M18.0516 135.759L12.9922 177.675L167.987 191.579L99.3241 176.79L59.5198 167.517L33.2398 162.39L18.0516 135.759Z" fill="#1B2A47"/>
</g>
<path d="M136.892 108.768L136.843 108.623L129.234 110.919L129.264 111.074L136.892 108.768Z" fill="#232323"/>
<path d="M159.105 103.427L158.307 100.79L139.937 106.326C139.636 106.414 139.46 106.745 139.548 107.046L140.005 108.574C140.093 108.875 140.424 109.051 140.725 108.963L159.095 103.427H159.105Z" fill="#CFCFCF"/>
<path d="M140.019 108.634L139.527 107.004L139.248 107.088L139.739 108.718L140.019 108.634Z" fill="#A0A0A0"/>
<path d="M139.458 107.768L136.496 108.662L136.58 108.941L139.543 108.048L139.458 107.768Z" fill="#A0A0A0"/>
<path d="M139.752 108.72L138.273 109.167L136.687 109.294L136.58 108.934L139.548 108.048L139.752 108.72Z" fill="#CFCFCF"/>
<path d="M139.255 107.085L137.776 107.533L136.395 108.301L136.502 108.651L139.459 107.766L139.255 107.085Z" fill="#CFCFCF"/>
<path d="M176.456 97.6434L175.965 96.0132L165.718 99.103L166.209 100.733L176.456 97.6434Z" fill="#F6F6F6"/>
<path d="M159 103.114L158.391 101.092L151.404 103.199L152.014 105.22L159 103.114Z" fill="#F9F9F9"/>
<path d="M161.212 105.276L159.038 98.0659C158.959 97.8035 158.682 97.655 158.419 97.7341L157.944 97.8773C157.682 97.9564 157.533 98.2333 157.613 98.4957L159.787 105.706C159.866 105.968 160.143 106.117 160.405 106.038L160.88 105.894C161.142 105.815 161.291 105.538 161.212 105.276Z" fill="#006EAE"/>
<path d="M165.681 98.9414L166.265 100.879C166.324 101.075 166.211 101.271 166.024 101.328L160.528 102.985L159.733 100.349L165.23 98.6913C165.425 98.6323 165.622 98.7458 165.678 98.9321L165.681 98.9414Z" fill="#0B4987"/>
<path d="M178.514 97.9127L177.531 94.6523L175.724 95.1973L176.707 98.4577L178.514 97.9127Z" fill="#F6F6F6"/>
<path d="M176.003 97.0376L175.717 96.0874L174.012 96.6014L174.299 97.5516L176.003 97.0376Z" fill="black"/>
<path d="M152.016 105.224L151.406 103.203L150.754 103.399L151.364 105.421L152.016 105.224Z" fill="#232323"/>
<path d="M151.353 105.267L150.828 103.525L149.431 103.946L149.956 105.688L151.353 105.267Z" fill="#232323"/>
<path d="M150.004 105.837L149.395 103.815L148.742 104.012L149.352 106.034L150.004 105.837Z" fill="#232323"/>
<path d="M148.852 104.365L149.245 105.669L145.901 106.677C145.658 106.75 145.413 106.611 145.343 106.378L145.211 105.94C145.138 105.698 145.277 105.453 145.51 105.382L148.854 104.374L148.852 104.365Z" fill="#232323"/>
<path opacity="0.85" d="M148.709 103.885L149.394 106.158L141.104 108.658C140.684 108.785 140.248 108.55 140.122 108.131L139.891 107.367C139.765 106.948 139.999 106.512 140.418 106.385L148.709 103.885Z" fill="#EEB96C"/>
<path d="M140.6 106.142L141.388 108.769" stroke="black" stroke-miterlimit="10"/>
<path d="M150.484 103.485L150.396 103.184L150.727 103.086L150.815 103.388L150.484 103.485Z" fill="black"/>
<path d="M149.375 103.826L149.287 103.514L149.618 103.417L149.705 103.719L149.375 103.826Z" fill="black"/>
<path d="M148.275 104.157L148.178 103.855L148.509 103.748L148.606 104.059L148.275 104.157Z" fill="black"/>
<path d="M147.166 104.487L147.068 104.186L147.399 104.088L147.496 104.39L147.166 104.487Z" fill="black"/>
<path d="M146.056 104.828L145.969 104.517L146.3 104.419L146.387 104.721L146.056 104.828Z" fill="black"/>
<path d="M143.84 105.49L143.752 105.188L144.083 105.091L144.17 105.392L143.84 105.49Z" fill="black"/>
<path d="M144.947 105.159L144.859 104.847L145.19 104.75L145.278 105.061L144.947 105.159Z" fill="black"/>
<path d="M141.631 106.161L141.533 105.859L141.864 105.752L141.961 106.064L141.631 106.161Z" fill="black"/>
<path d="M142.74 105.83L142.643 105.519L142.973 105.421L143.071 105.723L142.74 105.83Z" fill="black"/>
<path d="M136.417 108.403L136.653 109.185L136.467 109.242C136.327 109.284 136.169 109.199 136.127 109.059L136.046 108.789C136.003 108.649 136.088 108.492 136.228 108.45L136.414 108.394L136.417 108.403Z" fill="#F9F9F9"/>
<path d="M19.1115 69.149C18.8682 69.149 18.6639 68.9544 18.6445 68.7112C18.6347 68.4484 18.625 68.1663 18.625 67.8744V67.7479C18.625 67.4949 18.8488 67.3003 19.1018 67.2906C19.3547 67.2906 19.5591 67.5047 19.5591 67.7674V67.8744C19.5591 68.1468 19.559 68.4095 19.5785 68.6625C19.5882 68.9155 19.3936 69.1393 19.1407 69.149C19.1407 69.149 19.1212 69.149 19.1115 69.149ZM19.238 66.3663C19.238 66.3663 19.1893 66.3663 19.1601 66.3663C18.9072 66.3274 18.732 66.0841 18.7807 65.8312C18.8293 65.5198 18.8974 65.1987 18.985 64.8776C19.0531 64.6344 19.3061 64.4884 19.5493 64.5468C19.7926 64.6149 19.9482 64.8679 19.8801 65.1112C19.8023 65.403 19.7439 65.6852 19.6953 65.9771C19.6563 66.2009 19.4618 66.3663 19.238 66.3663ZM20.1234 63.7393C20.0455 63.7393 19.9677 63.7198 19.8996 63.6809C19.6758 63.5544 19.598 63.2722 19.7245 63.0485C19.8704 62.7858 20.0358 62.5328 20.2207 62.2895L20.6488 62.5036L21.0185 62.7857C20.8142 63.0582 20.6682 63.282 20.5418 63.5058C20.4542 63.6614 20.2985 63.7393 20.1331 63.7393H20.1234ZM21.9623 61.6766C21.8164 61.6766 21.6801 61.6085 21.5828 61.482C21.4369 61.2776 21.4758 60.9857 21.6899 60.8301C21.9526 60.6452 22.225 60.4701 22.5072 60.2949C22.7309 60.1685 23.0131 60.2463 23.1396 60.4701C23.2661 60.6939 23.1882 60.976 22.9645 61.1025C22.7115 61.2485 22.4585 61.4041 22.225 61.5793C22.1472 61.6376 22.0499 61.6668 21.9526 61.6668L21.9623 61.6766ZM24.4239 60.3728C24.2391 60.3728 24.0639 60.2657 23.9958 60.0809C23.8985 59.8376 24.0153 59.5749 24.2585 59.4776C24.5504 59.3609 24.8423 59.2539 25.1439 59.1468C25.3872 59.0593 25.6499 59.1858 25.7374 59.429C25.825 59.6722 25.6985 59.9349 25.4553 60.0225C25.1634 60.1295 24.8812 60.2268 24.5991 60.3436C24.5407 60.363 24.4823 60.3728 24.4239 60.3728ZM27.0607 59.4776C26.8563 59.4776 26.6812 59.3512 26.6131 59.1468C26.5353 58.9036 26.6812 58.6409 26.9245 58.563L27.8196 58.2906C28.0726 58.2225 28.3255 58.3587 28.3936 58.602C28.4618 58.8452 28.3255 59.1079 28.0823 59.176L27.1969 59.4387C27.1969 59.4387 27.1093 59.4582 27.0607 59.4582V59.4776ZM29.7266 58.6701C29.532 58.6701 29.3472 58.5436 29.2888 58.349C29.2109 58.1058 29.3472 57.8431 29.5904 57.7652L30.4661 57.4733C30.7093 57.3857 30.972 57.522 31.0596 57.7652C31.1472 58.0085 31.0109 58.2712 30.7677 58.3587L29.8823 58.6603C29.8823 58.6603 29.785 58.6798 29.7364 58.6798L29.7266 58.6701ZM32.3536 57.736C32.1688 57.736 31.9936 57.629 31.9255 57.4441C31.8282 57.2009 31.9547 56.9382 32.1882 56.8409C32.4704 56.7339 32.7526 56.6171 33.0347 56.4906C33.2682 56.3933 33.5407 56.4906 33.6477 56.7339C33.745 56.9674 33.6477 57.2398 33.4045 57.3468C33.1126 57.4733 32.8207 57.5901 32.5288 57.7068C32.4704 57.7263 32.412 57.736 32.3634 57.736H32.3536ZM34.8834 56.5685C34.718 56.5685 34.5623 56.4809 34.4747 56.3252C34.3482 56.1014 34.4358 55.8193 34.6596 55.6928C34.9223 55.5468 35.185 55.3912 35.4282 55.2355C35.6423 55.0993 35.9342 55.1576 36.0704 55.3717C36.2066 55.5858 36.1482 55.8776 35.9342 56.0139C35.6618 56.189 35.3893 56.3544 35.1072 56.5101C35.039 56.549 34.9612 56.5685 34.8834 56.5685ZM37.1504 54.9533C37.0239 54.9533 36.9072 54.9047 36.8099 54.8074C36.6347 54.6225 36.6445 54.3306 36.8293 54.1458C37.0434 53.9414 37.238 53.7371 37.4228 53.5133C37.5882 53.3187 37.8801 53.2895 38.0747 53.4452C38.2693 53.6009 38.2985 53.9025 38.1428 54.0971C37.9385 54.3501 37.7147 54.5933 37.4715 54.8171C37.3839 54.9047 37.2672 54.9436 37.1504 54.9436V54.9533ZM38.7363 52.6863C38.678 52.6863 38.6196 52.6766 38.5612 52.6474C38.3277 52.5501 38.2109 52.2776 38.3082 52.0441C38.3569 51.9176 38.4055 51.7912 38.4445 51.6647C38.4931 51.5187 38.532 51.363 38.5709 51.2171C38.6391 50.9739 38.892 50.8182 39.1353 50.8863C39.3785 50.9544 39.5342 51.2074 39.4661 51.4506C39.4272 51.616 39.3785 51.7814 39.3201 51.9468C39.2715 52.1025 39.2228 52.2485 39.1547 52.3944C39.0866 52.5793 38.9115 52.6863 38.7266 52.6863H38.7363ZM39.3396 49.9814C39.3396 49.9814 39.3104 49.9814 39.3007 49.9814C39.0477 49.962 38.8531 49.7382 38.8823 49.4755C38.9115 49.1641 38.9212 48.8722 38.9212 48.5803C38.9212 48.3274 39.1353 48.123 39.3882 48.123C39.6412 48.123 39.8455 48.3371 39.8455 48.5998C39.8455 48.9112 39.8261 49.2322 39.7969 49.5631C39.7774 49.8063 39.5731 49.9912 39.3396 49.9912V49.9814Z" fill="#003366"/>
</svg>
