<svg width="55" height="16" viewBox="0 0 55 16" fill="none" xmlns="http://www.w3.org/2000/svg">
<g clip-path="url(#clip0_1174_12068)">
<path d="M5.778 3.63817C6.11284 3.39726 6.54566 3.2768 7.07576 3.2768C7.52132 3.28196 7.96152 3.36698 8.3742 3.52802C8.86069 3.7174 9.31296 3.97828 9.71624 4.301L11.3495 1.22584C10.5745 0.826464 9.75181 0.519205 8.89961 0.311145C8.09908 0.110171 7.27506 0.00517451 6.44769 -0.000622823C5.674 -0.0109292 4.905 0.112103 4.17627 0.361388C3.53611 0.581043 2.95098 0.926951 2.45912 1.37657C1.98537 1.82038 1.6143 2.35438 1.37005 2.94442C1.10499 3.59372 0.97347 4.28618 0.983536 4.9838C0.983536 5.73423 1.10566 6.3539 1.34992 6.84281C1.57605 7.30982 1.90418 7.72465 2.31283 8.05896C2.72015 8.38554 3.17913 8.64642 3.67367 8.83194C4.18298 9.02647 4.70302 9.20426 5.2338 9.36465C5.68138 9.51216 6.06118 9.64614 6.37454 9.7666C6.64497 9.8658 6.9013 9.99785 7.13616 10.1595C7.31264 10.2793 7.45623 10.4378 7.55488 10.622C7.64278 10.8082 7.68573 11.0111 7.68036 11.2153C7.68036 11.5902 7.51663 11.9251 7.1885 12.2202C6.86037 12.5152 6.36179 12.6627 5.69144 12.6627C5.07812 12.6562 4.47286 12.5261 3.91524 12.2807C3.31467 12.0263 2.7074 11.6378 2.09341 11.1148L0.333984 14.2911C2.03704 15.4299 3.88639 15.9994 5.88268 15.9994C6.8456 15.9994 7.70787 15.8757 8.46814 15.6277C9.22841 15.3797 9.87058 15.0312 10.3946 14.5822C10.9154 14.1371 11.3233 13.5838 11.5877 12.9648C11.8682 12.2942 12.0071 11.5767 11.9964 10.8539C11.9964 9.70154 11.6857 8.76688 11.065 8.04994C10.4443 7.333 9.46327 6.76036 8.12323 6.332C7.78772 6.22443 7.44885 6.12394 7.1073 6.03054C6.79058 5.94551 6.48258 5.83472 6.18599 5.6988C5.93905 5.5893 5.71493 5.43599 5.52637 5.2479C5.35593 5.06689 5.26601 4.8292 5.27541 4.58507C5.26802 4.20889 5.45658 3.85396 5.778 3.63817Z" fill="#2C0022"/>
<path d="M54.3339 3.75914V0.423096H45.3516V15.578H54.3339V12.2413H49.4555V9.62862H54.3339V6.29193H49.4555V3.75914H54.3339Z" fill="#2C0022"/>
<path d="M13.8105 0.423096V15.578H23.4619V12.2413H17.9145V0.423096H13.8105Z" fill="#2C0022"/>
<path d="M43.4044 0.423096H32.5586V3.75978H35.9298V15.578H40.0338V3.75978H43.4044V0.423096Z" fill="#2C0022"/>
<path d="M25.4395 0.423096V3.41259L27.5565 9.24664H25.4395V12.2413H28.6436L29.8541 15.578H34.2305L28.2215 0.423096H25.4395Z" fill="#2C0022"/>
</g>
<defs>
<clipPath id="clip0_1174_12068">
<rect width="54" height="16" fill="white" transform="translate(0.333984)"/>
</clipPath>
</defs>
</svg>
